<svg width="24" height="24" viewBox="0 0 24 24" fill="none" xmlns="http://www.w3.org/2000/svg">
<path d="M22.4375 5.8125C22.7188 5.8125 23 5.57812 23 5.25V3.75C23 3.46875 22.7188 3.1875 22.4375 3.1875H2.5625C2.23438 3.1875 2 3.46875 2 3.75V5.25C2 5.57812 2.23438 5.8125 2.5625 5.8125H22.4375ZM22.4375 13.3125C22.7188 13.3125 23 13.0781 23 12.75V11.25C23 10.9688 22.7188 10.6875 22.4375 10.6875H2.5625C2.23438 10.6875 2 10.9688 2 11.25V12.75C2 13.0781 2.23438 13.3125 2.5625 13.3125H22.4375ZM22.4375 20.8125C22.7188 20.8125 23 20.5781 23 20.25V18.75C23 18.4688 22.7188 18.1875 22.4375 18.1875H2.5625C2.23438 18.1875 2 18.4688 2 18.75V20.25C2 20.5781 2.23438 20.8125 2.5625 20.8125H22.4375Z" fill="#333333"/>
</svg>
