<svg width="24" height="24" viewBox="0 0 24 24" fill="none" xmlns="http://www.w3.org/2000/svg">
<path fill-rule="evenodd" clip-rule="evenodd" d="M23.9999 7.22191C23.9999 10.1059 21.6718 12.4438 18.7999 12.4438C15.928 12.4438 13.5999 10.1059 13.5999 7.22191C13.5999 4.33793 15.928 2 18.7999 2C21.6718 2 23.9999 4.33793 23.9999 7.22191ZM2.74309 10.0337H5.48595V18.2969H6.85738V10.0337H9.60023V18.2969H10.9717V10.0337H13.7145V18.2969H15.0859V11.708L17.8288 12.8455V18.2969H18.4609C18.6609 18.2969 18.8342 18.3651 18.9806 18.5013C19.127 18.6376 19.2002 18.799 19.2002 18.9855V19.6741H1.37166V18.9855C1.37166 18.799 1.44488 18.6376 1.5913 18.5013C1.73773 18.3651 1.91095 18.2969 2.11095 18.2969H2.74309V10.0337ZM19.8321 20.3628C20.0321 20.3628 20.2054 20.4309 20.3518 20.5672C20.4982 20.7035 20.5714 20.8649 20.5714 21.0514V22.4286H0V21.0514C0 20.8649 0.0732136 20.7035 0.219643 20.5672C0.366072 20.4309 0.539285 20.3628 0.739286 20.3628H19.8321ZM10.2857 3.14769L13.9092 4.52255L13.2651 6.2464V8.17241C13.2651 8.17241 13.7172 9.34512 13.5172 9.34512H2.11071C1.91071 9.34512 1.7375 9.27698 1.59107 9.14069C1.44464 9.0044 1.37143 8.84301 1.37143 8.65652H0V7.27931L10.2857 3.14769ZM20.9142 5.15606V9.17291C20.9142 9.25062 20.8859 9.31787 20.8294 9.37465C20.7728 9.43144 20.7059 9.45983 20.6285 9.45983H20.057C19.9797 9.45983 19.9127 9.43144 19.8562 9.37465C19.7996 9.31787 19.7713 9.25062 19.7713 9.17291V7.73832H17.4856V9.17291C17.4856 9.25062 17.4573 9.31787 17.4008 9.37465C17.3442 9.43144 17.2773 9.45983 17.1999 9.45983H16.6285C16.5511 9.45983 16.4841 9.43144 16.4276 9.37465C16.371 9.31787 16.3428 9.25062 16.3428 9.17291V5.15606C16.3428 5.07835 16.371 5.01111 16.4276 4.95432C16.4841 4.89753 16.5511 4.86914 16.6285 4.86914H17.1999C17.2773 4.86914 17.3442 4.89753 17.4008 4.95432C17.4573 5.01111 17.4856 5.07835 17.4856 5.15606V6.59065H19.7713V5.15606C19.7713 5.07835 19.7996 5.01111 19.8562 4.95432C19.9127 4.89753 19.9797 4.86914 20.057 4.86914H20.6285C20.7059 4.86914 20.7728 4.89753 20.8294 4.95432C20.8859 5.01111 20.9142 5.07835 20.9142 5.15606Z" fill="#333333"/>
</svg>
