<svg width="24" height="24" viewBox="0 0 24 24" fill="none" xmlns="http://www.w3.org/2000/svg">
<path d="M22.5044 17.931H8.06689V17.181C8.06689 16.7685 7.75752 16.431 7.37939 16.431H6.00439C5.62627 16.431 5.31689 16.7685 5.31689 17.181V17.931H1.87939C1.50127 17.931 1.19189 18.2685 1.19189 18.681V20.181C1.19189 20.5935 1.50127 20.931 1.87939 20.931H5.31689V21.681C5.31689 22.0935 5.62627 22.431 6.00439 22.431H7.37939C7.75752 22.431 8.06689 22.0935 8.06689 21.681V20.931H22.5044C22.8825 20.931 23.1919 20.5935 23.1919 20.181V18.681C23.1919 18.2685 22.8825 17.931 22.5044 17.931ZM22.5044 10.431H19.0669V9.68102C19.0669 9.26852 18.7575 8.93102 18.3794 8.93102H17.0044C16.6263 8.93102 16.3169 9.26852 16.3169 9.68102V10.431H1.87939C1.50127 10.431 1.19189 10.7685 1.19189 11.181V12.681C1.19189 13.0935 1.50127 13.431 1.87939 13.431H16.3169V14.181C16.3169 14.5935 16.6263 14.931 17.0044 14.931H18.3794C18.7575 14.931 19.0669 14.5935 19.0669 14.181V13.431H22.5044C22.8825 13.431 23.1919 13.0935 23.1919 12.681V11.181C23.1919 10.7685 22.8825 10.431 22.5044 10.431ZM22.5044 2.93102H13.5669V2.18102C13.5669 1.76851 13.2575 1.43102 12.8794 1.43102H11.5044C11.1263 1.43102 10.8169 1.76851 10.8169 2.18102V2.93102H1.87939C1.50127 2.93102 1.19189 3.26851 1.19189 3.68102V5.18102C1.19189 5.59351 1.50127 5.93102 1.87939 5.93102H10.8169V6.68102C10.8169 7.09351 11.1263 7.43102 11.5044 7.43102H12.8794C13.2575 7.43102 13.5669 7.09351 13.5669 6.68102V5.93102H22.5044C22.8825 5.93102 23.1919 5.59351 23.1919 5.18102V3.68102C23.1919 3.26851 22.8825 2.93102 22.5044 2.93102Z" fill="#333333"/>
</svg>
