<?xml version="1.0" encoding="UTF-8"?>
<svg width="293px" height="114px" viewBox="0 0 293 114" version="1.1" xmlns="http://www.w3.org/2000/svg" xmlns:xlink="http://www.w3.org/1999/xlink">
    <title>big-title</title>
    <defs>
        <path d="M13.467,50.67 C17.0403333,50.67 19.765,49.6538333 21.641,47.6215 C23.517,45.5891667 24.455,42.6746667 24.455,38.878 L24.455,38.878 L24.455,3.1 L17.353,3.1 L17.353,39.414 C17.353,41.022 17.0291667,42.1833333 16.3815,42.898 C15.7338333,43.6126667 14.807,43.97 13.601,43.97 C12.395,43.97 11.4681667,43.6126667 10.8205,42.898 C10.1728333,42.1833333 9.849,41.022 9.849,39.414 L9.849,39.414 L9.849,3.1 L2.479,3.1 L2.479,38.878 C2.479,42.6746667 3.417,45.5891667 5.293,47.6215 C7.169,49.6538333 9.89366667,50.67 13.467,50.67 Z M37.051,50 L37.051,3.1 L29.681,3.1 L29.681,50 L37.051,50 Z M64.521,50 C68.1836667,50 70.9306667,49.0173333 72.762,47.052 C74.5933333,45.0866667 75.509,42.2056667 75.509,38.409 L75.509,38.409 L75.509,14.691 C75.509,10.8943333 74.5933333,8.01333333 72.762,6.048 C70.9306667,4.08266667 68.1836667,3.1 64.521,3.1 L64.521,3.1 L53.265,3.1 L53.265,50 L64.521,50 Z M64.387,43.3 L60.635,43.3 L60.635,9.8 L64.387,9.8 C65.593,9.8 66.5198333,10.1573333 67.1675,10.872 C67.8151667,11.5866667 68.139,12.748 68.139,14.356 L68.139,14.356 L68.139,38.744 C68.139,40.352 67.8151667,41.5133333 67.1675,42.228 C66.5198333,42.9426667 65.593,43.3 64.387,43.3 L64.387,43.3 Z M100.567,50 L100.567,43.3 L87.837,43.3 L87.837,28.895 L97.954,28.895 L97.954,22.195 L87.837,22.195 L87.837,9.8 L100.567,9.8 L100.567,3.1 L80.467,3.1 L80.467,50 L100.567,50 Z M114.503,50.67 C118.121,50.67 120.879167,49.6426667 122.7775,47.588 C124.675833,45.5333333 125.625,42.5853333 125.625,38.744 C125.625,35.796 125.044333,33.2276667 123.883,31.039 C122.721667,28.8503333 120.6,26.416 117.518,23.736 C115.106,21.6366667 113.442167,19.85 112.5265,18.376 C111.610833,16.902 111.153,15.3163333 111.153,13.619 C111.153,10.6263333 112.381333,9.13 114.838,9.13 C116.044,9.13 116.959667,9.4985 117.585,10.2355 C118.210333,10.9725 118.523,12.145 118.523,13.753 L118.523,13.753 L118.523,16.165 L125.491,16.165 L125.491,14.222 C125.491,10.4253333 124.5865,7.51083333 122.7775,5.4785 C120.9685,3.44616667 118.299667,2.43 114.771,2.43 C111.197667,2.43 108.473,3.44616667 106.597,5.4785 C104.721,7.51083333 103.783,10.3806667 103.783,14.088 C103.783,16.8126667 104.386,19.2581667 105.592,21.4245 C106.798,23.5908333 108.919667,26.014 111.957,28.694 C114.369,30.7933333 116.021667,32.5911667 116.915,34.0875 C117.808333,35.5838333 118.255,37.3146667 118.255,39.28 C118.255,40.9326667 117.931167,42.1275 117.2835,42.8645 C116.635833,43.6015 115.686667,43.97 114.436,43.97 C111.89,43.97 110.617,42.4513333 110.617,39.414 L110.617,39.414 L110.617,36.198 L103.649,36.198 L103.649,38.878 C103.649,42.6746667 104.564667,45.5891667 106.396,47.6215 C108.227333,49.6538333 110.929667,50.67 114.503,50.67 Z M137.216,50 L137.216,3.1 L129.846,3.1 L129.846,50 L137.216,50 Z M153.162,50.67 C156.735333,50.67 159.46,49.6538333 161.336,47.6215 C163.212,45.5891667 164.15,42.6746667 164.15,38.878 L164.15,38.878 L164.15,23.535 L153.497,23.535 L153.497,30.235 L157.182,30.235 L157.182,39.414 C157.182,42.4513333 155.909,43.97 153.363,43.97 C150.817,43.97 149.544,42.4513333 149.544,39.414 L149.544,39.414 L149.544,13.753 C149.544,10.671 150.817,9.13 153.363,9.13 C155.909,9.13 157.182,10.671 157.182,13.753 L157.182,13.753 L157.182,18.242 L164.15,18.242 L164.15,14.222 C164.15,10.4253333 163.212,7.51083333 161.336,5.4785 C159.46,3.44616667 156.735333,2.43 153.162,2.43 C149.588667,2.43 146.864,3.44616667 144.988,5.4785 C143.112,7.51083333 142.174,10.4253333 142.174,14.222 L142.174,14.222 L142.174,38.878 C142.174,42.6746667 143.112,45.5891667 144.988,47.6215 C146.864,49.6538333 149.588667,50.67 153.162,50.67 Z M175.473,50 L175.473,15.763 L175.607,15.763 L184.451,50 L192.022,50 L192.022,3.1 L185.456,3.1 L185.456,31.173 L185.322,31.173 L178.153,3.1 L168.907,3.1 L168.907,50 L175.473,50 Z M221.502,38.342 L221.502,29.163 L230.48,29.163 L230.48,23.937 L221.502,23.937 L221.502,14.892 L216.276,14.892 L216.276,23.937 L207.298,23.937 L207.298,29.163 L216.276,29.163 L216.276,38.342 L221.502,38.342 Z M14.003,106 C17.6656667,106 20.4126667,105.017333 22.244,103.052 C24.0753333,101.086667 24.991,98.2056667 24.991,94.409 L24.991,94.409 L24.991,70.691 C24.991,66.8943333 24.0753333,64.0133333 22.244,62.048 C20.4126667,60.0826667 17.6656667,59.1 14.003,59.1 L14.003,59.1 L2.747,59.1 L2.747,106 L14.003,106 Z M13.869,99.3 L10.117,99.3 L10.117,65.8 L13.869,65.8 C15.075,65.8 16.0018333,66.1573333 16.6495,66.872 C17.2971667,67.5866667 17.621,68.748 17.621,70.356 L17.621,70.356 L17.621,94.744 C17.621,96.352 17.2971667,97.5133333 16.6495,98.228 C16.0018333,98.9426667 15.075,99.3 13.869,99.3 L13.869,99.3 Z M50.049,106 L50.049,99.3 L37.319,99.3 L37.319,84.895 L47.436,84.895 L47.436,78.195 L37.319,78.195 L37.319,65.8 L50.049,65.8 L50.049,59.1 L29.949,59.1 L29.949,106 L50.049,106 Z M69.211,106 L76.313,59.1 L69.546,59.1 L64.722,95.481 L64.588,95.481 L59.764,59.1 L52.327,59.1 L59.429,106 L69.211,106 Z M99.964,106 L99.964,99.3 L87.234,99.3 L87.234,84.895 L97.351,84.895 L97.351,78.195 L87.234,78.195 L87.234,65.8 L99.964,65.8 L99.964,59.1 L79.864,59.1 L79.864,106 L99.964,106 Z M123.682,106 L123.682,99.3 L111.555,99.3 L111.555,59.1 L104.185,59.1 L104.185,106 L123.682,106 Z M137.618,106.67 C141.236,106.67 144.005333,105.642667 145.926,103.588 C147.846667,101.533333 148.807,98.63 148.807,94.878 L148.807,94.878 L148.807,70.222 C148.807,66.47 147.846667,63.5666667 145.926,61.512 C144.005333,59.4573333 141.236,58.43 137.618,58.43 C134,58.43 131.230667,59.4573333 129.31,61.512 C127.389333,63.5666667 126.429,66.47 126.429,70.222 L126.429,70.222 L126.429,94.878 C126.429,98.63 127.389333,101.533333 129.31,103.588 C131.230667,105.642667 134,106.67 137.618,106.67 Z M137.618,99.97 C135.072,99.97 133.799,98.429 133.799,95.347 L133.799,95.347 L133.799,69.753 C133.799,66.671 135.072,65.13 137.618,65.13 C140.164,65.13 141.437,66.671 141.437,69.753 L141.437,69.753 L141.437,95.347 C141.437,98.429 140.164,99.97 137.618,99.97 Z M161.135,106 L161.135,86.905 L164.619,86.905 C168.281667,86.905 171.028667,85.9223333 172.86,83.957 C174.691333,81.9916667 175.607,79.1106667 175.607,75.314 L175.607,75.314 L175.607,70.691 C175.607,66.8943333 174.691333,64.0133333 172.86,62.048 C171.028667,60.0826667 168.281667,59.1 164.619,59.1 L164.619,59.1 L153.765,59.1 L153.765,106 L161.135,106 Z M164.619,80.205 L161.135,80.205 L161.135,65.8 L164.619,65.8 C165.825,65.8 166.7295,66.135 167.3325,66.805 C167.9355,67.475 168.237,68.614 168.237,70.222 L168.237,70.222 L168.237,75.783 C168.237,77.391 167.9355,78.53 167.3325,79.2 C166.7295,79.87 165.825,80.205 164.619,80.205 L164.619,80.205 Z M186.059,106 L186.059,70.49 L186.193,70.49 L191.553,106 L197.717,106 L203.077,70.49 L203.211,70.49 L203.211,106 L210.179,106 L210.179,59.1 L199.66,59.1 L194.97,92.667 L194.836,92.667 L190.146,59.1 L179.627,59.1 L179.627,106 L186.059,106 Z M235.773,106 L235.773,99.3 L223.043,99.3 L223.043,84.895 L233.16,84.895 L233.16,78.195 L223.043,78.195 L223.043,65.8 L235.773,65.8 L235.773,59.1 L215.673,59.1 L215.673,106 L235.773,106 Z M246.56,106 L246.56,71.763 L246.694,71.763 L255.538,106 L263.109,106 L263.109,59.1 L256.543,59.1 L256.543,87.173 L256.409,87.173 L249.24,59.1 L239.994,59.1 L239.994,106 L246.56,106 Z M281.735,106 L281.735,65.8 L289.44,65.8 L289.44,59.1 L266.66,59.1 L266.66,65.8 L274.365,65.8 L274.365,106 L281.735,106 Z" id="path-1"></path>
        <path d="M15.467,48.67 C19.0403333,48.67 21.765,47.6538333 23.641,45.6215 C25.517,43.5891667 26.455,40.6746667 26.455,36.878 L26.455,36.878 L26.455,1.1 L19.353,1.1 L19.353,37.414 C19.353,39.022 19.0291667,40.1833333 18.3815,40.898 C17.7338333,41.6126667 16.807,41.97 15.601,41.97 C14.395,41.97 13.4681667,41.6126667 12.8205,40.898 C12.1728333,40.1833333 11.849,39.022 11.849,37.414 L11.849,37.414 L11.849,1.1 L4.479,1.1 L4.479,36.878 C4.479,40.6746667 5.417,43.5891667 7.293,45.6215 C9.169,47.6538333 11.8936667,48.67 15.467,48.67 Z M39.051,48 L39.051,1.1 L31.681,1.1 L31.681,48 L39.051,48 Z M66.521,48 C70.1836667,48 72.9306667,47.0173333 74.762,45.052 C76.5933333,43.0866667 77.509,40.2056667 77.509,36.409 L77.509,36.409 L77.509,12.691 C77.509,8.89433333 76.5933333,6.01333333 74.762,4.048 C72.9306667,2.08266667 70.1836667,1.1 66.521,1.1 L66.521,1.1 L55.265,1.1 L55.265,48 L66.521,48 Z M66.387,41.3 L62.635,41.3 L62.635,7.8 L66.387,7.8 C67.593,7.8 68.5198333,8.15733333 69.1675,8.872 C69.8151667,9.58666667 70.139,10.748 70.139,12.356 L70.139,12.356 L70.139,36.744 C70.139,38.352 69.8151667,39.5133333 69.1675,40.228 C68.5198333,40.9426667 67.593,41.3 66.387,41.3 L66.387,41.3 Z M102.567,48 L102.567,41.3 L89.837,41.3 L89.837,26.895 L99.954,26.895 L99.954,20.195 L89.837,20.195 L89.837,7.8 L102.567,7.8 L102.567,1.1 L82.467,1.1 L82.467,48 L102.567,48 Z M116.503,48.67 C120.121,48.67 122.879167,47.6426667 124.7775,45.588 C126.675833,43.5333333 127.625,40.5853333 127.625,36.744 C127.625,33.796 127.044333,31.2276667 125.883,29.039 C124.721667,26.8503333 122.6,24.416 119.518,21.736 C117.106,19.6366667 115.442167,17.85 114.5265,16.376 C113.610833,14.902 113.153,13.3163333 113.153,11.619 C113.153,8.62633333 114.381333,7.13 116.838,7.13 C118.044,7.13 118.959667,7.4985 119.585,8.2355 C120.210333,8.9725 120.523,10.145 120.523,11.753 L120.523,11.753 L120.523,14.165 L127.491,14.165 L127.491,12.222 C127.491,8.42533333 126.5865,5.51083333 124.7775,3.4785 C122.9685,1.44616667 120.299667,0.43 116.771,0.43 C113.197667,0.43 110.473,1.44616667 108.597,3.4785 C106.721,5.51083333 105.783,8.38066667 105.783,12.088 C105.783,14.8126667 106.386,17.2581667 107.592,19.4245 C108.798,21.5908333 110.919667,24.014 113.957,26.694 C116.369,28.7933333 118.021667,30.5911667 118.915,32.0875 C119.808333,33.5838333 120.255,35.3146667 120.255,37.28 C120.255,38.9326667 119.931167,40.1275 119.2835,40.8645 C118.635833,41.6015 117.686667,41.97 116.436,41.97 C113.89,41.97 112.617,40.4513333 112.617,37.414 L112.617,37.414 L112.617,34.198 L105.649,34.198 L105.649,36.878 C105.649,40.6746667 106.564667,43.5891667 108.396,45.6215 C110.227333,47.6538333 112.929667,48.67 116.503,48.67 Z M139.216,48 L139.216,1.1 L131.846,1.1 L131.846,48 L139.216,48 Z M155.162,48.67 C158.735333,48.67 161.46,47.6538333 163.336,45.6215 C165.212,43.5891667 166.15,40.6746667 166.15,36.878 L166.15,36.878 L166.15,21.535 L155.497,21.535 L155.497,28.235 L159.182,28.235 L159.182,37.414 C159.182,40.4513333 157.909,41.97 155.363,41.97 C152.817,41.97 151.544,40.4513333 151.544,37.414 L151.544,37.414 L151.544,11.753 C151.544,8.671 152.817,7.13 155.363,7.13 C157.909,7.13 159.182,8.671 159.182,11.753 L159.182,11.753 L159.182,16.242 L166.15,16.242 L166.15,12.222 C166.15,8.42533333 165.212,5.51083333 163.336,3.4785 C161.46,1.44616667 158.735333,0.43 155.162,0.43 C151.588667,0.43 148.864,1.44616667 146.988,3.4785 C145.112,5.51083333 144.174,8.42533333 144.174,12.222 L144.174,12.222 L144.174,36.878 C144.174,40.6746667 145.112,43.5891667 146.988,45.6215 C148.864,47.6538333 151.588667,48.67 155.162,48.67 Z M177.473,48 L177.473,13.763 L177.607,13.763 L186.451,48 L194.022,48 L194.022,1.1 L187.456,1.1 L187.456,29.173 L187.322,29.173 L180.153,1.1 L170.907,1.1 L170.907,48 L177.473,48 Z M223.502,36.342 L223.502,27.163 L232.48,27.163 L232.48,21.937 L223.502,21.937 L223.502,12.892 L218.276,12.892 L218.276,21.937 L209.298,21.937 L209.298,27.163 L218.276,27.163 L218.276,36.342 L223.502,36.342 Z M16.003,104 C19.6656667,104 22.4126667,103.017333 24.244,101.052 C26.0753333,99.0866667 26.991,96.2056667 26.991,92.409 L26.991,92.409 L26.991,68.691 C26.991,64.8943333 26.0753333,62.0133333 24.244,60.048 C22.4126667,58.0826667 19.6656667,57.1 16.003,57.1 L16.003,57.1 L4.747,57.1 L4.747,104 L16.003,104 Z M15.869,97.3 L12.117,97.3 L12.117,63.8 L15.869,63.8 C17.075,63.8 18.0018333,64.1573333 18.6495,64.872 C19.2971667,65.5866667 19.621,66.748 19.621,68.356 L19.621,68.356 L19.621,92.744 C19.621,94.352 19.2971667,95.5133333 18.6495,96.228 C18.0018333,96.9426667 17.075,97.3 15.869,97.3 L15.869,97.3 Z M52.049,104 L52.049,97.3 L39.319,97.3 L39.319,82.895 L49.436,82.895 L49.436,76.195 L39.319,76.195 L39.319,63.8 L52.049,63.8 L52.049,57.1 L31.949,57.1 L31.949,104 L52.049,104 Z M71.211,104 L78.313,57.1 L71.546,57.1 L66.722,93.481 L66.588,93.481 L61.764,57.1 L54.327,57.1 L61.429,104 L71.211,104 Z M101.964,104 L101.964,97.3 L89.234,97.3 L89.234,82.895 L99.351,82.895 L99.351,76.195 L89.234,76.195 L89.234,63.8 L101.964,63.8 L101.964,57.1 L81.864,57.1 L81.864,104 L101.964,104 Z M125.682,104 L125.682,97.3 L113.555,97.3 L113.555,57.1 L106.185,57.1 L106.185,104 L125.682,104 Z M139.618,104.67 C143.236,104.67 146.005333,103.642667 147.926,101.588 C149.846667,99.5333333 150.807,96.63 150.807,92.878 L150.807,92.878 L150.807,68.222 C150.807,64.47 149.846667,61.5666667 147.926,59.512 C146.005333,57.4573333 143.236,56.43 139.618,56.43 C136,56.43 133.230667,57.4573333 131.31,59.512 C129.389333,61.5666667 128.429,64.47 128.429,68.222 L128.429,68.222 L128.429,92.878 C128.429,96.63 129.389333,99.5333333 131.31,101.588 C133.230667,103.642667 136,104.67 139.618,104.67 Z M139.618,97.97 C137.072,97.97 135.799,96.429 135.799,93.347 L135.799,93.347 L135.799,67.753 C135.799,64.671 137.072,63.13 139.618,63.13 C142.164,63.13 143.437,64.671 143.437,67.753 L143.437,67.753 L143.437,93.347 C143.437,96.429 142.164,97.97 139.618,97.97 Z M163.135,104 L163.135,84.905 L166.619,84.905 C170.281667,84.905 173.028667,83.9223333 174.86,81.957 C176.691333,79.9916667 177.607,77.1106667 177.607,73.314 L177.607,73.314 L177.607,68.691 C177.607,64.8943333 176.691333,62.0133333 174.86,60.048 C173.028667,58.0826667 170.281667,57.1 166.619,57.1 L166.619,57.1 L155.765,57.1 L155.765,104 L163.135,104 Z M166.619,78.205 L163.135,78.205 L163.135,63.8 L166.619,63.8 C167.825,63.8 168.7295,64.135 169.3325,64.805 C169.9355,65.475 170.237,66.614 170.237,68.222 L170.237,68.222 L170.237,73.783 C170.237,75.391 169.9355,76.53 169.3325,77.2 C168.7295,77.87 167.825,78.205 166.619,78.205 L166.619,78.205 Z M188.059,104 L188.059,68.49 L188.193,68.49 L193.553,104 L199.717,104 L205.077,68.49 L205.211,68.49 L205.211,104 L212.179,104 L212.179,57.1 L201.66,57.1 L196.97,90.667 L196.836,90.667 L192.146,57.1 L181.627,57.1 L181.627,104 L188.059,104 Z M237.773,104 L237.773,97.3 L225.043,97.3 L225.043,82.895 L235.16,82.895 L235.16,76.195 L225.043,76.195 L225.043,63.8 L237.773,63.8 L237.773,57.1 L217.673,57.1 L217.673,104 L237.773,104 Z M248.56,104 L248.56,69.763 L248.694,69.763 L257.538,104 L265.109,104 L265.109,57.1 L258.543,57.1 L258.543,85.173 L258.409,85.173 L251.24,57.1 L241.994,57.1 L241.994,104 L248.56,104 Z M283.735,104 L283.735,63.8 L291.44,63.8 L291.44,57.1 L268.66,57.1 L268.66,63.8 L276.365,63.8 L276.365,104 L283.735,104 Z" id="path-2"></path>
    </defs>
    <g id="Page-1-Copy" stroke="none" stroke-width="1" fill="none" fill-rule="evenodd">
        <g id="Mobile-Copy-2" transform="translate(-19.000000, -61.000000)" fill-rule="nonzero">
            <g id="big-title" transform="translate(19.000000, 61.000000)">
                <g id="UIDesign+development">
                    <use fill="#000000" xlink:href="#path-1"></use>
                    <use stroke="#000000" stroke-width="0.7" fill="#FFFFFF" xlink:href="#path-1"></use>
                </g>
                <g id="UIDesign+development">
                    <use fill="#000000" xlink:href="#path-2"></use>
                    <use stroke="#000000" stroke-width="0.7" fill="#FFFFFF" xlink:href="#path-2"></use>
                </g>
            </g>
        </g>
    </g>
</svg>