<?xml version="1.0" encoding="UTF-8"?>
<svg width="292px" height="109px" viewBox="0 0 292 109" version="1.1" xmlns="http://www.w3.org/2000/svg" xmlns:xlink="http://www.w3.org/1999/xlink">
    <title>big-title</title>
    <defs>
        <path d="M10.988,50.24 C14.5613333,50.24 17.286,49.2238333 19.162,47.1915 C21.038,45.1591667 21.976,42.2446667 21.976,38.448 L21.976,38.448 L21.976,2.67 L14.874,2.67 L14.874,38.984 C14.874,40.592 14.5501667,41.7533333 13.9025,42.468 C13.2548333,43.1826667 12.328,43.54 11.122,43.54 C9.916,43.54 8.98916667,43.1826667 8.3415,42.468 C7.69383333,41.7533333 7.37,40.592 7.37,38.984 L7.37,38.984 L7.37,2.67 L1.13686838e-13,2.67 L1.13686838e-13,38.448 C1.13686838e-13,42.2446667 0.938,45.1591667 2.814,47.1915 C4.69,49.2238333 7.41466667,50.24 10.988,50.24 Z M34.572,49.57 L34.572,2.67 L27.202,2.67 L27.202,49.57 L34.572,49.57 Z M62.042,49.57 C65.7046667,49.57 68.4516667,48.5873333 70.283,46.622 C72.1143333,44.6566667 73.03,41.7756667 73.03,37.979 L73.03,37.979 L73.03,14.261 C73.03,10.4643333 72.1143333,7.58333333 70.283,5.618 C68.4516667,3.65266667 65.7046667,2.67 62.042,2.67 L62.042,2.67 L50.786,2.67 L50.786,49.57 L62.042,49.57 Z M61.908,42.87 L58.156,42.87 L58.156,9.37 L61.908,9.37 C63.114,9.37 64.0408333,9.72733333 64.6885,10.442 C65.3361667,11.1566667 65.66,12.318 65.66,13.926 L65.66,13.926 L65.66,38.314 C65.66,39.922 65.3361667,41.0833333 64.6885,41.798 C64.0408333,42.5126667 63.114,42.87 61.908,42.87 L61.908,42.87 Z M98.088,49.57 L98.088,42.87 L85.358,42.87 L85.358,28.465 L95.475,28.465 L95.475,21.765 L85.358,21.765 L85.358,9.37 L98.088,9.37 L98.088,2.67 L77.988,2.67 L77.988,49.57 L98.088,49.57 Z M112.024,50.24 C115.642,50.24 118.400167,49.2126667 120.2985,47.158 C122.196833,45.1033333 123.146,42.1553333 123.146,38.314 C123.146,35.366 122.565333,32.7976667 121.404,30.609 C120.242667,28.4203333 118.121,25.986 115.039,23.306 C112.627,21.2066667 110.963167,19.42 110.0475,17.946 C109.131833,16.472 108.674,14.8863333 108.674,13.189 C108.674,10.1963333 109.902333,8.7 112.359,8.7 C113.565,8.7 114.480667,9.0685 115.106,9.8055 C115.731333,10.5425 116.044,11.715 116.044,13.323 L116.044,13.323 L116.044,15.735 L123.012,15.735 L123.012,13.792 C123.012,9.99533333 122.1075,7.08083333 120.2985,5.0485 C118.4895,3.01616667 115.820667,2 112.292,2 C108.718667,2 105.994,3.01616667 104.118,5.0485 C102.242,7.08083333 101.304,9.95066667 101.304,13.658 C101.304,16.3826667 101.907,18.8281667 103.113,20.9945 C104.319,23.1608333 106.440667,25.584 109.478,28.264 C111.89,30.3633333 113.542667,32.1611667 114.436,33.6575 C115.329333,35.1538333 115.776,36.8846667 115.776,38.85 C115.776,40.5026667 115.452167,41.6975 114.8045,42.4345 C114.156833,43.1715 113.207667,43.54 111.957,43.54 C109.411,43.54 108.138,42.0213333 108.138,38.984 L108.138,38.984 L108.138,35.768 L101.17,35.768 L101.17,38.448 C101.17,42.2446667 102.085667,45.1591667 103.917,47.1915 C105.748333,49.2238333 108.450667,50.24 112.024,50.24 Z M134.737,49.57 L134.737,2.67 L127.367,2.67 L127.367,49.57 L134.737,49.57 Z M150.683,50.24 C154.256333,50.24 156.981,49.2238333 158.857,47.1915 C160.733,45.1591667 161.671,42.2446667 161.671,38.448 L161.671,38.448 L161.671,23.105 L151.018,23.105 L151.018,29.805 L154.703,29.805 L154.703,38.984 C154.703,42.0213333 153.43,43.54 150.884,43.54 C148.338,43.54 147.065,42.0213333 147.065,38.984 L147.065,38.984 L147.065,13.323 C147.065,10.241 148.338,8.7 150.884,8.7 C153.43,8.7 154.703,10.241 154.703,13.323 L154.703,13.323 L154.703,17.812 L161.671,17.812 L161.671,13.792 C161.671,9.99533333 160.733,7.08083333 158.857,5.0485 C156.981,3.01616667 154.256333,2 150.683,2 C147.109667,2 144.385,3.01616667 142.509,5.0485 C140.633,7.08083333 139.695,9.99533333 139.695,13.792 L139.695,13.792 L139.695,38.448 C139.695,42.2446667 140.633,45.1591667 142.509,47.1915 C144.385,49.2238333 147.109667,50.24 150.683,50.24 Z M172.994,49.57 L172.994,15.333 L173.128,15.333 L181.972,49.57 L189.543,49.57 L189.543,2.67 L182.977,2.67 L182.977,30.743 L182.843,30.743 L175.674,2.67 L166.428,2.67 L166.428,49.57 L172.994,49.57 Z M219.023,37.912 L219.023,28.733 L228.001,28.733 L228.001,23.507 L219.023,23.507 L219.023,14.462 L213.797,14.462 L213.797,23.507 L204.819,23.507 L204.819,28.733 L213.797,28.733 L213.797,37.912 L219.023,37.912 Z M11.524,105.57 C15.1866667,105.57 17.9336667,104.587333 19.765,102.622 C21.5963333,100.656667 22.512,97.7756667 22.512,93.979 L22.512,93.979 L22.512,70.261 C22.512,66.4643333 21.5963333,63.5833333 19.765,61.618 C17.9336667,59.6526667 15.1866667,58.67 11.524,58.67 L11.524,58.67 L0.268,58.67 L0.268,105.57 L11.524,105.57 Z M11.39,98.87 L7.638,98.87 L7.638,65.37 L11.39,65.37 C12.596,65.37 13.5228333,65.7273333 14.1705,66.442 C14.8181667,67.1566667 15.142,68.318 15.142,69.926 L15.142,69.926 L15.142,94.314 C15.142,95.922 14.8181667,97.0833333 14.1705,97.798 C13.5228333,98.5126667 12.596,98.87 11.39,98.87 L11.39,98.87 Z M47.57,105.57 L47.57,98.87 L34.84,98.87 L34.84,84.465 L44.957,84.465 L44.957,77.765 L34.84,77.765 L34.84,65.37 L47.57,65.37 L47.57,58.67 L27.47,58.67 L27.47,105.57 L47.57,105.57 Z M66.732,105.57 L73.834,58.67 L67.067,58.67 L62.243,95.051 L62.109,95.051 L57.285,58.67 L49.848,58.67 L56.95,105.57 L66.732,105.57 Z M97.485,105.57 L97.485,98.87 L84.755,98.87 L84.755,84.465 L94.872,84.465 L94.872,77.765 L84.755,77.765 L84.755,65.37 L97.485,65.37 L97.485,58.67 L77.385,58.67 L77.385,105.57 L97.485,105.57 Z M121.203,105.57 L121.203,98.87 L109.076,98.87 L109.076,58.67 L101.706,58.67 L101.706,105.57 L121.203,105.57 Z M135.139,106.24 C138.757,106.24 141.526333,105.212667 143.447,103.158 C145.367667,101.103333 146.328,98.2 146.328,94.448 L146.328,94.448 L146.328,69.792 C146.328,66.04 145.367667,63.1366667 143.447,61.082 C141.526333,59.0273333 138.757,58 135.139,58 C131.521,58 128.751667,59.0273333 126.831,61.082 C124.910333,63.1366667 123.95,66.04 123.95,69.792 L123.95,69.792 L123.95,94.448 C123.95,98.2 124.910333,101.103333 126.831,103.158 C128.751667,105.212667 131.521,106.24 135.139,106.24 Z M135.139,99.54 C132.593,99.54 131.32,97.999 131.32,94.917 L131.32,94.917 L131.32,69.323 C131.32,66.241 132.593,64.7 135.139,64.7 C137.685,64.7 138.958,66.241 138.958,69.323 L138.958,69.323 L138.958,94.917 C138.958,97.999 137.685,99.54 135.139,99.54 Z M158.656,105.57 L158.656,86.475 L162.14,86.475 C165.802667,86.475 168.549667,85.4923333 170.381,83.527 C172.212333,81.5616667 173.128,78.6806667 173.128,74.884 L173.128,74.884 L173.128,70.261 C173.128,66.4643333 172.212333,63.5833333 170.381,61.618 C168.549667,59.6526667 165.802667,58.67 162.14,58.67 L162.14,58.67 L151.286,58.67 L151.286,105.57 L158.656,105.57 Z M162.14,79.775 L158.656,79.775 L158.656,65.37 L162.14,65.37 C163.346,65.37 164.2505,65.705 164.8535,66.375 C165.4565,67.045 165.758,68.184 165.758,69.792 L165.758,69.792 L165.758,75.353 C165.758,76.961 165.4565,78.1 164.8535,78.77 C164.2505,79.44 163.346,79.775 162.14,79.775 L162.14,79.775 Z M183.58,105.57 L183.58,70.06 L183.714,70.06 L189.074,105.57 L195.238,105.57 L200.598,70.06 L200.732,70.06 L200.732,105.57 L207.7,105.57 L207.7,58.67 L197.181,58.67 L192.491,92.237 L192.357,92.237 L187.667,58.67 L177.148,58.67 L177.148,105.57 L183.58,105.57 Z M233.294,105.57 L233.294,98.87 L220.564,98.87 L220.564,84.465 L230.681,84.465 L230.681,77.765 L220.564,77.765 L220.564,65.37 L233.294,65.37 L233.294,58.67 L213.194,58.67 L213.194,105.57 L233.294,105.57 Z M244.081,105.57 L244.081,71.333 L244.215,71.333 L253.059,105.57 L260.63,105.57 L260.63,58.67 L254.064,58.67 L254.064,86.743 L253.93,86.743 L246.761,58.67 L237.515,58.67 L237.515,105.57 L244.081,105.57 Z M279.256,105.57 L279.256,65.37 L286.961,65.37 L286.961,58.67 L264.181,58.67 L264.181,65.37 L271.886,65.37 L271.886,105.57 L279.256,105.57 Z" id="path-1"></path>
        <path d="M12.988,48.24 C16.5613333,48.24 19.286,47.2238333 21.162,45.1915 C23.038,43.1591667 23.976,40.2446667 23.976,36.448 L23.976,36.448 L23.976,0.67 L16.874,0.67 L16.874,36.984 C16.874,38.592 16.5501667,39.7533333 15.9025,40.468 C15.2548333,41.1826667 14.328,41.54 13.122,41.54 C11.916,41.54 10.9891667,41.1826667 10.3415,40.468 C9.69383333,39.7533333 9.37,38.592 9.37,36.984 L9.37,36.984 L9.37,0.67 L2,0.67 L2,36.448 C2,40.2446667 2.938,43.1591667 4.814,45.1915 C6.69,47.2238333 9.41466667,48.24 12.988,48.24 Z M36.572,47.57 L36.572,0.67 L29.202,0.67 L29.202,47.57 L36.572,47.57 Z M64.042,47.57 C67.7046667,47.57 70.4516667,46.5873333 72.283,44.622 C74.1143333,42.6566667 75.03,39.7756667 75.03,35.979 L75.03,35.979 L75.03,12.261 C75.03,8.46433333 74.1143333,5.58333333 72.283,3.618 C70.4516667,1.65266667 67.7046667,0.67 64.042,0.67 L64.042,0.67 L52.786,0.67 L52.786,47.57 L64.042,47.57 Z M63.908,40.87 L60.156,40.87 L60.156,7.37 L63.908,7.37 C65.114,7.37 66.0408333,7.72733333 66.6885,8.442 C67.3361667,9.15666667 67.66,10.318 67.66,11.926 L67.66,11.926 L67.66,36.314 C67.66,37.922 67.3361667,39.0833333 66.6885,39.798 C66.0408333,40.5126667 65.114,40.87 63.908,40.87 L63.908,40.87 Z M100.088,47.57 L100.088,40.87 L87.358,40.87 L87.358,26.465 L97.475,26.465 L97.475,19.765 L87.358,19.765 L87.358,7.37 L100.088,7.37 L100.088,0.67 L79.988,0.67 L79.988,47.57 L100.088,47.57 Z M114.024,48.24 C117.642,48.24 120.400167,47.2126667 122.2985,45.158 C124.196833,43.1033333 125.146,40.1553333 125.146,36.314 C125.146,33.366 124.565333,30.7976667 123.404,28.609 C122.242667,26.4203333 120.121,23.986 117.039,21.306 C114.627,19.2066667 112.963167,17.42 112.0475,15.946 C111.131833,14.472 110.674,12.8863333 110.674,11.189 C110.674,8.19633333 111.902333,6.7 114.359,6.7 C115.565,6.7 116.480667,7.0685 117.106,7.8055 C117.731333,8.5425 118.044,9.715 118.044,11.323 L118.044,11.323 L118.044,13.735 L125.012,13.735 L125.012,11.792 C125.012,7.99533333 124.1075,5.08083333 122.2985,3.0485 C120.4895,1.01616667 117.820667,7.10542736e-15 114.292,7.10542736e-15 C110.718667,7.10542736e-15 107.994,1.01616667 106.118,3.0485 C104.242,5.08083333 103.304,7.95066667 103.304,11.658 C103.304,14.3826667 103.907,16.8281667 105.113,18.9945 C106.319,21.1608333 108.440667,23.584 111.478,26.264 C113.89,28.3633333 115.542667,30.1611667 116.436,31.6575 C117.329333,33.1538333 117.776,34.8846667 117.776,36.85 C117.776,38.5026667 117.452167,39.6975 116.8045,40.4345 C116.156833,41.1715 115.207667,41.54 113.957,41.54 C111.411,41.54 110.138,40.0213333 110.138,36.984 L110.138,36.984 L110.138,33.768 L103.17,33.768 L103.17,36.448 C103.17,40.2446667 104.085667,43.1591667 105.917,45.1915 C107.748333,47.2238333 110.450667,48.24 114.024,48.24 Z M136.737,47.57 L136.737,0.67 L129.367,0.67 L129.367,47.57 L136.737,47.57 Z M152.683,48.24 C156.256333,48.24 158.981,47.2238333 160.857,45.1915 C162.733,43.1591667 163.671,40.2446667 163.671,36.448 L163.671,36.448 L163.671,21.105 L153.018,21.105 L153.018,27.805 L156.703,27.805 L156.703,36.984 C156.703,40.0213333 155.43,41.54 152.884,41.54 C150.338,41.54 149.065,40.0213333 149.065,36.984 L149.065,36.984 L149.065,11.323 C149.065,8.241 150.338,6.7 152.884,6.7 C155.43,6.7 156.703,8.241 156.703,11.323 L156.703,11.323 L156.703,15.812 L163.671,15.812 L163.671,11.792 C163.671,7.99533333 162.733,5.08083333 160.857,3.0485 C158.981,1.01616667 156.256333,7.10542736e-15 152.683,7.10542736e-15 C149.109667,7.10542736e-15 146.385,1.01616667 144.509,3.0485 C142.633,5.08083333 141.695,7.99533333 141.695,11.792 L141.695,11.792 L141.695,36.448 C141.695,40.2446667 142.633,43.1591667 144.509,45.1915 C146.385,47.2238333 149.109667,48.24 152.683,48.24 Z M174.994,47.57 L174.994,13.333 L175.128,13.333 L183.972,47.57 L191.543,47.57 L191.543,0.67 L184.977,0.67 L184.977,28.743 L184.843,28.743 L177.674,0.67 L168.428,0.67 L168.428,47.57 L174.994,47.57 Z M221.023,35.912 L221.023,26.733 L230.001,26.733 L230.001,21.507 L221.023,21.507 L221.023,12.462 L215.797,12.462 L215.797,21.507 L206.819,21.507 L206.819,26.733 L215.797,26.733 L215.797,35.912 L221.023,35.912 Z M13.524,103.57 C17.1866667,103.57 19.9336667,102.587333 21.765,100.622 C23.5963333,98.6566667 24.512,95.7756667 24.512,91.979 L24.512,91.979 L24.512,68.261 C24.512,64.4643333 23.5963333,61.5833333 21.765,59.618 C19.9336667,57.6526667 17.1866667,56.67 13.524,56.67 L13.524,56.67 L2.268,56.67 L2.268,103.57 L13.524,103.57 Z M13.39,96.87 L9.638,96.87 L9.638,63.37 L13.39,63.37 C14.596,63.37 15.5228333,63.7273333 16.1705,64.442 C16.8181667,65.1566667 17.142,66.318 17.142,67.926 L17.142,67.926 L17.142,92.314 C17.142,93.922 16.8181667,95.0833333 16.1705,95.798 C15.5228333,96.5126667 14.596,96.87 13.39,96.87 L13.39,96.87 Z M49.57,103.57 L49.57,96.87 L36.84,96.87 L36.84,82.465 L46.957,82.465 L46.957,75.765 L36.84,75.765 L36.84,63.37 L49.57,63.37 L49.57,56.67 L29.47,56.67 L29.47,103.57 L49.57,103.57 Z M68.732,103.57 L75.834,56.67 L69.067,56.67 L64.243,93.051 L64.109,93.051 L59.285,56.67 L51.848,56.67 L58.95,103.57 L68.732,103.57 Z M99.485,103.57 L99.485,96.87 L86.755,96.87 L86.755,82.465 L96.872,82.465 L96.872,75.765 L86.755,75.765 L86.755,63.37 L99.485,63.37 L99.485,56.67 L79.385,56.67 L79.385,103.57 L99.485,103.57 Z M123.203,103.57 L123.203,96.87 L111.076,96.87 L111.076,56.67 L103.706,56.67 L103.706,103.57 L123.203,103.57 Z M137.139,104.24 C140.757,104.24 143.526333,103.212667 145.447,101.158 C147.367667,99.1033333 148.328,96.2 148.328,92.448 L148.328,92.448 L148.328,67.792 C148.328,64.04 147.367667,61.1366667 145.447,59.082 C143.526333,57.0273333 140.757,56 137.139,56 C133.521,56 130.751667,57.0273333 128.831,59.082 C126.910333,61.1366667 125.95,64.04 125.95,67.792 L125.95,67.792 L125.95,92.448 C125.95,96.2 126.910333,99.1033333 128.831,101.158 C130.751667,103.212667 133.521,104.24 137.139,104.24 Z M137.139,97.54 C134.593,97.54 133.32,95.999 133.32,92.917 L133.32,92.917 L133.32,67.323 C133.32,64.241 134.593,62.7 137.139,62.7 C139.685,62.7 140.958,64.241 140.958,67.323 L140.958,67.323 L140.958,92.917 C140.958,95.999 139.685,97.54 137.139,97.54 Z M160.656,103.57 L160.656,84.475 L164.14,84.475 C167.802667,84.475 170.549667,83.4923333 172.381,81.527 C174.212333,79.5616667 175.128,76.6806667 175.128,72.884 L175.128,72.884 L175.128,68.261 C175.128,64.4643333 174.212333,61.5833333 172.381,59.618 C170.549667,57.6526667 167.802667,56.67 164.14,56.67 L164.14,56.67 L153.286,56.67 L153.286,103.57 L160.656,103.57 Z M164.14,77.775 L160.656,77.775 L160.656,63.37 L164.14,63.37 C165.346,63.37 166.2505,63.705 166.8535,64.375 C167.4565,65.045 167.758,66.184 167.758,67.792 L167.758,67.792 L167.758,73.353 C167.758,74.961 167.4565,76.1 166.8535,76.77 C166.2505,77.44 165.346,77.775 164.14,77.775 L164.14,77.775 Z M185.58,103.57 L185.58,68.06 L185.714,68.06 L191.074,103.57 L197.238,103.57 L202.598,68.06 L202.732,68.06 L202.732,103.57 L209.7,103.57 L209.7,56.67 L199.181,56.67 L194.491,90.237 L194.357,90.237 L189.667,56.67 L179.148,56.67 L179.148,103.57 L185.58,103.57 Z M235.294,103.57 L235.294,96.87 L222.564,96.87 L222.564,82.465 L232.681,82.465 L232.681,75.765 L222.564,75.765 L222.564,63.37 L235.294,63.37 L235.294,56.67 L215.194,56.67 L215.194,103.57 L235.294,103.57 Z M246.081,103.57 L246.081,69.333 L246.215,69.333 L255.059,103.57 L262.63,103.57 L262.63,56.67 L256.064,56.67 L256.064,84.743 L255.93,84.743 L248.761,56.67 L239.515,56.67 L239.515,103.57 L246.081,103.57 Z M281.256,103.57 L281.256,63.37 L288.961,63.37 L288.961,56.67 L266.181,56.67 L266.181,63.37 L273.886,63.37 L273.886,103.57 L281.256,103.57 Z" id="path-2"></path>
    </defs>
    <g id="Login" stroke="none" stroke-width="1" fill="none" fill-rule="evenodd">
        <g id="Mobile-Copy-2" transform="translate(-20.000000, -60.000000)" fill-rule="nonzero">
            <g id="big-title" transform="translate(21.479000, 61.430000)">
                <g id="UIDesign+development">
                    <use fill="#000000" xlink:href="#path-1"></use>
                    <use stroke="#000000" stroke-width="0.7" fill="#FFFFFF" xlink:href="#path-1"></use>
                </g>
                <g id="UIDesign+development">
                    <use fill="#000000" xlink:href="#path-2"></use>
                    <use stroke="#000000" stroke-width="0.7" fill="#FFFFFF" xlink:href="#path-2"></use>
                </g>
            </g>
        </g>
    </g>
</svg>