<?xml version="1.0" encoding="UTF-8"?>
<svg width="443px" height="242px" viewBox="0 0 443 242" version="1.1" xmlns="http://www.w3.org/2000/svg" xmlns:xlink="http://www.w3.org/1999/xlink">
    <!-- Generator: Sketch 63.1 (92452) - https://sketch.com -->
    <title>big-title</title>
    <desc>Created with Sketch.</desc>
    <defs>
        <filter x="-2.5%" y="-4.7%" width="105.0%" height="109.3%" filterUnits="objectBoundingBox" id="filter-1">
            <feOffset dx="2" dy="2" in="SourceAlpha" result="shadowOffsetOuter1"></feOffset>
            <feGaussianBlur stdDeviation="1" in="shadowOffsetOuter1" result="shadowBlurOuter1"></feGaussianBlur>
            <feColorMatrix values="0 0 0 0 0   0 0 0 0 0   0 0 0 0 0  0 0 0 0.5 0" type="matrix" in="shadowBlurOuter1" result="shadowMatrixOuter1"></feColorMatrix>
            <feMerge>
                <feMergeNode in="shadowMatrixOuter1"></feMergeNode>
                <feMergeNode in="SourceGraphic"></feMergeNode>
            </feMerge>
        </filter>
        <path d="M110.86707,57.4824674 C114.690974,57.4824674 118.042649,56.9619213 120.922095,55.9208292 C123.801541,54.8797371 126.047509,53.3674139 127.659999,51.3838595 C129.272488,49.4003051 130.078733,46.9948344 130.078733,44.1674475 C130.078733,40.0469146 128.598698,36.7866526 125.638628,34.3866613 C122.678557,31.9866701 118.342112,29.9866774 112.629291,28.3866833 C110.233592,27.5099741 108.367711,26.7373742 107.031648,26.0688835 C105.695585,25.4003928 104.762645,24.7319021 104.232827,24.0634114 C103.703009,23.3949207 103.4381,22.6332796 103.4381,21.7784882 C103.4381,20.7264373 103.754839,19.8497282 104.388317,19.1483609 C105.021795,18.4469936 105.885629,17.9209681 106.979818,17.5702844 C108.074008,17.2196008 109.323687,17.044259 110.728857,17.044259 C112.364382,17.044259 113.907765,17.1976831 115.359006,17.5045313 C116.810247,17.8113795 117.927472,18.1511042 118.710681,18.5237056 L118.710681,18.5237056 L120.127368,24.9346411 L129.111239,24.9346411 L129.111239,13.3949572 C126.692505,11.641539 123.905201,10.3319547 120.749328,9.46620447 C117.593456,8.60045421 113.965354,8.21141453 109.865023,8.29908545 C106.271475,8.36483863 103.081049,8.96757615 100.293745,10.107298 C97.5064414,11.2470199 95.3180625,12.808658 93.7286084,14.7922124 C92.1391543,16.7757668 91.3444272,19.0935665 91.3444272,21.7456117 C91.3444272,24.5072454 92.0182176,26.8195657 93.3657982,28.6825726 C94.7133789,30.5455795 96.7693033,32.1565325 99.5335713,33.5154317 C102.297839,34.8743308 105.833799,36.2113122 110.14145,37.5263759 C112.053402,38.2277432 113.573749,38.9126722 114.702492,39.5811629 C115.831235,40.2496536 116.643239,40.9565004 117.138503,41.7017031 C117.633768,42.4469059 117.8814,43.2907384 117.8814,44.2332007 C117.8814,45.2194985 117.616491,46.063331 117.086673,46.7646983 C116.556855,47.4660656 115.773646,47.9975705 114.737045,48.359213 C113.700445,48.7208555 112.410453,48.9016768 110.86707,48.9016768 C108.655656,48.9016768 106.617008,48.6331846 104.751127,48.0962003 C102.885246,47.5592159 101.583737,46.8962047 100.846599,46.1071665 L100.846599,46.1071665 L99.8099981,39.7291076 L90.4460401,39.7291076 L90.4460401,52.1564594 C93.6019128,54.2167259 96.7693033,55.6194605 99.9482115,56.3646632 C103.12712,57.109866 106.766739,57.4824674 110.86707,57.4824674 Z M149.110752,58.0205133 C152.030217,58.0205133 154.678103,57.637518 157.054412,56.8715274 C159.43072,56.1055368 161.444925,55.1367839 163.097025,53.9652689 L163.097025,53.9652689 L160.381244,46.8010039 C158.729143,47.5669945 157.161911,48.1245906 155.679547,48.4737922 C154.197184,48.8229938 152.68653,48.9975946 151.147588,48.9975946 C149.586014,48.9975946 148.273386,48.7385095 147.209705,48.2203394 C146.146024,47.7021693 145.314316,46.9981338 144.714581,46.108233 C144.114846,45.2183321 143.724453,44.1988887 143.543401,43.0499028 L143.543401,43.0499028 L143.577348,42.8133469 L163.77597,42.8133469 L163.77597,36.6966867 C163.77597,33.092025 163.176235,30.056224 161.976765,27.5892837 C160.777295,25.1223434 159.029011,23.2524252 156.731913,21.979529 C154.434814,20.7066329 151.622849,20.0701848 148.296018,20.0701848 C144.607081,20.0476557 141.495249,20.8418077 138.96052,22.4526409 C136.425791,24.063474 134.502113,26.2994907 133.189485,29.1606909 C131.876857,32.0218911 131.220544,35.3111449 131.220544,39.0284522 L131.220544,39.0284522 L131.220544,40.2788192 C131.220544,43.6581895 131.961726,46.6883582 133.444089,49.3693253 C134.926453,52.0502924 137.008552,54.1623988 139.690386,55.7056446 C142.37222,57.2488904 145.512342,58.0205133 149.110752,58.0205133 Z M151.408256,35.5040037 L143.037295,35.5040037 L142.915536,35.3300452 C143.037295,34.0079603 143.245301,32.8308409 143.539553,31.7986869 C143.833805,30.7665329 144.300549,29.9547264 144.939786,29.3632673 C145.579023,28.7718083 146.436412,28.4760788 147.511954,28.4760788 C148.506323,28.4760788 149.287612,28.7080235 149.855823,29.171913 C150.424034,29.6358024 150.824825,30.3200393 151.058197,31.2246237 C151.291569,32.1292081 151.408256,33.25414 151.408256,34.5994193 L151.408256,34.5994193 L151.408256,35.5040037 Z M183.853716,60.7579309 L183.853716,53.9237244 L179.573655,52.8569214 L179.573655,8.75128647 L162.621916,8.75128647 L162.621916,15.6188305 L167.744509,16.6856335 L167.744509,52.8569214 L163.430747,53.9237244 L163.430747,60.7579309 L183.853716,60.7579309 Z M202.253631,12.7402402 L202.253631,4.30673032 L190.930004,4.30673032 L190.930004,12.7402402 L202.253631,12.7402402 Z M207.772327,56.3832663 L207.772327,49.4592663 L203.512443,48.3784468 L203.512443,19.8380567 L186.540527,19.8380567 L186.540527,26.7958323 L191.645625,27.8766518 L191.645625,48.3784468 L187.351933,49.4592663 L187.351933,56.3832663 L207.772327,56.3832663 Z M228.251344,59.4788655 L228.251344,52.680528 L225.114637,51.6193241 L225.114637,34.1757849 C225.718743,33.4019903 226.427407,32.8216444 227.240627,32.4347472 C228.053848,32.0478499 229.029712,31.8544013 230.168221,31.8544013 C231.678488,31.8544013 232.840231,32.2578799 233.653452,33.064837 C234.466672,33.8717941 234.873282,35.2369888 234.873282,37.1604208 L234.873282,37.1604208 L234.873282,51.6193241 L231.318347,52.680528 L231.318347,59.4788655 L251.532684,59.4788655 L251.532684,52.680528 L247.141294,51.6193241 L247.141294,37.1935835 C247.141294,32.2412986 246.11896,28.6265727 244.074291,26.349406 C242.029622,24.0722393 239.241438,22.9336559 235.709738,22.9336559 C233.386251,22.9336559 231.312538,23.4310953 229.488601,24.4259739 C227.664664,25.4208526 226.125354,26.8136827 224.870671,28.6044643 L224.870671,28.6044643 L224.452443,23.5969084 L207.653631,23.5969084 L207.653631,30.4284085 L212.881477,31.4896125 L212.881477,51.6193241 L208.490087,52.680528 L208.490087,59.4788655 L228.251344,59.4788655 Z M268.084446,57.2550438 C271.777517,57.2550438 274.939009,56.4665144 277.568923,54.8894555 C280.198837,53.3123967 282.213239,51.1214114 283.61213,48.3164996 C285.01102,45.5115878 285.710466,42.2729848 285.710466,38.6006906 L285.710466,38.6006906 L285.710466,37.9248083 C285.710466,34.2525141 285.01102,31.0195435 283.61213,28.2258964 C282.213239,25.4322493 280.198837,23.2468963 277.568923,21.6698375 C274.939009,20.0927786 271.755134,19.3042492 268.017299,19.3042492 C264.301846,19.3042492 261.123567,20.098411 258.482462,21.6867345 C255.841357,23.2750581 253.821359,25.4660434 252.422468,28.2596905 C251.023578,31.0533376 250.324133,34.2750435 250.324133,37.9248083 L250.324133,37.9248083 L250.324133,38.6006906 C250.324133,42.2955142 251.023578,45.5453819 252.422468,48.3502937 C253.821359,51.1552055 255.846952,53.3405584 258.499248,54.9063526 C261.151545,56.4721467 264.346611,57.2550438 268.084446,57.2550438 Z M268.719004,48.857352 C267.311547,48.857352 266.19198,48.4780672 265.360301,47.7194975 C264.528622,46.9609279 263.93152,45.8676951 263.568993,44.4397992 C263.206466,43.0119034 263.025203,41.3051216 263.025203,39.3194539 L263.025203,39.3194539 L263.025203,38.6501277 C263.025203,36.7537036 263.206466,35.0971213 263.568993,33.6803808 C263.93152,32.2636404 264.528622,31.1592522 265.360301,30.3672162 C266.19198,29.5751802 267.290222,29.1791623 268.655029,29.1791623 C270.04116,29.1791623 271.150065,29.5751802 271.981744,30.3672162 C272.813423,31.1592522 273.415857,32.2636404 273.789046,33.6803808 C274.162235,35.0971213 274.34883,36.7537036 274.34883,38.6501277 L274.34883,38.6501277 L274.34883,39.3194539 C274.34883,41.2828107 274.162235,42.9784371 273.789046,44.4063329 C273.415857,45.8342288 272.818754,46.9330393 271.997738,47.7027644 C271.176721,48.4724895 270.08381,48.857352 268.719004,48.857352 Z M301.723223,18.2624351 C304.433531,18.2624351 307.016098,18.4996275 309.470926,18.9740125 C311.925753,19.4483974 313.941822,20.047026 315.519132,20.7698983 L315.519132,20.7698983 L315.485809,31.8162903 L307.621474,31.8162903 L306.621771,27.072441 L306.360737,26.8992528 C305.916424,26.6231557 305.425829,26.409808 304.888951,26.2592096 C304.244698,26.0784916 303.52269,25.9881325 302.722927,25.9881325 C301.234479,25.9881325 300.145913,26.2592096 299.457228,26.8013638 C298.768544,27.3435181 298.424201,28.0438006 298.424201,28.9022114 C298.424201,29.3991861 298.574157,29.8961608 298.874068,30.3931355 C299.173979,30.8901102 299.768247,31.3644951 300.656873,31.8162903 C301.545498,32.2680854 302.845113,32.685996 304.555717,33.0700219 C308.665609,33.996202 311.759136,35.2838182 313.836298,36.9328706 C315.91346,38.581923 316.952041,41.0893862 316.952041,44.4552603 C316.952041,48.0696216 315.680196,50.9328736 313.136506,53.045016 C310.592815,55.1571584 306.899466,56.2132296 302.056458,56.2132296 C299.212856,56.2132296 296.563642,55.9478 294.108814,55.4169406 C291.653986,54.8860813 289.437977,54.1575616 287.460785,53.2313815 L287.460785,53.2313815 L287.327492,41.8122585 L295.22515,41.8122585 L296.558088,47.1321467 L296.766189,47.2555835 C297.198714,47.4976167 297.729169,47.7106058 298.357554,47.894551 C299.09067,48.1091537 299.968188,48.2164551 300.990107,48.2164551 C302.878436,48.2164551 304.178051,47.9566728 304.888951,47.4371084 C305.599851,46.9175439 305.955302,46.2624351 305.955302,45.4717994 C305.955302,44.7037476 305.549866,43.9978176 304.738996,43.3540095 C303.928125,42.7102014 302.200859,42.13981 299.557199,41.6428353 C295.336228,40.8070142 292.226039,39.378212 290.226632,37.3564286 C288.227225,35.3346452 287.227521,32.8102397 287.227521,29.783212 C287.227521,27.727544 287.69405,25.8300042 288.627106,24.0905928 C289.560163,22.3511814 291.087488,20.9449689 293.209081,19.8719554 C295.330674,18.7989418 298.168721,18.2624351 301.723223,18.2624351 Z M288.474074,7.53559129 L288.474074,13.2304107 L286.146689,18.7802712 L282.812261,18.7802712 L282.812261,7.53559129 L288.474074,7.53559129 Z" id="path-2"></path>
        <filter x="-2.0%" y="-8.0%" width="104.0%" height="115.9%" filterUnits="objectBoundingBox" id="filter-3">
            <feMorphology radius="1.5" operator="dilate" in="SourceAlpha" result="shadowSpreadOuter1"></feMorphology>
            <feOffset dx="0" dy="0" in="shadowSpreadOuter1" result="shadowOffsetOuter1"></feOffset>
            <feComposite in="shadowOffsetOuter1" in2="SourceAlpha" operator="out" result="shadowOffsetOuter1"></feComposite>
            <feColorMatrix values="0 0 0 0 0   0 0 0 0 0   0 0 0 0 0  0 0 0 1 0" type="matrix" in="shadowOffsetOuter1"></feColorMatrix>
        </filter>
        <path d="M104.192301,143.099021 L104.894996,143.103672 C112.8328,143.209078 119.88412,145.106393 126.048954,148.795617 C132.395108,152.593347 137.363478,157.843762 140.954065,164.546859 C144.544652,171.249957 146.339945,178.98031 146.339945,187.737918 L146.339945,187.737918 L146.339945,189.169849 L146.335286,189.939913 C146.232787,198.381295 144.439046,205.854959 140.954065,212.360907 C137.363478,219.064005 132.395108,224.304043 126.048954,228.081021 C119.702801,231.857999 112.41725,233.746487 104.192301,233.746487 L104.192301,233.746487 L61.4810178,233.746487 L61.4810178,220.983623 L71.0628745,218.680082 L71.0628745,158.289943 L61.4810178,155.924144 L61.4810178,143.099021 L104.192301,143.099021 Z M104.154553,157.492565 L94.1343109,157.492565 L94.1343109,214.956584 L104.154553,214.956584 C108.788915,214.956584 112.671759,213.794437 115.803085,211.470143 C118.934411,209.145849 121.303781,205.87731 122.911194,201.664527 C124.518608,197.451745 125.322315,192.543749 125.322315,186.94054 L125.322315,186.94054 L125.322315,185.446351 L125.318129,184.749625 C125.253944,179.436232 124.451633,174.770855 122.911194,170.753493 C121.303781,166.561462 118.934411,163.3033 115.803085,160.979006 C112.671759,158.654712 108.788915,157.492565 104.154553,157.492565 L104.154553,157.492565 Z" id="path-4"></path>
        <filter x="-5.3%" y="-5.0%" width="110.6%" height="109.9%" filterUnits="objectBoundingBox" id="filter-5">
            <feMorphology radius="1.5" operator="dilate" in="SourceAlpha" result="shadowSpreadOuter1"></feMorphology>
            <feOffset dx="0" dy="0" in="shadowSpreadOuter1" result="shadowOffsetOuter1"></feOffset>
            <feComposite in="shadowOffsetOuter1" in2="SourceAlpha" operator="out" result="shadowOffsetOuter1"></feComposite>
            <feColorMatrix values="0 0 0 0 0   0 0 0 0 0   0 0 0 0 0  0 0 0 1 0" type="matrix" in="shadowOffsetOuter1"></feColorMatrix>
        </filter>
        <path d="M40.5400358,137.160258 L40.5400358,125.019972 L31.5447298,123.124903 L31.5447298,105.89162 L45.7701501,106.066355 L56.5647862,137.160258 L81.8231288,137.160258 L81.8231288,125.079193 L73.6022531,123.006461 L64.5366466,100.96308 L64.5557901,100.950893 C68.1547067,98.6444366 71.0991305,95.7884097 73.3890614,92.3828128 L73.8107536,91.7378231 C76.5709027,87.3949567 77.9509772,82.6967649 77.9509772,77.6432476 C77.9509772,72.1554437 76.5808313,67.4079012 73.8405394,63.4006199 C71.1002475,59.3933386 67.2082387,56.3039814 62.1645131,54.1325482 C57.1207874,51.961115 51.1636311,50.8753984 44.2930442,50.8753984 L44.2930442,50.8753984 L1.63980527,50.8753984 L1.63980527,63.1341258 L10.6351113,65.0291948 L10.6351113,123.124903 L1.63980527,125.019972 L1.63980527,137.160258 L40.5400358,137.160258 Z M44.5313305,89.961196 L31.5447298,89.961196 L31.5447298,66.8058219 L44.2930442,66.8058219 C48.4233392,66.8058219 51.6004893,67.921149 53.8244943,70.1518031 C56.0484993,72.3824572 57.1605018,75.3336323 57.1605018,79.0053285 C57.1605018,82.5585828 56.0683565,85.2728743 53.8840658,87.148203 C51.6997752,89.0235316 48.5821967,89.961196 44.5313305,89.961196 L44.5313305,89.961196 Z M112.858386,138.403897 C117.98154,138.403897 122.628122,137.732726 126.798131,136.390386 C130.968141,135.048045 134.50272,133.350379 137.401869,131.297388 L137.401869,131.297388 L132.636144,118.742556 C129.736995,120.084897 126.986774,121.062041 124.385483,121.673991 C121.784191,122.28594 119.133257,122.591915 116.432679,122.591915 C113.692387,122.591915 111.388954,122.137888 109.522378,121.229834 C107.655802,120.32178 106.196299,119.088011 105.143868,117.528527 C104.091437,115.969044 103.406364,114.182546 103.088649,112.169036 L103.088649,112.169036 L103.148221,111.754489 L138.593301,111.754489 L138.593301,101.035505 C138.593301,94.7186087 137.54087,89.3985974 135.436008,85.0754713 C133.331146,80.7523452 130.26321,77.4754551 126.232201,75.244801 C122.201192,73.0141469 117.266681,71.8988198 111.428668,71.8988198 C104.955225,71.8593392 99.4944983,73.2510305 95.0464882,76.0738937 C90.5984782,78.8967568 87.2227563,82.8152067 84.9193226,87.8292434 C82.6158888,92.84328 81.4641719,98.6074482 81.4641719,105.121748 L81.4641719,105.121748 L81.4641719,107.312921 C81.4641719,113.235012 82.7648177,118.545153 85.3661093,123.243345 C87.9674009,127.941537 91.6211234,131.642843 96.3272768,134.347265 C101.03343,137.051686 106.5438,138.403897 112.858386,138.403897 Z M119.530401,98.9035527 L103.148221,98.9035527 L102.909935,98.6074482 C103.148221,96.3570538 103.555293,94.3534131 104.131152,92.5965263 C104.70701,90.8396394 105.620441,89.4578183 106.871443,88.4510629 C108.122446,87.4443075 109.800379,86.9409298 111.905241,86.9409298 C113.851245,86.9409298 115.380248,87.3357358 116.492251,88.1253479 C117.604253,88.91496 118.388612,90.0796378 118.845328,91.6193813 C119.302043,93.1591249 119.530401,95.0739341 119.530401,97.3638092 L119.530401,97.3638092 L119.530401,98.9035527 Z M161.228967,138.403897 C164.962118,138.403897 168.039982,137.732726 170.462559,136.390386 C172.885136,135.048045 175.069427,133.172717 177.015431,130.7644 C177.253717,131.948818 177.670718,133.133236 178.266434,134.317654 C178.86215,135.502072 179.418151,136.449607 179.934438,137.160258 L179.934438,137.160258 L204.358778,137.160258 L204.358778,125.019972 L197.388906,123.835554 C197.230048,123.045942 197.140691,122.216849 197.120834,121.348276 C197.100976,120.479703 197.091048,119.591389 197.091048,118.683335 L197.091048,118.683335 L197.091048,95.0541938 C197.091048,87.6318404 194.509613,81.917023 189.346745,77.9097417 C184.183876,73.9024605 177.214003,71.8988198 168.437126,71.8988198 C163.512544,71.8988198 159.054605,72.4910289 155.06331,73.675447 C151.072016,74.8598651 147.249507,76.2614265 143.595784,77.8801313 L143.595784,77.8801313 L143.893642,95.7056238 L158.607818,95.7056238 L160.037536,87.5331389 C160.990681,86.9014492 162.05304,86.4178118 163.224614,86.0822267 C164.396188,85.7466415 165.65712,85.578849 167.007409,85.578849 C170.184559,85.578849 172.50785,86.4770327 173.977281,88.2734002 C175.446713,90.0697676 176.181429,92.251071 176.181429,94.8173102 L176.181429,94.8173102 L176.181429,98.6074482 L169.449843,98.6074482 C162.896971,98.6074482 157.446173,99.4858916 153.097449,101.242778 C148.748725,102.999665 145.492146,105.417852 143.327712,108.497339 C141.163279,111.576826 140.081062,115.11034 140.081062,119.097881 C140.081062,124.941011 142.046924,129.619462 145.978647,133.133236 C149.91037,136.64701 154.99381,138.403897 161.228967,138.403897 Z M167.662696,123.717112 C165.676977,123.717112 164.048688,123.164384 162.777828,122.058927 C161.506968,120.95347 160.871538,119.433467 160.871538,117.498917 C160.871538,115.485406 161.636039,113.866701 163.165043,112.642803 C164.694046,111.418904 166.868408,110.806955 169.688129,110.806955 L169.688129,110.806955 L176.181429,110.806955 L176.181429,120.045416 C175.069427,121.269315 173.748924,122.187239 172.21992,122.799188 C170.690917,123.411137 169.171842,123.717112 167.662696,123.717112 Z M235.051881,138.403897 C240.850179,138.403897 245.546404,137.564934 249.140555,135.887008 C252.734706,134.209082 255.544498,131.682324 257.569931,128.306732 C259.595364,124.931141 261.084654,120.696846 262.037799,115.603848 L262.037799,115.603848 L261.799512,115.248523 L244.285473,115.248523 C243.5309,117.656839 242.46854,119.482817 241.098394,120.726456 C239.728248,121.970095 237.792172,122.591915 235.290167,122.591915 C233.661877,122.591915 232.073302,122.078667 230.524442,121.052171 C228.975581,120.025676 227.694793,118.298399 226.682076,115.870342 C225.669359,113.442285 225.163001,110.116044 225.163001,105.89162 L225.163001,105.89162 L225.163001,104.529539 C225.163001,100.463037 225.540288,97.1269255 226.294861,94.5212057 C227.049434,91.9154859 228.300437,89.9710661 230.047869,88.6879465 C231.795302,87.4048269 234.158307,86.7632671 237.136885,86.7632671 C237.891458,86.7632671 238.834675,86.9804104 239.966535,87.414697 C241.098394,87.8489837 242.001896,88.4017121 242.677041,89.0728824 L242.677041,89.0728824 L245.179046,100.68018 L260.727224,100.68018 L261.084654,80.4858511 C258.542934,78.4723403 255.077854,76.5377907 250.689416,74.6822024 C246.300977,72.826614 241.028894,71.8988198 234.873166,71.8988198 C228.757152,71.8988198 223.40564,73.2806409 218.81863,76.0442832 C214.231619,78.8079255 210.657326,82.637544 208.095748,87.5331389 C205.534171,92.4287337 204.253383,98.0942003 204.253383,104.529539 L204.253383,104.529539 L204.253383,105.89162 C204.253383,112.169036 205.484528,117.755541 207.94682,122.651136 C210.409111,127.546731 213.94369,131.396089 218.550558,134.199212 C223.157425,137.002335 228.657866,138.403897 235.051881,138.403897 Z M293.632888,143.17576 C295.578892,143.17576 297.475253,143.027708 299.321972,142.731604 C301.16869,142.435499 303.00548,142.030823 304.832341,141.517575 L304.832341,141.517575 L303.402624,126.001698 C302.687765,126.12014 301.972906,126.218841 301.258048,126.297802 C300.543189,126.376764 299.82833,126.416244 299.113471,126.416244 C297.445468,126.416244 296.134893,126.001698 295.181748,125.172605 C294.228603,124.343512 293.752031,122.88273 293.752031,120.790258 L293.752031,120.790258 L293.752031,92.068119 L304.296197,92.068119 L304.296197,77.7366599 L293.752031,77.7366599 L293.752031,61.9246782 L272.961555,61.9246782 L272.961555,77.7366599 L264.919394,77.7366599 L264.919394,92.068119 L272.961555,92.068119 L272.961555,120.849479 C272.961555,128.587677 274.718916,134.243274 278.233639,137.816268 C281.748361,141.389263 286.881444,143.17576 293.632888,143.17576 Z" id="path-6"></path>
        <filter x="-1.5%" y="-4.9%" width="103.0%" height="109.8%" filterUnits="objectBoundingBox" id="filter-7">
            <feMorphology radius="1.5" operator="dilate" in="SourceAlpha" result="shadowSpreadOuter1"></feMorphology>
            <feOffset dx="0" dy="0" in="shadowSpreadOuter1" result="shadowOffsetOuter1"></feOffset>
            <feComposite in="shadowOffsetOuter1" in2="SourceAlpha" operator="out" result="shadowOffsetOuter1"></feComposite>
            <feColorMatrix values="0 0 0 0 0   0 0 0 0 0   0 0 0 0 0  0 0 0 1 0" type="matrix" in="shadowOffsetOuter1"></feColorMatrix>
        </filter>
        <path d="M179.087741,222.077472 C184.921751,222.68691 190.293835,222.475854 195.203992,221.444304 C200.114149,220.412753 204.343469,218.901248 207.891952,216.909788 L207.891952,216.909788 L203.975871,202.055277 C200.51291,203.238006 197.263493,204.022852 194.227618,204.409817 C191.191742,204.796781 188.136159,204.829636 185.060866,204.508382 C181.940349,204.182404 179.371945,203.391703 177.355654,202.136281 C175.339364,200.880858 173.825826,199.303191 172.815042,197.40328 C171.804258,195.503369 171.239124,193.388813 171.11964,191.059612 L171.11964,191.059612 L171.237365,190.594938 L211.60058,194.811398 L212.890551,182.613029 C213.650755,175.424304 213.092529,169.244854 211.215875,164.074681 C209.33922,158.904508 206.239953,154.810402 201.918074,151.792364 C197.596195,148.774327 192.111226,146.91807 185.463167,146.223594 C178.096261,145.4086 171.710356,146.342771 166.305453,149.026108 C160.900549,151.709446 156.584869,155.767134 153.358414,161.199175 C150.131958,166.631215 148.12675,173.053921 147.34279,180.467295 L147.34279,180.467295 L147.079094,182.960884 C146.366403,189.700314 147.208472,195.898058 149.6053,201.554116 C152.002129,207.210174 155.717387,211.856956 160.751074,215.494462 C165.784761,219.131967 171.896983,221.326304 179.087741,222.077472 Z M191.126849,179.309608 L172.787582,177.382675 L172.556267,177.017602 C173.09235,174.484085 173.787851,172.251293 174.64277,170.319226 C175.49769,168.387158 176.685621,166.921721 178.206564,165.922914 C179.727506,164.924108 181.666137,164.548495 184.022455,164.796077 C186.200938,165.024973 187.865352,165.654214 189.015697,166.683799 C190.166043,167.713385 190.904715,169.131356 191.231713,170.937712 C191.558711,172.744068 191.585183,174.950488 191.311128,177.556972 L191.311128,177.556972 L191.126849,179.309608 Z M252.802043,218.518933 L252.802043,205.756069 L246.351512,203.763817 L246.351512,170.953917 C247.52054,169.542738 248.877448,168.473978 250.422236,167.747636 C251.967023,167.021294 253.678814,166.658123 255.55761,166.658123 C257.979168,166.658123 259.795337,167.363712 261.006117,168.774891 C262.216896,170.186069 262.822286,172.863158 262.822286,176.806157 L262.822286,176.806157 L262.822286,203.763817 L257.185899,205.756069 L257.185899,218.518933 L290.315325,218.518933 L290.315325,205.756069 L284.678939,203.763817 L284.678939,170.891659 C285.847967,169.521985 287.204875,168.473978 288.749663,167.747636 C290.29445,167.021294 292.027117,166.658123 293.947663,166.658123 C296.28572,166.658123 298.070576,167.363712 299.30223,168.774891 C300.533885,170.186069 301.149713,172.863158 301.149713,176.806157 L301.149713,176.806157 L301.149713,203.763817 L294.699182,205.756069 L294.699182,218.518933 L331.085187,218.518933 L331.085187,205.756069 L323.068993,203.763817 L323.068993,176.806157 C323.068993,167.675002 321.190197,160.909646 317.432606,156.51009 C313.675015,152.110533 308.518766,149.910755 301.963857,149.910755 C297.580001,149.910755 293.770222,150.865376 290.534518,152.774617 C287.298815,154.683859 284.658064,157.3817 282.612264,160.868141 C281.067477,157.174174 278.781609,154.424451 275.754661,152.618972 C272.727713,150.813494 269.105812,149.910755 264.888961,149.910755 C260.71386,149.910755 257.039771,150.803118 253.866694,152.587844 C250.693617,154.372569 248.000677,156.883637 245.787874,160.121046 L245.787874,160.121046 L245.098982,151.155912 L214.975628,151.155912 L214.975628,163.981035 L224.494859,165.973287 L224.494859,203.763817 L216.478665,205.756069 L216.478665,218.518933 L252.802043,218.518933 Z M371.73192,218.003983 C378.353948,216.116262 383.620035,213.1039 387.530165,208.966839 C391.440295,204.829777 393.933154,199.920123 395.008742,194.237877 C396.08433,188.55563 395.684212,182.462871 393.80845,175.959581 L393.80845,175.959581 L393.463144,174.762678 C391.587319,168.259407 388.681727,162.891646 384.746369,158.659396 C380.811011,154.427146 376.082699,151.586736 370.561431,150.138165 C365.040164,148.689595 358.928374,148.920582 352.226045,150.831069 C345.563883,152.73023 340.270573,155.761147 336.346131,159.923877 C332.421688,164.086607 329.918796,168.999121 328.837453,174.661419 C327.756111,180.323717 328.147598,186.386553 330.011853,192.849945 L330.011853,192.849945 L330.357159,194.046849 C332.244491,200.590017 335.158714,205.987701 339.099826,210.2399 C343.040938,214.492098 347.789318,217.326788 353.344965,218.74397 C358.900612,220.161152 365.029591,219.91447 371.73192,218.003983 Z M367.122905,202.025053 C364.474088,202.780099 362.17144,202.702463 360.214956,201.792126 C358.258472,200.881789 356.570835,199.247147 355.152045,196.8882 C353.733255,194.529254 352.511748,191.574347 351.487524,188.023479 L351.487524,188.023479 L351.142218,186.826576 C350.164089,183.43528 349.650745,180.375656 349.602248,177.647686 C349.553752,174.919716 350.107838,172.624465 351.264507,170.761934 C352.421175,168.899402 354.283782,167.602045 356.852322,166.869845 C359.461006,166.126238 361.752218,166.239518 363.725964,167.209701 C365.69971,168.179885 367.403135,169.831615 368.836238,172.164893 C370.269341,174.49817 371.474988,177.360448 372.453179,180.751726 L372.453179,180.751726 L372.798488,181.948629 C373.811139,185.459618 374.334588,188.591922 374.368772,191.345561 C374.402956,194.0992 373.845993,196.384477 372.697883,198.20139 C371.549773,200.018304 369.691445,201.292852 367.122905,202.025053 Z" id="path-8"></path>
        <filter x="-1.8%" y="-5.9%" width="103.6%" height="111.8%" filterUnits="objectBoundingBox" id="filter-9">
            <feMorphology radius="1.5" operator="dilate" in="SourceAlpha" result="shadowSpreadOuter1"></feMorphology>
            <feOffset dx="0" dy="0" in="shadowSpreadOuter1" result="shadowOffsetOuter1"></feOffset>
            <feComposite in="shadowOffsetOuter1" in2="SourceAlpha" operator="out" result="shadowOffsetOuter1"></feComposite>
            <feColorMatrix values="0 0 0 0 0   0 0 0 0 0   0 0 0 0 0  0 0 0 1 0" type="matrix" in="shadowOffsetOuter1"></feColorMatrix>
        </filter>
        <path d="M349.673057,124.466028 C354.740943,124.466028 359.048646,123.539826 362.596166,121.687423 C366.143686,119.835019 368.849283,117.186407 370.712957,113.741587 C372.576631,110.296766 373.508468,106.18573 373.508468,101.408479 L373.508468,101.408479 L373.508468,64.0679238 L380.963165,62.5080051 L380.963165,52.4660281 L346.681369,52.4660281 L346.681369,62.4592576 L356.392092,64.0679238 L356.392092,101.408479 C356.392092,103.748357 355.950696,105.641384 355.067903,107.087558 C354.18511,108.533733 353.065271,109.581803 351.708385,110.231769 C350.3515,110.881736 348.937396,111.206719 347.466074,111.206719 C344.915783,111.206719 342.798715,110.418635 341.114869,108.842467 C339.431023,107.266299 338.42562,104.187084 338.098659,99.6048229 L338.098659,99.6048229 L322.061253,99.6048229 L321.963165,99.8973077 C322.159341,105.519515 323.393616,110.142399 325.665991,113.76596 C327.938366,117.389522 331.109881,120.078757 335.180538,121.833665 C339.251195,123.588574 344.082034,124.466028 349.673057,124.466028 Z M408.61574,128.170034 C413.882266,127.986123 418.47151,127.054408 422.383481,125.375098 C426.295452,123.695788 429.310613,121.349555 431.428962,118.3364 C433.547311,115.323244 434.533508,111.724461 434.387385,107.540055 C434.174431,101.44185 431.967683,96.6880129 427.766899,93.2785506 C423.566115,89.8690882 417.490364,87.117828 409.539647,85.0247701 C406.194846,83.8425443 403.585123,82.7889042 401.710477,81.8638499 C399.835831,80.9387955 398.516391,79.9943456 397.752157,79.0305001 C396.987922,78.0666547 396.583725,76.9522052 396.539565,75.6871516 C396.485215,74.1301626 396.876156,72.8174323 397.712388,71.7489609 C398.548621,70.6804895 399.711172,69.8604331 401.200042,69.2887916 C402.688912,68.7171502 404.400992,68.3975258 406.33628,68.3299184 C408.58883,68.2512278 410.722401,68.4040314 412.736994,68.7883292 C414.751587,69.172627 416.307851,69.6216513 417.405785,70.1354021 L417.405785,70.1354021 L419.688136,79.5551424 L432.061293,79.1228984 L431.465135,62.0446751 C428.043316,59.5660667 424.136809,57.7620462 419.745615,56.6326136 C415.354421,55.5031809 410.337471,55.1019794 404.694764,55.429009 C399.748898,55.6992184 395.385979,56.7447454 391.606008,58.56559 C387.826036,60.3864346 384.892739,62.8028803 382.806116,65.8149273 C380.719492,68.8269743 379.744685,72.2954527 379.881694,76.2203625 C380.024364,80.3074587 381.071809,83.6971725 383.024029,86.389504 C384.976248,89.0818355 387.891022,91.3670576 391.76835,93.2451702 C395.645679,95.1232829 400.584697,96.9318297 406.585406,98.6708105 C409.254901,99.6168128 411.384204,100.557329 412.973316,101.492358 C414.562427,102.427387 415.717287,103.434421 416.437896,104.513459 C417.158504,105.592498 417.543153,106.829418 417.591842,108.224221 C417.642795,109.683898 417.32154,110.945479 416.628074,112.008963 C415.934609,113.072447 414.883382,113.896733 413.474393,114.481822 C412.065404,115.066912 410.298087,115.396585 408.172442,115.470842 C405.126742,115.577241 402.305116,115.27797 399.707565,114.573031 C397.110014,113.868092 395.283241,112.949484 394.227244,111.817208 L394.227244,111.817208 L392.470071,102.427837 L379.573192,102.878377 L380.215452,121.270301 C384.668356,124.167565 389.103155,126.091156 393.519847,127.041076 C397.93654,127.990995 402.968501,128.36724 408.61574,128.170034 Z" id="path-10"></path>
        <filter x="-4.0%" y="-5.9%" width="108.0%" height="111.9%" filterUnits="objectBoundingBox" id="filter-11">
            <feMorphology radius="1.5" operator="dilate" in="SourceAlpha" result="shadowSpreadOuter1"></feMorphology>
            <feOffset dx="0" dy="0" in="shadowSpreadOuter1" result="shadowOffsetOuter1"></feOffset>
            <feComposite in="shadowOffsetOuter1" in2="SourceAlpha" operator="out" result="shadowOffsetOuter1"></feComposite>
            <feColorMatrix values="0 0 0 0 0   0 0 0 0 0   0 0 0 0 0  0 0 0 1 0" type="matrix" in="shadowOffsetOuter1"></feColorMatrix>
        </filter>
        <circle id="path-12" cx="321" cy="132" r="7"></circle>
        <filter x="-32.1%" y="-32.1%" width="164.3%" height="164.3%" filterUnits="objectBoundingBox" id="filter-13">
            <feMorphology radius="1.5" operator="dilate" in="SourceAlpha" result="shadowSpreadOuter1"></feMorphology>
            <feOffset dx="0" dy="0" in="shadowSpreadOuter1" result="shadowOffsetOuter1"></feOffset>
            <feComposite in="shadowOffsetOuter1" in2="SourceAlpha" operator="out" result="shadowOffsetOuter1"></feComposite>
            <feColorMatrix values="0 0 0 0 0   0 0 0 0 0   0 0 0 0 0  0 0 0 1 0" type="matrix" in="shadowOffsetOuter1"></feColorMatrix>
        </filter>
    </defs>
    <g id="Page-1" stroke="none" stroke-width="1" fill="none" fill-rule="evenodd">
        <g id="Title" transform="translate(-27.000000, -261.000000)" fill-rule="nonzero">
            <g id="big-title" filter="url(#filter-1)" transform="translate(29.000000, 260.000000)">
                <g id="Selino's" transform="translate(203.699041, 32.532331) rotate(-2.000000) translate(-203.699041, -32.532331) ">
                    <use fill="black" fill-opacity="1" filter="url(#filter-3)" xlink:href="#path-2"></use>
                    <path stroke="#999999" stroke-width="1" d="M179.073655,9.25128647 L163.121916,9.25128647 L163.121916,15.2122304 L168.244509,16.2790333 L168.244509,53.2483331 L163.930747,54.315136 L163.930747,60.2579309 L183.353716,60.2579309 L183.353716,54.314397 L179.073655,53.247594 L179.073655,9.25128647 Z M235.709738,23.4336559 C233.476324,23.4336559 231.481769,23.9083316 229.728028,24.8649213 C227.780538,25.9271926 226.173227,27.4636263 224.487975,30.0298239 L223.992462,24.0969084 L208.153631,24.0969084 L208.153631,30.0197066 L213.381477,31.0809105 L213.381477,52.0128885 L208.990087,53.0740924 L208.990087,58.9788655 L227.751344,58.9788655 L227.751344,53.0392088 L224.614637,51.9780049 L224.614637,34.0069092 C225.291862,33.098277 226.096782,32.4252394 227.025819,31.9832414 C227.898709,31.5679561 228.945176,31.3544013 230.168221,31.3544013 C231.838381,31.3544013 233.110239,31.821419 234.005636,32.7099195 C234.836061,33.5339488 235.320194,34.8764793 235.373282,37.1545526 L235.373282,51.9918688 L231.818347,53.0530727 L231.818347,58.9788655 L251.032684,58.9788655 L251.032684,53.0740924 L246.641294,52.0128885 L246.641294,37.1935835 C246.641294,32.4048022 245.683939,28.8904761 243.702256,26.6834566 C241.748529,24.5075728 239.079823,23.4336559 235.709738,23.4336559 Z M148.296018,20.5701848 C151.525761,20.5701848 154.25846,21.1805432 156.489567,22.4168717 C158.69672,23.6399261 160.374801,25.4379954 161.5271,27.8079188 C162.697775,30.215637 163.27597,33.1798137 163.27597,36.6966867 L163.27597,36.6966867 L163.27597,42.3133469 L143.007461,42.3133469 C143.251459,44.3976185 143.673025,45.4574165 144.299952,46.3876658 C144.947084,47.3478955 145.842395,48.11043 146.990732,48.6698399 C148.113561,49.2168238 149.497897,49.4975946 151.147588,49.4975946 C152.725467,49.4975946 154.274331,49.3185062 155.794195,48.9604707 C157.15962,48.6388165 158.595886,48.1445673 160.10256,47.4764287 L160.10256,47.4764287 L162.487711,53.7684856 C160.681989,54.9404609 158.925617,55.7430196 156.901012,56.3956403 C154.570592,57.1468389 151.973621,57.5205133 149.110752,57.5205133 C145.608631,57.5205133 142.550605,56.7746669 139.939766,55.2722747 C137.338875,53.7756071 135.319314,51.727498 133.881657,49.1273851 C132.438745,46.5177709 131.720544,43.5676597 131.720544,40.2788192 L131.720544,40.2788192 L131.720522,39.0331265 L131.725909,38.4544709 C131.789946,35.0506232 132.427074,32.02165 133.643942,29.3691816 C134.914452,26.5997883 136.774969,24.433994 139.2287,22.8746356 C141.689799,21.3105943 144.713103,20.5483125 148.296018,20.5701848 Z M147.511954,27.9760788 C146.289766,27.9760788 145.323842,28.3267226 144.600214,28.9962648 C143.900045,29.6441019 143.381473,30.5294446 143.058711,31.6616059 C142.721525,32.8443616 142.492844,34.2106037 142.5446,36.0040037 L151.909865,36.0040037 L151.903931,34.1575471 C151.879878,32.9515394 151.757913,31.9352909 151.542345,31.0997193 C151.277985,30.0750224 150.813761,29.3085094 150.172029,28.784597 C149.527162,28.2581253 148.645715,27.9760788 147.511954,27.9760788 Z M109.875711,8.79897119 C106.348678,8.86350969 103.217826,9.45183261 100.482985,10.5701028 C97.7828859,11.6741669 95.6590795,13.1826762 94.1187922,15.104873 C92.6008081,16.9992366 91.8444272,19.2134422 91.8444272,21.7456117 C91.8444272,24.3883284 92.4802694,26.6052239 93.7709235,28.3895308 C95.0773259,30.1956095 97.0758875,31.7500975 99.7541557,33.0667196 C102.498893,34.4160177 106.010299,35.7424143 110.313646,37.056963 C112.260611,37.7711743 113.807944,38.4702633 114.957282,39.1509513 C116.164769,39.8660774 117.025785,40.6287754 117.554925,41.424948 C118.104334,42.2516198 118.3814,43.187215 118.3814,44.2332007 C118.3814,45.3384472 118.078529,46.281211 117.485635,47.0660772 C116.902247,47.8383603 116.04531,48.4323489 114.901747,48.8313078 C113.82103,49.2083414 112.476777,49.4016768 110.86707,49.4016768 C108.605526,49.4016768 106.520913,49.1258234 104.612844,48.5766977 C102.686684,48.0223656 101.338773,47.3289937 100.379077,46.3473665 L99.3847005,40.2291076 L90.9460401,40.2291076 L90.9460401,51.884602 C93.9741564,53.8305173 97.0123877,55.16289 100.062328,55.87786 C103.208013,56.6152744 106.809724,56.9824674 110.86707,56.9824674 C114.625879,56.9824674 117.921326,56.4741092 120.752086,55.4506197 C123.536071,54.4440426 125.712256,52.987162 127.272023,51.0684629 C128.814038,49.1716006 129.578733,46.8696821 129.578733,44.1674475 C129.578733,40.2134647 128.166262,37.0797342 125.323732,34.7750434 C122.405196,32.408728 118.125595,30.4452772 112.45746,28.8562299 C110.039389,27.9713336 108.156437,27.1907586 106.807919,26.5160356 C105.386501,25.8048381 104.403742,25.084042 103.840974,24.3739777 C103.239143,23.6146258 102.9381,22.7494925 102.9381,21.7784882 C102.9381,20.5902393 103.303064,19.6039597 104.017262,18.8132221 C104.704663,18.0521533 105.638563,17.4750999 106.827216,17.094141 C107.965944,16.729183 109.26621,16.544259 110.728857,16.544259 C112.400957,16.544259 113.978778,16.7016437 115.462438,17.0153465 C116.938776,17.3275012 118.078676,17.674621 119.144964,18.1717309 L120.528941,24.4346411 L128.611239,24.4346411 L128.611239,13.6518034 C126.28747,12.0064609 123.622329,10.7728275 120.617051,9.94838968 C117.502616,9.09400707 113.921946,8.71245693 109.875711,8.79897119 Z M268.017299,19.8042492 C271.652974,19.8042492 274.752668,20.5640454 277.311782,22.0986479 C279.859344,23.6263236 281.810032,25.7437378 283.165049,28.4497678 C284.53165,31.1789316 285.210466,34.3380456 285.210466,37.9248083 L285.210466,37.9248083 L285.210489,38.5959009 L285.205313,39.1386468 C285.140425,42.5052116 284.462675,45.4907592 283.164689,48.0933479 C281.809738,50.8101562 279.859243,52.93303 277.311782,54.4606451 C274.75317,55.994947 271.675958,56.7550438 268.084446,56.7550438 C264.447171,56.7550438 261.335397,56.0000559 258.753436,54.4757847 C256.185189,52.9596096 254.224402,50.8430318 252.869909,48.127142 C251.503037,45.3864298 250.824133,42.2101725 250.824133,38.6006906 L250.824133,38.6006906 L250.824109,37.9296273 L250.829284,37.3902479 C250.894159,34.0447212 251.57182,31.0751852 252.869549,28.4835619 C254.224788,25.7770895 256.181361,23.6540363 258.740146,22.1152188 C261.309874,20.5698206 264.40371,19.8042492 268.017299,19.8042492 Z M268.655029,28.6791623 C267.143396,28.6791623 265.934203,29.1302101 265.015482,30.0051388 C264.123417,30.8546826 263.473976,32.0347637 263.0846,33.5564306 C262.713032,35.0085059 262.525203,36.7062107 262.525203,38.6501277 L262.528982,39.8116885 C262.557425,41.6398653 262.743778,43.2213435 263.084368,44.5628399 C263.475123,46.1019173 264.12846,47.2726837 265.023358,48.0889148 C265.93847,48.9235838 267.165554,49.357352 268.719004,49.357352 C270.230507,49.357352 271.433064,48.9175364 272.339713,48.067528 C273.220788,47.2414964 273.871689,46.0674841 274.272797,44.5327642 C274.655261,43.0693789 274.84883,41.3318378 274.84883,39.3194539 L274.84883,38.6501277 L274.844183,38.1343434 C274.812457,36.400514 274.620813,34.8751207 274.272553,33.5530184 C273.872124,32.0328703 273.217776,30.8538716 272.326562,30.0051388 C271.408679,29.1310072 270.18921,28.6791623 268.655029,28.6791623 Z M203.012443,20.3380567 L187.040527,20.3380567 L187.040527,26.3906063 L192.145625,27.4714258 L192.145625,48.7681833 L187.851933,49.8490028 L187.851933,55.8832663 L207.272327,55.8832663 L207.272327,49.8482486 L203.012443,48.7674291 L203.012443,20.3380567 Z M301.723223,18.7624351 C298.265081,18.7624351 295.500103,19.2735623 293.434741,20.3181365 C291.416465,21.3388964 289.956164,22.6706955 289.067717,24.3269454 C288.1734,25.994138 287.727521,27.8131126 287.727521,29.783212 C287.727521,32.6682201 288.675561,35.0769243 290.582147,37.004848 C292.525399,38.9698477 295.556549,40.3409331 299.654321,41.1523587 C302.413597,41.6710439 304.204069,42.290859 305.049901,42.9624262 C306.010704,43.7252757 306.455302,44.571223 306.455302,45.4717994 C306.455302,46.4203913 306.040903,47.2145034 305.183982,47.8407876 C304.419287,48.3996682 303.032863,48.7164551 300.990107,48.7164551 C299.913335,48.7164551 298.989319,48.6004676 298.217086,48.374414 C297.491362,48.1619753 296.888954,47.9128704 296.124278,47.4580025 L294.834973,42.3122585 L287.833362,42.3122585 L288.21277,53.0238595 C290.015543,53.8180894 292.018004,54.453243 294.214497,54.9282371 C296.636682,55.4520374 299.250722,55.7132296 302.056458,55.7132296 C306.752816,55.7132296 310.346731,54.7115948 312.817092,52.6603407 C315.246868,50.6427864 316.452041,47.9045522 316.452041,44.4552603 C316.452041,41.2745737 315.49444,38.8876748 313.52541,37.3244681 C311.493806,35.7115838 308.463381,34.4631681 304.445796,33.5577898 C302.683357,33.1621272 301.345794,32.7274644 300.430268,32.2619926 C299.431783,31.7543424 298.781398,31.2072904 298.445979,30.6514759 C298.094101,30.0683877 297.924201,29.4842718 297.924201,28.9022114 C297.924201,27.8840594 298.330477,27.0520343 299.147949,26.4084944 C299.901856,25.8149953 301.084481,25.4881325 302.722927,25.4881325 C303.572719,25.4881325 304.339573,25.5858061 305.023993,25.7777911 C305.645837,25.9522234 306.211344,26.2019945 307.068148,26.7658739 L308.027088,31.3162903 L314.971714,31.3162903 L314.683586,20.9534346 C313.239679,20.3647604 311.47017,19.8696083 309.376058,19.4649301 C306.951289,18.9963538 304.400319,18.7624351 301.723223,18.7624351 Z M287.974074,8.03559129 L283.312261,8.03559129 L283.312261,18.2802712 L285.814182,18.2802712 L287.974074,13.1298147 L287.974074,8.03559129 Z M201.753631,4.80673032 L191.430004,4.80673032 L191.430004,12.2402402 L201.753631,12.2402402 L201.753631,4.80673032 Z" stroke-linejoin="square" fill="#FFFFFF" fill-rule="evenodd"></path>
                </g>
                <g id="Combined-Shape" transform="translate(103.910481, 188.422754) rotate(-2.000000) translate(-103.910481, -188.422754) ">
                    <use fill="black" fill-opacity="1" filter="url(#filter-5)" xlink:href="#path-4"></use>
                    <path stroke="#999999" stroke-width="1" d="M104.188992,143.599011 L104.888357,143.603628 C112.73161,143.707779 119.700271,145.579064 125.792202,149.22466 C132.060414,152.975748 136.966921,158.162355 140.513315,164.782952 C143.962536,171.22214 145.733884,178.619861 145.835295,186.970879 L145.835295,186.970879 L145.839945,187.737918 L145.839954,189.166824 L145.835323,189.933842 C145.733884,198.287906 143.962536,205.685627 140.513315,212.124815 C136.967163,218.74496 132.061033,223.921017 125.793237,227.65136 C119.701015,231.277208 112.73202,233.138319 104.891705,233.241873 L104.891705,233.241873 L104.192301,233.246487 L61.9810178,233.246487 L61.9810178,221.377666 L71.5628745,219.074124 L71.5628745,157.89838 L61.9810178,155.532581 L61.9810178,143.599021 L104.188992,143.599011 Z M104.154553,156.992565 L93.6343109,156.992565 L93.6343109,215.456584 L104.154553,215.456584 C108.909731,215.456584 112.889659,214.255385 116.101096,211.871627 C119.304409,209.493899 121.733518,206.153606 123.378344,201.842771 C124.937698,197.755946 125.753115,193.023263 125.818093,187.643359 L125.822306,186.943544 L125.822315,185.446351 L125.81812,184.746621 C125.753109,179.364067 124.937531,174.641502 123.37805,170.574479 C121.733261,166.284976 119.30437,162.955221 116.101096,160.577522 C112.889659,158.193764 108.909731,156.992565 104.154553,156.992565 Z" stroke-linejoin="square" fill="#FFFFFF" fill-rule="evenodd"></path>
                </g>
                <g id="React" transform="translate(153.236073, 97.025579) rotate(-1.000000) translate(-153.236073, -97.025579) ">
                    <use fill="black" fill-opacity="1" filter="url(#filter-7)" xlink:href="#path-6"></use>
                    <path stroke="#999999" stroke-width="1" d="M293.252031,62.4246782 L273.461555,62.4246782 L273.461555,78.2366599 L265.419394,78.2366599 L265.419394,91.568119 L273.461555,91.568119 L273.461555,120.849479 C273.461555,128.415871 275.148,133.966478 278.590087,137.465634 C282.023453,140.955924 287.046052,142.67576 293.632888,142.67576 C295.551808,142.67576 297.42179,142.529894 299.242812,142.23791 C300.766023,141.993677 302.282405,141.674805 303.791966,141.281318 L304.295878,141.144849 L302.95373,126.579309 C302.406801,126.662545 301.859871,126.734368 301.312942,126.79478 C300.579785,126.875762 299.846628,126.916244 299.113471,126.916244 C297.300767,126.916244 295.886294,126.448145 294.853598,125.549855 C293.874236,124.697957 293.307572,123.253723 293.252031,120.795949 L293.252031,91.568119 L303.796197,91.568119 L303.796197,78.2366599 L293.252031,78.2366599 L293.252031,62.4246782 Z M111.428668,72.3988198 C117.169696,72.3988198 122.025022,73.4881095 125.99011,75.6822842 C129.931098,77.8631233 132.928806,81.06818 134.986461,85.2943487 C137.062456,89.558187 138.093301,94.8064966 138.093301,101.035505 L138.093301,101.035505 L138.093301,111.254489 L102.583193,111.254489 C102.933955,114.377927 103.648881,116.207094 104.729417,117.808224 C105.829262,119.437966 107.352381,120.730198 109.303647,121.679453 C111.229305,122.616249 113.60437,123.091915 116.432679,123.091915 C119.172143,123.091915 121.861238,122.781464 124.499981,122.160704 C126.98493,121.576124 129.604524,120.662856 132.358267,119.419421 L132.358267,119.419421 L136.795616,131.109179 C133.862933,133.1 130.533219,134.662781 126.644922,135.914437 C122.520744,137.242025 117.925015,137.903897 112.858386,137.903897 C106.63999,137.903897 101.211632,136.577413 96.5764005,133.913747 C91.9512502,131.255875 88.3600907,127.618543 85.8035359,123.001151 C83.2417924,118.374387 81.9641719,113.144388 81.9641719,107.312921 L81.9641719,107.312921 L81.9641619,105.124918 L81.9685385,104.433024 C82.0468916,98.2795594 83.1795906,92.8139716 85.3736717,88.0379701 C87.6349484,83.1156995 90.9474747,79.2674626 95.3144064,76.4960546 C99.6888592,73.7198734 105.061142,72.3599945 111.428668,72.3988198 Z M111.905241,86.4409298 C109.664846,86.4409298 107.886875,86.9920839 106.557967,88.0615343 C105.235833,89.1255333 104.265032,90.5827667 103.656023,92.4407925 C103.028762,94.3545026 102.59626,96.5538436 102.653258,99.4035527 L120.031264,99.4035527 L120.026905,96.8779993 C119.995778,94.7414012 119.759658,92.9436395 119.324685,91.4771955 C118.83222,89.8169277 117.979102,88.5679008 116.781734,87.717672 C115.599554,86.8782281 113.97853,86.4409298 111.905241,86.4409298 Z M168.437126,72.3988198 C177.080819,72.3988198 183.952998,74.3561979 189.040169,78.3047247 C194.084093,82.2196841 196.591048,87.8081318 196.591048,95.0541938 L196.591048,95.0541938 L196.591051,118.685171 L196.594371,119.588507 C196.598803,120.187718 196.607668,120.778117 196.620964,121.359704 C196.644368,122.383388 196.761416,123.354036 196.971246,124.271747 L196.971246,124.271747 L203.858778,125.442173 L203.858778,136.660258 L180.198189,136.660258 C179.640827,135.834745 179.190114,135.041368 178.713117,134.09299 C178.138506,132.950533 177.735468,131.808312 177.50561,130.665784 C177.431267,130.296261 177.373644,129.919763 177.332362,129.53669 C177.106275,129.843119 176.870993,130.147605 176.626526,130.450151 C174.723743,132.804977 172.589223,134.640384 170.220226,135.953037 C167.861229,137.260148 164.862183,137.903897 161.228967,137.903897 C155.133393,137.903897 150.157654,136.197429 146.311829,132.760423 C142.484542,129.339984 140.581062,124.782583 140.581062,119.097881 C140.581062,115.219119 141.631051,111.780817 143.736779,108.784854 C145.851295,105.776388 149.038245,103.421961 153.284742,101.706375 C157.583657,99.9696103 162.97297,99.1074482 169.449843,99.1074482 L169.449843,99.1074482 L176.681429,99.1074482 L176.681429,94.8105957 C176.603581,91.8918925 175.826101,89.7438687 174.364294,87.956823 C172.81327,86.0607095 170.373767,85.078849 167.007409,85.078849 C165.607874,85.078849 164.301148,85.2537574 163.086932,85.6015569 C161.790113,85.973017 160.621918,86.5190565 159.581572,87.2380153 L159.581572,87.2380153 L158.187696,95.2056238 L144.385357,95.2056238 L144.10129,78.2054675 L144.89339,77.8608353 C148.19477,76.4504993 151.632173,75.215189 155.205555,74.1547867 C159.154398,72.9829661 163.565107,72.3988198 168.437126,72.3988198 Z M176.681429,110.306653 L169.284304,110.311121 C166.520073,110.368761 164.381607,111.028543 162.852587,112.252455 C161.200678,113.574734 160.371538,115.322517 160.371538,117.498917 C160.371538,119.59817 161.073679,121.239265 162.449677,122.436176 C163.80591,123.615894 165.540482,124.217112 167.662696,124.217112 C169.233167,124.217112 170.81437,123.900287 172.405707,123.26339 C174.065779,122.598983 175.491067,121.590013 176.681429,120.236276 L176.681429,110.306653 Z M234.873166,72.3988198 C228.856463,72.3988198 223.589949,73.7533336 219.076662,76.4725579 C214.56832,79.1888029 211.056305,82.9535171 208.538768,87.7649448 C206.099582,92.426629 204.842004,97.7968764 204.757904,103.87348 L204.753371,104.532984 L204.753383,105.89162 C204.753383,112.08424 205.964219,117.596503 208.393503,122.426472 C210.812501,127.23599 214.284485,131.018167 218.81046,133.77207 C223.344767,136.531042 228.759928,137.903897 235.051881,137.903897 C240.761507,137.903897 245.388852,137.086684 248.929045,135.433948 C252.430442,133.799324 255.167989,131.338017 257.141189,128.049477 C259.042625,124.880539 260.46148,120.943354 261.351189,115.748523 L244.649308,115.748523 C243.870636,118.084324 242.793454,119.863156 241.434442,121.096688 C239.985023,122.412281 237.943543,123.091915 235.290167,123.091915 C233.568626,123.091915 231.886856,122.55494 230.248225,121.46895 C228.630517,120.396826 227.279795,118.602292 226.220607,116.062816 C225.232692,113.694222 224.708868,110.488971 224.665901,106.442847 L224.663008,105.89425 L224.663001,104.529539 C224.663001,100.406072 225.049534,97.0240575 225.814593,94.3821281 C226.604672,91.6537971 227.924376,89.6268851 229.751937,88.2849277 C231.572317,86.948244 234.029687,86.2632671 237.136885,86.2632671 C237.938465,86.2632671 238.942143,86.4861035 240.145649,86.9478801 C241.270626,87.3795261 242.182044,87.9222885 243.13248,88.8128821 L245.582753,100.18018 L260.235996,100.18018 L260.580329,80.7257799 C258.085852,78.7896958 254.722811,76.9305264 250.49469,75.1427259 C246.160281,73.309983 240.952309,72.3988198 234.873166,72.3988198 Z M44.290209,51.3753903 L45.0199858,51.3795205 C51.5081063,51.4534567 57.1577085,52.521379 61.966797,54.5917958 C66.9157891,56.7224441 70.7384598,59.7500648 73.4278122,63.6828544 C76.113802,67.6107266 77.4509772,72.2654717 77.4509772,77.6432476 C77.4509772,82.600752 76.0963972,87.2093981 73.3922593,91.4642129 L73.3922593,91.4642129 L72.9741379,92.1038173 C70.6477311,95.5636613 67.6338783,98.4460662 63.9339642,100.752436 L63.9339642,100.752436 L73.2353903,123.429612 L81.3231288,125.468775 L81.3231288,136.660258 L56.9204784,136.660258 L46.1273525,105.570705 L31.0447298,105.38544 L31.0447298,123.530542 L40.0400358,125.425611 L40.0400358,136.660258 L2.13980527,136.660258 L2.13980527,125.425611 L11.1351113,123.530542 L11.1351113,64.623556 L2.13980527,62.728487 L2.13980527,51.3753984 L44.290209,51.3753903 Z M44.2930442,66.3058219 L31.0447298,66.3058219 L31.0447298,90.461196 L44.5313305,90.461196 C48.7299674,90.461196 51.9494124,89.4682028 54.2097697,87.5275669 C56.4958231,85.5648695 57.6605018,82.7316165 57.6605018,79.0053285 C57.6605018,75.1833501 56.4912599,72.118377 54.178575,69.7987778 C51.8719511,67.4852579 48.5840634,66.3058219 44.2930442,66.3058219 Z" stroke-linejoin="square" fill="#FFFFFF" fill-rule="evenodd"></path>
                </g>
                <g id="Demo" transform="translate(271.215394, 184.177885) rotate(-3.000000) translate(-271.215394, -184.177885) ">
                    <use fill="black" fill-opacity="1" filter="url(#filter-9)" xlink:href="#path-8"></use>
                    <path stroke="#999999" stroke-width="1" d="M166.527791,149.473954 C171.854728,146.829324 178.149444,145.917534 185.411218,146.720888 C191.96277,147.405282 197.371684,149.227393 201.631806,152.202304 C205.869211,155.161352 208.906061,159.176591 210.745879,164.245279 C212.600017,169.35342 213.144273,175.459229 212.393323,182.560448 L212.393323,182.560448 L211.155867,194.262221 L170.728335,190.039043 C170.75279,193.547424 171.342529,195.700032 172.373625,197.638121 C173.424259,199.612936 174.995026,201.255459 177.091376,202.560729 C179.163426,203.850871 181.800827,204.67055 185.008917,205.005676 C188.12285,205.330967 191.216823,205.29763 194.290838,204.905804 C197.208146,204.533952 200.320888,203.799157 203.628719,202.699865 L203.628719,202.699865 L207.308903,216.659565 C203.720132,218.590356 199.714068,219.98589 195.101193,220.954985 C190.238123,221.976643 184.917539,222.183749 179.139689,221.580178 C172.044651,220.839009 166.01133,218.678807 161.043928,215.089201 C156.086072,211.506493 152.426422,206.929952 150.06567,201.359028 C147.700724,195.778207 146.873173,189.662658 147.576322,183.013465 L147.576322,183.013465 L147.839697,180.522818 L147.921824,179.787746 C148.749386,172.761478 150.702596,166.649585 153.7883,161.454513 C156.963256,156.109177 161.208814,152.114632 166.527791,149.473954 Z M177.932103,165.504977 C176.335666,166.553361 175.083441,168.087684 174.185533,170.116903 C173.264132,172.199215 172.523397,174.62342 172.242363,177.828141 L191.571829,179.859115 L191.808387,177.609256 L191.859525,177.090005 C192.08307,174.650905 192.035636,172.57171 191.723716,170.848646 C191.374336,168.918648 190.57665,167.409869 189.349154,166.311232 C188.133595,165.223279 186.381236,164.541165 184.074703,164.298814 C181.582236,164.036927 179.538036,164.450357 177.932103,165.504977 Z M352.36311,151.311915 C358.968257,149.429129 364.992149,149.19392 370.434544,150.621797 C375.862826,152.045972 380.511194,154.838975 384.380206,158.999873 C388.26592,163.178733 391.130781,168.480756 392.982737,174.901275 L392.982737,174.901275 L393.327121,176.094941 L393.515002,176.762991 C395.205852,182.934498 395.542749,188.728394 394.517466,194.144883 C393.460201,199.730328 391.010394,204.556713 387.166786,208.623392 C383.31315,212.700681 378.119822,215.663085 371.594855,217.523136 C364.988182,219.406357 358.946026,219.656725 353.468552,218.259484 C348.007586,216.866455 343.34042,214.079676 339.466539,209.900015 C335.574727,205.701008 332.701081,200.368849 330.837566,193.908252 L330.837566,193.908252 L330.493188,192.714605 L330.306492,192.050667 C328.626601,185.91719 328.297921,180.152103 329.328578,174.755211 C330.39162,169.188741 332.851875,164.35919 336.709944,160.266864 C340.577865,156.164087 345.798303,153.183324 352.36311,151.311915 Z M356.715257,166.388999 C354.008651,167.160556 352.056789,168.538406 350.839749,170.498151 C349.637306,172.434392 349.051875,174.818579 349.102327,177.656573 C349.151506,180.422899 349.669858,183.525947 350.661801,186.965139 L351.007117,188.162076 L351.1907,188.785221 C352.191066,192.109595 353.369736,194.894953 354.723573,197.145905 C356.20197,199.603956 357.967189,201.297731 360.004025,202.245456 C362.057783,203.201053 364.474944,203.299772 367.259971,202.505899 C369.966351,201.734405 371.91276,200.379868 373.120566,198.468484 C374.314422,196.579176 374.904309,194.205111 374.868734,191.339355 C374.834071,188.547138 374.305815,185.370495 373.278904,181.810066 L372.933586,180.613128 L372.746603,179.98036 C371.787969,176.81369 370.625645,174.122926 369.262292,171.90321 C367.772703,169.477966 365.996664,167.768711 363.94653,166.76098 C361.871291,165.740909 359.462299,165.605953 356.715257,166.388999 Z M301.963857,150.410755 C297.678586,150.410755 293.952379,151.338445 290.78861,153.205241 C287.624397,155.0723 285.043881,157.712155 283.043504,161.121187 C282.86537,161.424762 282.694804,161.729379 282.531811,162.035037 C282.414175,161.712088 282.287333,161.387111 282.150976,161.061048 C280.651599,157.475669 278.43772,154.801521 275.498529,153.048387 C272.542934,151.285468 269.005051,150.410755 264.888961,150.410755 C260.807582,150.410755 257.214324,151.278603 254.111811,153.023639 C251.15241,154.688181 248.620687,156.99906 246.514394,159.953737 L245.396604,161.555237 L244.635928,151.655912 L215.475628,151.655912 L215.475628,163.574845 L224.994859,165.567097 L224.994859,204.154763 L216.978665,206.147015 L216.978665,218.018933 L252.302043,218.018933 L252.302043,206.124947 L245.851512,204.132695 L245.851512,170.775502 C247.095481,169.234986 248.548942,168.075926 250.209485,167.295157 C251.818271,166.538724 253.600606,166.158123 255.55761,166.158123 C258.157446,166.158123 260.09048,166.939848 261.385586,168.44931 C262.599754,169.864438 263.276298,172.485657 263.322257,176.800832 L263.322286,204.1174 L257.685899,206.109652 L257.685899,218.018933 L289.815325,218.018933 L289.815325,206.109652 L284.178939,204.1174 L284.178939,170.709137 C285.422679,169.213395 286.875899,168.076147 288.536912,167.295157 C290.144926,166.539087 291.948047,166.158123 293.947663,166.158123 C296.457885,166.158123 298.360628,166.935655 299.678932,168.446112 C300.914496,169.861769 301.602909,172.483461 301.649683,176.80074 L301.649713,204.132695 L295.199182,206.124947 L295.199182,218.018933 L330.585187,218.018933 L330.585187,206.147015 L322.568993,204.154763 L322.568993,176.806157 C322.568993,167.830294 320.749876,161.163981 317.052404,156.834814 C313.38717,152.543393 308.353329,150.410755 301.963857,150.410755 Z" stroke-linejoin="square" fill="#FFFFFF" fill-rule="evenodd"></path>
                </g>
                <g id="JS" transform="translate(378.182346, 90.343462) rotate(1.000000) translate(-378.182346, -90.343462) ">
                    <use fill="black" fill-opacity="1" filter="url(#filter-11)" xlink:href="#path-10"></use>
                    <path stroke="#999999" stroke-width="1" d="M404.723693,55.9281714 C399.848405,56.1945277 395.54813,57.2216235 391.822999,59.0160508 C388.128038,60.795945 385.25726,63.1547161 383.217125,66.0996578 C381.19107,69.0242734 380.248388,72.3928115 380.381389,76.2029194 C380.520107,80.1767742 381.529656,83.4768395 383.428814,86.0959927 C385.338541,88.7297219 388.194768,90.9586179 391.986318,92.795181 C395.842931,94.6632597 400.756013,96.4609041 406.752416,98.1995278 C409.458494,99.1584941 411.616074,100.113628 413.226878,101.061421 C414.893914,102.042301 416.098392,103.104781 416.853698,104.235776 C417.624864,105.390518 418.039412,106.713539 418.091537,108.206778 C418.146455,109.779996 417.793556,111.137009 417.0469,112.282066 C416.302772,113.423245 415.179887,114.315004 413.666145,114.943592 C412.210787,115.547936 410.386258,115.89381 408.189899,115.970537 C405.090665,116.078806 402.219687,115.772872 399.576609,115.055577 C396.937761,114.33943 395.071638,113.399092 393.764172,112.060912 L392.057716,102.942547 L380.090336,103.360616 L380.706045,120.992209 C385.029815,123.77469 389.335469,125.629688 393.624981,126.552254 C398.005826,127.494463 402.997044,127.865938 408.59829,127.670339 C413.795479,127.488849 418.325398,126.573008 422.186249,124.915642 C426.004553,123.276541 428.951715,120.99068 431.01993,118.048836 C433.078482,115.120737 434.029628,111.622076 433.88769,107.557504 C433.680418,101.622026 431.543252,96.9874937 427.451807,93.6667737 C423.294861,90.2928917 417.278499,87.5790891 409.373023,85.4961896 C406.00471,84.3056533 403.377021,83.2437763 401.489221,82.3122311 C399.528894,81.344897 398.158631,80.3479096 397.360369,79.3411489 C396.529101,78.2927604 396.087915,77.0809561 396.03987,75.7045947 C395.980947,74.0166214 396.413338,72.5975239 397.318642,71.4407982 C398.20684,70.3059294 399.438283,69.4296202 401.020826,68.8220138 C402.556614,68.2323586 404.322219,67.8999726 406.318824,67.8302232 C408.610527,67.7501648 410.781114,67.9062156 412.830683,68.2971853 C414.852556,68.6828717 416.422331,69.1345608 417.833901,69.7790107 L420.078082,79.041215 L431.544155,78.6406591 L430.974004,62.3074685 C427.649026,59.9377178 423.864364,58.2082458 419.621067,57.1168529 C415.274606,55.9989258 410.308609,55.6044911 404.723693,55.9281714 Z M380.463165,52.9660281 L347.181369,52.9660281 L347.181369,62.0352727 L356.892092,63.6439389 L356.892092,101.408479 C356.892092,103.858443 356.417962,105.835558 355.494673,107.348073 C354.55709,108.884002 353.364615,109.992817 351.924389,110.682704 C350.498415,111.365765 349.012224,111.706719 347.466074,111.706719 C344.776413,111.706719 342.547615,110.868463 340.77318,109.207499 C339.141106,107.679793 338.079564,104.809875 337.641389,100.113194 L322.483571,100.387957 C322.730632,105.678674 323.926791,110.051491 326.089588,113.500318 C328.307906,117.03768 331.404997,119.661499 335.378483,121.374516 C339.393541,123.105455 344.159154,123.966028 349.673057,123.966028 C354.648891,123.966028 358.880743,123.063438 362.364733,121.244208 C365.82081,119.439554 368.457458,116.859873 370.27319,113.503669 C372.027317,110.261336 372.933908,106.415942 373.004058,101.970662 L373.008484,101.404556 L373.008468,63.661721 L380.463165,62.1018022 L380.463165,52.9660281 Z" stroke-linejoin="square" fill="#FFFFFF" fill-rule="evenodd"></path>
                </g>
                <g id="Oval">
                    <use fill="black" fill-opacity="1" filter="url(#filter-13)" xlink:href="#path-12"></use>
                    <circle stroke="#999999" stroke-width="1" stroke-linejoin="square" fill="#FFFFFF" fill-rule="evenodd" cx="321" cy="132" r="6.5"></circle>
                </g>
            </g>
        </g>
    </g>
</svg>