<?xml version="1.0" encoding="UTF-8"?>
<svg width="283px" height="116px" viewBox="0 0 283 116" version="1.1" xmlns="http://www.w3.org/2000/svg" xmlns:xlink="http://www.w3.org/1999/xlink">
    <title>big-title</title>
    <defs>
        <path d="M13.467,51.67 C17.0403333,51.67 19.765,50.6538333 21.641,48.6215 C23.517,46.5891667 24.455,43.6746667 24.455,39.878 L24.455,39.878 L24.455,4.1 L17.353,4.1 L17.353,40.414 C17.353,42.022 17.0291667,43.1833333 16.3815,43.898 C15.7338333,44.6126667 14.807,44.97 13.601,44.97 C12.395,44.97 11.4681667,44.6126667 10.8205,43.898 C10.1728333,43.1833333 9.849,42.022 9.849,40.414 L9.849,40.414 L9.849,4.1 L2.479,4.1 L2.479,39.878 C2.479,43.6746667 3.417,46.5891667 5.293,48.6215 C7.169,50.6538333 9.89366667,51.67 13.467,51.67 Z M36.004125,51 L36.004125,4.1 L28.634125,4.1 L28.634125,51 L36.004125,51 Z M61.380375,51 C65.0430417,51 67.7900417,50.0173333 69.621375,48.052 C71.4527083,46.0866667 72.368375,43.2056667 72.368375,39.409 L72.368375,39.409 L72.368375,15.691 C72.368375,11.8943333 71.4527083,9.01333333 69.621375,7.048 C67.7900417,5.08266667 65.0430417,4.1 61.380375,4.1 L61.380375,4.1 L50.124375,4.1 L50.124375,51 L61.380375,51 Z M61.246375,44.3 L57.494375,44.3 L57.494375,10.8 L61.246375,10.8 C62.452375,10.8 63.3792083,11.1573333 64.026875,11.872 C64.6745417,12.5866667 64.998375,13.748 64.998375,15.356 L64.998375,15.356 L64.998375,39.744 C64.998375,41.352 64.6745417,42.5133333 64.026875,43.228 C63.3792083,43.9426667 62.452375,44.3 61.246375,44.3 L61.246375,44.3 Z M96.3795,51 L96.3795,44.3 L83.6495,44.3 L83.6495,29.895 L93.7665,29.895 L93.7665,23.195 L83.6495,23.195 L83.6495,10.8 L96.3795,10.8 L96.3795,4.1 L76.2795,4.1 L76.2795,51 L96.3795,51 Z M109.268625,51.67 C112.886625,51.67 115.644792,50.6426667 117.543125,48.588 C119.441458,46.5333333 120.390625,43.5853333 120.390625,39.744 C120.390625,36.796 119.809958,34.2276667 118.648625,32.039 C117.487292,29.8503333 115.365625,27.416 112.283625,24.736 C109.871625,22.6366667 108.207792,20.85 107.292125,19.376 C106.376458,17.902 105.918625,16.3163333 105.918625,14.619 C105.918625,11.6263333 107.146958,10.13 109.603625,10.13 C110.809625,10.13 111.725292,10.4985 112.350625,11.2355 C112.975958,11.9725 113.288625,13.145 113.288625,14.753 L113.288625,14.753 L113.288625,17.165 L120.256625,17.165 L120.256625,15.222 C120.256625,11.4253333 119.352125,8.51083333 117.543125,6.4785 C115.734125,4.44616667 113.065292,3.43 109.536625,3.43 C105.963292,3.43 103.238625,4.44616667 101.362625,6.4785 C99.486625,8.51083333 98.548625,11.3806667 98.548625,15.088 C98.548625,17.8126667 99.151625,20.2581667 100.357625,22.4245 C101.563625,24.5908333 103.685292,27.014 106.722625,29.694 C109.134625,31.7933333 110.787292,33.5911667 111.680625,35.0875 C112.573958,36.5838333 113.020625,38.3146667 113.020625,40.28 C113.020625,41.9326667 112.696792,43.1275 112.049125,43.8645 C111.401458,44.6015 110.452292,44.97 109.201625,44.97 C106.655625,44.97 105.382625,43.4513333 105.382625,40.414 L105.382625,40.414 L105.382625,37.198 L98.414625,37.198 L98.414625,39.878 C98.414625,43.6746667 99.3302917,46.5891667 101.161625,48.6215 C102.992958,50.6538333 105.695292,51.67 109.268625,51.67 Z M130.93475,51 L130.93475,4.1 L123.56475,4.1 L123.56475,51 L130.93475,51 Z M145.833875,51.67 C149.407208,51.67 152.131875,50.6538333 154.007875,48.6215 C155.883875,46.5891667 156.821875,43.6746667 156.821875,39.878 L156.821875,39.878 L156.821875,24.535 L146.168875,24.535 L146.168875,31.235 L149.853875,31.235 L149.853875,40.414 C149.853875,43.4513333 148.580875,44.97 146.034875,44.97 C143.488875,44.97 142.215875,43.4513333 142.215875,40.414 L142.215875,40.414 L142.215875,14.753 C142.215875,11.671 143.488875,10.13 146.034875,10.13 C148.580875,10.13 149.853875,11.671 149.853875,14.753 L149.853875,14.753 L149.853875,19.242 L156.821875,19.242 L156.821875,15.222 C156.821875,11.4253333 155.883875,8.51083333 154.007875,6.4785 C152.131875,4.44616667 149.407208,3.43 145.833875,3.43 C142.260542,3.43 139.535875,4.44616667 137.659875,6.4785 C135.783875,8.51083333 134.845875,11.4253333 134.845875,15.222 L134.845875,15.222 L134.845875,39.878 C134.845875,43.6746667 135.783875,46.5891667 137.659875,48.6215 C139.535875,50.6538333 142.260542,51.67 145.833875,51.67 Z M167.098,51 L167.098,16.763 L167.232,16.763 L176.076,51 L183.647,51 L183.647,4.1 L177.081,4.1 L177.081,32.173 L176.947,32.173 L169.778,4.1 L160.532,4.1 L160.532,51 L167.098,51 Z M211.03325,39.342 L211.03325,30.163 L220.01125,30.163 L220.01125,24.937 L211.03325,24.937 L211.03325,15.892 L205.80725,15.892 L205.80725,24.937 L196.82925,24.937 L196.82925,30.163 L205.80725,30.163 L205.80725,39.342 L211.03325,39.342 Z M14.003,107 C17.6656667,107 20.4126667,106.017333 22.244,104.052 C24.0753333,102.086667 24.991,99.2056667 24.991,95.409 L24.991,95.409 L24.991,71.691 C24.991,67.8943333 24.0753333,65.0133333 22.244,63.048 C20.4126667,61.0826667 17.6656667,60.1 14.003,60.1 L14.003,60.1 L2.747,60.1 L2.747,107 L14.003,107 Z M13.869,100.3 L10.117,100.3 L10.117,66.8 L13.869,66.8 C15.075,66.8 16.0018333,67.1573333 16.6495,67.872 C17.2971667,68.5866667 17.621,69.748 17.621,71.356 L17.621,71.356 L17.621,95.744 C17.621,97.352 17.2971667,98.5133333 16.6495,99.228 C16.0018333,99.9426667 15.075,100.3 13.869,100.3 L13.869,100.3 Z M49.002125,107 L49.002125,100.3 L36.272125,100.3 L36.272125,85.895 L46.389125,85.895 L46.389125,79.195 L36.272125,79.195 L36.272125,66.8 L49.002125,66.8 L49.002125,60.1 L28.902125,60.1 L28.902125,107 L49.002125,107 Z M67.11725,107 L74.21925,60.1 L67.45225,60.1 L62.62825,96.481 L62.49425,96.481 L57.67025,60.1 L50.23325,60.1 L57.33525,107 L67.11725,107 Z M96.823375,107 L96.823375,100.3 L84.093375,100.3 L84.093375,85.895 L94.210375,85.895 L94.210375,79.195 L84.093375,79.195 L84.093375,66.8 L96.823375,66.8 L96.823375,60.1 L76.723375,60.1 L76.723375,107 L96.823375,107 Z M119.4945,107 L119.4945,100.3 L107.3675,100.3 L107.3675,60.1 L99.9975,60.1 L99.9975,107 L119.4945,107 Z M132.383625,107.67 C136.001625,107.67 138.770958,106.642667 140.691625,104.588 C142.612292,102.533333 143.572625,99.63 143.572625,95.878 L143.572625,95.878 L143.572625,71.222 C143.572625,67.47 142.612292,64.5666667 140.691625,62.512 C138.770958,60.4573333 136.001625,59.43 132.383625,59.43 C128.765625,59.43 125.996292,60.4573333 124.075625,62.512 C122.154958,64.5666667 121.194625,67.47 121.194625,71.222 L121.194625,71.222 L121.194625,95.878 C121.194625,99.63 122.154958,102.533333 124.075625,104.588 C125.996292,106.642667 128.765625,107.67 132.383625,107.67 Z M132.383625,100.97 C129.837625,100.97 128.564625,99.429 128.564625,96.347 L128.564625,96.347 L128.564625,70.753 C128.564625,67.671 129.837625,66.13 132.383625,66.13 C134.929625,66.13 136.202625,67.671 136.202625,70.753 L136.202625,70.753 L136.202625,96.347 C136.202625,99.429 134.929625,100.97 132.383625,100.97 Z M154.85375,107 L154.85375,87.905 L158.33775,87.905 C162.000417,87.905 164.747417,86.9223333 166.57875,84.957 C168.410083,82.9916667 169.32575,80.1106667 169.32575,76.314 L169.32575,76.314 L169.32575,71.691 C169.32575,67.8943333 168.410083,65.0133333 166.57875,63.048 C164.747417,61.0826667 162.000417,60.1 158.33775,60.1 L158.33775,60.1 L147.48375,60.1 L147.48375,107 L154.85375,107 Z M158.33775,81.205 L154.85375,81.205 L154.85375,66.8 L158.33775,66.8 C159.54375,66.8 160.44825,67.135 161.05125,67.805 C161.65425,68.475 161.95575,69.614 161.95575,71.222 L161.95575,71.222 L161.95575,76.783 C161.95575,78.391 161.65425,79.53 161.05125,80.2 C160.44825,80.87 159.54375,81.205 158.33775,81.205 L158.33775,81.205 Z M178.730875,107 L178.730875,71.49 L178.864875,71.49 L184.224875,107 L190.388875,107 L195.748875,71.49 L195.882875,71.49 L195.882875,107 L202.850875,107 L202.850875,60.1 L192.331875,60.1 L187.641875,93.667 L187.507875,93.667 L182.817875,60.1 L172.298875,60.1 L172.298875,107 L178.730875,107 Z M227.398,107 L227.398,100.3 L214.668,100.3 L214.668,85.895 L224.785,85.895 L224.785,79.195 L214.668,79.195 L214.668,66.8 L227.398,66.8 L227.398,60.1 L207.298,60.1 L207.298,107 L227.398,107 Z M237.138125,107 L237.138125,72.763 L237.272125,72.763 L246.116125,107 L253.687125,107 L253.687125,60.1 L247.121125,60.1 L247.121125,88.173 L246.987125,88.173 L239.818125,60.1 L230.572125,60.1 L230.572125,107 L237.138125,107 Z M271.26625,107 L271.26625,66.8 L278.97125,66.8 L278.97125,60.1 L256.19125,60.1 L256.19125,66.8 L263.89625,66.8 L263.89625,107 L271.26625,107 Z" id="path-1"></path>
        <path d="M16.467,48.67 C20.0403333,48.67 22.765,47.6538333 24.641,45.6215 C26.517,43.5891667 27.455,40.6746667 27.455,36.878 L27.455,36.878 L27.455,1.1 L20.353,1.1 L20.353,37.414 C20.353,39.022 20.0291667,40.1833333 19.3815,40.898 C18.7338333,41.6126667 17.807,41.97 16.601,41.97 C15.395,41.97 14.4681667,41.6126667 13.8205,40.898 C13.1728333,40.1833333 12.849,39.022 12.849,37.414 L12.849,37.414 L12.849,1.1 L5.479,1.1 L5.479,36.878 C5.479,40.6746667 6.417,43.5891667 8.293,45.6215 C10.169,47.6538333 12.8936667,48.67 16.467,48.67 Z M39.004125,48 L39.004125,1.1 L31.634125,1.1 L31.634125,48 L39.004125,48 Z M64.380375,48 C68.0430417,48 70.7900417,47.0173333 72.621375,45.052 C74.4527083,43.0866667 75.368375,40.2056667 75.368375,36.409 L75.368375,36.409 L75.368375,12.691 C75.368375,8.89433333 74.4527083,6.01333333 72.621375,4.048 C70.7900417,2.08266667 68.0430417,1.1 64.380375,1.1 L64.380375,1.1 L53.124375,1.1 L53.124375,48 L64.380375,48 Z M64.246375,41.3 L60.494375,41.3 L60.494375,7.8 L64.246375,7.8 C65.452375,7.8 66.3792083,8.15733333 67.026875,8.872 C67.6745417,9.58666667 67.998375,10.748 67.998375,12.356 L67.998375,12.356 L67.998375,36.744 C67.998375,38.352 67.6745417,39.5133333 67.026875,40.228 C66.3792083,40.9426667 65.452375,41.3 64.246375,41.3 L64.246375,41.3 Z M99.3795,48 L99.3795,41.3 L86.6495,41.3 L86.6495,26.895 L96.7665,26.895 L96.7665,20.195 L86.6495,20.195 L86.6495,7.8 L99.3795,7.8 L99.3795,1.1 L79.2795,1.1 L79.2795,48 L99.3795,48 Z M112.268625,48.67 C115.886625,48.67 118.644792,47.6426667 120.543125,45.588 C122.441458,43.5333333 123.390625,40.5853333 123.390625,36.744 C123.390625,33.796 122.809958,31.2276667 121.648625,29.039 C120.487292,26.8503333 118.365625,24.416 115.283625,21.736 C112.871625,19.6366667 111.207792,17.85 110.292125,16.376 C109.376458,14.902 108.918625,13.3163333 108.918625,11.619 C108.918625,8.62633333 110.146958,7.13 112.603625,7.13 C113.809625,7.13 114.725292,7.4985 115.350625,8.2355 C115.975958,8.9725 116.288625,10.145 116.288625,11.753 L116.288625,11.753 L116.288625,14.165 L123.256625,14.165 L123.256625,12.222 C123.256625,8.42533333 122.352125,5.51083333 120.543125,3.4785 C118.734125,1.44616667 116.065292,0.43 112.536625,0.43 C108.963292,0.43 106.238625,1.44616667 104.362625,3.4785 C102.486625,5.51083333 101.548625,8.38066667 101.548625,12.088 C101.548625,14.8126667 102.151625,17.2581667 103.357625,19.4245 C104.563625,21.5908333 106.685292,24.014 109.722625,26.694 C112.134625,28.7933333 113.787292,30.5911667 114.680625,32.0875 C115.573958,33.5838333 116.020625,35.3146667 116.020625,37.28 C116.020625,38.9326667 115.696792,40.1275 115.049125,40.8645 C114.401458,41.6015 113.452292,41.97 112.201625,41.97 C109.655625,41.97 108.382625,40.4513333 108.382625,37.414 L108.382625,37.414 L108.382625,34.198 L101.414625,34.198 L101.414625,36.878 C101.414625,40.6746667 102.330292,43.5891667 104.161625,45.6215 C105.992958,47.6538333 108.695292,48.67 112.268625,48.67 Z M133.93475,48 L133.93475,1.1 L126.56475,1.1 L126.56475,48 L133.93475,48 Z M148.833875,48.67 C152.407208,48.67 155.131875,47.6538333 157.007875,45.6215 C158.883875,43.5891667 159.821875,40.6746667 159.821875,36.878 L159.821875,36.878 L159.821875,21.535 L149.168875,21.535 L149.168875,28.235 L152.853875,28.235 L152.853875,37.414 C152.853875,40.4513333 151.580875,41.97 149.034875,41.97 C146.488875,41.97 145.215875,40.4513333 145.215875,37.414 L145.215875,37.414 L145.215875,11.753 C145.215875,8.671 146.488875,7.13 149.034875,7.13 C151.580875,7.13 152.853875,8.671 152.853875,11.753 L152.853875,11.753 L152.853875,16.242 L159.821875,16.242 L159.821875,12.222 C159.821875,8.42533333 158.883875,5.51083333 157.007875,3.4785 C155.131875,1.44616667 152.407208,0.43 148.833875,0.43 C145.260542,0.43 142.535875,1.44616667 140.659875,3.4785 C138.783875,5.51083333 137.845875,8.42533333 137.845875,12.222 L137.845875,12.222 L137.845875,36.878 C137.845875,40.6746667 138.783875,43.5891667 140.659875,45.6215 C142.535875,47.6538333 145.260542,48.67 148.833875,48.67 Z M170.098,48 L170.098,13.763 L170.232,13.763 L179.076,48 L186.647,48 L186.647,1.1 L180.081,1.1 L180.081,29.173 L179.947,29.173 L172.778,1.1 L163.532,1.1 L163.532,48 L170.098,48 Z M214.03325,36.342 L214.03325,27.163 L223.01125,27.163 L223.01125,21.937 L214.03325,21.937 L214.03325,12.892 L208.80725,12.892 L208.80725,21.937 L199.82925,21.937 L199.82925,27.163 L208.80725,27.163 L208.80725,36.342 L214.03325,36.342 Z M17.003,104 C20.6656667,104 23.4126667,103.017333 25.244,101.052 C27.0753333,99.0866667 27.991,96.2056667 27.991,92.409 L27.991,92.409 L27.991,68.691 C27.991,64.8943333 27.0753333,62.0133333 25.244,60.048 C23.4126667,58.0826667 20.6656667,57.1 17.003,57.1 L17.003,57.1 L5.747,57.1 L5.747,104 L17.003,104 Z M16.869,97.3 L13.117,97.3 L13.117,63.8 L16.869,63.8 C18.075,63.8 19.0018333,64.1573333 19.6495,64.872 C20.2971667,65.5866667 20.621,66.748 20.621,68.356 L20.621,68.356 L20.621,92.744 C20.621,94.352 20.2971667,95.5133333 19.6495,96.228 C19.0018333,96.9426667 18.075,97.3 16.869,97.3 L16.869,97.3 Z M52.002125,104 L52.002125,97.3 L39.272125,97.3 L39.272125,82.895 L49.389125,82.895 L49.389125,76.195 L39.272125,76.195 L39.272125,63.8 L52.002125,63.8 L52.002125,57.1 L31.902125,57.1 L31.902125,104 L52.002125,104 Z M70.11725,104 L77.21925,57.1 L70.45225,57.1 L65.62825,93.481 L65.49425,93.481 L60.67025,57.1 L53.23325,57.1 L60.33525,104 L70.11725,104 Z M99.823375,104 L99.823375,97.3 L87.093375,97.3 L87.093375,82.895 L97.210375,82.895 L97.210375,76.195 L87.093375,76.195 L87.093375,63.8 L99.823375,63.8 L99.823375,57.1 L79.723375,57.1 L79.723375,104 L99.823375,104 Z M122.4945,104 L122.4945,97.3 L110.3675,97.3 L110.3675,57.1 L102.9975,57.1 L102.9975,104 L122.4945,104 Z M135.383625,104.67 C139.001625,104.67 141.770958,103.642667 143.691625,101.588 C145.612292,99.5333333 146.572625,96.63 146.572625,92.878 L146.572625,92.878 L146.572625,68.222 C146.572625,64.47 145.612292,61.5666667 143.691625,59.512 C141.770958,57.4573333 139.001625,56.43 135.383625,56.43 C131.765625,56.43 128.996292,57.4573333 127.075625,59.512 C125.154958,61.5666667 124.194625,64.47 124.194625,68.222 L124.194625,68.222 L124.194625,92.878 C124.194625,96.63 125.154958,99.5333333 127.075625,101.588 C128.996292,103.642667 131.765625,104.67 135.383625,104.67 Z M135.383625,97.97 C132.837625,97.97 131.564625,96.429 131.564625,93.347 L131.564625,93.347 L131.564625,67.753 C131.564625,64.671 132.837625,63.13 135.383625,63.13 C137.929625,63.13 139.202625,64.671 139.202625,67.753 L139.202625,67.753 L139.202625,93.347 C139.202625,96.429 137.929625,97.97 135.383625,97.97 Z M157.85375,104 L157.85375,84.905 L161.33775,84.905 C165.000417,84.905 167.747417,83.9223333 169.57875,81.957 C171.410083,79.9916667 172.32575,77.1106667 172.32575,73.314 L172.32575,73.314 L172.32575,68.691 C172.32575,64.8943333 171.410083,62.0133333 169.57875,60.048 C167.747417,58.0826667 165.000417,57.1 161.33775,57.1 L161.33775,57.1 L150.48375,57.1 L150.48375,104 L157.85375,104 Z M161.33775,78.205 L157.85375,78.205 L157.85375,63.8 L161.33775,63.8 C162.54375,63.8 163.44825,64.135 164.05125,64.805 C164.65425,65.475 164.95575,66.614 164.95575,68.222 L164.95575,68.222 L164.95575,73.783 C164.95575,75.391 164.65425,76.53 164.05125,77.2 C163.44825,77.87 162.54375,78.205 161.33775,78.205 L161.33775,78.205 Z M181.730875,104 L181.730875,68.49 L181.864875,68.49 L187.224875,104 L193.388875,104 L198.748875,68.49 L198.882875,68.49 L198.882875,104 L205.850875,104 L205.850875,57.1 L195.331875,57.1 L190.641875,90.667 L190.507875,90.667 L185.817875,57.1 L175.298875,57.1 L175.298875,104 L181.730875,104 Z M230.398,104 L230.398,97.3 L217.668,97.3 L217.668,82.895 L227.785,82.895 L227.785,76.195 L217.668,76.195 L217.668,63.8 L230.398,63.8 L230.398,57.1 L210.298,57.1 L210.298,104 L230.398,104 Z M240.138125,104 L240.138125,69.763 L240.272125,69.763 L249.116125,104 L256.687125,104 L256.687125,57.1 L250.121125,57.1 L250.121125,85.173 L249.987125,85.173 L242.818125,57.1 L233.572125,57.1 L233.572125,104 L240.138125,104 Z M274.26625,104 L274.26625,63.8 L281.97125,63.8 L281.97125,57.1 L259.19125,57.1 L259.19125,63.8 L266.89625,63.8 L266.89625,104 L274.26625,104 Z" id="path-2"></path>
    </defs>
    <g id="Page-1-Copy" stroke="none" stroke-width="1" fill="none" fill-rule="evenodd">
        <g id="Mobile-Copy-2" transform="translate(-19.000000, -59.000000)" fill-rule="nonzero">
            <g id="big-title" transform="translate(19.000000, 60.000000)">
                <g id="UIDesign+development" fill="#FFFFFF">
                    <use xlink:href="#path-1"></use>
                    <use stroke="#000000" stroke-width="1" xlink:href="#path-1"></use>
                </g>
                <g id="UIDesign+development">
                    <use fill="#000000" xlink:href="#path-2"></use>
                    <use stroke="#000000" stroke-width="1" fill="#FFFFFF" xlink:href="#path-2"></use>
                </g>
            </g>
        </g>
    </g>
</svg>