<?xml version="1.0" encoding="UTF-8"?>
<svg width="380px" height="214px" viewBox="0 0 380 214" version="1.1" xmlns="http://www.w3.org/2000/svg" xmlns:xlink="http://www.w3.org/1999/xlink">
    <!-- Generator: Sketch 63.1 (92452) - https://sketch.com -->
    <title>site sign</title>
    <desc>Created with Sketch.</desc>
    <defs>
        <path d="M91.0330531,47.2525367 C94.1728643,47.2525367 96.9249277,46.8246302 99.2892433,45.9688172 C101.653559,45.1130043 103.497725,43.8698233 104.821742,42.2392743 C106.145759,40.6087254 106.807767,38.631347 106.807767,36.3071391 C106.807767,32.9199214 105.592509,30.2398754 103.161992,28.2670013 C100.731476,26.2941271 97.1708165,24.6500653 92.4800143,23.3348159 C90.5129037,22.6141313 88.9808271,21.979028 87.8837847,21.4295059 C86.7867422,20.8799839 86.0207039,20.3304619 85.5856698,19.7809399 C85.1506358,19.2314179 84.9331187,18.6053231 84.9331187,17.9026556 C84.9331187,17.037834 85.1931934,16.3171494 85.7133429,15.7406017 C86.2334923,15.164054 86.942787,14.7316433 87.841227,14.4433694 C88.7396669,14.1550956 89.7657799,14.0109586 90.9195659,14.0109586 C92.2624972,14.0109586 93.5297704,14.1370785 94.7213855,14.3893181 C95.9130006,14.6415577 96.8303551,14.920823 97.4734489,15.2271139 L97.4734489,15.2271139 L98.6366922,20.4971202 L106.013357,20.4971202 L106.013357,11.0111089 C104.027332,9.56973967 101.738674,8.49321702 99.1473844,7.78154096 C96.5560944,7.0698649 93.5770567,6.7500611 90.2102712,6.82212956 C87.2596053,6.87618091 84.6399436,7.37165158 82.351286,8.30854159 C80.0626285,9.2454316 78.2657486,10.5291511 76.9606464,12.1597 C75.6555441,13.790249 75.002993,15.6955589 75.002993,17.8756299 C75.002993,20.1457865 75.5562429,22.0465922 76.6627426,23.578047 C77.7692423,25.1095018 79.4573637,26.4337598 81.7271067,27.5508209 C83.9968497,28.6678821 86.9002293,29.7669261 90.4372455,30.8479531 C92.0071511,31.4245008 93.2555098,31.9875356 94.1823215,32.5370576 C95.1091333,33.0865797 95.7758703,33.6676316 96.1825326,34.2802136 C96.5891949,34.8927955 96.792526,35.5864544 96.792526,36.3611904 C96.792526,37.1719606 96.575009,37.8656196 96.1399749,38.4421672 C95.7049408,39.0187149 95.061847,39.45563 94.2106933,39.7529124 C93.3595397,40.0501948 92.3003263,40.198836 91.0330531,40.198836 C89.2172587,40.198836 87.5433232,39.9781263 86.0112467,39.536707 C84.4791701,39.0952877 83.4104994,38.5502699 82.8052346,37.9016538 L82.8052346,37.9016538 L81.954081,32.6586732 L74.2653265,32.6586732 L74.2653265,42.8743777 C76.8566165,44.5679865 79.4573637,45.7210819 82.0675682,46.3336638 C84.6777726,46.9462458 87.6662676,47.2525367 91.0330531,47.2525367 Z M122.434975,47.6948287 C124.83215,47.6948287 127.006332,47.3799936 128.957522,46.7503233 C130.908711,46.1206531 132.562576,45.3243054 133.919117,44.3612804 L133.919117,44.3612804 L131.689186,38.4720117 C130.332645,39.1016819 129.04579,39.5600448 127.828619,39.8471003 C126.611449,40.1341559 125.37105,40.2776837 124.107423,40.2776837 C122.825213,40.2776837 121.747413,40.064707 120.874024,39.6387536 C120.000634,39.2128002 119.317718,38.6340591 118.825275,37.9025305 C118.332832,37.1710018 118.01228,36.3329848 117.863618,35.3884795 L117.863618,35.3884795 L117.891492,35.1940225 L134.476599,35.1940225 L134.476599,30.1659204 C134.476599,27.2027663 133.984156,24.707235 132.99927,22.6793264 C132.014384,20.6514179 130.578867,19.1142817 128.692717,18.0679179 C126.806568,17.0215541 124.497661,16.4983723 121.765996,16.4983723 C118.737007,16.4798525 116.181879,17.1326724 114.10061,18.4568319 C112.019342,19.7809914 110.439808,21.6190729 109.362008,23.9710764 C108.284209,26.32308 107.745309,29.0269581 107.745309,32.0827107 L107.745309,32.0827107 L107.745309,33.1105548 C107.745309,35.8885117 108.353894,38.3794131 109.571064,40.5832589 C110.788235,42.7871048 112.497848,44.5233279 114.699904,45.7919282 C116.90196,47.0605285 119.480317,47.6948287 122.434975,47.6948287 Z M124.321458,29.1854946 L117.448054,29.1854946 L117.348077,29.0424948 C117.448054,27.9556962 117.618848,26.9880641 117.860458,26.1395985 C118.102069,25.291133 118.485313,24.6238005 119.010191,24.1376011 C119.535069,23.6514018 120.239073,23.4083021 121.122201,23.4083021 C121.938678,23.4083021 122.580195,23.5989685 123.046754,23.9803013 C123.513312,24.3616342 123.842402,24.9241001 124.034024,25.6676991 C124.225646,26.4112982 124.321458,27.3360303 124.321458,28.4418955 L124.321458,28.4418955 L124.321458,29.1854946 Z M150.962455,49.9450788 L150.962455,44.3271294 L147.448093,43.4501812 L147.448093,7.19385413 L133.529005,7.19385413 L133.529005,12.8392082 L137.73517,13.7161564 L137.73517,43.4501812 L134.193136,44.3271294 L134.193136,49.9450788 L150.962455,49.9450788 Z M166.070642,10.4729093 L166.070642,3.54027831 L156.772802,3.54027831 L156.772802,10.4729093 L166.070642,10.4729093 Z M170.602048,46.3489562 L170.602048,40.6571935 L167.104254,39.7687232 L167.104254,16.3075551 L153.168598,16.3075551 L153.168598,22.0270825 L157.360399,22.9155527 L157.360399,39.7687232 L153.834844,40.6571935 L153.834844,46.3489562 L170.602048,46.3489562 Z M187.417388,48.8936437 L187.417388,43.3051798 L184.841835,42.4328342 L184.841835,28.0936536 C185.337867,27.4575683 185.919751,26.9805043 186.587488,26.6624617 C187.255224,26.344419 188.056507,26.1853977 188.991337,26.1853977 C190.231419,26.1853977 191.185327,26.5170707 191.853063,27.1804169 C192.5208,27.843763 192.854668,28.9659992 192.854668,30.5471256 L192.854668,30.5471256 L192.854668,42.4328342 L189.935707,43.3051798 L189.935707,48.8936437 L206.533718,48.8936437 L206.533718,43.3051798 L202.927943,42.4328342 L202.927943,30.5743864 C202.927943,26.5034403 202.088504,23.5320132 200.409624,21.660105 C198.730745,19.7881967 196.441364,18.8522426 193.541482,18.8522426 C191.633664,18.8522426 189.930937,19.2611546 188.433301,20.0789786 C186.935664,20.8968026 185.671735,22.0417561 184.641514,23.5138393 L184.641514,23.5138393 L184.298107,19.3974586 L170.504587,19.3974586 L170.504587,25.0131833 L174.797176,25.8855289 L174.797176,42.4328342 L171.191402,43.3051798 L171.191402,48.8936437 L187.417388,48.8936437 Z M220.124384,47.0655868 C223.156768,47.0655868 225.752673,46.4173889 227.912097,45.1209931 C230.071522,43.8245973 231.72555,42.0235331 232.87418,39.7178005 C234.02281,37.4120679 234.597125,34.7498265 234.597125,31.7310762 L234.597125,31.7310762 L234.597125,31.175478 C234.597125,28.1567277 234.02281,25.4991162 232.87418,23.2026436 C231.72555,20.906171 230.071522,19.1097368 227.912097,17.813341 C225.752673,16.5169451 223.13839,15.8687472 220.06925,15.8687472 C217.018488,15.8687472 214.4088,16.5215751 212.240186,17.8272309 C210.071573,19.1328867 208.41295,20.9339509 207.26432,23.2304235 C206.11569,25.5268961 205.541375,28.1752476 205.541375,31.175478 L205.541375,31.175478 L205.541375,31.7310762 C205.541375,34.7683464 206.11569,37.4398478 207.26432,39.7455804 C208.41295,42.051313 210.076167,43.8477472 212.25397,45.134883 C214.431773,46.4220189 217.055244,47.0655868 220.124384,47.0655868 Z M220.645421,40.1623996 C219.489757,40.1623996 218.570479,39.8506146 217.887587,39.2270446 C217.204694,38.6034746 216.714413,37.7048002 216.416742,36.5310214 C216.119071,35.3572426 215.970235,33.9542101 215.970235,32.321924 L215.970235,32.321924 L215.970235,31.7717152 C215.970235,30.2127902 216.119071,28.8510234 216.416742,27.6864148 C216.714413,26.5218061 217.204694,25.6139616 217.887587,24.9628811 C218.570479,24.3118007 219.472247,23.9862605 220.59289,23.9862605 C221.731044,23.9862605 222.641567,24.3118007 223.324459,24.9628811 C224.007352,25.6139616 224.502011,26.5218061 224.808437,27.6864148 C225.114863,28.8510234 225.268076,30.2127902 225.268076,31.7717152 L225.268076,31.7717152 L225.268076,32.321924 C225.268076,33.9358698 225.114863,35.3297322 224.808437,36.503511 C224.502011,37.6772898 224.011729,38.5805492 223.337592,39.2132894 C222.663455,39.8460295 221.766064,40.1623996 220.645421,40.1623996 Z M247.745215,15.0123407 C249.970651,15.0123407 252.0912,15.2073209 254.106861,15.5972814 C256.122522,15.9872419 257.777918,16.4793349 259.073049,17.0735605 L259.073049,17.0735605 L259.045687,26.1540691 L252.588275,26.1540691 L251.767417,22.2544642 L251.553082,22.1120976 C251.188257,21.8851365 250.785428,21.7097574 250.344597,21.5859605 C249.8156,21.4374041 249.222759,21.3631259 248.566073,21.3631259 C247.343907,21.3631259 246.450085,21.5859605 245.884605,22.0316296 C245.319125,22.4772987 245.036385,23.0529547 245.036385,23.7585975 C245.036385,24.1671276 245.159514,24.5756576 245.405771,24.9841876 C245.652029,25.3927177 246.139983,25.7826782 246.869634,26.1540691 C247.599285,26.5254601 248.6664,26.8689967 250.070978,27.184679 C253.445615,27.9460304 255.985713,29.0044946 257.691272,30.3600716 C259.396832,31.7156486 260.249612,33.7768683 260.249612,36.5437309 C260.249612,39.5148585 259.205298,41.8685486 257.116672,43.6048013 C255.028046,45.341054 251.995433,46.2091803 248.018834,46.2091803 C245.683951,46.2091803 243.508678,45.9909881 241.493017,45.5546038 C239.477356,45.1182194 237.657788,44.5193515 236.034315,43.758 L236.034315,43.758 L235.924867,34.3710938 L242.409641,34.3710938 L243.504118,38.7442222 L243.704772,38.8622162 C244.054397,39.0543595 244.480026,39.2239356 244.981662,39.3709445 C245.583624,39.5473552 246.304154,39.6355605 247.143253,39.6355605 C248.693762,39.6355605 249.760877,39.4220107 250.344597,38.9949111 C250.928318,38.5678115 251.220179,38.0292947 251.220179,37.3793605 C251.220179,36.7479959 250.887275,36.1676975 250.221469,35.6384654 C249.555662,35.1092333 248.137403,34.6403523 245.966691,34.2318222 C242.500848,33.544749 239.947069,32.3702251 238.305354,30.7082506 C236.663639,29.0462761 235.842781,26.9711292 235.842781,24.4828099 C235.842781,22.792981 236.225848,21.2331391 236.991982,19.8032839 C237.758115,18.3734288 239.012203,17.2174744 240.754245,16.3354209 C242.496287,15.4533674 244.826611,15.0123407 247.745215,15.0123407 Z M236.866327,6.19451148 L236.866327,10.8758461 L234.955308,15.4380195 L232.217407,15.4380195 L232.217407,6.19451148 L236.866327,6.19451148 Z" id="path-1"></path>
        <filter x="-5.1%" y="-20.5%" width="113.4%" height="153.9%" filterUnits="objectBoundingBox" id="filter-2">
            <feMorphology radius="0.5" operator="dilate" in="SourceAlpha" result="shadowSpreadOuter1"></feMorphology>
            <feOffset dx="3" dy="3" in="shadowSpreadOuter1" result="shadowOffsetOuter1"></feOffset>
            <feGaussianBlur stdDeviation="2.5" in="shadowOffsetOuter1" result="shadowBlurOuter1"></feGaussianBlur>
            <feComposite in="shadowBlurOuter1" in2="SourceAlpha" operator="out" result="shadowBlurOuter1"></feComposite>
            <feColorMatrix values="0 0 0 0 0   0 0 0 0 0   0 0 0 0 0  0 0 0 0.7 0" type="matrix" in="shadowBlurOuter1" result="shadowMatrixOuter1"></feColorMatrix>
            <feMorphology radius="1.5" operator="dilate" in="SourceAlpha" result="shadowSpreadOuter2"></feMorphology>
            <feOffset dx="0" dy="0" in="shadowSpreadOuter2" result="shadowOffsetOuter2"></feOffset>
            <feComposite in="shadowOffsetOuter2" in2="SourceAlpha" operator="out" result="shadowOffsetOuter2"></feComposite>
            <feColorMatrix values="0 0 0 0 0   0 0 0 0 0   0 0 0 0 0  0 0 0 1 0" type="matrix" in="shadowOffsetOuter2" result="shadowMatrixOuter2"></feColorMatrix>
            <feMerge>
                <feMergeNode in="shadowMatrixOuter1"></feMergeNode>
                <feMergeNode in="shadowMatrixOuter2"></feMergeNode>
            </feMerge>
        </filter>
        <path d="M85.5523938,117.632246 L86.2035516,117.637119 C92.6910509,117.734576 98.456171,119.293883 103.498912,122.315041 C108.709745,125.436904 112.789278,129.752923 115.737512,135.263096 C118.685746,140.77327 120.159863,147.127882 120.159863,154.326932 L120.159863,154.326932 L120.159863,155.504028 L120.155261,156.198075 C120.063225,163.112175 118.590642,169.235438 115.737512,174.567865 C112.789278,180.078038 108.709745,184.385527 103.498912,187.490331 C98.2880797,190.595134 92.3059069,192.147536 85.5523938,192.147536 L85.5523938,192.147536 L50.4821201,192.147536 L50.4821201,181.656029 L58.3497915,179.76244 L58.3497915,130.119699 L50.4821201,128.174932 L50.4821201,117.632246 L85.5523938,117.632246 Z M85.5213993,129.464227 L77.2937691,129.464227 L77.2937691,176.701599 L85.5213993,176.701599 C89.3266782,176.701599 92.5148849,175.746274 95.0860194,173.835626 C97.6571538,171.924977 99.6026455,169.238128 100.922495,165.775078 C102.242344,162.312027 102.902268,158.277488 102.902268,153.671461 L102.902268,153.671461 L102.902268,152.443187 L102.897779,151.789129 C102.837922,147.455045 102.179494,143.647055 100.922495,140.365159 C99.6026455,136.919168 97.6571538,134.240848 95.0860194,132.3302 C92.5148849,130.419552 89.3266782,129.464227 85.5213993,129.464227 L85.5213993,129.464227 Z" id="path-3"></path>
        <filter x="-13.6%" y="-12.7%" width="135.9%" height="133.6%" filterUnits="objectBoundingBox" id="filter-4">
            <feMorphology radius="0.5" operator="dilate" in="SourceAlpha" result="shadowSpreadOuter1"></feMorphology>
            <feOffset dx="3" dy="3" in="shadowSpreadOuter1" result="shadowOffsetOuter1"></feOffset>
            <feGaussianBlur stdDeviation="2.5" in="shadowOffsetOuter1" result="shadowBlurOuter1"></feGaussianBlur>
            <feComposite in="shadowBlurOuter1" in2="SourceAlpha" operator="out" result="shadowBlurOuter1"></feComposite>
            <feColorMatrix values="0 0 0 0 0   0 0 0 0 0   0 0 0 0 0  0 0 0 0.7 0" type="matrix" in="shadowBlurOuter1" result="shadowMatrixOuter1"></feColorMatrix>
            <feMorphology radius="1.5" operator="dilate" in="SourceAlpha" result="shadowSpreadOuter2"></feMorphology>
            <feOffset dx="0" dy="0" in="shadowSpreadOuter2" result="shadowOffsetOuter2"></feOffset>
            <feComposite in="shadowOffsetOuter2" in2="SourceAlpha" operator="out" result="shadowOffsetOuter2"></feComposite>
            <feColorMatrix values="0 0 0 0 0   0 0 0 0 0   0 0 0 0 0  0 0 0 1 0" type="matrix" in="shadowOffsetOuter2" result="shadowMatrixOuter2"></feColorMatrix>
            <feMerge>
                <feMergeNode in="shadowMatrixOuter1"></feMergeNode>
                <feMergeNode in="shadowMatrixOuter2"></feMergeNode>
            </feMerge>
        </filter>
        <path d="M33.2874606,112.750381 L33.2874606,102.770655 L25.9014066,101.212844 L25.9014066,87.0465008 L37.5819123,87.190139 L46.4453978,112.750381 L67.1850461,112.750381 L67.1850461,102.819337 L60.4348776,101.115481 L52.9910997,82.9950739 L53.0068184,82.9850565 C55.9618922,81.0890707 58.3795613,78.7413198 60.2598256,75.9418038 L60.6060775,75.4116004 C62.8724384,71.841617 64.0056189,67.979544 64.0056189,63.8253815 C64.0056189,59.3142207 62.8805908,55.4115798 60.6305346,52.1174587 C58.3804784,48.8233377 55.1847465,46.2837813 51.0433387,44.4987896 C46.9019309,42.7137979 42.0105045,41.8213021 36.3690592,41.8213021 L36.3690592,41.8213021 L1.34644561,41.8213021 L1.34644561,51.8983916 L8.73249961,53.4562025 L8.73249961,101.212844 L1.34644561,102.770655 L1.34644561,112.750381 L33.2874606,112.750381 Z M36.5647163,73.9511526 L25.9014066,73.9511526 L25.9014066,54.9166502 L36.3690592,54.9166502 C39.7604483,54.9166502 42.3692091,55.8334869 44.1953416,57.6671602 C46.0214742,59.5008335 46.9345405,61.9267995 46.9345405,64.9450581 C46.9345405,67.8659537 46.0377789,70.0971933 44.2442559,71.638777 C42.4507328,73.1803608 39.8908863,73.9511526 36.5647163,73.9511526 L36.5647163,73.9511526 Z M92.6681239,113.772695 C96.8747507,113.772695 100.690063,113.22097 104.114062,112.117521 C107.53806,111.014071 110.440307,109.618532 112.820801,107.930904 L112.820801,107.930904 L108.90766,97.6104062 C106.527166,98.7138556 104.268957,99.5171019 102.133034,100.020145 C99.9971112,100.523188 97.8204264,100.77471 95.6029798,100.77471 C93.3529236,100.77471 91.461572,100.401484 89.9289251,99.6550331 C88.3962781,98.908582 87.1978786,97.8943822 86.3337266,96.6124336 C85.4695746,95.330485 84.9070605,93.8619237 84.6461844,92.2067495 L84.6461844,92.2067495 L84.6950987,91.8659784 L113.799086,91.8659784 L113.799086,83.0546103 C113.799086,77.8619072 112.934934,73.4886775 111.20663,69.9349213 C109.478326,66.3811651 106.959242,63.6874504 103.649376,61.8537771 C100.339511,60.0201038 96.2877795,59.1032671 91.4941815,59.1032671 C86.1788314,59.0708127 81.6950238,60.2148301 78.0427587,62.5353194 C74.3904936,64.8558086 71.6186852,68.0769072 69.7273337,72.1986153 C67.8359821,76.3203234 66.8903063,81.058665 66.8903063,86.4136401 L66.8903063,86.4136401 L66.8903063,88.214859 C66.8903063,93.0830182 67.9582678,97.4481342 70.0941907,101.310207 C72.2301136,105.17228 75.2301885,108.21488 79.0944154,110.438006 C82.9586423,112.661132 87.4832118,113.772695 92.6681239,113.772695 Z M98.1465215,81.302073 L84.6950987,81.302073 L84.4994417,81.058665 C84.6950987,79.2087645 85.0293462,77.561704 85.5021841,76.1174835 C85.975022,74.6732629 86.7250407,73.5373591 87.7522403,72.709772 C88.7794398,71.882185 90.1571916,71.4683914 91.8854956,71.4683914 C93.4833616,71.4683914 94.7388278,71.7929354 95.651894,72.4420233 C96.5649603,73.0911112 97.2089981,74.0485158 97.5840075,75.3142372 C97.9590169,76.5799586 98.1465215,78.1539967 98.1465215,80.0363516 L98.1465215,80.0363516 L98.1465215,81.302073 Z M132.385253,113.772695 C135.450547,113.772695 137.977784,113.22097 139.966964,112.117521 C141.956144,111.014071 143.749667,109.472487 145.347533,107.492769 C145.54319,108.466401 145.88559,109.440033 146.374732,110.413665 C146.863875,111.387297 147.320408,112.166202 147.744332,112.750381 L147.744332,112.750381 L167.79918,112.750381 L167.79918,102.770655 L162.076212,101.797023 C161.945773,101.147935 161.872402,100.466393 161.856097,99.7523963 C161.839793,99.0383996 161.83164,98.3081757 161.83164,97.5617246 L161.83164,97.5617246 L161.83164,78.1377695 C161.83164,72.0363433 159.712022,67.3385697 155.472786,64.0444487 C151.233549,60.7503277 145.51058,59.1032671 138.303879,59.1032671 C134.2603,59.1032671 130.599882,59.5900831 127.322626,60.5637149 C124.045371,61.5373467 120.906705,62.6894777 117.90663,64.0201079 L117.90663,64.0201079 L118.151202,78.673267 L130.233025,78.673267 L131.406967,71.9552074 C132.189596,71.435937 133.0619,71.0383707 134.023881,70.7625084 C134.985861,70.486646 136.021213,70.3487148 137.129936,70.3487148 C139.738697,70.3487148 141.646354,71.0870523 142.852905,72.5637273 C144.059457,74.0404022 144.662733,75.8335075 144.662733,77.9430431 L144.662733,77.9430431 L144.662733,81.058665 L139.135421,81.058665 C133.754852,81.058665 129.279197,81.7807753 125.708456,83.2249959 C122.137714,84.6692164 119.463734,86.6570481 117.686516,89.1884908 C115.909298,91.7199336 115.020689,94.6246019 115.020689,97.9024958 C115.020689,102.705746 116.634859,106.551592 119.863201,109.440033 C123.091542,112.328474 127.26556,113.772695 132.385253,113.772695 Z M137.667993,101.69966 C136.037518,101.69966 134.700528,101.245298 133.657024,100.336575 C132.613519,99.4278523 132.091767,98.1783581 132.091767,96.5880928 C132.091767,94.9329187 132.7195,93.6022885 133.974966,92.5962023 C135.230432,91.590116 137.015803,91.0870729 139.331078,91.0870729 L139.331078,91.0870729 L144.662733,91.0870729 L144.662733,98.6814012 C143.749667,99.6874875 142.665401,100.442052 141.409935,100.945095 C140.154468,101.448138 138.907155,101.69966 137.667993,101.69966 Z M193.001315,113.772695 C197.762303,113.772695 201.618378,113.083039 204.569538,111.703727 C207.520699,110.324415 209.827822,108.247334 211.490907,105.472483 C213.153992,102.697633 214.376849,99.2168987 215.159477,95.0302819 L215.159477,95.0302819 L214.96382,94.7381923 L200.583026,94.7381923 C199.963445,96.7179104 199.091141,98.2189261 197.966113,99.2412395 C196.841085,100.263553 195.251371,100.77471 193.196972,100.77471 C191.859982,100.77471 190.555602,100.352803 189.283831,99.5089883 C188.01206,98.665174 186.960403,97.2452943 186.128861,95.249349 C185.297318,93.2534038 184.881547,90.519121 184.881547,87.0465008 L184.881547,87.0465008 L184.881547,85.9268242 C184.881547,82.5840216 185.191337,79.8416252 185.810918,77.6996352 C186.430499,75.5576452 187.457698,73.9592662 188.892517,72.9044984 C190.327335,71.8497306 192.267601,71.3223467 194.713314,71.3223467 C195.332895,71.3223467 196.107371,71.5008458 197.036742,71.8578442 C197.966113,72.2148425 198.707979,72.669204 199.262341,73.2209287 L199.262341,73.2209287 L201.31674,82.7625207 L214.083363,82.7625207 L214.376849,66.1620979 C212.28984,64.5069238 209.44466,62.9166585 205.841309,61.391302 C202.237958,59.8659454 197.909046,59.1032671 192.854572,59.1032671 C187.832707,59.1032671 183.438576,60.2391709 179.672178,62.5109786 C175.905779,64.7827862 172.970923,67.9308624 170.86761,71.9552074 C168.764297,75.9795523 167.71264,80.6367579 167.71264,85.9268242 L167.71264,85.9268242 L167.71264,87.0465008 C167.71264,92.2067495 168.723535,96.7990464 170.745324,100.823391 C172.767114,104.847736 175.66936,108.01204 179.452063,110.316302 C183.234767,112.620564 187.751184,113.772695 193.001315,113.772695 Z M241.102233,117.695328 C242.700099,117.695328 244.257203,117.573624 245.773546,117.330217 C247.289888,117.086809 248.798078,116.754151 250.298115,116.332244 L250.298115,116.332244 L249.124173,103.577667 C248.537202,103.67503 247.95023,103.756166 247.363259,103.821075 C246.776288,103.885984 246.189317,103.918438 245.602346,103.918438 C244.232746,103.918438 243.156633,103.577667 242.374004,102.896125 C241.591376,102.214582 241.200062,101.01377 241.200062,99.2936868 L241.200062,99.2936868 L241.200062,75.6831148 L249.857887,75.6831148 L249.857887,63.9021696 L241.200062,63.9021696 L241.200062,50.9041846 L224.128983,50.9041846 L224.128983,63.9021696 L217.525558,63.9021696 L217.525558,75.6831148 L224.128983,75.6831148 L224.128983,99.3423684 C224.128983,105.70343 225.571954,110.352522 228.457896,113.289644 C231.343838,116.226767 235.558617,117.695328 241.102233,117.695328 Z" id="path-5"></path>
        <filter x="-3.8%" y="-12.5%" width="110.1%" height="132.9%" filterUnits="objectBoundingBox" id="filter-6">
            <feMorphology radius="0.5" operator="dilate" in="SourceAlpha" result="shadowSpreadOuter1"></feMorphology>
            <feOffset dx="3" dy="3" in="shadowSpreadOuter1" result="shadowOffsetOuter1"></feOffset>
            <feGaussianBlur stdDeviation="2.5" in="shadowOffsetOuter1" result="shadowBlurOuter1"></feGaussianBlur>
            <feComposite in="shadowBlurOuter1" in2="SourceAlpha" operator="out" result="shadowBlurOuter1"></feComposite>
            <feColorMatrix values="0 0 0 0 0   0 0 0 0 0   0 0 0 0 0  0 0 0 0.7 0" type="matrix" in="shadowBlurOuter1" result="shadowMatrixOuter1"></feColorMatrix>
            <feMorphology radius="1.5" operator="dilate" in="SourceAlpha" result="shadowSpreadOuter2"></feMorphology>
            <feOffset dx="0" dy="0" in="shadowSpreadOuter2" result="shadowOffsetOuter2"></feOffset>
            <feComposite in="shadowOffsetOuter2" in2="SourceAlpha" operator="out" result="shadowOffsetOuter2"></feComposite>
            <feColorMatrix values="0 0 0 0 0   0 0 0 0 0   0 0 0 0 0  0 0 0 1 0" type="matrix" in="shadowOffsetOuter2" result="shadowMatrixOuter2"></feColorMatrix>
            <feMerge>
                <feMergeNode in="shadowMatrixOuter1"></feMergeNode>
                <feMergeNode in="shadowMatrixOuter2"></feMergeNode>
            </feMerge>
        </filter>
        <path d="M147.049108,182.555211 C151.83942,183.05619 156.250443,182.882695 160.282177,182.034726 C164.313911,181.186756 167.78661,179.944248 170.700272,178.3072 L170.700272,178.3072 L167.484774,166.096289 C164.641335,167.068531 161.973235,167.713702 159.480475,168.0318 C156.987715,168.349898 154.478773,168.376906 151.953647,168.112824 C149.391387,167.844859 147.282469,167.194876 145.626891,166.162876 C143.971313,165.130876 142.728546,163.833981 141.89859,162.272189 C141.068634,160.710398 140.604602,158.972161 140.506493,157.057479 L140.506493,157.057479 L140.603158,156.675501 L173.74543,160.141574 L174.804627,150.114102 C175.428831,144.204726 174.970471,139.125009 173.429549,134.874951 C171.888626,130.624893 169.343815,127.2594 165.795116,124.77847 C162.246417,122.297541 157.742704,120.771635 152.283977,120.200752 C146.235003,119.530799 140.991531,120.29872 136.55356,122.504514 C132.115588,124.710308 128.57198,128.045866 125.922734,132.511187 C123.273489,136.976508 121.62701,142.256191 120.9833,148.350235 L120.9833,148.350235 L120.766779,150.40005 C120.181588,155.94009 120.873011,161.034846 122.841049,165.684317 C124.809087,170.333789 127.859689,174.153601 131.992854,177.143754 C136.126019,180.133907 141.144771,181.937726 147.049108,182.555211 Z M156.934431,147.398578 L141.876042,145.814573 L141.686109,145.514471 C142.126287,143.431834 142.697364,141.596403 143.399339,140.008178 C144.101314,138.419953 145.076725,137.215314 146.325573,136.394261 C147.57442,135.573208 149.166232,135.264442 151.101007,135.467963 C152.889761,135.656123 154.256413,136.173381 155.200963,137.019735 C156.145512,137.866089 156.752036,139.031709 157.020535,140.516595 C157.289034,142.001481 157.310769,143.815233 157.085743,145.957852 L157.085743,145.957852 L156.934431,147.398578 Z M207.57599,179.629972 L207.57599,169.138465 L202.279453,167.500766 L202.279453,140.529916 C203.239343,139.369879 204.353501,138.491322 205.621927,137.894245 C206.890354,137.297167 208.295907,136.998628 209.838588,136.998628 C211.826932,136.998628 213.31819,137.578646 214.312362,138.738683 C215.306534,139.89872 215.80362,142.099377 215.80362,145.340656 L215.80362,145.340656 L215.80362,167.500766 L211.175578,169.138465 L211.175578,179.629972 L238.37818,179.629972 L238.37818,169.138465 L233.750138,167.500766 L233.750138,140.478738 C234.710028,139.35282 235.824187,138.491322 237.092613,137.894245 C238.361039,137.297167 239.783734,136.998628 241.360696,136.998628 C243.280476,136.998628 244.746023,137.578646 245.757336,138.738683 C246.768649,139.89872 247.274305,142.099377 247.274305,145.340656 L247.274305,145.340656 L247.274305,167.500766 L241.977768,169.138465 L241.977768,179.629972 L271.85435,179.629972 L271.85435,169.138465 L265.272246,167.500766 L265.272246,145.340656 C265.272246,137.834537 263.729566,132.273185 260.644204,128.656601 C257.558843,125.040016 253.325042,123.231724 247.9428,123.231724 C244.343212,123.231724 241.214998,124.016454 238.55816,125.585915 C235.901321,127.155377 233.732997,129.373094 232.053189,132.239066 C230.784763,129.2025 228.907835,126.942135 226.422405,125.45797 C223.936975,123.973806 220.96303,123.231724 217.500569,123.231724 C214.072389,123.231724 211.055592,123.965276 208.450175,125.432381 C205.844759,126.899486 203.633583,128.963669 201.816648,131.624929 L201.816648,131.624929 L201.250999,124.255285 L176.516686,124.255285 L176.516686,134.797971 L184.332934,136.435669 L184.332934,167.500766 L177.75083,169.138465 L177.75083,179.629972 L207.57599,179.629972 Z M305.229402,179.206603 C310.66675,177.654852 314.99073,175.178592 318.201335,171.777793 C321.41194,168.376995 323.458824,164.3411 324.341989,159.670108 C325.225154,154.999117 324.896616,149.990671 323.356411,144.644761 L323.356411,144.644761 L323.072898,143.660862 C321.532659,138.314962 319.14688,133.902488 315.91556,130.423441 C312.684239,126.944394 308.801825,124.609484 304.268315,123.418712 C299.734806,122.227939 294.71642,122.417817 289.213147,123.988316 C283.742845,125.549472 279.396512,128.040984 276.174155,131.462883 C272.951798,134.884782 270.896675,138.923028 270.008786,143.577621 C269.120897,148.232214 269.442347,153.216062 270.973103,158.529175 L270.973103,158.529175 L271.256616,159.513074 C272.806304,164.891771 275.19917,169.328843 278.435215,172.824289 C281.67126,176.319734 285.570152,178.649942 290.13189,179.814911 C294.693628,180.979881 299.726129,180.777101 305.229402,179.206603 Z M301.444947,166.071424 C299.270015,166.6921 297.379319,166.628277 295.772856,165.879948 C294.166393,165.131619 292.780679,163.787888 291.615713,161.848755 C290.450747,159.909622 289.447768,157.480591 288.606778,154.56166 L288.606778,154.56166 L288.323265,153.577761 C287.520105,150.790008 287.098597,148.274897 287.058774,146.032416 C287.018951,143.789935 287.473907,141.903164 288.423641,140.372103 C289.373376,138.841043 290.902754,137.774574 293.011774,137.172689 C295.153753,136.561418 297.035059,136.654541 298.655696,137.452065 C300.276333,138.249589 301.67501,139.607368 302.851729,141.5254 C304.028447,143.443432 305.018402,145.79632 305.821595,148.584063 L305.821595,148.584063 L306.10511,149.567962 C306.936616,152.454105 307.366422,155.028963 307.394493,157.292545 C307.422564,159.556126 306.965246,161.434698 306.022539,162.928259 C305.079832,164.421821 303.553967,165.469539 301.444947,166.071424 Z" id="path-7"></path>
        <filter x="-4.7%" y="-15.1%" width="112.2%" height="139.8%" filterUnits="objectBoundingBox" id="filter-8">
            <feMorphology radius="0.5" operator="dilate" in="SourceAlpha" result="shadowSpreadOuter1"></feMorphology>
            <feOffset dx="3" dy="3" in="shadowSpreadOuter1" result="shadowOffsetOuter1"></feOffset>
            <feGaussianBlur stdDeviation="2.5" in="shadowOffsetOuter1" result="shadowBlurOuter1"></feGaussianBlur>
            <feComposite in="shadowBlurOuter1" in2="SourceAlpha" operator="out" result="shadowBlurOuter1"></feComposite>
            <feColorMatrix values="0 0 0 0 0   0 0 0 0 0   0 0 0 0 0  0 0 0 0.7 0" type="matrix" in="shadowBlurOuter1" result="shadowMatrixOuter1"></feColorMatrix>
            <feMorphology radius="1.5" operator="dilate" in="SourceAlpha" result="shadowSpreadOuter2"></feMorphology>
            <feOffset dx="0" dy="0" in="shadowSpreadOuter2" result="shadowOffsetOuter2"></feOffset>
            <feComposite in="shadowOffsetOuter2" in2="SourceAlpha" operator="out" result="shadowOffsetOuter2"></feComposite>
            <feColorMatrix values="0 0 0 0 0   0 0 0 0 0   0 0 0 0 0  0 0 0 1 0" type="matrix" in="shadowOffsetOuter2" result="shadowMatrixOuter2"></feColorMatrix>
            <feMerge>
                <feMergeNode in="shadowMatrixOuter1"></feMergeNode>
                <feMergeNode in="shadowMatrixOuter2"></feMergeNode>
            </feMerge>
        </filter>
        <path d="M287.116868,102.315294 C291.278114,102.315294 294.815173,101.553925 297.728045,100.031187 C300.640917,98.5084483 302.862485,96.3311994 304.39275,93.4994401 C305.923014,90.6676808 306.688146,87.2882699 306.688146,83.3612075 L306.688146,83.3612075 L306.688146,52.6660054 L312.809205,51.3836993 L312.809205,43.1288538 L284.660391,43.1288538 L284.660391,51.3436272 L292.633875,52.6660054 L292.633875,83.3612075 C292.633875,85.2846667 292.271444,86.8407985 291.546581,88.0296031 C290.821719,89.2184077 289.902218,90.0799571 288.788078,90.6142514 C287.673938,91.1485456 286.512816,91.4156927 285.304713,91.4156927 C283.210667,91.4156927 281.47234,90.7678609 280.089732,89.4721975 C278.707125,88.176534 277.881587,85.6453152 277.61312,81.8785411 L277.61312,81.8785411 L264.444791,81.8785411 L264.364251,82.1189735 C264.525331,86.7406184 265.538796,90.5407859 267.404645,93.5194761 C269.270493,96.4981663 271.874628,98.7088086 275.217048,100.151403 C278.559468,101.593997 282.526075,102.315294 287.116868,102.315294 Z M335.514759,105.360113 C339.839115,105.209103 343.607342,104.44303 346.819465,103.062581 C350.031588,101.682131 352.507338,99.7534479 354.246717,97.2765321 C355.986096,94.7996163 356.795999,91.8412894 356.675881,88.4015705 C356.500826,83.3886469 354.689061,79.4808244 351.239794,76.6781308 C347.790526,73.8754371 342.801722,71.613808 336.27338,69.8932434 C333.526961,68.9214137 331.384115,68.0552859 329.844842,67.2948598 C328.305568,66.5344338 327.222175,65.758064 326.594661,64.9657503 C325.967148,64.1734367 325.635261,63.2573214 325.599002,62.2174045 C325.554374,60.9375067 325.875376,59.858398 326.562007,58.9800782 C327.248639,58.1017585 328.20321,57.4276443 329.425723,56.9577357 C330.648236,56.487827 332.054026,56.2250849 333.643093,56.1695094 C335.492663,56.1048231 337.244541,56.2304328 338.898725,56.5463386 C340.552909,56.8622444 341.830759,57.2313576 342.732274,57.6536782 L342.732274,57.6536782 L344.606314,65.397024 L354.765925,65.0417048 L354.276419,51.0028263 C351.46676,48.9653263 348.259124,47.4823603 344.65351,46.5539283 C341.047897,45.6254964 336.928474,45.2956951 332.295243,45.5645246 C328.234187,45.7866459 324.651791,46.6461045 321.548053,48.1429005 C318.444315,49.6396964 316.035782,51.6260968 314.322453,54.1021015 C312.609125,56.5781062 311.80871,59.429313 311.921208,62.6557219 C312.038355,66.0154536 312.898413,68.8019132 314.501382,71.015101 C316.104351,73.2282887 318.497675,75.1068187 321.681353,76.650691 C324.86503,78.1945633 328.920463,79.68125 333.84765,81.1107512 C336.039575,81.8883972 337.787948,82.661533 339.092769,83.4301587 C340.39759,84.1987844 341.345847,85.0266003 341.937539,85.9136065 C342.529231,86.8006126 342.845066,87.8174032 342.885045,88.9639783 C342.926883,90.1638824 342.6631,91.2009444 342.093695,92.0751643 C341.52429,92.9493842 340.661126,93.6269758 339.504204,94.107939 C338.347282,94.5889022 336.896136,94.8599048 335.150767,94.9209469 C332.64994,95.00841 330.333101,94.7623996 328.200249,94.1829155 C326.067398,93.6034314 324.567432,92.8483049 323.700353,91.917536 L323.700353,91.917536 L322.257536,84.1991542 L311.668096,84.5695061 L312.195257,99.6882984 C315.851541,102.069948 319.492958,103.651205 323.119508,104.432071 C326.746059,105.212937 330.8778,105.522039 335.514759,105.360113 Z" id="path-9"></path>
        <filter x="-10.3%" y="-15.3%" width="127.1%" height="140.1%" filterUnits="objectBoundingBox" id="filter-10">
            <feMorphology radius="0.5" operator="dilate" in="SourceAlpha" result="shadowSpreadOuter1"></feMorphology>
            <feOffset dx="3" dy="3" in="shadowSpreadOuter1" result="shadowOffsetOuter1"></feOffset>
            <feGaussianBlur stdDeviation="2.5" in="shadowOffsetOuter1" result="shadowBlurOuter1"></feGaussianBlur>
            <feComposite in="shadowBlurOuter1" in2="SourceAlpha" operator="out" result="shadowBlurOuter1"></feComposite>
            <feColorMatrix values="0 0 0 0 0   0 0 0 0 0   0 0 0 0 0  0 0 0 0.7 0" type="matrix" in="shadowBlurOuter1" result="shadowMatrixOuter1"></feColorMatrix>
            <feMorphology radius="1.5" operator="dilate" in="SourceAlpha" result="shadowSpreadOuter2"></feMorphology>
            <feOffset dx="0" dy="0" in="shadowSpreadOuter2" result="shadowOffsetOuter2"></feOffset>
            <feComposite in="shadowOffsetOuter2" in2="SourceAlpha" operator="out" result="shadowOffsetOuter2"></feComposite>
            <feColorMatrix values="0 0 0 0 0   0 0 0 0 0   0 0 0 0 0  0 0 0 1 0" type="matrix" in="shadowOffsetOuter2" result="shadowMatrixOuter2"></feColorMatrix>
            <feMerge>
                <feMergeNode in="shadowMatrixOuter1"></feMergeNode>
                <feMergeNode in="shadowMatrixOuter2"></feMergeNode>
            </feMerge>
        </filter>
        <ellipse id="path-11" cx="263.5" cy="109" rx="5.5" ry="6"></ellipse>
        <filter x="-86.4%" y="-79.2%" width="327.3%" height="308.3%" filterUnits="objectBoundingBox" id="filter-12">
            <feMorphology radius="0.5" operator="dilate" in="SourceAlpha" result="shadowSpreadOuter1"></feMorphology>
            <feOffset dx="3" dy="3" in="shadowSpreadOuter1" result="shadowOffsetOuter1"></feOffset>
            <feGaussianBlur stdDeviation="2.5" in="shadowOffsetOuter1" result="shadowBlurOuter1"></feGaussianBlur>
            <feComposite in="shadowBlurOuter1" in2="SourceAlpha" operator="out" result="shadowBlurOuter1"></feComposite>
            <feColorMatrix values="0 0 0 0 0   0 0 0 0 0   0 0 0 0 0  0 0 0 0.7 0" type="matrix" in="shadowBlurOuter1" result="shadowMatrixOuter1"></feColorMatrix>
            <feMorphology radius="1.5" operator="dilate" in="SourceAlpha" result="shadowSpreadOuter2"></feMorphology>
            <feOffset dx="0" dy="0" in="shadowSpreadOuter2" result="shadowOffsetOuter2"></feOffset>
            <feComposite in="shadowOffsetOuter2" in2="SourceAlpha" operator="out" result="shadowOffsetOuter2"></feComposite>
            <feColorMatrix values="0 0 0 0 0   0 0 0 0 0   0 0 0 0 0  0 0 0 1 0" type="matrix" in="shadowOffsetOuter2" result="shadowMatrixOuter2"></feColorMatrix>
            <feMerge>
                <feMergeNode in="shadowMatrixOuter1"></feMergeNode>
                <feMergeNode in="shadowMatrixOuter2"></feMergeNode>
            </feMerge>
        </filter>
    </defs>
    <g id="site-sign" stroke="none" stroke-width="1" fill="none" fill-rule="evenodd">
        <g id="big-title" transform="translate(11.000000, 7.000000)" fill-rule="nonzero">
            <g id="Selino's" transform="translate(167.257469, 26.742679) rotate(-2.000000) translate(-167.257469, -26.742679) ">
                <use fill="black" fill-opacity="1" filter="url(#filter-2)" xlink:href="#path-1"></use>
                <path stroke="#999999" stroke-width="1" d="M146.948093,7.69385413 L134.029005,7.69385413 L134.029005,12.4327022 L138.23517,13.3096504 L138.23517,43.841486 L134.693136,44.7184342 L134.693136,49.4450788 L150.462455,49.4450788 L150.462455,44.7176946 L146.948093,43.8407464 L146.948093,7.69385413 Z M193.541482,19.3522426 C191.723817,19.3522426 190.100316,19.7383536 188.672937,20.5178116 C187.056675,21.4004139 185.72914,22.6855186 184.258823,24.9408279 L183.838082,19.8974586 L171.004587,19.8974586 L171.004587,24.6045737 L175.297176,25.4769193 L175.297176,42.8262936 L171.691402,43.6986392 L171.691402,48.3936437 L186.917388,48.3936437 L186.917388,43.66373 L184.341835,42.7913844 L184.341835,27.925578 C184.910812,27.1541895 185.588932,26.5842549 186.37248,26.2110506 C187.099941,25.8645613 187.971891,25.6853977 188.991337,25.6853977 C190.391401,25.6853977 191.45549,26.0806705 192.205449,26.8256994 C192.89605,27.5117606 193.307551,28.6245942 193.354668,30.5409253 L193.354668,42.8052579 L190.435707,43.6776034 L190.435707,48.3936437 L206.033718,48.3936437 L206.033718,43.6986392 L202.427943,42.8262936 L202.427943,30.5743864 C202.427943,26.6668335 201.653406,23.7957506 200.0374,21.9939454 C198.449509,20.2234866 196.279681,19.3522426 193.541482,19.3522426 Z M121.765996,16.9983723 C124.400486,16.9983723 126.63006,17.495421 128.450161,18.5051438 C130.246427,19.5016439 131.611763,20.9669183 132.549508,22.8977608 C133.505658,24.8665016 133.976599,27.2904728 133.976599,30.1659204 L133.976599,30.1659204 L133.976599,34.6940225 L117.323368,34.6940225 C117.524137,36.4933553 117.879642,37.3931512 118.410499,38.1817452 C118.950325,38.9836607 119.696834,39.6209304 120.65485,40.0881561 C121.587441,40.5429825 122.737013,40.7776837 124.107423,40.7776837 C125.410029,40.7776837 126.688679,40.6296588 127.94339,40.3337498 C129.043293,40.0743505 130.198983,39.6791091 131.410054,39.1468162 L131.410054,39.1468162 L133.309526,44.1633414 C131.837762,45.1095231 130.426209,45.7509707 128.803964,46.2744872 C126.898711,46.8893333 124.775496,47.1948287 122.434975,47.1948287 C119.576689,47.1948287 117.080498,46.5863463 114.949497,45.3586808 C112.828334,44.1366827 111.181237,42.4644751 110.008748,40.3415291 C108.830951,38.2089741 108.245309,35.7980602 108.245309,33.1105548 L108.245309,33.1105548 L108.245281,32.0879327 L108.250792,31.5576269 C108.308894,28.7951638 108.828647,26.335212 109.816555,24.1793715 C110.852269,21.9192086 112.368671,20.1513572 114.369007,18.8786887 C116.376586,17.6014123 118.843114,16.9805106 121.765996,16.9983723 Z M121.122201,22.9083021 C120.092341,22.9083021 119.279732,23.2063718 118.670412,23.7707909 C118.084683,24.3133568 117.649659,25.0542066 117.379576,26.0026615 C117.095238,27.0011725 116.904028,28.1575428 116.956823,29.6854946 L124.823065,29.6854946 L124.817906,28.0783775 C124.797979,27.0774942 124.696645,26.2353678 124.518206,25.5429276 C124.295635,24.6792301 123.90316,24.0345078 123.363175,23.5931614 C122.819909,23.1491325 122.078166,22.9083021 121.122201,22.9083021 Z M90.2209717,7.32201505 C87.3368853,7.37484915 84.7768548,7.8558778 82.54071,8.77127105 C80.3392486,9.67246625 78.6069421,10.9030184 77.3510033,12.4721443 C76.1172406,14.0135642 75.502993,15.8153571 75.502993,17.8756299 C75.502993,20.0269575 76.0183457,21.8324101 77.0680258,23.2852236 C78.1333573,24.7596994 79.7641268,26.0274608 81.9478929,27.1022081 C84.1980923,28.2096508 87.076902,29.2980915 90.6096142,30.3786035 C92.2145511,30.9680164 93.4899083,31.5452335 94.4373258,32.106973 C95.4428458,32.7031624 96.1585759,33.3400885 96.5990985,34.0036764 C97.0598014,34.6976632 97.292526,35.4830102 97.292526,36.3611904 C97.292526,37.290826 97.0370941,38.083342 96.5391015,38.7433282 C96.0504983,39.3908707 95.3336707,39.8903101 94.3755615,40.2249489 C93.4802468,40.5376555 92.3667183,40.698836 91.0330531,40.698836 C89.1670759,40.698836 87.4471274,40.4707499 85.8728186,40.0171627 C84.26756,39.5546583 83.1472625,38.9739793 82.3376718,38.1417833 L81.5287059,33.1586732 L74.7653265,33.1586732 L74.7653265,42.6024331 C77.2288924,44.1818093 79.7005279,45.2645645 82.1818079,45.8468895 C84.7587527,46.4516658 87.7092984,46.7525367 91.0330531,46.7525367 C94.1077033,46.7525367 96.8034822,46.3368422 99.1190636,45.4986695 C101.38792,44.6774099 103.162298,43.4897129 104.433591,41.9240934 C105.687262,40.3801773 106.307767,38.5062759 106.307767,36.3071391 C106.307767,33.0864179 105.160043,30.532825 102.846881,28.6552084 C100.457917,26.7160626 96.9541223,25.1085893 92.3080109,23.8042995 C90.3185144,23.0754134 88.7693577,22.4323215 87.6598517,21.8765563 C86.4774688,21.2842862 85.6616238,20.6824257 85.1936455,20.0912895 C84.6867305,19.4509698 84.4331187,18.721461 84.4331187,17.9026556 C84.4331187,16.9017147 84.7413713,16.0715347 85.3420984,15.4056726 C85.916178,14.7693473 86.6955531,14.2858634 87.6884675,13.9672764 C88.6314917,13.6646973 89.7082426,13.5109586 90.9195659,13.5109586 C92.2991119,13.5109586 93.600861,13.6410476 94.8249305,13.9001571 C96.0362948,14.1565772 96.9732817,14.4416342 97.9075687,14.8741215 L99.0383632,19.9971202 L105.513357,19.9971202 L105.513357,11.2681707 C103.622348,9.93472122 101.455816,8.93404658 99.0149668,8.26368781 C96.4651587,7.5634044 93.5336031,7.25110579 90.2209717,7.32201505 Z M220.06925,16.3687472 C223.036144,16.3687472 225.566176,16.9881668 227.654741,18.2420225 C229.731874,19.4890147 231.322211,21.2174973 232.426997,23.4263118 C233.543404,25.6583597 234.097125,28.242181 234.097125,31.175478 L234.097125,31.175478 L234.097157,31.7254418 L234.091292,32.2487501 C234.029519,34.9703507 233.477016,37.386348 232.426638,39.4948517 C231.321918,41.7124399 229.731773,43.4453799 227.654741,44.6923115 C225.566678,45.9458661 223.055124,46.5655868 220.124384,46.5655868 C217.15589,46.5655868 214.61578,45.9499724 212.508372,44.7044416 C210.414558,43.4669458 208.816124,41.7392997 207.711862,39.5226316 C206.595185,37.2810403 206.041375,34.6830828 206.041375,31.7310762 L206.041375,31.7310762 L206.041343,31.1811468 L206.047206,30.6610931 C206.108965,27.9565777 206.661379,25.5536202 207.711503,23.4540917 C208.816511,21.2448344 210.411732,19.5117151 212.498086,18.2555858 C214.595263,16.99294 217.120438,16.3687472 220.06925,16.3687472 Z M220.59289,23.4862605 C219.325339,23.4862605 218.312548,23.8668826 217.542563,24.6009993 C216.799369,25.3095724 216.256799,26.293087 215.932315,27.5625966 C215.625623,28.7625024 215.470235,30.1653484 215.470235,31.7717152 L215.474705,32.8068934 C215.502398,34.2855735 215.656016,35.565335 215.932084,36.6539309 C216.257945,37.9388671 216.80441,38.9150537 217.550434,39.5962712 C218.316812,40.2960743 219.343676,40.6623996 220.645421,40.6623996 C221.912845,40.6623996 222.919952,40.2910223 223.679774,39.5778592 C224.413887,38.8888265 224.957916,37.9103861 225.292223,36.6298079 C225.607904,35.4205773 225.768076,33.9848444 225.768076,32.321924 L225.768076,31.7717152 L225.76237,31.2538381 C225.731025,29.8575014 225.573203,28.628013 225.291979,27.5591875 C224.958351,26.2911955 224.411827,25.3087621 223.669483,24.6009993 C222.900335,23.867681 221.879177,23.4862605 220.59289,23.4862605 Z M166.604254,16.8075551 L153.668598,16.8075551 L153.668598,21.6219518 L157.860399,22.5104221 L157.860399,40.1583516 L154.334844,41.0468219 L154.334844,45.8489562 L170.102048,45.8489562 L170.102048,41.0460671 L166.604254,40.1575968 L166.604254,16.8075551 Z M247.745215,15.5123407 C244.923061,15.5123407 242.66587,15.9279427 240.980109,16.7814988 C239.34133,17.6112671 238.154249,18.6927899 237.432704,20.0394281 C236.705232,21.3971281 236.342781,22.8784752 236.342781,24.4828099 C236.342781,26.8291802 237.112016,28.7887033 238.661069,30.356872 C240.246607,31.9619771 242.721321,33.0787257 246.063919,33.7413667 C248.350317,34.1716451 249.831803,34.6900158 250.532591,35.2470542 C251.348094,35.8952753 251.720179,36.6154955 251.720179,37.3793605 C251.720179,38.1872255 251.369365,38.8646535 250.639846,39.3984307 C250.002291,39.8649202 248.848319,40.1355605 247.143253,40.1355605 C246.249244,40.1355605 245.482167,40.038651 244.841046,39.8507644 C244.248085,39.6769916 243.754175,39.4740313 243.070573,39.0713716 L242.019357,34.8710938 L236.430731,34.8710938 L236.733738,43.5261649 C238.195751,44.1670065 239.819497,44.6807084 241.598815,45.065925 C243.581798,45.4952347 245.721858,45.7091803 248.018834,45.7091803 C251.84868,45.7091803 254.781796,44.8955585 256.797044,43.2203044 C258.771938,41.578596 259.749612,39.3498459 259.749612,36.5437309 C259.749612,33.9619897 258.977765,32.0212661 257.380168,30.7514971 C255.720189,29.4321475 253.243221,28.4129354 249.960939,27.6724201 C248.504486,27.345079 247.399397,26.9847608 246.642825,26.5996674 C245.803357,26.1723799 245.259306,25.7097289 244.977553,25.242313 C244.67943,24.7477412 244.536385,24.2521464 244.536385,23.7585975 C244.536385,22.8932555 244.881044,22.1859417 245.575109,21.6389309 C246.205856,21.1418225 247.193795,20.8631259 248.566073,20.8631259 C249.272842,20.8631259 249.910576,20.9447339 250.479781,21.1045819 C251.005385,21.2521853 251.482953,21.4639173 252.213974,21.9485189 L252.993983,25.6540691 L258.530382,25.6540691 L258.277744,17.2762774 C257.110725,16.8076208 255.688464,16.4125379 254.011889,16.088179 C252.02632,15.7040401 249.937404,15.5123407 247.745215,15.5123407 Z M236.366327,6.69451148 L232.717407,6.69451148 L232.717407,14.9380195 L234.622656,14.9380195 L236.366327,10.7753553 L236.366327,6.69451148 Z M165.570642,4.04027831 L157.272802,4.04027831 L157.272802,9.97290933 L165.570642,9.97290933 L165.570642,4.04027831 Z" stroke-linejoin="square" fill="#FFFFFF" fill-rule="evenodd"></path>
            </g>
            <g id="Combined-Shape" transform="translate(85.320992, 154.889891) rotate(-2.000000) translate(-85.320992, -154.889891) ">
                <use fill="black" fill-opacity="1" filter="url(#filter-4)" xlink:href="#path-3"></use>
                <path stroke="#999999" stroke-width="1" d="M85.5486522,118.132232 L86.1960414,118.137063 C92.5892812,118.233104 98.2719525,119.766383 103.241945,122.743956 C108.374888,125.819155 112.392581,130.07135 115.296651,135.49898 C118.114169,140.76485 119.564427,146.812427 119.655272,153.636201 L119.655272,153.636201 L119.659863,154.326932 L119.659874,155.500713 L119.655306,156.191419 C119.564427,163.018534 118.114169,169.066111 115.296651,174.33198 C112.392823,179.759159 108.375507,184.002651 103.24298,187.060797 C98.2726981,190.022272 92.5896945,191.547224 86.1998305,191.642704 L86.1998305,191.642704 L85.5523938,191.647536 L50.9821201,191.647536 L50.9821201,182.049967 L58.8497915,180.156378 L58.8497915,129.728243 L50.9821201,127.783475 L50.9821201,118.132246 L85.5486522,118.132232 Z M85.5213993,128.964227 L76.7937691,128.964227 L76.7937691,177.201599 L85.5213993,177.201599 C89.4475809,177.201599 92.7329446,176.207171 95.384248,174.236948 C98.0272946,172.272861 100.032488,169.51426 101.389712,165.953145 C102.665507,162.605684 103.336973,158.732576 103.397731,154.332481 L103.402256,153.674892 L103.402268,152.443187 L103.397767,151.785697 C103.336967,147.382462 102.66534,143.517625 101.389418,140.186323 C100.032231,136.642846 98.0272558,133.892936 95.384248,131.928878 C92.7329446,129.958654 89.4475809,128.964227 85.5213993,128.964227 Z" stroke-linejoin="square" fill="#FFFFFF" fill-rule="evenodd"></path>
            </g>
            <g id="React" transform="translate(125.822280, 79.758315) rotate(-1.000000) translate(-125.822280, -79.758315) ">
                <use fill="black" fill-opacity="1" filter="url(#filter-6)" xlink:href="#path-5"></use>
                <path stroke="#999999" stroke-width="1" d="M240.700062,51.4041846 L224.628983,51.4041846 L224.628983,64.4021696 L218.025558,64.4021696 L218.025558,75.1831148 L224.628983,75.1831148 L224.628983,99.3423684 C224.628983,105.531728 226.001112,110.075886 228.814543,112.939212 C231.619084,115.79349 235.723314,117.195328 241.102233,117.195328 C242.672985,117.195328 244.203681,117.075815 245.694299,116.836537 C246.94218,116.636223 248.184467,116.374689 249.761706,115.95963 L248.675163,104.15462 C248.25618,104.217239 247.837198,104.271713 247.418216,104.318045 C246.812926,104.38498 246.207635,104.418438 245.602346,104.418438 C244.087952,104.418438 242.907873,104.024053 242.045642,103.27319 C241.233445,102.565898 240.751993,101.374339 240.700062,99.3000003 L240.700062,75.1831148 L249.357887,75.1831148 L249.357887,64.4021696 L240.700062,64.4021696 L240.700062,51.4041846 Z M91.4941815,59.6032671 C96.1907085,59.6032671 100.163188,60.494023 103.407074,62.2911438 C106.626981,64.0749799 109.075859,66.6968483 110.756985,70.1535979 C112.456482,73.6481207 113.299086,77.9497128 113.299086,83.0546103 L113.299086,83.0546103 L113.299086,91.3659784 L84.1286982,91.3659784 C84.4338302,94.056612 85.0267104,95.5680318 85.9191279,96.8919115 C86.8306799,98.2441768 88.0926847,99.3168697 89.7099932,100.104554 C91.3017769,100.879806 93.2648236,101.27471 95.6029798,101.27471 C97.8593547,101.27471 100.074241,101.018703 102.247656,100.50683 C104.26702,100.031238 106.394455,99.2917862 108.629483,98.28705 L108.629483,98.28705 L112.214569,107.742336 C109.831001,109.353612 107.121104,110.62312 103.960695,111.641623 C100.582575,112.730287 96.8181672,113.272695 92.6681239,113.272695 C87.5794838,113.272695 83.1369964,112.1869 79.3437517,110.00461 C75.5604781,107.828058 72.6229453,104.849452 70.5317337,101.068224 C68.4352797,97.2775163 67.3903063,92.9924722 67.3903063,88.214859 L67.3903063,88.214859 L67.3902926,86.4173369 L67.3951765,85.7549086 C67.4695702,80.7482873 68.3961374,76.2984732 70.1817727,72.4071463 C72.0309995,68.3772382 74.7396406,65.2263603 78.3108937,62.9573426 C81.8895418,60.6836264 86.2848347,59.5714693 91.4941815,59.6032671 Z M91.8854956,70.9683914 C90.0215654,70.9683914 88.5437064,71.4300208 87.4385477,72.3204174 C86.3403005,73.2052457 85.5329541,74.41655 85.0270034,75.9619093 C84.5029405,77.5625899 84.1434673,79.4050939 84.2011712,81.802073 L98.6476519,81.802073 L98.6426139,79.5710571 C98.6129919,77.8323023 98.4179496,76.3688369 98.0634085,75.1721997 C97.6526879,73.7859467 96.9399306,72.7442071 95.9415956,72.0345027 C94.9582986,71.3354887 93.6107468,70.9683914 91.8854956,70.9683914 Z M138.303879,59.6032671 C145.377301,59.6032671 151.002508,61.2040049 155.165993,64.439263 C159.28647,67.6411016 161.33164,72.2125818 161.33164,78.1377695 L161.33164,78.1377695 L161.331644,97.5635582 L161.334371,98.3064606 C161.338014,98.7994946 161.3453,99.2852782 161.356228,99.7638112 C161.37608,100.633142 161.477467,101.456272 161.65946,102.233307 L161.65946,102.233307 L167.29918,103.192776 L167.29918,112.250381 L148.008682,112.250381 C147.565319,111.589027 147.203769,110.950069 146.821518,110.189204 C146.35344,109.257501 146.024978,108.326034 145.837733,107.394261 C145.76219,107.018344 145.707868,106.633594 145.674523,106.240196 C145.447655,106.555521 145.208959,106.868365 144.958453,107.178736 C143.403797,109.104918 141.660036,110.606551 139.72442,111.680288 C137.798875,112.748437 135.350522,113.272695 132.385253,113.272695 C127.405226,113.272695 123.338982,111.878946 120.196594,109.067408 C117.072517,106.272254 115.520689,102.547383 115.520689,97.9024958 C115.520689,94.7333004 116.377112,91.9237693 118.095736,89.4757868 C119.823044,87.0154356 122.427398,85.0913995 125.895932,83.688518 C129.416816,82.2644626 133.830927,81.558665 139.135421,81.558665 L139.135421,81.558665 L145.162733,81.558665 L145.162733,77.9352355 C145.086634,75.4789287 144.440502,73.7165203 143.240094,72.2473655 C141.951913,70.6707857 139.927982,69.8487148 137.129936,69.8487148 C135.971915,69.8487148 134.89072,69.9937766 133.886053,70.28188 C132.798709,70.5936923 131.820567,71.0539272 130.950825,71.6608692 L130.950825,71.6608692 L129.812821,78.173267 L118.642926,78.173267 L118.412132,64.3455629 L119.107724,64.0431856 C121.784677,62.9029697 124.570456,61.9029492 127.465019,61.0430105 C130.699779,60.0820037 134.312918,59.6032671 138.303879,59.6032671 Z M145.162733,90.5866651 L138.94376,90.5917357 C136.675959,90.6470105 134.920807,91.1974997 133.662294,92.2060277 C132.284117,93.3104506 131.591767,94.770077 131.591767,96.5880928 C131.591767,98.3429963 132.180189,99.7135077 133.328661,100.71364 C134.457593,101.696757 135.900938,102.19966 137.667993,102.19966 C138.968539,102.19966 140.278042,101.937268 141.595903,101.409224 C142.982437,100.853665 144.171434,100.00787 145.162733,98.8716079 L145.162733,90.5866651 Z M192.854572,59.6032671 C187.932101,59.6032671 183.623039,60.7118215 179.930425,62.9391236 C176.242641,65.163513 173.370039,68.24667 171.310737,72.1868067 C169.322211,75.9915256 168.293719,80.3723021 168.217247,85.3269567 L168.212625,85.9306648 L168.21264,87.0465008 C168.21264,92.1220314 169.20326,96.6401526 171.19211,100.598931 C173.170636,104.53716 176.010312,107.634269 179.712181,109.88929 C183.422264,112.149315 187.85333,113.272695 193.001315,113.272695 C197.673546,113.272695 201.460679,112.604829 204.357831,111.250759 C207.216278,109.91478 209.451165,107.903176 211.062036,105.215443 C212.607042,102.637607 213.76222,99.4392828 214.503116,95.2381923 L200.946233,95.2381923 C200.302766,97.1453246 199.416083,98.5992499 198.30237,99.6112815 C197.09802,100.705675 195.402836,101.27471 193.196972,101.27471 C191.766662,101.27471 190.369008,100.829046 189.007396,99.9256222 C187.666843,99.0361711 186.545286,97.5490267 185.667314,95.4416367 C184.858207,93.4995439 184.425174,90.8763721 184.384703,87.5679723 L184.381556,87.0495261 L184.381547,85.9268242 C184.381547,82.5271171 184.700564,79.7388649 185.330608,77.5607032 C185.985655,75.2961006 187.081513,73.6152432 188.596366,72.50164 C190.104185,71.3932077 192.138883,70.8223467 194.713314,70.8223467 C195.379946,70.8223467 196.214946,71.0065485 197.216033,71.3910953 C198.145758,71.7482297 198.899997,72.1966038 199.717678,72.9602749 L201.720543,82.2625207 L213.592125,82.2625207 L213.872526,66.402193 C211.832949,64.8243771 209.089763,63.309379 205.646396,61.851746 C202.097127,60.349283 197.832386,59.6032671 192.854572,59.6032671 Z M36.3658783,42.3212919 L37.0360369,42.3255451 C42.3202872,42.393143 46.9240789,43.2678094 50.8454332,44.9579556 C54.8921323,46.7021268 58.0185305,49.1799139 60.2176582,52.3994748 C62.4135159,55.6142483 63.5056189,59.4241649 63.5056189,63.8253815 C63.5056189,67.8836059 62.3978973,71.6562084 60.187441,75.1382078 L60.187441,75.1382078 L59.8447555,75.6630265 C57.9281392,78.5166667 55.4410872,80.8905765 52.3849987,82.7861725 L52.3849987,82.7861725 L60.0678615,101.538522 L66.6850461,103.208811 L66.6850461,112.250381 L46.8012225,112.250381 L37.9392477,86.6944954 L25.4014066,86.5403144 L25.4014066,101.618388 L32.7874606,103.176199 L32.7874606,112.250381 L1.84644561,112.250381 L1.84644561,103.176199 L9.23249961,101.618388 L9.23249961,53.0506587 L1.84644561,51.4928478 L1.84644561,42.3213021 L36.3658783,42.3212919 Z M36.3690592,54.4166502 L25.4014066,54.4166502 L25.4014066,74.4511526 L36.5647163,74.4511526 C40.0387559,74.4511526 42.7005332,73.624966 44.5701727,72.017958 C46.4652939,70.3890478 47.4345405,68.0389161 47.4345405,64.9450581 C47.4345405,61.7765947 46.4642841,59.2369037 44.5496227,57.314336 C42.6408246,55.3976558 39.9212598,54.4166502 36.3690592,54.4166502 Z" stroke-linejoin="square" fill="#FFFFFF" fill-rule="evenodd"></path>
            </g>
            <g id="Demo" transform="translate(222.695182, 151.400466) rotate(-3.000000) translate(-222.695182, -151.400466) ">
                <use fill="black" fill-opacity="1" filter="url(#filter-8)" xlink:href="#path-7"></use>
                <path stroke="#999999" stroke-width="1" d="M136.776101,122.952259 C141.136031,120.785253 146.28823,120.039752 152.231969,120.69804 C157.594123,121.258823 162.02173,122.750533 165.50863,125.188258 C168.97294,127.61019 171.455369,130.896824 172.95949,135.045378 C174.477946,139.233467 174.922363,144.239618 174.307393,150.061579 L174.307393,150.061579 L173.300664,159.592333 L140.092956,156.119417 C140.116252,159.124994 140.605461,160.904301 141.457062,162.506823 C142.326842,164.143555 143.626813,165.50532 145.362396,166.58719 C147.073776,167.653974 149.25174,168.332981 151.90164,168.610112 C154.465449,168.878239 157.012824,168.850748 159.543766,168.527778 C161.917778,168.224833 164.449103,167.62962 167.137404,166.740633 L167.137404,166.740633 L170.117207,178.056487 C167.178318,179.627869 163.922654,180.758108 160.179267,181.545431 C156.19467,182.383486 151.835204,182.553022 147.101115,182.057923 C141.29256,181.450455 136.352763,179.680818 132.285927,176.738651 C128.228521,173.803306 125.233493,170.053735 123.301499,165.489417 C121.365275,160.915107 120.688344,155.902465 121.264013,150.452573 L121.264013,150.452573 L121.480178,148.406024 L121.555447,147.735552 C122.237825,142.001101 123.834671,137.010547 126.352748,132.766311 C128.950516,128.387756 132.424015,125.115366 136.776101,122.952259 Z M146.050895,135.976467 C144.726619,136.84711 143.686945,138.120642 142.942017,139.806048 C142.173782,141.544186 141.557703,143.57079 141.33178,146.260081 L157.380425,147.948251 L157.630657,145.520503 C157.808651,143.530411 157.767068,141.835165 157.512556,140.427627 C157.221706,138.819132 156.556218,137.56274 155.534629,136.647355 C154.524831,135.742536 153.070189,135.172344 151.153313,134.970706 C149.082272,134.752852 147.384803,135.099491 146.050895,135.976467 Z M289.350357,124.469121 C294.756343,122.926386 299.686739,122.732274 304.141294,123.902308 C308.581801,125.068653 312.384244,127.356111 315.549204,130.76371 C318.730951,134.189384 321.076046,138.536142 322.592447,143.799306 L322.592447,143.799306 L322.874938,144.779608 L323.046278,145.391329 C324.415914,150.426848 324.686743,155.155414 323.850694,159.577217 C322.985825,164.151442 320.981946,168.104109 317.837761,171.434553 C314.683663,174.775498 310.432461,177.201751 305.092192,178.725798 C299.684677,180.268969 294.739092,180.475444 290.255608,179.330459 C285.788568,178.189674 281.970919,175.907421 278.802121,172.484612 C275.615305,169.042342 273.26297,164.670773 271.737067,159.374631 L271.737067,159.374631 L271.454582,158.39435 L271.284328,157.786399 C269.923641,152.781981 269.659518,148.077011 270.49993,143.671309 C271.369546,139.112511 273.382078,135.157187 276.538162,131.805664 C279.703986,128.443799 283.977427,126.002488 289.350357,124.469121 Z M292.874564,136.691885 C290.6275,137.333165 289.008852,138.480158 287.998749,140.108538 C287.00333,141.713247 286.517078,143.688881 286.558853,146.041293 C286.599357,148.322091 287.025863,150.880582 287.842807,153.716182 L288.126327,154.700103 L288.297583,155.280439 C289.117274,157.992173 290.081429,160.265792 291.187111,162.106245 C292.411659,164.144554 293.87495,165.547445 295.561727,166.333186 C297.265557,167.126871 299.270877,167.211815 301.582158,166.552229 C303.828998,165.911012 305.442959,164.783271 306.44536,163.195135 C307.433723,161.629239 307.923915,159.66195 307.894455,157.286344 C307.865906,154.984224 307.431303,152.365074 306.585567,149.429541 L306.302046,148.445619 L306.126035,147.851343 C305.340427,145.271057 304.390245,143.077013 303.277915,141.263933 C302.044735,139.253869 300.573452,137.838541 298.876465,137.003444 C297.154238,136.155926 295.155039,136.04109 292.874564,136.691885 Z M247.9428,123.731724 C244.44188,123.731724 241.397309,124.489482 238.812465,126.016413 C236.227073,127.543669 234.118965,129.703379 232.484555,132.491899 C232.303796,132.800297 232.132578,133.109993 231.97091,133.420987 C231.856479,133.092689 231.730148,132.762932 231.591823,132.431787 C230.368772,129.503847 228.563806,127.319061 226.166059,125.887256 C223.752041,124.445736 220.862183,123.731724 217.500569,123.731724 C214.166193,123.731724 211.230295,124.440721 208.695504,125.868058 C206.296941,127.218684 204.242318,129.089583 202.529452,131.478282 L201.425085,133.056871 L200.787905,124.755285 L177.016686,124.755285 L177.016686,134.391876 L184.832934,136.029574 L184.832934,167.891605 L178.25083,169.529304 L178.25083,179.129972 L207.07599,179.129972 L207.07599,169.50722 L201.779453,167.869521 L201.779453,140.352032 C202.814167,139.062383 204.024835,138.093408 205.408979,137.441859 C206.741463,136.814628 208.217626,136.498628 209.838588,136.498628 C212.005286,136.498628 213.613475,137.154836 214.692014,138.413315 C215.692679,139.580928 216.260847,141.735898 216.303585,145.334719 L216.30362,167.854216 L211.675578,169.491914 L211.675578,179.129972 L237.87818,179.129972 L237.87818,169.491914 L233.250138,167.854216 L233.250138,140.29676 C234.284624,139.044498 235.495045,138.093631 236.879664,137.441859 C238.211377,136.814991 239.70459,136.498628 241.360696,136.498628 C243.452715,136.498628 245.036218,137.150639 246.134222,138.410116 C247.152599,139.578255 247.730769,141.733683 247.774269,145.334616 L247.774306,167.869521 L242.477768,169.50722 L242.477768,179.129972 L271.35435,179.129972 L271.35435,169.529304 L264.772246,167.891605 L264.772246,145.340656 C264.772246,137.98972 263.28917,132.527353 260.26382,128.981112 C257.27086,125.472838 253.159542,123.731724 247.9428,123.731724 Z" stroke-linejoin="square" fill="#FFFFFF" fill-rule="evenodd"></path>
            </g>
            <g id="JS" transform="translate(310.525884, 74.265356) rotate(1.000000) translate(-310.525884, -74.265356) ">
                <use fill="black" fill-opacity="1" filter="url(#filter-10)" xlink:href="#path-9"></use>
                <path stroke="#999999" stroke-width="1" d="M332.324205,46.0636851 C328.333791,46.2819454 324.814092,47.1229397 321.765244,48.5932649 C318.74649,50.0490767 316.400467,51.9777716 314.733614,54.3866134 C313.080738,56.7752558 312.312406,59.5266039 312.420904,62.6382986 C312.534105,65.8848702 313.35632,68.5817459 314.906326,70.7218081 C316.466812,72.8763407 318.801598,74.6985126 321.89952,76.200799 C325.062468,77.7346188 329.091947,79.2103839 334.014829,80.6395283 C336.243357,81.4301599 338.02002,82.2179372 339.346545,82.9993481 C340.729256,83.8138561 341.727112,84.6971415 342.353487,85.6361412 C342.99564,86.5987938 343.341333,87.7016175 343.384741,88.9465549 C343.430535,90.2599079 343.135154,91.3923234 342.512662,92.3480499 C341.892606,93.3000358 340.957788,94.0451315 339.696142,94.5696314 C338.492807,95.0698898 336.984396,95.3571238 335.168244,95.4206413 C332.613826,95.5099788 330.247582,95.2572904 328.069154,94.6654237 C325.886237,94.0723369 324.343164,93.2920446 323.237357,92.1618219 L321.845095,84.7138845 L312.185214,85.0517263 L312.685864,99.4102067 C316.213043,101.677126 319.725354,103.189785 323.224756,103.943274 C326.815425,104.716414 330.906386,105.020736 335.49731,104.860418 C339.752255,104.711832 343.461094,103.961663 346.622043,102.603206 C349.740522,101.263001 352.148278,99.3947239 353.837531,96.9891872 C355.517223,94.5972669 356.292122,91.7389909 356.176186,88.4190203 C356.006811,83.5687666 354.26459,79.7801713 350.924486,77.0661788 C347.519076,74.2991216 342.589683,72.074998 336.106588,70.3646035 C333.336642,69.3844485 331.175819,68.5100696 329.623384,67.7431412 C327.998443,66.9403944 326.864238,66.1114534 326.202702,65.2761824 C325.508275,64.3993823 325.139444,63.3859828 325.099305,62.2348278 C325.050114,60.8240382 325.412518,59.6386423 326.168092,58.6721326 C326.906686,57.7273436 327.930152,56.9969373 329.24633,56.491026 C330.515806,56.0030656 331.975173,55.727537 333.625617,55.6698149 C335.514384,55.6037577 337.303318,55.7326216 338.992517,56.0552143 C340.668345,56.3752537 341.96758,56.7506291 343.160471,57.2973521 L344.996364,64.8830768 L354.248807,64.5594847 L353.785281,51.2657055 C351.072485,49.3369804 347.986656,47.9285109 344.528829,47.0381335 C340.967997,46.1212326 336.899583,45.7982124 332.324205,46.0636851 Z M312.309205,43.6288538 L285.160391,43.6288538 L285.160391,50.919721 L293.133875,52.2420992 L293.133875,83.3612075 C293.133875,85.3946583 292.738761,87.0348124 291.973483,88.289902 C291.193853,89.5685281 290.201725,90.4908478 289.004282,91.0650907 C287.82099,91.6325471 286.587713,91.9156927 285.304713,91.9156927 C283.07122,91.9156927 281.221088,91.2176436 279.747836,89.837036 C278.410263,88.5835743 277.528101,86.2427506 277.156698,82.3869063 L264.885294,82.6096002 C265.096724,86.9000425 266.072033,90.450176 267.828377,93.2540504 C269.640185,96.1464685 272.169899,98.2916658 275.415182,99.6923356 C278.70195,101.11091 282.603269,101.815294 287.116868,101.815294 C291.185979,101.815294 294.647121,101.077578 297.496406,99.5880803 C300.317887,98.1131174 302.470523,96.004819 303.952869,93.2617316 C305.378779,90.6230809 306.118688,87.496247 306.183484,83.884353 L306.188166,83.3567514 L306.188146,52.2598971 L312.309205,50.9775909 L312.309205,43.6288538 Z" stroke-linejoin="square" fill="#FFFFFF" fill-rule="evenodd"></path>
            </g>
            <g id="Oval">
                <use fill="black" fill-opacity="1" filter="url(#filter-12)" xlink:href="#path-11"></use>
                <ellipse stroke="#999999" stroke-width="1" stroke-linejoin="square" fill="#FFFFFF" fill-rule="evenodd" cx="263.5" cy="109" rx="5" ry="5.5"></ellipse>
            </g>
        </g>
    </g>
</svg>