<?xml version="1.0" encoding="UTF-8"?>
<svg width="185px" height="40px" viewBox="0 0 185 40" version="1.1" xmlns="http://www.w3.org/2000/svg" xmlns:xlink="http://www.w3.org/1999/xlink">
    <!-- Generator: Sketch 63.1 (92452) - https://sketch.com -->
    <title>btnSignInGoogle</title>
    <desc>Created with Sketch.</desc>
    <g id="btnSignInGoogle" stroke="none" stroke-width="1" fill="none" fill-rule="evenodd">
        <g id="btn-sign-in-g" fill-rule="nonzero">
            <path d="M2,0 L183,0 C184.1,0 185,0.9 185,2 L185,38 C185,39.1 184.1,40 183,40 L2,40 C0.9,40 0,39.1 0,38 L0,2 C0,0.9 0.9,0 2,0 Z" id="Path" fill="#4285F4"></path>
            <path d="M3,1 L37,1 L37,39 L3,39 C1.9,39 1,38.1 1,37 L1,3 C1,1.9 1.9,1 3,1 Z" id="Path" fill="#FFFFFF"></path>
            <g id="Group" transform="translate(10.000000, 11.000000)">
                <path d="M18,9.2 C18,8.5 17.9,7.9 17.8,7.4 L9.2,7.4 L9.2,10.7 L14.3,10.7 C14.2,11.5 13.6,12.8 12.4,13.6 L12.4,13.7 L15.1,15.8 L15.3,15.8 C17,14.2 18,11.9 18,9.2" id="Path" fill="#4285F4"></path>
                <path d="M9.2,17.9 C11.7,17.9 13.8,17.1 15.3,15.7 L12.4,13.5 C11.6,14 10.6,14.4 9.2,14.4 C6.8,14.4 4.7,12.9 4,10.7 L3.9,10.7 L1,12.9 L1,13 C2.5,15.9 5.6,17.9 9.2,17.9" id="Path" fill="#34A853"></path>
                <path d="M4,10.7 C3.8,10.1 3.7,9.5 3.7,8.9 C3.7,8.3 3.8,7.7 4,7.1 L4,7 L1.1,4.8 L1,4.8 C0.4,6 0,7.4 0,8.8 C0,10.2 0.4,11.6 1,12.8 L4,10.7" id="Path" fill="#FBBC05"></path>
                <path d="M9.2,3.5 C10.9,3.5 12.1,4.2 12.7,4.8 L15.3,2.3 C13.7,0.9 11.6,0 9.2,0 C5.6,0 2.5,2 1,4.9 L4,7.2 C4.7,5 6.8,3.5 9.2,3.5" id="Path" fill="#EB4335"></path>
            </g>
            <g id="Group" transform="translate(45.000000, 15.000000)" fill="#FFFFFF">
                <path d="M0.4,6.2 L2.1,6 C2.2,6.6 2.4,7 2.7,7.2 C3,7.4 3.4,7.6 4,7.6 C4.6,7.6 5,7.5 5.3,7.2 C5.6,6.9 5.7,6.7 5.7,6.4 C5.7,6.2 5.6,6 5.5,5.9 C5.4,5.8 5.2,5.6 4.9,5.5 C4.7,5.4 4.2,5.3 3.5,5.1 C2.6,4.9 1.9,4.6 1.5,4.3 C1,3.8 0.7,3.3 0.7,2.6 C0.7,2.2 0.8,1.8 1.1,1.4 C1.4,1 1.7,0.7 2.2,0.5 C2.7,0.3 3.2,0.2 3.9,0.2 C5,0.2 5.8,0.4 6.3,0.9 C6.8,1.4 7.1,2 7.2,2.8 L5.5,2.9 C5.4,2.5 5.3,2.1 5,1.9 C4.7,1.7 4.4,1.6 3.9,1.6 C3.4,1.6 3,1.7 2.7,1.9 C2.5,2 2.4,2.2 2.4,2.4 C2.4,2.6 2.5,2.8 2.7,2.9 C2.9,3.1 3.5,3.3 4.3,3.5 C5.1,3.7 5.8,3.9 6.2,4.1 C6.6,4.3 6.9,4.6 7.1,5 C7.3,5.4 7.4,5.8 7.4,6.4 C7.4,6.9 7.3,7.4 7,7.8 C6.7,8.2 6.3,8.5 5.8,8.8 C5.3,9.1 4.7,9.1 3.9,9.1 C2.8,9.1 2,8.8 1.4,8.3 C0.8,7.8 0.5,7.2 0.4,6.2 Z" id="Path"></path>
                <path d="M8.9,1.9 L8.9,0.4 L10.5,0.4 L10.5,1.9 L8.9,1.9 Z M8.9,9 L8.9,2.8 L10.5,2.8 L10.5,9 L8.9,9 Z" id="Shape"></path>
                <path d="M12,9.4 L13.9,9.6 C13.9,9.8 14,10 14.1,10.1 C14.3,10.2 14.5,10.3 14.8,10.3 C15.2,10.3 15.6,10.2 15.8,10.1 C15.9,10 16.1,9.9 16.1,9.7 C16.2,9.6 16.2,9.3 16.2,8.9 L16.2,8 C15.7,8.7 15.1,9 14.3,9 C13.5,9 12.8,8.6 12.3,7.9 C11.9,7.3 11.7,6.6 11.7,5.8 C11.7,4.8 12,4 12.5,3.4 C13,2.8 13.6,2.6 14.4,2.6 C15.2,2.6 15.8,2.9 16.3,3.6 L16.3,2.7 L17.8,2.7 L17.8,8.3 C17.8,9 17.7,9.6 17.6,9.9 C17.5,10.2 17.3,10.5 17.1,10.8 C16.9,11.1 16.6,11.2 16.2,11.3 C15.8,11.4 15.4,11.5 14.8,11.5 C13.7,11.5 13,11.3 12.6,11 C12.2,10.7 12,10.2 12,9.6 C12,9.6 12,9.5 12,9.4 Z M13.5,5.8 C13.5,6.5 13.6,6.9 13.9,7.3 C14.2,7.7 14.5,7.8 14.8,7.8 C15.2,7.8 15.5,7.6 15.8,7.3 C16.1,7 16.2,6.5 16.2,5.9 C16.2,5.3 16.1,4.8 15.8,4.5 C15.5,4.2 15.2,4 14.8,4 C14.4,4 14.1,4.2 13.8,4.5 C13.5,4.8 13.5,5.1 13.5,5.8 Z" id="Shape"></path>
                <path d="M25.2,9 L23.6,9 L23.6,5.8 C23.6,5.1 23.6,4.7 23.5,4.5 C23.4,4.3 23.3,4.1 23.2,4 C23.1,3.9 22.9,3.8 22.6,3.8 C22.3,3.8 22.1,3.9 21.8,4 C21.5,4.1 21.4,4.4 21.3,4.6 C21.2,4.8 21.2,5.3 21.2,6 L21.2,9 L19.6,9 L19.6,2.8 L21,2.8 L21,3.7 C21.5,3 22.2,2.6 23.1,2.6 C23.5,2.6 23.8,2.7 24.1,2.8 C24.4,2.9 24.6,3.1 24.8,3.3 C25,3.5 25.1,3.7 25.1,4 C25.1,4.3 25.2,4.6 25.2,5.1 L25.2,9 L25.2,9 Z" id="Path"></path>
                <path d="M30.2,1.9 L30.2,0.4 L31.8,0.4 L31.8,1.9 L30.2,1.9 Z M30.2,9 L30.2,2.8 L31.8,2.8 L31.8,9 L30.2,9 Z" id="Shape"></path>
                <path d="M39.2,9 L37.6,9 L37.6,5.8 C37.6,5.1 37.6,4.7 37.5,4.5 C37.4,4.3 37.3,4.1 37.2,4 C37.1,3.9 36.9,3.8 36.6,3.8 C36.3,3.8 36.1,3.9 35.8,4 C35.5,4.1 35.4,4.4 35.3,4.6 C35.2,4.8 35.2,5.3 35.2,6 L35.2,9 L33.6,9 L33.6,2.8 L35,2.8 L35,3.7 C35.5,3 36.2,2.6 37.1,2.6 C37.5,2.6 37.8,2.7 38.1,2.8 C38.4,2.9 38.6,3.1 38.8,3.3 C39,3.5 39.1,3.7 39.1,4 C39.1,4.3 39.2,4.6 39.2,5.1 L39.2,9 L39.2,9 Z" id="Path"></path>
                <polygon id="Path" points="45.4 9 43.4 2.8 45 2.8 46.2 6.9 47.3 2.8 48.9 2.8 49.9 6.9 51.1 2.8 52.7 2.8 50.7 9 49.1 9 48 5 47 9"></polygon>
                <path d="M53.5,1.9 L53.5,0.4 L55.1,0.4 L55.1,1.9 L53.5,1.9 Z M53.5,9 L53.5,2.8 L55.1,2.8 L55.1,9 L53.5,9 Z" id="Shape"></path>
                <path d="M59.7,2.8 L59.7,4.1 L58.6,4.1 L58.6,6.6 C58.6,7.1 58.6,7.4 58.6,7.5 C58.6,7.6 58.7,7.7 58.7,7.7 C58.7,7.7 58.9,7.8 59,7.8 C59.2,7.8 59.4,7.7 59.7,7.6 L59.8,8.9 C59.4,9.1 59,9.1 58.5,9.1 C58.2,9.1 57.9,9.1 57.7,9 C57.5,8.9 57.3,8.8 57.2,8.6 C57.1,8.4 57,8.2 57,8 C57,7.8 56.9,7.4 56.9,6.8 L56.9,4.1 L56.1,4.1 L56.1,2.8 L56.9,2.8 L56.9,1.6 L58.6,0.6 L58.6,2.8 L59.7,2.8 Z" id="Path"></path>
                <path d="M62.5,0.4 L62.5,3.6 C63,3 63.7,2.7 64.4,2.7 C64.8,2.7 65.1,2.8 65.4,2.9 C65.7,3 65.9,3.2 66.1,3.4 C66.3,3.6 66.4,3.9 66.4,4.1 C66.4,4.3 66.5,4.8 66.5,5.3 L66.5,9 L64.9,9 L64.9,5.7 C64.9,5 64.9,4.6 64.8,4.5 C64.7,4.4 64.6,4.2 64.5,4.1 C64.4,4 64.1,3.9 63.9,3.9 C63.6,3.9 63.4,4 63.2,4.1 C63,4.2 62.8,4.4 62.7,4.7 C62.6,5 62.6,5.4 62.6,5.9 L62.6,9 L61,9 L61,0.4 L62.5,0.4 Z" id="Path"></path>
                <path d="M75.5,5.8 L75.5,4.4 L79.2,4.4 L79.2,7.8 C78.8,8.2 78.3,8.5 77.6,8.7 C76.9,8.9 76.2,9.1 75.5,9.1 C74.6,9.1 73.8,8.9 73.2,8.5 C72.6,8.1 72,7.6 71.7,6.9 C71.4,6.2 71.2,5.4 71.2,4.6 C71.2,3.7 71.4,2.9 71.8,2.2 C72.2,1.5 72.7,1 73.4,0.6 C74,0.3 74.6,0.2 75.5,0.2 C76.6,0.2 77.4,0.4 78,0.9 C78.6,1.4 79,2 79.2,2.8 L77.5,3.1 C77.4,2.7 77.2,2.3 76.8,2.1 C76.4,1.9 76,1.7 75.5,1.7 C74.7,1.7 74.1,1.9 73.7,2.4 C73.3,2.9 73,3.6 73,4.5 C73,5.5 73.2,6.3 73.7,6.8 C74.2,7.3 74.7,7.6 75.5,7.6 C75.9,7.6 76.2,7.5 76.6,7.4 C77,7.3 77.3,7.1 77.5,6.9 L77.5,5.8 L75.5,5.8 L75.5,5.8 Z" id="Path"></path>
                <path d="M80.5,5.8 C80.5,5.3 80.6,4.7 80.9,4.2 C81.2,3.7 81.6,3.3 82,3 C82.4,2.7 83,2.6 83.7,2.6 C84.6,2.6 85.4,2.9 86,3.5 C86.6,4.1 86.9,4.9 86.9,5.8 C86.9,6.7 86.6,7.5 86,8.1 C85.4,8.7 84.6,9 83.7,9 C83.1,9 82.6,8.9 82.1,8.6 C81.6,8.3 81.2,8 80.9,7.5 C80.6,7 80.5,6.5 80.5,5.8 Z M82.2,5.9 C82.2,6.5 82.3,7 82.6,7.3 C82.9,7.6 83.3,7.8 83.7,7.8 C84.1,7.8 84.5,7.6 84.8,7.3 C85.1,7 85.2,6.5 85.2,5.9 C85.2,5.3 85.1,4.8 84.8,4.5 C84.5,4.2 84.1,4 83.7,4 C83.3,4 82.9,4.2 82.6,4.5 C82.3,4.8 82.2,5.3 82.2,5.9 Z" id="Shape"></path>
                <path d="M87.8,5.8 C87.8,5.3 87.9,4.7 88.2,4.2 C88.5,3.7 88.9,3.3 89.3,3 C89.7,2.7 90.3,2.6 91,2.6 C91.9,2.6 92.7,2.9 93.3,3.5 C93.9,4.1 94.2,4.9 94.2,5.8 C94.2,6.7 93.9,7.5 93.3,8.1 C92.7,8.7 91.9,9 91,9 C90.4,9 89.9,8.9 89.4,8.6 C88.9,8.3 88.5,8 88.2,7.5 C87.9,7 87.8,6.5 87.8,5.8 Z M89.5,5.9 C89.5,6.5 89.6,7 89.9,7.3 C90.2,7.6 90.6,7.8 91,7.8 C91.4,7.8 91.8,7.6 92.1,7.3 C92.4,7 92.5,6.5 92.5,5.9 C92.5,5.3 92.4,4.8 92.1,4.5 C91.8,4.2 91.4,4 91,4 C90.6,4 90.2,4.2 89.9,4.5 C89.6,4.8 89.5,5.3 89.5,5.9 Z" id="Shape"></path>
                <path d="M95.4,9.4 L97.3,9.6 C97.3,9.8 97.4,10 97.5,10.1 C97.7,10.2 97.9,10.3 98.2,10.3 C98.6,10.3 99,10.2 99.2,10.1 C99.3,10 99.5,9.9 99.5,9.7 C99.6,9.6 99.6,9.3 99.6,8.9 L99.6,8 C99.1,8.7 98.5,9 97.7,9 C96.9,9 96.2,8.6 95.7,7.9 C95.3,7.3 95.1,6.6 95.1,5.8 C95.1,4.8 95.4,4 95.9,3.4 C96.4,2.8 97,2.6 97.8,2.6 C98.6,2.6 99.2,2.9 99.7,3.6 L99.7,2.7 L101.2,2.7 L101.2,8.3 C101.2,9 101.1,9.6 101,9.9 C100.9,10.2 100.7,10.5 100.5,10.8 C100.3,11.1 100,11.2 99.6,11.3 C99.2,11.4 98.8,11.5 98.2,11.5 C97.1,11.5 96.4,11.3 96,11 C95.6,10.7 95.3,10.2 95.3,9.6 C95.4,9.6 95.4,9.5 95.4,9.4 Z M96.8,5.8 C96.8,6.5 96.9,6.9 97.2,7.3 C97.5,7.7 97.8,7.8 98.1,7.8 C98.5,7.8 98.8,7.6 99.1,7.3 C99.4,7 99.5,6.5 99.5,5.9 C99.5,5.3 99.4,4.8 99.1,4.5 C98.8,4.2 98.5,4 98.1,4 C97.7,4 97.4,4.2 97.1,4.5 C96.8,4.8 96.8,5.1 96.8,5.8 Z" id="Shape"></path>
                <polygon id="Path" points="102.8 9 102.8 0.4 104.4 0.4 104.4 9"></polygon>
                <path d="M109.8,7 L111.4,7.3 C111.2,7.9 110.9,8.4 110.4,8.7 C109.9,9 109.4,9.2 108.7,9.2 C107.6,9.2 106.8,8.8 106.3,8.1 C105.9,7.5 105.7,6.8 105.7,6 C105.7,5 106,4.2 106.5,3.6 C107,3 107.7,2.7 108.5,2.7 C109.4,2.7 110.2,3 110.7,3.6 C111.2,4.2 111.5,5.1 111.5,6.4 L107.4,6.4 C107.4,6.9 107.5,7.3 107.8,7.5 C108.1,7.7 108.4,7.9 108.7,7.9 C109,7.9 109.2,7.8 109.4,7.7 C109.6,7.6 109.7,7.3 109.8,7 Z M109.9,5.4 C109.9,4.9 109.8,4.6 109.5,4.3 C109.2,4 109,3.9 108.6,3.9 C108.2,3.9 107.9,4 107.7,4.3 C107.5,4.6 107.4,4.9 107.4,5.4 L109.9,5.4 Z" id="Shape"></path>
            </g>
        </g>
    </g>
</svg>