<?xml version="1.0" encoding="UTF-8"?>
<svg width="185px" height="40px" viewBox="0 0 185 40" version="1.1" xmlns="http://www.w3.org/2000/svg" xmlns:xlink="http://www.w3.org/1999/xlink">
    <!-- Generator: Sketch 63.1 (92452) - https://sketch.com -->
    <title>btnSignInGithub</title>
    <desc>Created with Sketch.</desc>
    <g id="btnSignInGithub" stroke="none" stroke-width="1" fill="none" fill-rule="evenodd">
        <rect id="Rectangle" fill="#000000" x="0" y="0" width="185" height="40" rx="2"></rect>
        <path d="M18.13122,30.4577907 C18.13122,30.167203 18.1171667,28.5640727 18.1171667,27.5797 C18.1171667,27.5797 14.8359245,28.2828234 14.1468545,26.1828375 C14.1468545,26.1828375 13.6125082,24.8187508 12.8437417,24.4671892 C12.8437417,24.4671892 11.7702885,23.7312443 12.9187232,23.7453433 C12.9187232,23.7453433 14.0859263,23.8390931 14.7281214,24.9547063 C15.754654,26.7640587 17.4749715,26.2437657 18.1452733,25.934364 C18.2531221,25.1843658 18.5578089,24.6640728 18.8952715,24.3547169 C16.2749927,24.0640834 13.6312307,23.6843694 13.6312307,19.1750417 C13.6312307,17.8859823 13.9875073,17.2390722 14.7375055,16.4140925 C14.6156034,16.1094057 14.2171668,14.8531679 14.8593619,13.2312693 C15.8390654,12.9265825 18.0937292,14.4968913 18.0937292,14.4968913 C19.031227,14.2344102 20.0390371,14.0984547 21.037463,14.0984547 C22.035889,14.0984547 23.0436991,14.2344102 23.9811969,14.4968913 C23.9811969,14.4968913 26.2359065,12.9219133 27.2155642,13.2312693 C27.8577593,14.8578371 27.4593227,16.1094057 27.3374663,16.4140925 C28.0874645,17.2437872 28.5468293,17.8906515 28.5468293,19.1750417 C28.5468293,23.6984685 25.7858801,24.0593685 23.1656013,24.3547169 C23.5968594,24.725001 23.9624744,25.4281244 23.9624744,26.5296842 L23.9621471,26.9683455 C23.9600354,28.4517979 23.9484211,30.099013 23.9484211,30.4484524 C23.9484211,30.7531391 24.1640272,31.1234233 24.7593475,31.0156202 C29.4468363,29.4593647 32.6249446,25.0109653 32.6249446,19.8125219 C32.6249446,13.3109658 27.3515196,8.37504917 20.8499635,8.37504917 C14.3484073,8.37504917 9.375,13.3109658 9.375,19.8125219 C9.375,25.0109653 12.646858,29.4593647 17.3202936,31.0250043 C17.920283,31.1328074 18.13122,30.7624775 18.13122,30.4577907 Z M14.6718624,25.5265891 C14.7468439,25.4656151 14.7468439,25.3437587 14.6718624,25.2359556 C14.6062192,25.1281525 14.4843628,25.0812777 14.4093813,25.1422059 C14.334354,25.1890807 14.334354,25.3109371 14.4093813,25.4187402 C14.4843628,25.5265891 14.6109342,25.573464 14.6718624,25.5265891 Z M15.3093425,26.1687384 C15.3703165,26.1078102 15.3421641,25.9671856 15.2484143,25.8781508 C15.1452804,25.7703019 15.0046558,25.7562486 14.9437276,25.8312759 C14.8687461,25.8922041 14.8968527,26.0328287 15.0046558,26.1218636 C15.1125046,26.2297124 15.2484143,26.2437657 15.3093425,26.1687384 Z M16.1859121,26.5531217 C16.2140645,26.4593719 16.1249839,26.3515688 15.9843592,26.3093631 C15.8625028,26.2765873 15.7265474,26.3234622 15.6937258,26.417212 C15.6609042,26.5109617 15.754654,26.6187648 15.8952786,26.6468715 C16.0171808,26.6937463 16.1578055,26.6468715 16.1859121,26.5531217 Z M17.8265332,26.6890772 C17.9624887,26.6562556 18.0562385,26.567175 18.0421851,26.4734252 C18.0280861,26.3843904 17.9015605,26.3234622 17.765605,26.3375155 C17.6296495,26.3703371 17.5358997,26.4593719 17.5499988,26.567175 C17.5640521,26.6609248 17.6859085,26.7218987 17.8265332,26.6890772 Z M16.9078037,26.7968803 C17.0437134,26.7968803 17.1515623,26.7218987 17.1515623,26.628149 C17.1515623,26.5203001 17.0296601,26.4453186 16.8890354,26.4593719 C16.7531257,26.4593719 16.6452769,26.5343992 16.6452769,26.628149 C16.6452769,26.7359521 16.7531257,26.8109336 16.9078037,26.7968803 Z" id="g" fill="#FFFFFF" fill-rule="nonzero"></path>
        <path d="M50.4628906,24.2226562 C51.5644531,24.2226562 52.4169922,23.9619141 53.0205078,23.4404297 C53.6240234,22.9189453 53.9257812,22.2636719 53.9257812,21.4746094 C53.9257812,20.7050781 53.6679688,20.1171875 53.1523438,19.7109375 C52.8203125,19.4492188 52.328125,19.2402344 51.6757812,19.0839844 L51.6757812,19.0839844 L50.1875,18.7265625 C49.6132812,18.5898438 49.2382812,18.4707031 49.0625,18.3691406 C48.7890625,18.2167969 48.6523438,17.9863281 48.6523438,17.6777344 C48.6523438,17.3417969 48.7910156,17.0800781 49.0683594,16.8925781 C49.3457031,16.7050781 49.7167969,16.6113281 50.1816406,16.6113281 C50.5996094,16.6113281 50.9492188,16.6835938 51.2304688,16.828125 C51.6523438,17.046875 51.8789062,17.4160156 51.9101562,17.9355469 L51.9101562,17.9355469 L53.6445312,17.9355469 C53.6132812,17.0175781 53.2763672,16.3173828 52.6337891,15.8349609 C51.9912109,15.3525391 51.2148438,15.1113281 50.3046875,15.1113281 C49.2148438,15.1113281 48.3886719,15.3671875 47.8261719,15.8789062 C47.2636719,16.390625 46.9824219,17.0332031 46.9824219,17.8066406 C46.9824219,18.6542969 47.2734375,19.2773438 47.8554688,19.6757812 C48.1992188,19.9140625 48.8203125,20.1347656 49.71875,20.3378906 L49.71875,20.3378906 L50.6328125,20.5429688 C51.1679688,20.6601562 51.5605469,20.7949219 51.8105469,20.9472656 C52.0605469,21.1035156 52.1855469,21.3242188 52.1855469,21.609375 C52.1855469,22.0976562 51.9335938,22.4316406 51.4296875,22.6113281 C51.1640625,22.7050781 50.8183594,22.7519531 50.3925781,22.7519531 C49.6816406,22.7519531 49.1796875,22.5742188 48.8867188,22.21875 C48.7265625,22.0234375 48.6191406,21.7285156 48.5644531,21.3339844 L48.5644531,21.3339844 L46.8417969,21.3339844 C46.8417969,22.2324219 47.1640625,22.9384766 47.8085938,23.4521484 C48.453125,23.9658203 49.3378906,24.2226562 50.4628906,24.2226562 Z M56.84375,16.8515625 L56.84375,15.3105469 L55.1503906,15.3105469 L55.1503906,16.8515625 L56.84375,16.8515625 Z M56.84375,24 L56.84375,17.6132812 L55.1503906,17.6132812 L55.1503906,24 L56.84375,24 Z M61.0742188,26.6132812 C62.4257812,26.6132812 63.3398438,26.2539062 63.8164062,25.5351562 C64.09375,25.1171875 64.2324219,24.4960938 64.2324219,23.671875 L64.2324219,23.671875 L64.2324219,17.6132812 L62.609375,17.6132812 L62.609375,18.5332031 C62.359375,18.0839844 62.03125,17.7753906 61.625,17.6074219 C61.3867188,17.5097656 61.1074219,17.4609375 60.7871094,17.4609375 C59.9199219,17.4609375 59.25,17.7841797 58.7773438,18.4306641 C58.3046875,19.0771484 58.0683594,19.875 58.0683594,20.8242188 C58.0683594,21.8085938 58.3134766,22.5888672 58.8037109,23.1650391 C59.2939453,23.7412109 59.9492188,24.0292969 60.7695312,24.0292969 C61.3007812,24.0292969 61.7324219,23.9023438 62.0644531,23.6484375 C62.2480469,23.5117188 62.4199219,23.3066406 62.5800781,23.0332031 L62.5800781,23.0332031 L62.5800781,23.4433594 C62.5800781,24.0527344 62.5136719,24.4863281 62.3808594,24.7441406 C62.1777344,25.1464844 61.7753906,25.3476562 61.1738281,25.3476562 C60.7480469,25.3476562 60.4453125,25.2714844 60.265625,25.1191406 C60.1601562,25.0332031 60.0839844,24.8925781 60.0371094,24.6972656 L60.0371094,24.6972656 L58.2207031,24.6972656 C58.2753906,25.3339844 58.5605469,25.8125 59.0761719,26.1328125 C59.5917969,26.453125 60.2578125,26.6132812 61.0742188,26.6132812 Z M61.203125,22.6289062 C60.6171875,22.6289062 60.2109375,22.359375 59.984375,21.8203125 C59.859375,21.53125 59.796875,21.2011719 59.796875,20.8300781 C59.796875,20.4003906 59.8554688,20.0390625 59.9726562,19.7460938 C60.1953125,19.1953125 60.5996094,18.9199219 61.1855469,18.9199219 C61.6152344,18.9199219 61.9580078,19.078125 62.2138672,19.3945312 C62.4697266,19.7109375 62.5976562,20.171875 62.5976562,20.7773438 C62.5976562,21.421875 62.4628906,21.8916016 62.1933594,22.1865234 C61.9238281,22.4814453 61.59375,22.6289062 61.203125,22.6289062 Z M67.4667969,24 L67.4667969,20.5429688 C67.4667969,20.1484375 67.5214844,19.8242188 67.6308594,19.5703125 C67.8417969,19.0898438 68.2304688,18.8496094 68.796875,18.8496094 C69.2578125,18.8496094 69.5703125,19.0136719 69.734375,19.3417969 C69.8242188,19.5214844 69.8691406,19.7792969 69.8691406,20.1152344 L69.8691406,20.1152344 L69.8691406,24 L71.5800781,24 L71.5800781,19.6992188 C71.5800781,18.8984375 71.3701172,18.3251953 70.9501953,17.9794922 C70.5302734,17.6337891 69.9902344,17.4609375 69.3300781,17.4609375 C68.8027344,17.4609375 68.3671875,17.5898438 68.0234375,17.8476562 C67.8320312,17.9921875 67.6289062,18.2285156 67.4140625,18.5566406 L67.4140625,18.5566406 L67.4140625,17.625 L65.8027344,17.625 L65.8027344,24 L67.4667969,24 Z M78.171875,16.8515625 L78.171875,15.3105469 L76.4785156,15.3105469 L76.4785156,16.8515625 L78.171875,16.8515625 Z M78.171875,24 L78.171875,17.6132812 L76.4785156,17.6132812 L76.4785156,24 L78.171875,24 Z M81.4648438,24 L81.4648438,20.5429688 C81.4648438,20.1484375 81.5195312,19.8242188 81.6289062,19.5703125 C81.8398438,19.0898438 82.2285156,18.8496094 82.7949219,18.8496094 C83.2558594,18.8496094 83.5683594,19.0136719 83.7324219,19.3417969 C83.8222656,19.5214844 83.8671875,19.7792969 83.8671875,20.1152344 L83.8671875,20.1152344 L83.8671875,24 L85.578125,24 L85.578125,19.6992188 C85.578125,18.8984375 85.3681641,18.3251953 84.9482422,17.9794922 C84.5283203,17.6337891 83.9882812,17.4609375 83.328125,17.4609375 C82.8007812,17.4609375 82.3652344,17.5898438 82.0214844,17.8476562 C81.8300781,17.9921875 81.6269531,18.2285156 81.4121094,18.5566406 L81.4121094,18.5566406 L81.4121094,17.625 L79.8007812,17.625 L79.8007812,24 L81.4648438,24 Z M93.2832031,24 L94.296875,19.3476562 L95.2988281,24 L97.015625,24 L98.8671875,17.6132812 L97.1269531,17.6132812 L96.1308594,22.2128906 L95.1582031,17.6132812 L93.4648438,17.6132812 L92.5449219,22.1953125 L91.5488281,17.6132812 L89.7558594,17.6132812 L91.5488281,24 L93.2832031,24 Z M101.503906,16.8515625 L101.503906,15.3105469 L99.8105469,15.3105469 L99.8105469,16.8515625 L101.503906,16.8515625 Z M101.503906,24 L101.503906,17.6132812 L99.8105469,17.6132812 L99.8105469,24 L101.503906,24 Z M105.044906,24.0913086 L105.253906,24.0878906 L106.044922,24.0585938 L106.044922,22.8105469 C105.990234,22.8144531 105.93457,22.8173828 105.87793,22.8193359 C105.821289,22.8212891 105.767578,22.8222656 105.716797,22.8222656 C105.376953,22.8222656 105.173828,22.7900391 105.107422,22.7255859 C105.041016,22.6611328 105.007812,22.4980469 105.007812,22.2363281 L105.007812,22.2363281 L105.007812,18.8613281 L106.044922,18.8613281 L106.044922,17.671875 L105.007812,17.671875 L105.007812,15.890625 L103.355469,15.890625 L103.355469,17.671875 L102.464844,17.671875 L102.464844,18.8613281 L103.355469,18.8613281 L103.355469,22.7929688 C103.355469,23.1914062 103.449219,23.4863281 103.636719,23.6777344 C103.925781,23.9785156 104.464844,24.1152344 105.253906,24.0878906 L105.044906,24.0913086 Z M108.792969,24 L108.792969,20.5429688 C108.792969,19.9960938 108.907227,19.5751953 109.135742,19.2802734 C109.364258,18.9853516 109.699219,18.8378906 110.140625,18.8378906 C110.566406,18.8378906 110.855469,18.9863281 111.007812,19.2832031 C111.125,19.4941406 111.183594,19.7714844 111.183594,20.1152344 L111.183594,20.1152344 L111.183594,24 L112.888672,24 L112.888672,20.25 C112.888672,19.6796875 112.869141,19.2685547 112.830078,19.0166016 C112.791016,18.7646484 112.683594,18.5195312 112.507812,18.28125 C112.300781,18 112.036133,17.7910156 111.713867,17.6542969 C111.391602,17.5175781 111.033203,17.4492188 110.638672,17.4492188 C110.287109,17.4492188 109.952148,17.5224609 109.633789,17.6689453 C109.31543,17.8154297 109.035156,18.0742188 108.792969,18.4453125 L108.792969,18.4453125 L108.792969,15.3925781 L107.128906,15.3925781 L107.128906,24 L108.792969,24 Z M121.455078,24.2285156 C122.150391,24.2285156 122.736328,24.0820312 123.212891,23.7890625 C123.490234,23.6210938 123.802734,23.3320312 124.150391,22.921875 L124.150391,22.921875 L124.332031,24 L125.527344,24 L125.527344,19.3652344 L121.929688,19.3652344 L121.929688,20.8066406 L123.927734,20.8066406 C123.837891,21.3730469 123.599609,21.8310547 123.212891,22.1806641 C122.826172,22.5302734 122.330078,22.7050781 121.724609,22.7050781 C121.107422,22.7050781 120.556641,22.484375 120.072266,22.0429688 C119.587891,21.6015625 119.345703,20.8496094 119.345703,19.7871094 C119.345703,18.7324219 119.569336,17.9423828 120.016602,17.4169922 C120.463867,16.8916016 121.035156,16.6289062 121.730469,16.6289062 C122.09375,16.6289062 122.423828,16.6933594 122.720703,16.8222656 C123.251953,17.0566406 123.585938,17.46875 123.722656,18.0585938 L123.722656,18.0585938 L125.498047,18.0585938 C125.400391,17.2265625 125.018555,16.5322266 124.352539,15.9755859 C123.686523,15.4189453 122.804688,15.140625 121.707031,15.140625 C120.441406,15.140625 119.423828,15.5625 118.654297,16.40625 C117.884766,17.25 117.5,18.3710938 117.5,19.7695312 C117.5,21.1523438 117.880859,22.2421875 118.642578,23.0390625 C119.373047,23.8320312 120.310547,24.2285156 121.455078,24.2285156 Z M128.832031,16.8515625 L128.832031,15.3105469 L127.138672,15.3105469 L127.138672,16.8515625 L128.832031,16.8515625 Z M128.832031,24 L128.832031,17.6132812 L127.138672,17.6132812 L127.138672,24 L128.832031,24 Z M132.373031,24.0913086 L132.582031,24.0878906 L133.373047,24.0585938 L133.373047,22.8105469 C133.318359,22.8144531 133.262695,22.8173828 133.206055,22.8193359 C133.149414,22.8212891 133.095703,22.8222656 133.044922,22.8222656 C132.705078,22.8222656 132.501953,22.7900391 132.435547,22.7255859 C132.369141,22.6611328 132.335938,22.4980469 132.335938,22.2363281 L132.335938,22.2363281 L132.335938,18.8613281 L133.373047,18.8613281 L133.373047,17.671875 L132.335938,17.671875 L132.335938,15.890625 L130.683594,15.890625 L130.683594,17.671875 L129.792969,17.671875 L129.792969,18.8613281 L130.683594,18.8613281 L130.683594,22.7929688 C130.683594,23.1914062 130.777344,23.4863281 130.964844,23.6777344 C131.253906,23.9785156 131.792969,24.1152344 132.582031,24.0878906 L132.373031,24.0913086 Z M136.121094,24 L136.121094,20.5429688 C136.121094,19.9960938 136.235352,19.5751953 136.463867,19.2802734 C136.692383,18.9853516 137.027344,18.8378906 137.46875,18.8378906 C137.894531,18.8378906 138.183594,18.9863281 138.335938,19.2832031 C138.453125,19.4941406 138.511719,19.7714844 138.511719,20.1152344 L138.511719,20.1152344 L138.511719,24 L140.216797,24 L140.216797,20.25 C140.216797,19.6796875 140.197266,19.2685547 140.158203,19.0166016 C140.119141,18.7646484 140.011719,18.5195312 139.835938,18.28125 C139.628906,18 139.364258,17.7910156 139.041992,17.6542969 C138.719727,17.5175781 138.361328,17.4492188 137.966797,17.4492188 C137.615234,17.4492188 137.280273,17.5224609 136.961914,17.6689453 C136.643555,17.8154297 136.363281,18.0742188 136.121094,18.4453125 L136.121094,18.4453125 L136.121094,15.3925781 L134.457031,15.3925781 L134.457031,24 L136.121094,24 Z M143.914062,24.140625 C144.242188,24.140625 144.52832,24.0976562 144.772461,24.0117188 C145.016602,23.9257812 145.269531,23.765625 145.53125,23.53125 C145.617188,23.4570312 145.691406,23.3710938 145.753906,23.2734375 C145.816406,23.1757812 145.855469,23.1171875 145.871094,23.0976562 L145.871094,23.0976562 L145.871094,24 L147.494141,24 L147.494141,17.6132812 L145.800781,17.6132812 L145.800781,21.0878906 C145.800781,21.4980469 145.746094,21.828125 145.636719,22.078125 C145.425781,22.5390625 145.035156,22.7695312 144.464844,22.7695312 C144.019531,22.7695312 143.720703,22.6074219 143.568359,22.2832031 C143.482422,22.0996094 143.439453,21.8261719 143.439453,21.4628906 L143.439453,21.4628906 L143.439453,17.6132812 L141.728516,17.6132812 L141.728516,21.4628906 C141.728516,22.1933594 141.820312,22.7460938 142.003906,23.1210938 C142.332031,23.8007812 142.96875,24.140625 143.914062,24.140625 Z M152.574219,24.1699219 C153.414062,24.1699219 154.068359,23.84375 154.537109,23.1914062 C155.005859,22.5390625 155.240234,21.7167969 155.240234,20.7246094 C155.240234,19.7675781 155.00293,18.9863281 154.52832,18.3808594 C154.053711,17.7753906 153.396484,17.4726562 152.556641,17.4726562 C152.091797,17.4726562 151.708984,17.5703125 151.408203,17.765625 C151.154297,17.921875 150.921875,18.1484375 150.710938,18.4453125 L150.710938,18.4453125 L150.710938,15.375 L149.046875,15.375 L149.046875,24 L150.681641,24 L150.681641,23.1972656 C150.904297,23.5097656 151.111328,23.7285156 151.302734,23.8535156 C151.623047,24.0644531 152.046875,24.1699219 152.574219,24.1699219 Z M152.128906,22.7929688 C151.632812,22.7929688 151.263672,22.6132812 151.021484,22.2539062 C150.779297,21.8945312 150.658203,21.4414062 150.658203,20.8945312 C150.658203,20.4296875 150.716797,20.0507812 150.833984,19.7578125 C151.060547,19.2070312 151.476562,18.9316406 152.082031,18.9316406 C152.679688,18.9316406 153.089844,19.2128906 153.3125,19.7753906 C153.429688,20.0722656 153.488281,20.4472656 153.488281,20.9003906 C153.488281,21.4667969 153.369141,21.9238281 153.130859,22.2714844 C152.892578,22.6191406 152.558594,22.7929688 152.128906,22.7929688 Z" id="SigninwithGithub" fill="#FFFFFF" fill-rule="nonzero"></path>
    </g>
</svg>