<?xml version="1.0" encoding="UTF-8"?>
<svg width="277px" height="105px" viewBox="0 0 277 105" version="1.1" xmlns="http://www.w3.org/2000/svg" xmlns:xlink="http://www.w3.org/1999/xlink">
    <title>header</title>
    <g id="Page-1-Copy" stroke="none" stroke-width="1" fill="none" fill-rule="evenodd">
        <g id="Mobile-Copy" transform="translate(-21.000000, -53.000000)" fill="#000000" fill-rule="nonzero">
            <path d="M32.467,101.67 C36.0403333,101.67 38.765,100.653833 40.641,98.6215 C42.517,96.5891667 43.455,93.6746667 43.455,89.878 L43.455,89.878 L43.455,54.1 L36.353,54.1 L36.353,90.414 C36.353,92.022 36.0291667,93.1833333 35.3815,93.898 C34.7338333,94.6126667 33.807,94.97 32.601,94.97 C31.395,94.97 30.4681667,94.6126667 29.8205,93.898 C29.1728333,93.1833333 28.849,92.022 28.849,90.414 L28.849,90.414 L28.849,54.1 L21.479,54.1 L21.479,89.878 C21.479,93.6746667 22.417,96.5891667 24.293,98.6215 C26.169,100.653833 28.8936667,101.67 32.467,101.67 Z M55.004125,101 L55.004125,54.1 L47.634125,54.1 L47.634125,101 L55.004125,101 Z M80.380375,101 C84.0430417,101 86.7900417,100.017333 88.621375,98.052 C90.4527083,96.0866667 91.368375,93.2056667 91.368375,89.409 L91.368375,89.409 L91.368375,65.691 C91.368375,61.8943333 90.4527083,59.0133333 88.621375,57.048 C86.7900417,55.0826667 84.0430417,54.1 80.380375,54.1 L80.380375,54.1 L69.124375,54.1 L69.124375,101 L80.380375,101 Z M80.246375,94.3 L76.494375,94.3 L76.494375,60.8 L80.246375,60.8 C81.452375,60.8 82.3792083,61.1573333 83.026875,61.872 C83.6745417,62.5866667 83.998375,63.748 83.998375,65.356 L83.998375,65.356 L83.998375,89.744 C83.998375,91.352 83.6745417,92.5133333 83.026875,93.228 C82.3792083,93.9426667 81.452375,94.3 80.246375,94.3 L80.246375,94.3 Z M115.3795,101 L115.3795,94.3 L102.6495,94.3 L102.6495,79.895 L112.7665,79.895 L112.7665,73.195 L102.6495,73.195 L102.6495,60.8 L115.3795,60.8 L115.3795,54.1 L95.2795,54.1 L95.2795,101 L115.3795,101 Z M128.268625,101.67 C131.886625,101.67 134.644792,100.642667 136.543125,98.588 C138.441458,96.5333333 139.390625,93.5853333 139.390625,89.744 C139.390625,86.796 138.809958,84.2276667 137.648625,82.039 C136.487292,79.8503333 134.365625,77.416 131.283625,74.736 C128.871625,72.6366667 127.207792,70.85 126.292125,69.376 C125.376458,67.902 124.918625,66.3163333 124.918625,64.619 C124.918625,61.6263333 126.146958,60.13 128.603625,60.13 C129.809625,60.13 130.725292,60.4985 131.350625,61.2355 C131.975958,61.9725 132.288625,63.145 132.288625,64.753 L132.288625,64.753 L132.288625,67.165 L139.256625,67.165 L139.256625,65.222 C139.256625,61.4253333 138.352125,58.5108333 136.543125,56.4785 C134.734125,54.4461667 132.065292,53.43 128.536625,53.43 C124.963292,53.43 122.238625,54.4461667 120.362625,56.4785 C118.486625,58.5108333 117.548625,61.3806667 117.548625,65.088 C117.548625,67.8126667 118.151625,70.2581667 119.357625,72.4245 C120.563625,74.5908333 122.685292,77.014 125.722625,79.694 C128.134625,81.7933333 129.787292,83.5911667 130.680625,85.0875 C131.573958,86.5838333 132.020625,88.3146667 132.020625,90.28 C132.020625,91.9326667 131.696792,93.1275 131.049125,93.8645 C130.401458,94.6015 129.452292,94.97 128.201625,94.97 C125.655625,94.97 124.382625,93.4513333 124.382625,90.414 L124.382625,90.414 L124.382625,87.198 L117.414625,87.198 L117.414625,89.878 C117.414625,93.6746667 118.330292,96.5891667 120.161625,98.6215 C121.992958,100.653833 124.695292,101.67 128.268625,101.67 Z M149.93475,101 L149.93475,54.1 L142.56475,54.1 L142.56475,101 L149.93475,101 Z M164.833875,101.67 C168.407208,101.67 171.131875,100.653833 173.007875,98.6215 C174.883875,96.5891667 175.821875,93.6746667 175.821875,89.878 L175.821875,89.878 L175.821875,74.535 L165.168875,74.535 L165.168875,81.235 L168.853875,81.235 L168.853875,90.414 C168.853875,93.4513333 167.580875,94.97 165.034875,94.97 C162.488875,94.97 161.215875,93.4513333 161.215875,90.414 L161.215875,90.414 L161.215875,64.753 C161.215875,61.671 162.488875,60.13 165.034875,60.13 C167.580875,60.13 168.853875,61.671 168.853875,64.753 L168.853875,64.753 L168.853875,69.242 L175.821875,69.242 L175.821875,65.222 C175.821875,61.4253333 174.883875,58.5108333 173.007875,56.4785 C171.131875,54.4461667 168.407208,53.43 164.833875,53.43 C161.260542,53.43 158.535875,54.4461667 156.659875,56.4785 C154.783875,58.5108333 153.845875,61.4253333 153.845875,65.222 L153.845875,65.222 L153.845875,89.878 C153.845875,93.6746667 154.783875,96.5891667 156.659875,98.6215 C158.535875,100.653833 161.260542,101.67 164.833875,101.67 Z M186.098,101 L186.098,66.763 L186.232,66.763 L195.076,101 L202.647,101 L202.647,54.1 L196.081,54.1 L196.081,82.173 L195.947,82.173 L188.778,54.1 L179.532,54.1 L179.532,101 L186.098,101 Z M230.03325,89.342 L230.03325,80.163 L239.01125,80.163 L239.01125,74.937 L230.03325,74.937 L230.03325,65.892 L224.80725,65.892 L224.80725,74.937 L215.82925,74.937 L215.82925,80.163 L224.80725,80.163 L224.80725,89.342 L230.03325,89.342 Z M33.003,157 C36.6656667,157 39.4126667,156.017333 41.244,154.052 C43.0753333,152.086667 43.991,149.205667 43.991,145.409 L43.991,145.409 L43.991,121.691 C43.991,117.894333 43.0753333,115.013333 41.244,113.048 C39.4126667,111.082667 36.6656667,110.1 33.003,110.1 L33.003,110.1 L21.747,110.1 L21.747,157 L33.003,157 Z M32.869,150.3 L29.117,150.3 L29.117,116.8 L32.869,116.8 C34.075,116.8 35.0018333,117.157333 35.6495,117.872 C36.2971667,118.586667 36.621,119.748 36.621,121.356 L36.621,121.356 L36.621,145.744 C36.621,147.352 36.2971667,148.513333 35.6495,149.228 C35.0018333,149.942667 34.075,150.3 32.869,150.3 L32.869,150.3 Z M68.002125,157 L68.002125,150.3 L55.272125,150.3 L55.272125,135.895 L65.389125,135.895 L65.389125,129.195 L55.272125,129.195 L55.272125,116.8 L68.002125,116.8 L68.002125,110.1 L47.902125,110.1 L47.902125,157 L68.002125,157 Z M86.11725,157 L93.21925,110.1 L86.45225,110.1 L81.62825,146.481 L81.49425,146.481 L76.67025,110.1 L69.23325,110.1 L76.33525,157 L86.11725,157 Z M115.823375,157 L115.823375,150.3 L103.093375,150.3 L103.093375,135.895 L113.210375,135.895 L113.210375,129.195 L103.093375,129.195 L103.093375,116.8 L115.823375,116.8 L115.823375,110.1 L95.723375,110.1 L95.723375,157 L115.823375,157 Z M138.4945,157 L138.4945,150.3 L126.3675,150.3 L126.3675,110.1 L118.9975,110.1 L118.9975,157 L138.4945,157 Z M151.383625,157.67 C155.001625,157.67 157.770958,156.642667 159.691625,154.588 C161.612292,152.533333 162.572625,149.63 162.572625,145.878 L162.572625,145.878 L162.572625,121.222 C162.572625,117.47 161.612292,114.566667 159.691625,112.512 C157.770958,110.457333 155.001625,109.43 151.383625,109.43 C147.765625,109.43 144.996292,110.457333 143.075625,112.512 C141.154958,114.566667 140.194625,117.47 140.194625,121.222 L140.194625,121.222 L140.194625,145.878 C140.194625,149.63 141.154958,152.533333 143.075625,154.588 C144.996292,156.642667 147.765625,157.67 151.383625,157.67 Z M151.383625,150.97 C148.837625,150.97 147.564625,149.429 147.564625,146.347 L147.564625,146.347 L147.564625,120.753 C147.564625,117.671 148.837625,116.13 151.383625,116.13 C153.929625,116.13 155.202625,117.671 155.202625,120.753 L155.202625,120.753 L155.202625,146.347 C155.202625,149.429 153.929625,150.97 151.383625,150.97 Z M173.85375,157 L173.85375,137.905 L177.33775,137.905 C181.000417,137.905 183.747417,136.922333 185.57875,134.957 C187.410083,132.991667 188.32575,130.110667 188.32575,126.314 L188.32575,126.314 L188.32575,121.691 C188.32575,117.894333 187.410083,115.013333 185.57875,113.048 C183.747417,111.082667 181.000417,110.1 177.33775,110.1 L177.33775,110.1 L166.48375,110.1 L166.48375,157 L173.85375,157 Z M177.33775,131.205 L173.85375,131.205 L173.85375,116.8 L177.33775,116.8 C178.54375,116.8 179.44825,117.135 180.05125,117.805 C180.65425,118.475 180.95575,119.614 180.95575,121.222 L180.95575,121.222 L180.95575,126.783 C180.95575,128.391 180.65425,129.53 180.05125,130.2 C179.44825,130.87 178.54375,131.205 177.33775,131.205 L177.33775,131.205 Z M197.730875,157 L197.730875,121.49 L197.864875,121.49 L203.224875,157 L209.388875,157 L214.748875,121.49 L214.882875,121.49 L214.882875,157 L221.850875,157 L221.850875,110.1 L211.331875,110.1 L206.641875,143.667 L206.507875,143.667 L201.817875,110.1 L191.298875,110.1 L191.298875,157 L197.730875,157 Z M246.398,157 L246.398,150.3 L233.668,150.3 L233.668,135.895 L243.785,135.895 L243.785,129.195 L233.668,129.195 L233.668,116.8 L246.398,116.8 L246.398,110.1 L226.298,110.1 L226.298,157 L246.398,157 Z M256.138125,157 L256.138125,122.763 L256.272125,122.763 L265.116125,157 L272.687125,157 L272.687125,110.1 L266.121125,110.1 L266.121125,138.173 L265.987125,138.173 L258.818125,110.1 L249.572125,110.1 L249.572125,157 L256.138125,157 Z M290.26625,157 L290.26625,116.8 L297.97125,116.8 L297.97125,110.1 L275.19125,110.1 L275.19125,116.8 L282.89625,116.8 L282.89625,157 L290.26625,157 Z" id="header"></path>
        </g>
    </g>
</svg>