<?xml version="1.0" standalone="no"?>
<!DOCTYPE svg PUBLIC "-//W3C//DTD SVG 20010904//EN"
 "http://www.w3.org/TR/2001/REC-SVG-20010904/DTD/svg10.dtd">
<svg version="1.0" xmlns="http://www.w3.org/2000/svg"
 width="697.000000pt" height="1358.000000pt" viewBox="0 0 697.000000 1358.000000"
 preserveAspectRatio="xMidYMid meet">

<g transform="translate(0.000000,1358.000000) scale(0.100000,-0.100000)"
fill="#000000" stroke="none">
<path d="M3210 12635 c-310 -29 -397 -52 -608 -160 -167 -84 -317 -198 -477
-360 -289 -292 -434 -531 -539 -892 -32 -110 -46 -188 -91 -485 -16 -110 -38
-204 -49 -215 -3 -4 -19 5 -34 20 -59 57 -160 65 -233 19 -96 -61 -184 -184
-214 -297 -30 -117 -14 -298 35 -396 60 -117 138 -178 231 -179 l46 0 17 -87
c57 -289 265 -630 522 -855 126 -110 295 -230 428 -302 l108 -60 -28 -20 c-16
-12 -58 -46 -94 -76 -36 -31 -90 -74 -120 -95 -183 -131 -600 -485 -726 -617
-82 -84 -202 -245 -238 -317 -96 -191 -112 -334 -58 -541 55 -217 119 -343
233 -464 42 -45 89 -105 104 -135 40 -80 180 -221 219 -221 7 0 11 45 12 138
0 135 11 219 75 567 53 286 146 577 240 753 66 124 86 152 110 152 31 0 24
-48 -30 -188 -94 -245 -222 -661 -255 -827 -45 -227 -76 -526 -69 -650 3 -44
0 -130 -7 -192 -11 -90 -11 -130 -1 -205 13 -95 55 -215 92 -263 19 -23 20
-34 13 -142 -3 -65 -1 -261 6 -435 8 -223 9 -344 2 -405 -6 -49 -16 -148 -23
-221 -13 -144 -15 -120 41 -537 53 -389 61 -579 35 -880 -19 -221 -19 -336 0
-382 8 -19 15 -42 15 -49 0 -16 -88 -62 -180 -94 -270 -94 -311 -113 -455
-210 -169 -115 -263 -230 -306 -374 -23 -77 -21 -136 5 -165 10 -11 16 -36 16
-63 0 -69 47 -134 125 -173 57 -28 68 -30 201 -33 98 -3 166 1 220 11 44 9
129 21 189 27 61 6 143 16 183 21 40 5 112 9 160 9 148 1 410 27 567 58 83 17
190 35 239 42 49 6 102 18 117 26 38 19 79 75 79 107 0 15 7 46 15 69 33 99
65 539 47 648 -12 66 -8 78 26 82 44 5 53 38 50 178 -3 108 -6 131 -27 171
l-23 47 17 93 c27 143 24 286 -9 464 l-28 150 60 145 c75 181 116 317 148 489
13 74 26 136 28 138 2 2 6 -16 9 -39 7 -52 41 -164 97 -318 53 -148 55 -156
76 -276 16 -98 16 -107 -1 -219 -17 -106 -17 -131 -6 -269 7 -83 17 -207 21
-276 4 -69 13 -140 19 -158 18 -57 60 -121 124 -186 61 -63 62 -64 55 -107
-21 -140 12 -449 60 -552 11 -23 25 -85 32 -137 16 -129 24 -152 74 -198 37
-34 57 -43 137 -62 141 -33 310 -42 624 -35 286 7 374 15 665 60 303 48 407
72 504 121 50 24 99 44 110 44 33 0 122 45 139 70 12 18 14 28 5 43 -6 12 -12
37 -13 58 -3 35 -65 201 -104 278 -27 52 -114 130 -201 181 -41 24 -102 60
-135 81 -139 88 -315 160 -470 194 -192 41 -247 55 -284 74 -22 12 -51 21 -63
21 -22 0 -23 3 -20 74 4 82 -9 163 -69 426 -84 368 -87 414 -35 682 32 164 37
213 48 478 19 432 15 1045 -8 1180 -31 186 -30 202 6 255 17 25 45 78 62 118
l31 72 -2 185 c-1 177 -7 224 -43 365 -5 22 -16 69 -24 105 -8 36 -26 101 -39
145 -13 44 -39 139 -58 210 -45 168 -123 436 -147 500 -59 163 -79 225 -85
265 l-7 44 23 -15 c27 -17 118 -195 156 -304 104 -298 221 -790 248 -1049 4
-32 12 -69 17 -82 8 -17 8 -27 -2 -39 -32 -39 30 -61 88 -31 34 17 101 96 142
167 18 30 42 68 54 84 78 106 161 285 226 493 37 117 42 142 38 201 -5 61 -13
83 -83 217 -43 82 -137 244 -209 359 -71 116 -161 262 -199 325 -127 211 -195
300 -321 424 -67 65 -138 130 -159 144 l-38 25 63 37 c288 167 561 380 684
534 170 211 249 426 279 758 l6 66 53 -5 c104 -11 164 31 225 157 35 72 36 79
39 204 4 149 -3 188 -59 300 -48 96 -76 128 -143 161 -57 29 -111 32 -163 10
-20 -8 -37 -14 -38 -13 -8 9 -48 253 -69 423 -38 299 -79 427 -216 677 -83
150 -129 214 -263 360 -197 214 -474 400 -702 471 -97 30 -151 40 -360 67
-214 27 -380 32 -555 15z m640 -140 c258 -43 411 -111 643 -286 108 -82 177
-144 254 -228 139 -152 190 -226 278 -406 89 -179 118 -283 141 -498 9 -84 23
-201 33 -260 9 -59 15 -110 12 -112 -2 -3 -16 -5 -31 -5 -24 0 -27 4 -39 68
-7 37 -12 74 -12 82 1 8 1 28 2 44 0 16 -9 38 -21 51 -24 25 -171 115 -188
115 -5 0 -30 19 -55 43 -24 24 -69 54 -99 66 -37 15 -59 31 -67 48 l-12 26
-92 -8 c-87 -7 -128 -8 -179 -4 -13 1 -50 -1 -84 -5 -57 -8 -61 -7 -67 13 -7
27 -39 27 -118 1 -34 -12 -62 -20 -63 -18 -29 65 -62 63 -137 -9 -83 -79 -110
-133 -73 -147 10 -4 29 3 48 17 30 23 32 23 59 7 l28 -18 -37 -7 c-63 -11
-147 -60 -197 -114 -43 -46 -47 -54 -47 -100 l0 -49 -37 9 c-89 20 -273 5
-381 -32 -30 -10 -56 -19 -58 -19 -2 0 -6 21 -10 48 -5 41 -14 54 -67 104 -48
46 -78 63 -152 92 -50 19 -103 38 -118 41 -25 7 -26 9 -12 28 19 28 3 47 -41
47 -26 0 -33 4 -36 23 -3 19 -10 22 -50 25 -39 3 -47 6 -50 25 -4 29 -59 34
-130 13 -37 -11 -56 -12 -65 -5 -18 15 -81 2 -151 -31 -58 -27 -60 -27 -76 -9
-9 10 -24 19 -33 19 -26 -1 -102 -37 -142 -68 -23 -17 -45 -25 -63 -23 -58 6
-191 -105 -224 -187 -9 -20 -24 -56 -35 -78 -11 -23 -22 -72 -26 -109 l-6 -67
-44 5 c-24 2 -61 1 -81 -4 -20 -4 -38 -7 -39 -5 -2 2 13 97 32 212 90 539 232
827 585 1183 140 142 296 260 438 334 103 53 115 56 307 91 345 63 374 66 565
60 117 -3 223 -13 320 -29z m737 -1351 c-3 -3 -12 -4 -19 -1 -8 3 -5 6 6 6 11
1 17 -2 13 -5z m-537 -54 c0 -5 -8 -10 -17 -10 -15 0 -16 2 -3 10 19 12 20 12
20 0z m730 -150 c41 -12 113 -39 160 -60 99 -44 98 -40 99 -192 1 -97 -2 -112
-28 -170 -20 -45 -44 -78 -80 -110 -96 -83 -170 -108 -400 -134 -123 -14 -160
-15 -231 -5 -152 22 -277 74 -313 130 -10 14 -27 40 -40 56 -25 35 -104 362
-94 389 9 24 103 65 189 82 185 37 253 43 458 40 178 -3 215 -6 280 -26z
m-2045 -30 c103 -24 154 -42 245 -88 l115 -58 3 -57 c4 -72 -31 -267 -55 -310
-24 -42 -116 -88 -248 -124 -90 -25 -116 -28 -255 -28 -298 1 -469 46 -578
152 -61 59 -72 101 -72 269 l0 115 63 29 c77 35 164 61 332 99 177 40 277 41
450 1z m970 -262 c39 -15 39 -15 62 -106 28 -116 45 -151 97 -204 148 -149
288 -197 569 -198 172 0 244 12 402 69 44 16 100 34 125 41 33 9 60 28 107 76
66 68 83 105 83 186 0 47 0 47 26 38 14 -6 36 -10 48 -10 26 0 27 -5 61 -264
78 -587 3 -944 -265 -1254 -120 -140 -426 -365 -645 -475 -192 -96 -463 -169
-867 -233 l-177 -28 -161 23 c-555 78 -1077 319 -1380 637 -272 286 -426 623
-407 887 7 92 29 178 115 447 l59 185 40 7 c23 3 65 14 94 22 29 9 58 16 64
16 7 0 15 -21 18 -49 3 -27 15 -67 26 -89 30 -60 131 -146 224 -192 116 -57
206 -72 452 -74 180 -1 208 1 285 22 87 24 282 108 331 143 41 29 125 184 133
244 16 115 14 112 63 126 110 30 342 34 418 7z m1836 -104 c34 -17 122 -186
138 -264 6 -30 12 -91 14 -135 2 -72 -1 -85 -28 -133 -16 -30 -41 -62 -56 -73
-26 -18 -135 -47 -143 -38 -2 2 -9 69 -16 149 -6 80 -22 219 -36 310 -13 91
-24 166 -24 168 0 2 19 12 43 22 42 20 60 19 108 -6z m-4169 -104 c21 -23 38
-51 38 -63 0 -12 -18 -78 -39 -147 -57 -180 -82 -285 -88 -367 -4 -44 -10 -73
-17 -73 -33 1 -124 59 -153 98 -44 59 -56 108 -57 237 -1 102 1 114 28 169 49
100 149 186 215 186 27 0 42 -9 73 -40z m2698 -2171 c0 -16 -49 -136 -88 -214
-48 -98 -181 -317 -248 -411 -31 -44 -79 -113 -107 -154 -81 -121 -181 -260
-184 -256 -2 2 -8 149 -13 327 -9 324 -23 508 -41 542 -21 40 4 29 59 -25 87
-86 250 -231 282 -251 25 -16 32 -16 53 -5 43 23 105 109 138 192 67 167 149
309 149 255z m-123 -42 c-13 -18 -52 -84 -86 -147 -34 -63 -68 -121 -76 -129
-11 -11 -22 -7 -72 32 -32 25 -65 53 -73 62 -8 9 -52 42 -98 73 l-85 56 69 18
c38 10 116 23 174 29 58 6 134 17 170 24 106 21 107 20 77 -18z m-844 -56 c70
-6 150 -11 178 -11 l50 0 -48 -57 c-75 -89 -185 -203 -196 -203 -5 0 -27 16
-49 35 -22 19 -61 42 -85 52 -42 17 -48 25 -94 115 -27 54 -49 101 -49 106 0
4 37 1 83 -9 45 -9 139 -21 210 -28z m236 -394 c1 -203 17 -535 31 -632 5 -38
14 -133 20 -210 15 -187 37 -398 55 -520 24 -162 45 -545 51 -915 4 -263 9
-359 20 -403 9 -33 13 -61 10 -64 -10 -11 -39 22 -57 65 -21 48 -25 159 -33
842 -4 285 -7 349 -24 430 -11 52 -23 127 -27 165 -3 39 -13 120 -21 180 -8
61 -18 188 -21 283 l-6 174 -85 156 c-80 150 -252 487 -252 496 0 2 17 -5 38
-17 35 -18 42 -19 71 -8 40 17 126 103 177 177 l39 57 7 -44 c3 -24 7 -120 7
-212z m451 -1129 c43 -47 15 -118 -47 -118 -67 0 -96 68 -48 115 30 31 68 32
95 3z m39 -552 c9 -20 11 -40 5 -69 -12 -53 -35 -67 -71 -45 -24 14 -28 24
-31 68 -4 62 10 82 52 78 23 -2 35 -11 45 -32z m1 -501 c67 -35 37 -145 -39
-145 -60 0 -85 100 -35 139 32 25 36 25 74 6z m816 -452 c-9 -115 -21 -314
-26 -443 -6 -129 -15 -305 -20 -390 -6 -85 -10 -255 -10 -377 0 -190 -3 -238
-22 -330 -41 -201 -28 -418 42 -673 46 -167 69 -306 73 -437 l3 -123 -45 -14
c-115 -37 -333 -89 -406 -97 -245 -26 -286 -30 -340 -27 -57 3 -60 4 -66 33
-3 17 -29 70 -57 120 -51 88 -52 90 -52 175 0 47 -9 164 -19 260 -14 129 -17
197 -10 255 13 128 10 214 -11 328 -17 95 -83 313 -124 408 -42 98 -75 288
-96 549 -11 145 -28 213 -53 218 -26 5 -47 -17 -47 -48 0 -18 -11 -39 -29 -57
-36 -36 -66 -158 -116 -468 -32 -198 -81 -406 -151 -641 -29 -97 -30 -182 -8
-334 28 -185 28 -202 -3 -491 -3 -34 1 -60 18 -98 20 -48 21 -61 15 -169 -4
-64 -9 -119 -12 -122 -12 -12 -441 -1 -599 15 -363 36 -341 35 -461 21 l-31
-4 14 51 c22 85 56 558 48 677 -13 223 -82 701 -129 900 -9 36 -16 82 -16 104
0 64 30 247 51 306 30 84 26 345 -10 745 -5 55 -8 101 -6 103 1 1 20 -4 41
-12 22 -7 64 -17 94 -21 30 -3 107 -24 171 -46 301 -102 729 -126 1134 -63
203 32 508 104 692 165 189 62 378 150 528 248 43 27 61 35 63 25 2 -8 -4
-107 -12 -221z m1184 -3698 c0 -10 -91 -45 -158 -60 -37 -9 -177 -34 -312 -56
-310 -50 -521 -63 -880 -56 -344 7 -495 30 -520 78 -15 28 -14 28 50 8 118
-36 456 -52 650 -29 47 6 174 15 282 20 108 6 268 21 355 34 87 13 194 27 238
30 44 4 116 13 160 20 88 15 135 19 135 11z m-2830 -124 c-21 -40 -59 -59
-128 -66 -37 -3 -157 -24 -267 -45 -166 -32 -237 -40 -420 -50 -121 -6 -278
-18 -350 -26 -71 -9 -164 -19 -205 -24 -41 -5 -99 -14 -129 -19 -79 -16 -302
-16 -332 -1 -41 21 -88 60 -100 81 -9 18 -8 19 8 10 11 -5 59 -17 109 -27 74
-14 123 -15 289 -10 110 4 243 11 295 16 52 5 156 14 230 20 205 17 477 49
549 66 35 8 120 23 189 34 68 11 134 26 146 32 21 12 74 25 109 27 14 1 16 -3
7 -18z"/>
<path d="M3427 11113 c-4 -3 -7 -13 -7 -21 0 -22 51 -132 61 -132 18 0 9 95
-11 128 -20 32 -30 38 -43 25z"/>
<path d="M3285 11080 c-8 -13 66 -115 94 -130 34 -18 34 7 -1 72 -26 50 -38
64 -60 66 -14 2 -29 -2 -33 -8z"/>
<path d="M4272 10785 c-45 -20 -66 -67 -67 -150 0 -89 24 -142 77 -168 32 -16
41 -17 65 -5 42 20 67 80 68 164 0 60 -4 76 -27 111 -33 50 -72 66 -116 48z"/>
<path d="M2620 10740 c-26 -26 -39 -60 -51 -133 -17 -105 24 -187 94 -187 44
0 63 22 88 101 30 101 23 206 -15 231 -24 16 -96 8 -116 -12z"/>
<path d="M3428 10416 c-61 -22 -88 -44 -88 -71 0 -31 21 -32 110 -5 36 11 82
20 103 20 30 0 37 4 37 19 0 46 -84 65 -162 37z"/>
<path d="M3423 10270 c-49 -10 -83 -27 -83 -40 0 -6 53 -9 135 -7 74 1 135 5
135 9 0 31 -113 53 -187 38z"/>
<path d="M2979 10159 c-44 -56 -63 -130 -45 -174 8 -18 19 -36 25 -40 6 -3 25
-33 41 -65 69 -136 252 -210 520 -210 110 0 259 21 313 43 68 29 145 134 158
216 4 25 15 67 26 94 18 46 18 48 -2 85 -31 58 -51 49 -47 -21 3 -56 3 -58
-17 -47 -12 6 -21 9 -21 8 -1 -2 -2 -28 -3 -58 -2 -43 -9 -65 -34 -100 -61
-88 -84 -103 -181 -116 -285 -41 -563 16 -642 131 -17 24 -40 51 -51 59 -35
24 -37 91 -4 155 25 50 27 81 6 81 -5 0 -24 -19 -42 -41z"/>
<path d="M1775 10019 c-4 -6 -5 -13 -2 -16 7 -7 27 6 27 18 0 12 -17 12 -25
-2z"/>
<path d="M1482 10009 c2 -6 8 -10 13 -10 5 0 11 4 13 10 2 6 -4 11 -13 11 -9
0 -15 -5 -13 -11z"/>
<path d="M5130 9915 c0 -8 5 -15 10 -15 6 0 10 7 10 15 0 8 -4 15 -10 15 -5 0
-10 -7 -10 -15z"/>
<path d="M1610 9870 c0 -5 5 -10 11 -10 5 0 7 5 4 10 -3 6 -8 10 -11 10 -2 0
-4 -4 -4 -10z"/>
<path d="M2050 9850 c0 -11 5 -20 10 -20 6 0 10 9 10 20 0 11 -4 20 -10 20 -5
0 -10 -9 -10 -20z"/>
<path d="M5260 9819 c0 -5 5 -7 10 -4 6 3 10 8 10 11 0 2 -4 4 -10 4 -5 0 -10
-5 -10 -11z"/>
<path d="M2425 9809 c-10 -15 3 -25 16 -12 7 7 7 13 1 17 -6 3 -14 1 -17 -5z"/>
<path d="M1960 9714 c0 -8 5 -12 10 -9 6 3 10 10 10 16 0 5 -4 9 -10 9 -5 0
-10 -7 -10 -16z"/>
<path d="M4485 9709 c-10 -15 3 -25 16 -12 7 7 7 13 1 17 -6 3 -14 1 -17 -5z"/>
<path d="M1530 9700 c0 -5 5 -10 10 -10 6 0 10 5 10 10 0 6 -4 10 -10 10 -5 0
-10 -4 -10 -10z"/>
<path d="M4800 9690 c0 -5 5 -10 10 -10 6 0 10 5 10 10 0 6 -4 10 -10 10 -5 0
-10 -4 -10 -10z"/>
<path d="M2630 9680 c0 -5 5 -10 10 -10 6 0 10 5 10 10 0 6 -4 10 -10 10 -5 0
-10 -4 -10 -10z"/>
<path d="M1855 9669 c-10 -15 3 -25 16 -12 7 7 7 13 1 17 -6 3 -14 1 -17 -5z"/>
<path d="M2300 9665 c0 -8 5 -15 10 -15 6 0 10 7 10 15 0 8 -4 15 -10 15 -5 0
-10 -7 -10 -15z"/>
<path d="M4350 9670 c0 -5 5 -10 10 -10 6 0 10 5 10 10 0 6 -4 10 -10 10 -5 0
-10 -4 -10 -10z"/>
<path d="M5016 9652 c-3 -6 -1 -14 5 -17 15 -10 25 3 12 16 -7 7 -13 7 -17 1z"/>
<path d="M5145 9650 c3 -5 8 -10 11 -10 2 0 4 5 4 10 0 6 -5 10 -11 10 -5 0
-7 -4 -4 -10z"/>
<path d="M1688 9626 c-23 -17 -23 -26 2 -26 13 0 20 7 20 20 0 23 0 23 -22 6z"/>
<path d="M2874 9606 c-8 -22 3 -33 18 -18 9 9 9 15 0 24 -9 9 -13 7 -18 -6z"/>
<path d="M3160 9600 c0 -5 5 -10 10 -10 6 0 10 5 10 10 0 6 -4 10 -10 10 -5 0
-10 -4 -10 -10z"/>
<path d="M3985 9580 c3 -5 8 -10 11 -10 2 0 4 5 4 10 0 6 -5 10 -11 10 -5 0
-7 -4 -4 -10z"/>
<path d="M4580 9576 c0 -9 5 -16 10 -16 6 0 10 4 10 9 0 6 -4 13 -10 16 -5 3
-10 -1 -10 -9z"/>
<path d="M4840 9580 c0 -5 5 -10 10 -10 6 0 10 5 10 10 0 6 -4 10 -10 10 -5 0
-10 -4 -10 -10z"/>
<path d="M3385 9540 c-3 -5 1 -10 9 -10 9 0 16 5 16 10 0 6 -4 10 -9 10 -6 0
-13 -4 -16 -10z"/>
<path d="M3585 9529 c-10 -14 -1 -21 19 -13 9 3 13 10 10 15 -7 12 -21 11 -29
-2z"/>
<path d="M5220 9530 c0 -5 5 -10 10 -10 6 0 10 5 10 10 0 6 -4 10 -10 10 -5 0
-10 -4 -10 -10z"/>
<path d="M1582 9518 c-16 -16 -15 -28 2 -28 16 0 29 27 17 34 -4 3 -13 0 -19
-6z"/>
<path d="M2610 9520 c0 -13 28 -25 38 -16 3 4 0 11 -8 16 -20 13 -30 12 -30 0z"/>
<path d="M2155 9501 c-3 -5 -1 -12 5 -16 12 -7 30 2 30 16 0 12 -27 12 -35 0z"/>
<path d="M1937 9476 c-6 -16 2 -28 14 -20 12 7 11 34 0 34 -5 0 -11 -6 -14
-14z"/>
<path d="M2420 9470 c0 -5 5 -10 10 -10 6 0 10 5 10 10 0 6 -4 10 -10 10 -5 0
-10 -4 -10 -10z"/>
<path d="M4210 9466 c0 -9 5 -16 10 -16 6 0 10 4 10 9 0 6 -4 13 -10 16 -5 3
-10 -1 -10 -9z"/>
<path d="M4890 9450 c0 -5 5 -10 10 -10 6 0 10 5 10 10 0 6 -4 10 -10 10 -5 0
-10 -4 -10 -10z"/>
<path d="M3796 9443 c-11 -11 -6 -23 9 -23 8 0 15 4 15 9 0 13 -16 22 -24 14z"/>
<path d="M5055 9439 c-4 -6 -5 -13 -2 -16 7 -7 27 6 27 18 0 12 -17 12 -25 -2z"/>
<path d="M4630 9426 c0 -8 5 -18 10 -21 6 -3 10 3 10 14 0 12 -4 21 -10 21 -5
0 -10 -6 -10 -14z"/>
<path d="M3005 9419 c-4 -6 -5 -13 -2 -16 7 -7 27 6 27 18 0 12 -17 12 -25 -2z"/>
<path d="M1787 9404 c-11 -11 3 -24 18 -18 8 4 12 10 9 15 -6 11 -18 12 -27 3z"/>
<path d="M2836 9391 c-4 -7 -5 -15 -2 -18 9 -9 19 4 14 18 -4 11 -6 11 -12 0z"/>
<path d="M3510 9391 c0 -6 5 -13 10 -16 6 -3 10 1 10 9 0 9 -4 16 -10 16 -5 0
-10 -4 -10 -9z"/>
<path d="M1625 9361 c-6 -11 9 -23 19 -14 9 9 7 23 -3 23 -6 0 -12 -4 -16 -9z"/>
<path d="M2580 9341 c-17 -5 -26 -15 -28 -33 -3 -23 4 -29 65 -58 295 -140
459 -184 693 -184 128 0 326 29 394 58 39 16 50 46 28 77 -15 21 -16 21 -251
14 -279 -8 -384 1 -551 51 -146 44 -299 84 -314 83 -6 -1 -22 -4 -36 -8z"/>
<path d="M3957 9333 c-3 -5 -2 -15 2 -22 5 -7 11 -9 14 -4 3 5 2 15 -2 22 -5
7 -11 9 -14 4z"/>
<path d="M3323 9323 c-7 -2 -13 -9 -13 -14 0 -14 26 -10 40 6 10 12 10 15 -1
14 -8 0 -20 -3 -26 -6z"/>
<path d="M4186 9313 c-11 -11 -6 -23 9 -23 8 0 15 4 15 9 0 13 -16 22 -24 14z"/>
<path d="M1730 9290 c0 -5 5 -10 11 -10 5 0 7 5 4 10 -3 6 -8 10 -11 10 -2 0
-4 -4 -4 -10z"/>
<path d="M2020 9275 c0 -14 5 -25 10 -25 6 0 10 11 10 25 0 14 -4 25 -10 25
-5 0 -10 -11 -10 -25z"/>
<path d="M4494 9279 c-3 -6 -1 -16 5 -22 8 -8 11 -5 11 11 0 24 -5 28 -16 11z"/>
<path d="M4755 9280 c-3 -5 1 -10 9 -10 9 0 16 5 16 10 0 6 -4 10 -9 10 -6 0
-13 -4 -16 -10z"/>
<path d="M4955 9211 c-3 -5 -1 -12 5 -16 5 -3 10 1 10 9 0 18 -6 21 -15 7z"/>
<path d="M1870 9180 c0 -18 4 -29 10 -25 6 3 10 15 10 25 0 10 -4 22 -10 25
-6 4 -10 -7 -10 -25z"/>
<path d="M5060 9190 c0 -5 5 -10 10 -10 6 0 10 5 10 10 0 6 -4 10 -10 10 -5 0
-10 -4 -10 -10z"/>
<path d="M2344 9144 c3 -9 6 -18 6 -20 0 -2 7 -4 15 -4 18 0 19 12 3 28 -17
17 -31 15 -24 -4z"/>
<path d="M3830 9130 c0 -5 5 -10 10 -10 6 0 10 5 10 10 0 6 -4 10 -10 10 -5 0
-10 -4 -10 -10z"/>
<path d="M4615 9087 c-4 -10 -5 -21 -1 -24 10 -10 18 4 13 24 -4 17 -4 17 -12
0z"/>
<path d="M4060 9080 c0 -5 5 -10 11 -10 5 0 7 5 4 10 -3 6 -8 10 -11 10 -2 0
-4 -4 -4 -10z"/>
<path d="M4440 9070 c0 -5 4 -10 9 -10 6 0 13 5 16 10 3 6 -1 10 -9 10 -9 0
-16 -4 -16 -10z"/>
<path d="M2230 9050 c0 -5 5 -10 10 -10 6 0 10 5 10 10 0 6 -4 10 -10 10 -5 0
-10 -4 -10 -10z"/>
<path d="M3055 9051 c-4 -8 -1 -19 8 -28 19 -20 30 -1 13 22 -10 14 -15 15
-21 6z"/>
<path d="M4780 9015 c0 -8 5 -15 10 -15 6 0 10 7 10 15 0 8 -4 15 -10 15 -5 0
-10 -7 -10 -15z"/>
<path d="M2690 9010 c0 -13 28 -25 38 -16 3 4 0 11 -8 16 -20 13 -30 12 -30 0z"/>
<path d="M2455 8999 c-10 -15 3 -25 16 -12 7 7 7 13 1 17 -6 3 -14 1 -17 -5z"/>
<path d="M3490 8955 c0 -8 5 -15 10 -15 6 0 10 7 10 15 0 8 -4 15 -10 15 -5 0
-10 -7 -10 -15z"/>
<path d="M2097 8943 c-12 -11 -8 -23 8 -23 8 0 15 7 15 15 0 16 -12 20 -23 8z"/>
<path d="M3770 8925 c0 -9 5 -15 11 -13 6 2 11 8 11 13 0 5 -5 11 -11 13 -6 2
-11 -4 -11 -13z"/>
<path d="M3230 8915 c0 -8 5 -15 10 -15 6 0 10 7 10 15 0 8 -4 15 -10 15 -5 0
-10 -7 -10 -15z"/>
<path d="M4125 8920 c3 -5 8 -10 11 -10 2 0 4 5 4 10 0 6 -5 10 -11 10 -5 0
-7 -4 -4 -10z"/>
<path d="M4460 8908 c0 -18 27 -44 37 -34 4 4 -3 16 -15 29 -18 17 -22 18 -22
5z"/>
<path d="M4257 8853 c-10 -9 -9 -43 1 -43 5 0 14 11 20 25 9 20 9 25 -2 25 -7
0 -16 -3 -19 -7z"/>
<path d="M3080 8835 c0 -8 5 -15 10 -15 6 0 10 7 10 15 0 8 -4 15 -10 15 -5 0
-10 -7 -10 -15z"/>
<path d="M2290 8760 c0 -5 5 -10 10 -10 6 0 10 5 10 10 0 6 -4 10 -10 10 -5 0
-10 -4 -10 -10z"/>
<path d="M4036 8753 c-9 -9 -7 -33 3 -33 12 0 22 28 12 34 -5 3 -11 3 -15 -1z"/>
<path d="M2535 8740 c-3 -5 -1 -10 4 -10 6 0 11 5 11 10 0 6 -2 10 -4 10 -3 0
-8 -4 -11 -10z"/>
<path d="M2742 8738 c6 -18 28 -21 28 -4 0 9 -7 16 -16 16 -9 0 -14 -5 -12
-12z"/>
<path d="M3740 8730 c0 -5 5 -10 10 -10 6 0 10 5 10 10 0 6 -4 10 -10 10 -5 0
-10 -4 -10 -10z"/>
<path d="M4130 8730 c0 -5 5 -10 10 -10 6 0 10 5 10 10 0 6 -4 10 -10 10 -5 0
-10 -4 -10 -10z"/>
<path d="M4442 8698 c-33 -21 -42 -38 -19 -38 15 0 63 47 56 54 -3 3 -19 -4
-37 -16z"/>
<path d="M2980 8695 c0 -8 5 -15 10 -15 6 0 10 7 10 15 0 8 -4 15 -10 15 -5 0
-10 -7 -10 -15z"/>
<path d="M3365 8650 c3 -5 10 -10 16 -10 5 0 9 5 9 10 0 6 -7 10 -16 10 -8 0
-12 -4 -9 -10z"/>
<path d="M2817 8623 c-12 -11 -8 -23 8 -23 8 0 15 7 15 15 0 16 -12 20 -23 8z"/>
<path d="M3170 8581 c0 -12 5 -21 10 -21 6 0 10 6 10 14 0 8 -4 18 -10 21 -5
3 -10 -3 -10 -14z"/>
<path d="M4217 8564 c-8 -8 1 -24 14 -24 5 0 9 7 9 15 0 15 -12 20 -23 9z"/>
<path d="M3815 8519 c-4 -6 -4 -13 -1 -16 8 -8 36 5 36 17 0 13 -27 13 -35 -1z"/>
<path d="M3485 8489 c-4 -6 -4 -13 -1 -16 8 -8 36 5 36 17 0 13 -27 13 -35 -1z"/>
<path d="M3057 8440 c7 -25 19 -34 28 -20 7 11 -11 40 -25 40 -5 0 -6 -9 -3
-20z"/>
<path d="M3300 8415 c0 -8 5 -15 10 -15 6 0 10 7 10 15 0 8 -4 15 -10 15 -5 0
-10 -7 -10 -15z"/>
<path d="M3505 7836 c-29 -29 -33 -71 -9 -104 19 -27 48 -28 74 -2 25 25 27
81 3 102 -34 29 -43 29 -68 4z m43 -55 c-2 -8 -9 -16 -15 -19 -9 -2 -13 8 -13
35 1 36 1 37 16 18 8 -11 13 -26 12 -34z"/>
<path d="M3531 7634 c-28 -36 -28 -88 1 -108 45 -32 106 -7 92 37 -9 29 -55
97 -65 97 -4 0 -17 -12 -28 -26z"/>
</g>
</svg>
