<?xml version="1.0" standalone="no"?>
<!DOCTYPE svg PUBLIC "-//W3C//DTD SVG 20010904//EN"
 "http://www.w3.org/TR/2001/REC-SVG-20010904/DTD/svg10.dtd">
<svg version="1.0" xmlns="http://www.w3.org/2000/svg"
 width="858.000000pt" height="1388.000000pt" viewBox="0 0 858.000000 1388.000000"
 preserveAspectRatio="xMidYMid meet">

<g transform="translate(0.000000,1388.000000) scale(0.100000,-0.100000)"
fill="#000000" stroke="none">
<path d="M3000 13093 c-196 -32 -401 -89 -605 -170 -451 -178 -777 -418 -976
-717 -152 -229 -261 -483 -334 -779 -48 -194 -65 -330 -65 -522 0 -181 30
-402 71 -511 11 -33 22 -72 23 -88 1 -27 -4 -31 -49 -48 -63 -22 -115 -78
-140 -150 -13 -39 -19 -93 -22 -203 -7 -232 24 -334 134 -436 106 -98 251
-152 349 -131 27 6 56 14 66 17 13 5 19 -5 33 -51 36 -125 102 -221 237 -350
83 -78 243 -187 368 -251 117 -59 359 -132 549 -164 96 -16 177 -32 180 -34 2
-3 -15 -13 -40 -22 -129 -51 -621 -333 -792 -457 -174 -124 -544 -472 -668
-626 -196 -245 -314 -519 -279 -651 35 -130 144 -275 288 -382 82 -60 132 -75
189 -55 l42 15 47 -59 c60 -76 87 -94 119 -80 22 10 30 5 98 -63 41 -41 80
-89 88 -107 55 -140 192 -267 285 -268 17 0 37 -7 44 -15 10 -12 9 -15 -4 -15
-21 0 -31 -26 -47 -123 -10 -62 -11 -87 -1 -124 21 -77 88 -206 131 -249 38
-39 39 -43 31 -80 -5 -21 -10 -66 -10 -99 0 -33 -16 -195 -35 -360 -61 -518
-69 -1039 -20 -1364 13 -83 14 -119 5 -174 -6 -39 -13 -73 -15 -78 -3 -4 -9
-29 -14 -55 -7 -39 -5 -60 11 -109 17 -49 21 -94 25 -244 2 -102 2 -195 -2
-208 -3 -13 -20 -40 -39 -61 -64 -72 -69 -96 -31 -187 16 -38 25 -80 25 -115
0 -48 -5 -63 -40 -115 -40 -60 -50 -101 -29 -122 12 -12 5 -16 -116 -65 -27
-11 -88 -33 -135 -48 -102 -34 -302 -115 -386 -158 -118 -59 -222 -179 -280
-323 -31 -74 -36 -159 -12 -187 9 -9 32 -49 52 -89 44 -89 87 -138 131 -153
19 -6 35 -16 35 -21 0 -31 219 -87 375 -95 78 -5 145 -2 230 10 66 10 170 24
230 32 309 43 644 139 912 261 67 31 203 116 240 150 31 28 35 39 40 95 3 35
12 82 20 106 13 33 15 69 10 170 -5 116 -8 136 -45 235 -38 103 -39 108 -21
118 12 6 19 21 19 40 0 20 9 38 27 53 27 23 27 26 40 222 21 325 34 449 54
547 25 121 25 219 -1 276 -25 54 -25 77 -1 132 11 24 27 85 35 134 9 50 27
137 41 195 71 299 180 784 207 927 l32 162 80 3 c45 2 84 -1 87 -6 4 -5 10
-27 13 -50 11 -67 96 -347 121 -396 12 -25 37 -80 55 -123 34 -83 141 -266
192 -330 16 -21 34 -54 40 -74 14 -50 114 -209 150 -237 29 -22 29 -24 15 -52
-11 -24 -13 -54 -6 -164 12 -195 15 -208 70 -305 66 -115 87 -170 110 -290 11
-55 28 -114 38 -130 10 -17 28 -61 40 -97 30 -89 79 -168 123 -197 l37 -24
-19 -25 c-24 -30 -26 -98 -5 -126 9 -12 15 -43 16 -80 0 -90 25 -307 38 -339
6 -16 11 -56 11 -90 0 -41 6 -74 18 -97 24 -44 95 -98 167 -128 86 -34 241
-72 299 -72 28 0 119 -7 201 -14 83 -8 274 -20 425 -27 263 -11 282 -11 440
10 91 12 221 33 290 47 145 30 409 114 461 147 20 12 50 31 67 42 35 22 46 50
57 146 24 209 -227 478 -551 590 -91 31 -342 94 -494 124 -47 9 -160 34 -251
57 l-166 41 -6 106 c-10 164 -98 694 -153 914 -13 54 -42 146 -63 205 -22 59
-63 169 -91 245 -28 76 -64 160 -81 186 -24 40 -29 59 -29 111 0 85 -46 428
-74 548 -58 246 -188 614 -295 831 -34 68 -61 131 -61 140 0 9 -7 24 -15 35
-12 16 -11 24 9 65 81 161 136 370 136 522 0 112 -46 357 -91 485 -16 44 -38
121 -49 170 -34 145 -136 498 -189 654 -47 139 -140 397 -155 431 -8 19 25 46
136 112 42 25 118 75 169 111 51 37 154 98 228 136 136 70 179 100 372 262
194 163 300 237 429 300 190 92 287 154 323 204 17 24 39 44 49 44 27 0 38 30
23 66 -7 18 -18 34 -23 38 -33 20 56 105 174 164 124 62 154 126 98 208 -18
26 -22 40 -14 42 7 3 37 24 66 49 l55 44 60 -12 c165 -32 394 48 534 188 55
55 124 148 138 186 3 9 12 17 20 17 27 0 230 79 263 102 72 51 102 123 82 197
-26 96 -114 126 -283 94 l-30 -5 30 22 c62 47 227 216 245 252 50 94 49 216 0
271 -28 32 -29 32 -122 31 -80 0 -100 -4 -146 -27 -57 -29 -152 -99 -191 -141
-14 -14 -28 -26 -32 -26 -4 0 1 28 12 63 32 106 20 181 -36 225 -73 57 -182 8
-313 -140 -48 -55 -98 -117 -112 -139 -14 -21 -28 -39 -31 -39 -4 0 -12 14
-19 31 -18 41 -84 89 -125 89 -76 0 -206 -103 -253 -202 -12 -24 -39 -113 -61
-198 -48 -189 -96 -318 -151 -409 -34 -58 -46 -70 -74 -75 -33 -6 -99 -51
-178 -120 -24 -21 -104 -77 -178 -125 -74 -48 -201 -137 -281 -197 -342 -255
-451 -333 -569 -405 -182 -110 -179 -110 -112 -27 74 92 105 144 142 247 17
45 41 103 54 129 54 107 61 150 60 382 0 219 -4 250 -60 485 -4 14 3 25 24 36
18 10 40 38 57 73 26 54 27 62 22 164 -3 78 -11 126 -30 177 -32 91 -84 205
-102 225 -14 15 -13 22 1 61 23 62 24 205 1 299 -10 41 -34 121 -54 178 -46
133 -84 175 -198 217 -74 28 -90 30 -212 30 l-133 0 0 47 c0 34 -17 89 -61
200 -200 499 -342 648 -771 804 -247 90 -430 125 -639 123 -68 -1 -135 -4
-149 -6z m290 -183 c144 -15 241 -37 404 -92 177 -59 292 -111 386 -173 75
-50 124 -103 192 -210 64 -100 201 -369 190 -373 -5 -1 -34 -17 -63 -35 -56
-33 -107 -40 -159 -19 -14 5 -32 7 -40 4 -23 -8 -59 -43 -81 -79 -20 -32 -20
-32 -40 -12 -22 22 -41 24 -72 7 -12 -7 -31 -12 -42 -12 -27 -1 -43 -40 -57
-136 -14 -92 -8 -112 38 -120 l29 -5 -37 -28 c-20 -15 -47 -43 -60 -62 -18
-28 -32 -36 -67 -41 -56 -9 -154 -47 -203 -79 -21 -14 -39 -25 -41 -25 -3 0
-14 26 -25 58 -30 81 -61 106 -150 122 -60 11 -96 11 -194 1 -66 -7 -127 -15
-136 -18 -14 -5 -15 -3 -4 8 34 37 -5 75 -70 66 -31 -4 -40 -2 -49 15 -10 18
-18 20 -70 15 -33 -3 -75 -14 -94 -26 -20 -11 -37 -16 -40 -10 -18 29 -104 -3
-171 -63 -19 -17 -22 -17 -34 -3 -22 26 -74 18 -122 -19 -34 -25 -51 -32 -75
-29 -39 6 -83 -17 -144 -74 -39 -36 -52 -43 -73 -37 -34 8 -78 -20 -147 -93
-46 -48 -59 -57 -85 -54 -38 3 -73 -34 -116 -124 -31 -67 -35 -97 -13 -115 12
-10 19 -9 38 3 16 10 28 12 40 5 31 -17 56 2 106 79 46 71 49 74 55 49 4 -15
16 -30 27 -34 18 -7 15 -11 -26 -41 -71 -51 -168 -138 -181 -163 -7 -12 -9
-29 -4 -38 4 -8 10 -46 13 -85 l7 -70 -48 -19 c-56 -22 -177 -89 -358 -197
-71 -44 -135 -79 -141 -79 -27 0 -65 262 -66 450 0 363 108 765 295 1090 111
192 235 332 416 469 228 172 548 324 848 401 219 57 336 68 514 50z m1147
-1026 c-3 -3 -12 -4 -19 -1 -8 3 -5 6 6 6 11 1 17 -2 13 -5z m548 -131 c26
-14 76 -168 110 -336 14 -71 25 -130 25 -132 0 -1 -18 6 -39 17 -54 27 -116
26 -145 -1 l-24 -22 -6 28 c-9 35 -63 172 -131 330 l-53 122 27 5 c45 8 215 0
236 -11z m-321 -49 c7 -35 44 -159 131 -438 24 -77 42 -143 39 -148 -3 -4 -48
-22 -102 -40 -126 -42 -239 -45 -318 -10 -92 42 -187 156 -305 368 l-28 50 87
51 c48 28 112 64 142 79 54 27 314 122 336 123 7 1 15 -15 18 -35z m-1821
-148 c-4 -19 -21 -29 -91 -56 -48 -18 -113 -46 -144 -61 -72 -36 -79 -36 -44
0 18 19 41 30 67 34 22 3 79 28 127 56 48 27 88 50 88 50 1 1 -1 -10 -3 -23z
m544 -152 c26 -35 61 -250 69 -422 l7 -137 -28 -33 c-15 -18 -86 -79 -158
-135 -138 -107 -336 -217 -461 -256 -81 -25 -278 -45 -382 -38 -133 8 -263 79
-357 195 -56 70 -167 236 -167 251 0 5 26 24 58 43 31 19 116 72 187 118 179
114 261 159 395 218 207 91 472 184 595 208 90 18 225 11 242 -12z m-957 -36
c15 -5 -19 -27 -75 -48 -32 -12 -32 -8 6 35 21 23 35 32 43 27 6 -5 18 -11 26
-14z m-213 -124 c-15 -15 -112 -72 -116 -68 -3 2 17 27 44 54 42 43 50 47 63
34 8 -8 12 -17 9 -20z m1811 -13 c34 -5 47 -12 63 -38 18 -28 19 -33 5 -33
-10 0 -16 -9 -16 -24 0 -19 18 -38 75 -82 42 -31 89 -75 105 -99 29 -42 135
-126 183 -144 13 -5 30 -23 37 -40 12 -30 10 -34 -63 -143 -80 -119 -159 -204
-217 -234 -25 -13 -65 -19 -142 -22 l-107 -4 -64 36 c-35 19 -82 38 -104 42
-22 3 -52 16 -65 29 -21 20 -26 35 -30 102 -7 93 -35 153 -74 153 -32 0 -38
-27 -32 -161 4 -101 7 -113 34 -151 40 -57 71 -77 130 -86 30 -5 65 -20 85
-35 77 -58 124 -71 254 -72 115 0 123 1 185 32 72 35 206 156 234 211 9 18 26
67 36 107 11 41 24 83 30 94 18 34 11 103 -15 159 -14 30 -25 56 -25 58 0 2
21 4 48 4 64 1 121 15 225 57 48 19 89 34 91 32 24 -33 56 -106 65 -148 14
-67 63 -210 107 -316 46 -111 101 -339 114 -469 21 -227 10 -320 -51 -424
-156 -263 -242 -363 -409 -475 -41 -28 -93 -65 -115 -82 -54 -43 -358 -186
-514 -241 -227 -81 -376 -112 -737 -154 -259 -29 -688 11 -958 90 -172 51
-239 78 -360 147 -180 101 -323 233 -436 402 l-63 94 24 19 c80 63 108 91 138
142 19 31 31 59 28 62 -3 4 -67 -25 -142 -62 -124 -63 -141 -69 -195 -68 -120
2 -252 97 -284 205 -18 59 -22 267 -6 334 11 47 41 75 81 75 35 0 174 -37 212
-57 16 -8 40 -13 55 -11 62 7 26 104 -60 161 l-37 24 87 64 c48 36 107 78 132
93 63 40 260 184 291 213 l26 24 59 -88 c32 -48 76 -108 99 -132 58 -63 151
-126 221 -150 130 -44 328 -50 514 -17 139 25 374 148 554 291 93 74 224 215
230 248 2 12 12 57 20 101 9 43 19 119 23 168 l6 90 101 48 c119 58 165 71
226 63 25 -4 64 -9 88 -12z m1007 -5 l30 -12 -26 -17 c-14 -9 -39 -19 -56 -23
-26 -5 -32 -3 -38 17 -5 16 -2 26 11 36 22 16 40 16 79 -1z m138 -228 c70
-195 82 -280 50 -377 -9 -28 -19 -51 -22 -51 -3 0 -35 73 -70 163 -35 89 -79
195 -98 236 -18 41 -32 75 -31 76 2 1 25 10 51 20 26 10 50 22 53 26 15 25 33
-1 67 -93z m2277 78 c6 -18 1 -54 -21 -137 -16 -61 -29 -123 -29 -137 0 -16
-17 -43 -51 -79 -50 -53 -60 -85 -28 -91 9 -2 52 23 95 56 214 159 342 251
373 267 18 9 57 19 87 22 l54 6 0 -42 c0 -47 -19 -99 -51 -139 -11 -15 -76
-84 -144 -154 -125 -128 -148 -164 -126 -199 6 -10 11 -26 11 -34 0 -30 44
-35 130 -14 140 33 220 23 220 -29 0 -57 -51 -96 -167 -126 -65 -16 -155 -57
-186 -84 -9 -8 -15 -23 -12 -32 4 -12 -20 -42 -74 -98 -64 -64 -97 -89 -163
-121 -115 -55 -183 -71 -329 -78 l-125 -6 -59 -69 -59 -69 -21 28 c-34 47
-147 175 -222 251 l-72 73 51 68 c78 103 132 252 163 448 30 188 44 229 95
282 52 53 84 61 116 30 29 -29 43 -90 53 -229 6 -82 14 -117 34 -161 15 -31
31 -77 36 -103 18 -99 73 -102 79 -5 4 71 -10 116 -57 179 l-39 51 19 50 c11
27 19 56 19 64 0 43 268 329 347 370 37 20 42 19 53 -9z m-1045 -1114 c16 -26
67 -85 112 -132 44 -47 109 -119 143 -160 34 -41 76 -89 92 -107 l30 -31 -23
-13 c-13 -7 -44 -23 -69 -35 -25 -11 -67 -40 -95 -63 -27 -22 -52 -41 -55 -41
-14 0 -90 82 -134 143 -26 37 -83 126 -126 198 l-79 132 30 44 c29 42 113 112
134 113 6 0 23 -21 40 -48z m-2030 -1332 c-19 -80 -42 -194 -51 -255 -9 -60
-17 -111 -18 -112 -1 -1 -34 24 -74 56 -40 32 -104 75 -143 96 -38 21 -74 44
-80 51 -8 9 10 23 71 54 103 54 142 86 198 161 31 42 59 67 86 79 23 10 42 17
43 16 1 -1 -14 -67 -32 -146z m-285 16 c0 -2 -44 -30 -97 -62 -101 -61 -119
-65 -191 -42 -19 5 -30 14 -25 18 4 4 55 19 113 33 58 14 123 33 145 41 42 15
55 18 55 12z m-435 -150 c38 -7 136 -35 144 -42 2 -2 -19 -29 -46 -61 -27 -32
-82 -102 -122 -157 l-73 -98 -35 53 c-57 85 -133 189 -181 247 -24 28 -42 53
-40 53 2 1 64 9 138 18 104 13 140 14 155 5 11 -7 38 -15 60 -18z m231 -207
c8 -57 26 -144 39 -194 45 -168 55 -210 84 -345 16 -74 32 -146 35 -160 3 -14
10 -72 16 -131 10 -115 16 -139 34 -139 32 0 56 -115 81 -375 8 -93 22 -240
30 -325 8 -86 15 -198 15 -250 1 -136 36 -653 59 -864 20 -187 19 -360 -3
-353 -22 7 -38 61 -41 136 -2 42 -10 153 -19 246 -8 94 -20 271 -26 395 -16
341 -28 529 -39 590 -15 81 -65 611 -67 710 l-1 85 -80 120 c-44 66 -103 165
-132 221 -28 55 -96 165 -151 244 -55 79 -99 146 -98 150 9 19 242 349 245
346 2 -2 10 -50 19 -107z m294 -66 c24 -13 61 -26 82 -30 29 -4 37 -9 34 -22
-3 -9 -15 -88 -26 -176 -12 -88 -24 -162 -27 -165 -2 -3 -9 3 -14 13 -12 21
-50 57 -60 57 -16 0 -48 -43 -54 -72 -16 -73 66 -108 106 -45 l20 32 -6 -35
c-3 -19 -30 -120 -58 -225 l-52 -190 -7 95 c-8 107 -56 414 -95 605 -8 39 -20
106 -28 150 -8 44 -17 92 -21 108 -6 27 -5 27 78 -25 46 -28 103 -62 128 -75z
m10 -399 c0 -14 -5 -24 -11 -22 -6 2 -10 7 -10 11 1 4 1 14 1 22 0 8 5 15 10
15 6 0 10 -12 10 -26z m-1600 -371 c0 -24 -118 -194 -214 -307 -48 -56 -58
-76 -85 -168 -51 -177 -69 -261 -69 -328 0 -82 -17 -150 -38 -150 -9 0 -28 12
-42 28 -36 37 -126 102 -143 102 -10 1 -8 5 5 15 30 23 13 58 -49 100 -30 21
-55 40 -55 42 0 2 52 37 115 78 72 47 145 105 197 157 71 71 258 296 338 406
22 30 40 41 40 25z m1861 -572 c48 -39 19 -131 -42 -131 -55 0 -79 82 -37 127
26 28 48 29 79 4z m-2450 -353 c21 -17 39 -34 39 -37 0 -3 -37 -24 -81 -46
-44 -22 -117 -68 -162 -102 l-82 -61 -48 46 c-55 54 -57 51 53 107 36 18 101
54 145 79 44 25 83 46 88 46 4 0 26 -14 48 -32z m2486 -70 c19 -15 16 -59 -7
-95 -16 -27 -26 -33 -53 -33 -44 0 -57 15 -57 65 0 61 29 89 80 79 14 -3 31
-10 37 -16z m-2305 -65 c24 -3 88 -7 143 -8 196 -7 277 -30 388 -109 114 -82
191 -163 217 -231 27 -70 32 -161 10 -175 -27 -17 -35 -11 -53 39 -12 35 -33
64 -72 99 -85 78 -172 132 -211 132 -62 0 -52 -23 61 -132 59 -56 112 -114
117 -128 14 -34 20 -81 25 -177 4 -82 4 -83 -22 -93 -14 -5 -39 -10 -54 -10
-24 0 -30 6 -40 43 -23 76 -74 159 -146 234 -109 114 -166 101 -85 -19 41 -62
113 -204 125 -246 6 -22 5 -23 -14 -12 -17 9 -22 8 -28 -6 -4 -12 4 -26 26
-46 30 -27 32 -31 21 -62 -20 -63 -102 -121 -185 -133 -51 -7 -61 10 -25 42
49 44 63 82 58 158 -7 106 -32 147 -125 208 -41 27 -81 49 -88 49 -7 0 -55 45
-108 99 -77 81 -98 109 -111 153 -15 47 -26 61 -97 117 -43 35 -79 67 -79 72
0 4 32 27 70 51 39 24 101 62 138 85 61 38 68 41 84 26 10 -9 37 -18 60 -20z
m2348 -422 c16 -30 12 -50 -15 -76 -48 -49 -108 -19 -84 42 15 41 29 53 60 53
18 0 32 -7 39 -19z m639 -528 c18 -42 86 -238 152 -437 116 -352 129 -402 185
-711 41 -229 112 -466 257 -850 59 -159 108 -375 142 -630 17 -127 61 -395 71
-431 5 -18 -2 -24 -53 -42 -77 -27 -237 -73 -293 -83 -89 -16 -367 -49 -438
-51 l-73 -3 -19 50 c-10 28 -32 88 -50 135 -17 47 -42 138 -55 203 -27 130
-67 226 -137 329 -38 54 -48 78 -52 125 -4 32 -13 92 -21 133 l-15 74 25 26
c45 47 35 83 -42 159 -100 98 -128 138 -128 187 0 33 -16 65 -83 175 -106 172
-214 394 -254 523 -17 55 -51 150 -75 210 l-43 109 20 22 c11 12 20 24 20 28
0 12 -94 7 -153 -8 -32 -8 -72 -15 -88 -15 -29 0 -30 1 -23 33 15 64 11 82
-18 85 -63 7 -113 -129 -199 -547 -117 -567 -189 -872 -235 -1002 -42 -120
-43 -162 -4 -239 17 -33 30 -75 30 -95 0 -19 -13 -101 -30 -182 -24 -119 -67
-485 -82 -698 -3 -33 -7 -40 -24 -40 -12 0 -33 -14 -47 -31 -47 -56 -88 -65
-286 -64 -97 1 -252 8 -346 15 -341 27 -380 28 -398 11 -24 -25 -33 -19 -10 7
58 64 73 99 73 172 -1 45 -8 90 -21 125 -11 30 -23 63 -26 73 -3 11 3 27 15
40 40 44 52 83 52 170 0 65 6 99 25 150 32 86 39 149 26 233 -8 55 -7 81 4
129 19 78 18 154 0 234 -38 160 -47 257 -52 591 -3 197 -1 397 5 485 6 83 16
220 22 305 13 185 29 377 37 443 3 34 9 47 18 43 127 -48 332 -84 545 -95 221
-12 712 3 805 24 39 9 136 29 217 45 81 16 230 50 330 74 174 43 193 50 373
141 105 52 233 122 285 154 52 32 98 59 101 60 3 1 21 -33 38 -76z m91 -3925
c0 -5 -7 -8 -15 -8 -10 0 -15 10 -15 27 0 26 1 26 15 7 8 -10 15 -22 15 -26z
m2170 2 c0 -5 -4 -10 -10 -10 -5 0 -10 5 -10 10 0 6 5 10 10 10 6 0 10 -4 10
-10z m16 -115 c-9 -24 -81 -54 -213 -90 -285 -78 -657 -126 -833 -106 -52 6
-192 15 -310 21 -118 6 -244 15 -280 20 -36 5 -108 12 -160 15 -146 10 -369
81 -410 130 -23 28 -4 26 75 -5 43 -17 135 -45 204 -62 l126 -31 585 -4 c360
-3 632 -1 707 6 129 11 194 30 408 124 l100 44 3 -25 c2 -13 1 -30 -2 -37z
m-4013 -117 c4 -24 7 -51 9 -62 3 -21 4 -20 -122 -80 -277 -131 -644 -246
-911 -285 -77 -12 -322 -40 -422 -48 -65 -6 -230 10 -375 36 -91 17 -100 21
-143 62 -79 76 -81 86 -14 52 76 -38 117 -48 294 -68 218 -26 478 -13 708 35
280 58 860 291 930 374 15 18 31 32 34 30 4 -2 9 -23 12 -46z"/>
<path d="M3560 11827 c0 -56 93 -139 136 -123 15 6 15 9 -2 34 -44 68 -87 112
-110 112 -19 0 -24 -5 -24 -23z"/>
<path d="M3400 11794 c-11 -12 -11 -18 1 -29 28 -28 133 -85 156 -85 35 0 30
40 -9 77 -53 51 -123 69 -148 37z"/>
<path d="M4370 11572 c-70 -35 -87 -160 -37 -272 36 -82 68 -103 129 -87 56
15 80 112 50 201 l-19 56 32 0 c18 0 43 8 56 19 21 17 22 22 11 45 -24 53
-149 75 -222 38z"/>
<path d="M2755 11205 c-5 -2 -22 -6 -37 -9 -39 -9 -54 -29 -73 -94 -33 -113
-1 -270 67 -327 39 -33 88 -33 125 -1 25 21 28 32 31 97 3 56 -1 88 -17 133
l-20 58 75 -7 c83 -8 104 1 104 41 0 27 -43 59 -95 70 -16 3 -41 12 -55 19
-27 13 -89 25 -105 20z"/>
<path d="M4955 10589 c-10 -15 3 -25 16 -12 7 7 7 13 1 17 -6 3 -14 1 -17 -5z"/>
<path d="M4865 10490 c-3 -5 -1 -10 4 -10 6 0 11 5 11 10 0 6 -2 10 -4 10 -3
0 -8 -4 -11 -10z"/>
<path d="M4800 10261 c0 -12 28 -22 35 -12 3 5 -2 12 -11 15 -21 8 -24 8 -24
-3z"/>
<path d="M4990 10259 c0 -5 5 -7 10 -4 6 3 10 8 10 11 0 2 -4 4 -10 4 -5 0
-10 -5 -10 -11z"/>
<path d="M4178 10203 c7 -3 16 -2 19 1 4 3 -2 6 -13 5 -11 0 -14 -3 -6 -6z"/>
<path d="M4425 10170 c3 -5 10 -10 16 -10 5 0 9 5 9 10 0 6 -7 10 -16 10 -8 0
-12 -4 -9 -10z"/>
<path d="M5065 10101 c-3 -5 -1 -12 4 -15 5 -3 11 1 15 9 6 16 -9 21 -19 6z"/>
<path d="M4701 10066 c-8 -10 -9 -16 -1 -21 5 -3 13 1 16 10 9 22 -1 29 -15
11z"/>
<path d="M4040 10060 c0 -5 7 -10 16 -10 8 0 12 5 9 10 -3 6 -10 10 -16 10 -5
0 -9 -4 -9 -10z"/>
<path d="M4900 10041 c0 -12 5 -21 10 -21 6 0 10 6 10 14 0 8 -4 18 -10 21 -5
3 -10 -3 -10 -14z"/>
<path d="M4425 10025 c-130 -29 -609 -176 -1015 -312 -25 -8 -56 -16 -70 -18
-14 -1 -28 -3 -32 -4 -14 -2 -8 -46 11 -77 10 -17 41 -48 67 -70 27 -21 76
-63 109 -94 76 -69 136 -102 250 -135 79 -24 102 -26 190 -22 173 9 270 53
395 179 138 139 210 292 210 444 0 46 5 86 10 89 6 3 10 13 10 21 0 18 -52 18
-135 -1z m-338 -438 c34 -7 78 -24 97 -38 l36 -24 -27 -23 c-128 -107 -321
-122 -510 -41 l-47 20 54 32 c139 79 261 102 397 74z"/>
<path d="M3590 9989 c0 -5 5 -7 10 -4 6 3 10 8 10 11 0 2 -4 4 -10 4 -5 0 -10
-5 -10 -11z"/>
<path d="M3720 9970 c-8 -5 -11 -12 -7 -16 4 -4 13 -2 19 4 15 15 7 24 -12 12z"/>
<path d="M4955 9950 c-3 -5 -2 -10 4 -10 5 0 13 5 16 10 3 6 2 10 -4 10 -5 0
-13 -4 -16 -10z"/>
<path d="M3840 9930 c0 -5 5 -10 10 -10 6 0 10 5 10 10 0 6 -4 10 -10 10 -5 0
-10 -4 -10 -10z"/>
<path d="M3400 9915 c-10 -12 -10 -15 4 -15 9 0 16 7 16 15 0 8 -2 15 -4 15
-2 0 -9 -7 -16 -15z"/>
<path d="M4750 9900 c0 -5 5 -10 10 -10 6 0 10 5 10 10 0 6 -4 10 -10 10 -5 0
-10 -4 -10 -10z"/>
<path d="M5040 9880 c0 -5 4 -10 9 -10 6 0 13 5 16 10 3 6 -1 10 -9 10 -9 0
-16 -4 -16 -10z"/>
<path d="M2935 9810 c-14 -16 -15 -20 -4 -20 16 0 39 19 39 32 0 14 -16 9 -35
-12z"/>
<path d="M2305 9789 c-10 -15 3 -25 16 -12 7 7 7 13 1 17 -6 3 -14 1 -17 -5z"/>
<path d="M2485 9789 c-10 -15 3 -25 16 -12 7 7 7 13 1 17 -6 3 -14 1 -17 -5z"/>
<path d="M5060 9770 c0 -5 5 -10 10 -10 6 0 10 5 10 10 0 6 -4 10 -10 10 -5 0
-10 -4 -10 -10z"/>
<path d="M1795 9740 c3 -5 8 -10 11 -10 2 0 4 5 4 10 0 6 -5 10 -11 10 -5 0
-7 -4 -4 -10z"/>
<path d="M4910 9706 c0 -9 5 -16 10 -16 6 0 10 4 10 9 0 6 -4 13 -10 16 -5 3
-10 -1 -10 -9z"/>
<path d="M2030 9664 c0 -9 5 -14 12 -12 18 6 21 28 4 28 -9 0 -16 -7 -16 -16z"/>
<path d="M2470 9630 c0 -5 5 -10 10 -10 6 0 10 5 10 10 0 6 -4 10 -10 10 -5 0
-10 -4 -10 -10z"/>
<path d="M4740 9610 c-8 -5 -11 -12 -7 -16 4 -4 13 -2 19 4 15 15 7 24 -12 12z"/>
<path d="M4884 9599 c-3 -6 -1 -16 5 -22 8 -8 11 -5 11 11 0 24 -5 28 -16 11z"/>
<path d="M2134 9527 c-8 -21 2 -35 16 -21 5 5 6 15 0 24 -8 12 -10 12 -16 -3z"/>
<path d="M2730 9484 c0 -8 5 -12 10 -9 6 4 8 11 5 16 -9 14 -15 11 -15 -7z"/>
<path d="M2560 9460 c0 -19 11 -26 23 -14 8 8 -3 34 -14 34 -5 0 -9 -9 -9 -20z"/>
<path d="M2950 9469 c0 -5 5 -7 10 -4 6 3 10 8 10 11 0 2 -4 4 -10 4 -5 0 -10
-5 -10 -11z"/>
<path d="M4730 9460 c0 -5 5 -10 10 -10 6 0 10 5 10 10 0 6 -4 10 -10 10 -5 0
-10 -4 -10 -10z"/>
<path d="M4450 9434 c0 -8 5 -12 10 -9 6 4 8 11 5 16 -9 14 -15 11 -15 -7z"/>
<path d="M4877 9426 c-6 -16 2 -28 14 -20 12 7 11 34 0 34 -5 0 -11 -6 -14
-14z"/>
<path d="M3125 9420 c4 -6 11 -8 16 -5 14 9 11 15 -7 15 -8 0 -12 -5 -9 -10z"/>
<path d="M1735 9410 c-3 -5 1 -10 10 -10 9 0 13 5 10 10 -3 6 -8 10 -10 10 -2
0 -7 -4 -10 -10z"/>
<path d="M1976 9384 c-4 -10 -1 -14 6 -12 15 5 23 28 10 28 -5 0 -13 -7 -16
-16z"/>
<path d="M4550 9380 c0 -5 7 -10 15 -10 8 0 15 5 15 10 0 6 -7 10 -15 10 -8 0
-15 -4 -15 -10z"/>
<path d="M4620 9380 c0 -5 5 -10 10 -10 6 0 10 5 10 10 0 6 -4 10 -10 10 -5 0
-10 -4 -10 -10z"/>
<path d="M2715 9367 c-4 -10 -5 -21 -1 -24 10 -10 18 4 13 24 -4 17 -4 17 -12
0z"/>
<path d="M3405 9351 c-7 -12 12 -24 25 -16 11 7 4 25 -10 25 -5 0 -11 -4 -15
-9z"/>
<path d="M3220 9315 c0 -8 5 -15 10 -15 6 0 10 7 10 15 0 8 -4 15 -10 15 -5 0
-10 -7 -10 -15z"/>
<path d="M2520 9300 c0 -5 4 -10 9 -10 6 0 13 5 16 10 3 6 -1 10 -9 10 -9 0
-16 -4 -16 -10z"/>
<path d="M3040 9294 c0 -8 5 -12 10 -9 6 4 8 11 5 16 -9 14 -15 11 -15 -7z"/>
<path d="M2006 9291 c-4 -7 -5 -15 -2 -18 9 -9 19 4 14 18 -4 11 -6 11 -12 0z"/>
<path d="M2865 9277 c-4 -10 -3 -23 3 -29 14 -14 21 3 12 27 -7 19 -8 19 -15
2z"/>
<path d="M2253 9263 c-22 -15 -32 -43 -15 -43 13 0 45 38 41 48 -2 6 -14 3
-26 -5z"/>
<path d="M4593 9235 c-3 -9 -3 -18 0 -21 9 -9 27 6 27 22 0 19 -19 18 -27 -1z"/>
<path d="M3445 9220 c-3 -5 -1 -10 4 -10 6 0 11 5 11 10 0 6 -2 10 -4 10 -3 0
-8 -4 -11 -10z"/>
<path d="M3110 9205 c0 -8 5 -15 10 -15 6 0 10 7 10 15 0 8 -4 15 -10 15 -5 0
-10 -7 -10 -15z"/>
<path d="M4460 9190 c0 -5 5 -10 10 -10 6 0 10 5 10 10 0 6 -4 10 -10 10 -5 0
-10 -4 -10 -10z"/>
<path d="M2727 9146 c-3 -8 -2 -18 3 -21 13 -8 24 15 12 27 -6 6 -11 4 -15 -6z"/>
<path d="M2550 9140 c0 -5 5 -10 10 -10 6 0 10 5 10 10 0 6 -4 10 -10 10 -5 0
-10 -4 -10 -10z"/>
<path d="M4200 9130 c0 -5 4 -10 9 -10 6 0 13 5 16 10 3 6 -1 10 -9 10 -9 0
-16 -4 -16 -10z"/>
<path d="M2150 9120 c0 -5 7 -10 15 -10 8 0 15 5 15 10 0 6 -7 10 -15 10 -8 0
-15 -4 -15 -10z"/>
<path d="M3950 9110 c0 -5 7 -10 15 -10 8 0 15 5 15 10 0 6 -7 10 -15 10 -8 0
-15 -4 -15 -10z"/>
<path d="M4460 9101 c0 -30 17 -34 22 -6 4 17 1 25 -8 25 -8 0 -14 -9 -14 -19z"/>
<path d="M4340 9085 c0 -17 5 -25 13 -22 6 2 12 12 12 22 0 10 -6 20 -12 23
-8 2 -13 -6 -13 -23z"/>
<path d="M2200 9040 c0 -5 5 -10 10 -10 6 0 10 5 10 10 0 6 -4 10 -10 10 -5 0
-10 -4 -10 -10z"/>
<path d="M3745 9040 c-3 -5 1 -10 9 -10 9 0 16 5 16 10 0 6 -4 10 -9 10 -6 0
-13 -4 -16 -10z"/>
<path d="M3475 9011 c-6 -11 9 -23 19 -14 9 9 7 23 -3 23 -6 0 -12 -4 -16 -9z"/>
<path d="M2320 9000 c0 -5 4 -10 9 -10 6 0 13 5 16 10 3 6 -1 10 -9 10 -9 0
-16 -4 -16 -10z"/>
<path d="M2580 8955 c0 -8 5 -15 10 -15 6 0 10 7 10 15 0 8 -4 15 -10 15 -5 0
-10 -7 -10 -15z"/>
<path d="M3107 8924 c-8 -8 1 -24 14 -24 5 0 9 7 9 15 0 15 -12 20 -23 9z"/>
<path d="M3910 8904 c0 -8 5 -12 10 -9 6 3 10 10 10 16 0 5 -4 9 -10 9 -5 0
-10 -7 -10 -16z"/>
<path d="M3320 8901 c0 -6 5 -13 10 -16 6 -3 10 1 10 9 0 9 -4 16 -10 16 -5 0
-10 -4 -10 -9z"/>
<path d="M2760 8845 c0 -14 5 -25 10 -25 6 0 10 11 10 25 0 14 -4 25 -10 25
-5 0 -10 -11 -10 -25z"/>
<path d="M3176 8781 c-4 -5 -2 -12 3 -15 5 -4 12 -2 15 3 4 5 2 12 -3 15 -5 4
-12 2 -15 -3z"/>
<path d="M3517 8776 c-6 -16 2 -28 14 -20 12 7 11 34 0 34 -5 0 -11 -6 -14
-14z"/>
<path d="M4092 8128 c-7 -7 -12 -29 -12 -50 0 -66 64 -103 103 -60 20 22 22
85 5 99 -22 17 -83 24 -96 11z m76 -52 c-4 -28 -38 -35 -38 -8 0 11 3 28 6 36
9 23 36 -1 32 -28z"/>
</g>
</svg>
