<?xml version="1.0" standalone="no"?>
<!DOCTYPE svg PUBLIC "-//W3C//DTD SVG 20010904//EN"
 "http://www.w3.org/TR/2001/REC-SVG-20010904/DTD/svg10.dtd">
<svg version="1.0" xmlns="http://www.w3.org/2000/svg"
 width="753.000000pt" height="1369.000000pt" viewBox="0 0 753.000000 1369.000000"
 preserveAspectRatio="xMidYMid meet">

<g transform="translate(0.000000,1369.000000) scale(0.100000,-0.100000)"
fill="#000000" stroke="none">
<path d="M3260 12700 c-108 -14 -277 -47 -410 -80 -369 -93 -572 -204 -802
-437 -118 -119 -185 -201 -289 -357 -170 -253 -242 -449 -288 -786 -38 -280
-36 -600 4 -857 20 -121 19 -122 -12 -134 -50 -18 -101 -79 -134 -158 -27 -64
-33 -92 -36 -176 -11 -245 80 -424 259 -508 l67 -32 31 -90 c96 -274 275 -514
490 -654 91 -60 324 -182 404 -212 l39 -14 -54 -42 c-94 -72 -312 -295 -360
-368 -77 -116 -195 -354 -227 -455 -42 -133 -56 -239 -49 -384 10 -221 104
-503 206 -618 23 -26 71 -70 107 -99 56 -44 79 -56 157 -76 51 -13 142 -28
202 -34 246 -24 646 44 733 124 61 57 112 152 147 277 19 68 35 144 35 168 0
23 6 73 14 110 18 88 36 217 36 264 0 47 8 68 28 68 32 0 3 10 -113 40 -128
33 -227 75 -314 134 -29 20 -58 36 -65 36 -17 0 -144 -118 -368 -339 -108
-108 -201 -197 -207 -199 -25 -8 -8 45 34 104 40 57 45 73 56 151 15 118 33
134 27 25 l-5 -82 116 118 c64 65 143 135 176 157 33 21 79 56 102 77 24 21
49 38 57 38 18 0 74 67 113 137 l29 51 49 -55 c50 -57 148 -127 220 -157 53
-23 192 -56 233 -56 17 0 32 -3 32 -7 0 -10 -50 -74 -91 -118 -38 -40 -39 -42
-43 -135 -3 -52 -16 -142 -30 -200 -13 -58 -29 -136 -36 -174 -6 -38 -16 -78
-21 -89 -6 -10 -9 -21 -6 -23 3 -3 33 2 68 11 45 12 93 16 169 13 91 -3 116
-8 187 -37 76 -31 86 -33 125 -22 41 10 44 10 68 -19 14 -16 43 -63 64 -103
l40 -75 -30 -35 c-40 -48 -118 -109 -183 -142 -42 -21 -77 -29 -157 -36 l-103
-9 -54 54 c-41 41 -67 58 -107 70 -69 21 -75 20 -137 -8 -59 -28 -74 -48 -66
-91 8 -42 29 -71 69 -96 46 -28 89 -23 89 11 0 18 -9 29 -34 41 l-34 16 31 11
c41 14 93 0 137 -40 56 -49 46 -115 -28 -186 -48 -46 -91 -50 -193 -18 -125
40 -198 103 -225 194 -11 37 -16 42 -33 37 -155 -49 -330 -69 -543 -62 -130 4
-169 9 -223 27 -36 13 -75 29 -86 37 -20 13 -22 12 -27 -24 -15 -99 -18 -224
-8 -392 11 -194 39 -335 96 -484 52 -140 88 -188 206 -283 l66 -53 -21 -58
c-20 -55 -21 -74 -18 -363 3 -316 7 -362 48 -492 13 -43 39 -155 58 -250 37
-182 118 -475 162 -586 24 -59 26 -73 20 -151 -4 -47 -12 -117 -17 -154 -13
-86 0 -219 42 -417 26 -123 31 -170 33 -306 1 -106 6 -167 14 -176 6 -8 9 -23
6 -34 -3 -13 7 -39 29 -71 l34 -51 -91 -60 c-50 -33 -129 -82 -176 -108 -179
-100 -348 -246 -457 -394 -44 -60 -83 -163 -83 -220 0 -20 -5 -41 -11 -47 -15
-15 -15 -91 0 -146 27 -93 156 -180 346 -233 95 -27 278 -9 407 40 296 111
512 235 764 436 54 44 150 114 213 157 123 83 165 133 190 224 11 40 11 55 -3
102 -9 30 -22 59 -29 66 -8 6 -20 43 -27 83 -7 40 -17 80 -21 89 -10 20 21 52
42 44 25 -9 49 18 65 75 12 45 15 115 14 374 0 176 -4 324 -7 329 -3 5 -7 71
-9 146 -2 89 -8 150 -17 176 -12 31 -14 70 -10 175 4 105 1 146 -11 185 -15
48 -15 51 19 160 19 60 55 211 80 335 25 124 53 259 64 300 l19 75 1 -66 c1
-36 8 -137 16 -225 15 -156 44 -284 105 -459 29 -82 50 -263 50 -425 0 -126
19 -327 39 -412 5 -23 4 -68 -5 -125 -36 -240 13 -502 116 -620 17 -18 30 -38
30 -43 0 -4 16 -18 36 -31 l36 -22 -6 -62 c-6 -57 -4 -66 30 -131 146 -277
417 -466 819 -570 271 -71 355 -84 526 -84 157 0 214 16 358 98 47 27 116 65
153 86 99 54 127 81 165 165 43 93 58 222 29 265 -9 14 -16 36 -16 49 0 36
-57 114 -114 157 -92 69 -280 141 -472 180 -182 37 -299 80 -386 141 -73 51
-77 56 -77 92 -1 21 -6 47 -11 58 -6 10 -12 70 -15 132 -3 85 -12 146 -38 252
-44 178 -57 307 -57 578 0 136 -6 273 -17 365 -21 192 -21 203 12 367 26 133
27 150 22 340 -3 110 -10 256 -16 325 -6 69 -15 197 -20 285 -16 255 -66 500
-111 545 -19 19 -19 20 6 73 78 172 111 465 83 738 -19 187 -79 432 -116 478
l-18 22 -92 -50 c-115 -63 -559 -218 -703 -246 -74 -15 -166 -1 -151 23 5 9
16 9 41 2 19 -6 46 -10 60 -10 37 0 315 93 436 145 57 25 132 52 166 61 35 9
92 33 128 54 36 21 88 46 115 55 28 9 77 33 110 53 33 21 74 45 90 54 40 21
111 127 131 196 11 38 15 75 11 117 -13 134 -120 503 -170 585 -49 80 -128
172 -229 264 -58 53 -129 124 -157 156 -47 54 -144 134 -261 218 -25 17 -62
47 -84 65 l-38 34 26 51 c15 29 30 69 34 89 5 26 16 41 32 49 119 54 149 74
221 146 118 118 214 273 303 490 54 133 71 222 70 383 0 161 -16 252 -73 431
l-38 122 34 53 c61 98 77 152 76 264 0 69 -6 114 -17 145 -21 55 -21 55 -1
109 13 35 14 50 5 75 -7 17 -18 82 -26 144 -8 62 -23 136 -34 165 -11 28 -20
65 -20 80 0 92 -116 157 -281 157 l-66 0 -57 138 c-107 256 -123 283 -345 554
-128 156 -306 328 -405 393 -156 102 -338 177 -521 217 -105 22 -386 32 -505
18z m551 -223 c186 -50 366 -143 496 -256 109 -94 388 -412 469 -533 35 -52
119 -227 127 -263 1 -5 -16 -10 -38 -10 -29 0 -45 6 -58 23 -20 24 -47 28 -77
12 -13 -7 -21 -7 -25 0 -12 19 -67 10 -96 -15 -30 -24 -30 -24 -49 -5 -35 35
-79 25 -110 -25 -16 -26 -25 -31 -47 -27 -37 7 -53 -20 -53 -87 0 -81 10 -127
31 -150 15 -16 18 -29 13 -59 l-6 -39 -89 -5 c-74 -5 -101 -11 -155 -38 -36
-18 -87 -52 -112 -76 -25 -24 -46 -44 -47 -44 -7 0 -65 144 -70 172 -13 81
-108 123 -282 123 -51 0 -93 1 -93 3 0 9 74 32 103 32 57 0 74 36 35 77 -26
28 -79 31 -138 7 -38 -16 -43 -15 -74 1 -28 15 -39 16 -66 6 -18 -6 -34 -10
-34 -9 -11 31 -28 43 -62 46 -32 2 -50 -4 -95 -36 -49 -35 -58 -38 -74 -26
-38 28 -80 13 -166 -61 -29 -25 -55 -45 -59 -45 -3 0 -10 10 -15 22 -26 57
-70 49 -148 -28 l-57 -58 -23 22 c-37 35 -65 28 -122 -31 -37 -38 -68 -87
-110 -172 -66 -135 -80 -199 -47 -210 12 -3 30 -1 41 5 16 8 11 -5 -20 -54
-36 -58 -41 -72 -40 -126 l0 -60 -47 0 c-27 0 -88 -12 -137 -26 -84 -24 -337
-141 -467 -215 -31 -19 -61 -30 -65 -25 -4 4 -8 161 -8 349 0 281 3 362 18
457 37 235 97 421 183 573 81 141 219 322 334 438 167 169 308 260 495 323
117 40 405 112 520 130 55 9 111 18 125 20 14 2 108 3 210 2 162 -3 197 -7
281 -29z m1476 -1308 c27 -10 49 -80 58 -184 3 -38 9 -83 12 -98 l5 -29 -32
17 c-17 9 -43 15 -57 13 -25 -3 -27 1 -54 102 -15 58 -35 125 -43 149 -9 24
-16 45 -16 48 0 6 101 -8 127 -18z m-230 -66 c12 -34 31 -128 43 -210 11 -81
22 -158 24 -170 4 -30 -5 -36 -99 -66 -151 -47 -281 -72 -309 -59 -26 12 -72
93 -96 167 -7 22 -27 74 -45 115 -28 64 -69 219 -61 227 7 7 126 23 251 33 77
6 156 15 175 20 19 5 48 8 65 7 27 -2 32 -8 52 -64z m-2311 -129 c-4 -9 -9
-15 -11 -12 -3 3 -3 13 1 22 4 9 9 15 11 12 3 -3 3 -13 -1 -22z m968 3 l49
-14 59 -127 c33 -70 66 -157 75 -193 15 -58 15 -69 2 -92 -38 -68 -375 -252
-550 -301 -41 -11 -128 -27 -194 -35 -66 -8 -147 -20 -180 -25 -65 -11 -302
-12 -348 -1 -22 5 -33 17 -47 51 -36 86 -120 325 -120 342 0 15 63 74 172 161
103 82 480 219 681 247 84 12 341 3 401 -13z m-1161 -140 c-3 -7 -25 -29 -49
-51 l-44 -39 38 66 c31 56 39 64 49 51 6 -9 9 -21 6 -27z m1899 -74 c22 -49
51 -103 65 -121 l24 -32 -27 -23 c-17 -15 -25 -30 -22 -39 4 -8 45 -27 95 -43
147 -46 177 -65 212 -137 17 -36 35 -95 42 -137 l11 -73 -44 -45 c-55 -57
-101 -83 -215 -122 -105 -36 -209 -41 -326 -16 -63 13 -158 58 -199 93 -25 21
-23 97 3 201 11 45 18 89 15 97 -18 48 -103 -36 -131 -128 -20 -70 -20 -167 1
-197 10 -13 45 -36 79 -52 34 -15 68 -35 75 -44 23 -28 141 -82 217 -99 135
-30 234 -15 388 59 103 49 164 107 209 197 48 95 27 266 -39 328 -14 13 -25
27 -25 31 0 4 26 10 58 14 54 6 194 33 218 42 7 2 14 -14 17 -42 9 -60 53
-211 122 -416 68 -202 87 -300 88 -454 1 -137 -13 -202 -74 -353 -80 -196
-254 -473 -343 -544 -28 -23 -35 -22 -42 7 -8 32 -49 65 -80 65 -21 0 -24 5
-24 40 0 22 -6 55 -14 74 -29 70 -189 110 -283 71 -20 -8 -69 -46 -110 -83
-203 -183 -307 -270 -396 -329 -55 -35 -134 -90 -177 -122 -63 -47 -89 -60
-141 -70 -35 -7 -71 -14 -80 -17 -12 -3 -22 10 -39 50 -27 67 -141 181 -222
222 -78 40 -195 45 -258 12 -88 -48 -141 -191 -105 -288 29 -80 30 -77 -6 -82
-21 -3 -44 1 -63 13 -17 10 -110 46 -206 80 -186 67 -403 172 -510 247 -153
107 -299 287 -401 495 -43 86 -43 89 -24 99 42 24 95 86 95 112 0 34 -20 41
-129 49 -96 7 -145 30 -204 96 -45 50 -68 121 -74 232 -6 99 13 181 51 226 23
26 29 28 103 27 55 -1 94 -8 132 -23 61 -25 81 -22 81 12 0 24 -56 85 -99 107
-22 11 -8 19 187 100 116 49 255 102 309 119 54 17 118 44 143 60 l44 30 26
-77 c50 -148 99 -218 147 -211 10 1 48 -7 84 -19 101 -32 201 -42 309 -32 52
5 147 13 210 19 167 15 255 41 417 122 174 86 277 161 371 269 82 94 90 118
74 223 -17 117 -18 115 72 158 67 33 91 39 145 40 52 0 125 9 149 18 2 0 22
-38 44 -86z m846 9 c6 -18 -15 -14 -22 4 -4 10 -1 14 6 12 6 -2 14 -10 16 -16z
m126 -179 c14 -88 -5 -248 -33 -276 -8 -8 -55 155 -66 228 -6 38 -4 41 32 62
52 30 59 29 67 -14z m-769 -1739 c29 -19 33 -65 11 -117 -12 -29 -111 -165
-246 -335 -54 -69 -60 -82 -32 -82 51 0 281 205 354 316 46 69 67 77 79 30 20
-72 -31 -189 -120 -282 -44 -45 -263 -197 -303 -210 -11 -3 -18 -13 -16 -22 3
-14 16 -17 66 -17 34 0 62 0 62 -1 0 -6 -173 -133 -223 -164 -69 -41 -337
-152 -337 -138 0 14 -82 8 -150 -11 -52 -14 -66 -22 -68 -39 -5 -32 38 -49 89
-35 22 6 42 7 45 2 2 -4 -15 -26 -40 -49 -42 -39 -115 -169 -132 -234 -3 -14
-10 -28 -14 -31 -15 -9 -161 35 -218 65 -31 17 -78 49 -105 71 l-47 41 35 40
c19 23 41 62 50 88 12 36 22 50 40 54 38 10 34 56 -7 93 -18 16 -54 53 -80 82
-41 47 -45 56 -31 66 13 10 12 18 -16 73 -17 34 -58 89 -91 122 -95 96 -120
135 -120 190 0 52 23 85 65 96 34 8 110 -12 163 -42 51 -30 192 -168 192 -188
0 -31 25 -37 121 -26 123 13 183 27 242 57 49 24 59 39 31 45 -9 2 38 33 104
71 145 81 192 117 342 262 175 169 183 175 236 175 24 0 56 -7 69 -16z m-260
-931 c-16 -39 -65 -265 -79 -363 -43 -305 -50 -350 -56 -343 -3 5 -23 64 -44
133 -22 74 -64 180 -104 260 -37 74 -68 138 -70 141 -2 4 41 25 95 48 54 23
134 63 178 90 93 58 89 56 80 34z m-384 -252 c12 -36 37 -101 55 -144 63 -146
175 -558 168 -614 -1 -7 -2 -18 -3 -25 -3 -29 -19 12 -31 80 -10 53 -10 76 -3
80 24 15 -181 270 -301 375 l-83 72 44 89 c25 52 43 104 43 123 0 34 0 34 45
32 l45 -3 21 -65z m873 -25 c20 -32 56 -139 99 -297 l34 -124 51 3 c73 4 71
-21 -5 -54 -32 -14 -98 -45 -148 -69 -49 -25 -135 -62 -190 -83 -123 -47 -438
-210 -430 -223 6 -8 -34 -29 -56 -29 -5 0 -9 16 -9 35 0 32 6 40 66 83 105 77
307 183 428 223 61 20 141 50 177 66 l67 28 -25 60 c-36 85 -122 376 -116 392
8 21 39 15 57 -11z m-534 -1067 c49 -67 90 -126 90 -132 0 -6 7 -19 16 -29 14
-14 14 -18 3 -22 -8 -2 -38 -12 -66 -21 -29 -9 -55 -21 -58 -26 -11 -17 -23
-9 -30 18 -9 37 -102 186 -148 240 -22 24 -38 45 -36 47 9 6 115 45 126 45 7
1 53 -54 103 -120z m42 -359 c25 -74 75 -316 98 -480 41 -287 49 -656 13 -667
-18 -6 -22 20 -33 232 -13 260 -31 411 -82 680 -54 289 -55 298 -33 293 12 -2
25 -23 37 -58z m339 -49 c47 -38 20 -161 -36 -161 -34 0 -55 36 -55 94 0 78
41 108 91 67z m58 -397 c20 -14 22 -23 18 -56 -8 -61 -44 -87 -75 -56 -19 19
-15 105 6 117 23 14 24 14 51 -5z m54 -345 c14 -23 -13 -103 -36 -107 -28 -6
-47 17 -47 55 0 50 16 75 47 71 14 -2 30 -10 36 -19z m566 -214 c0 -58 3 -115
5 -127 3 -13 10 -138 16 -278 6 -140 20 -316 31 -390 10 -74 24 -205 31 -290
10 -147 10 -162 -12 -280 -28 -147 -29 -197 -11 -385 7 -77 14 -248 15 -380 3
-288 16 -443 49 -590 14 -60 30 -144 36 -186 5 -42 23 -104 38 -139 l27 -63
-54 -49 c-29 -26 -72 -54 -94 -62 -119 -43 -242 -76 -317 -86 -46 -6 -118 -19
-159 -29 -41 -11 -114 -22 -162 -26 l-87 -7 -39 79 c-68 135 -101 285 -122
553 -12 152 -8 239 25 490 28 208 15 346 -55 590 -47 164 -63 232 -111 480
-28 146 -59 285 -68 310 -14 40 -15 51 -3 99 16 64 10 97 -19 106 -32 10 -57
-20 -110 -134 -60 -126 -99 -240 -149 -436 -57 -223 -80 -346 -80 -426 0 -44
-8 -99 -21 -142 -22 -73 -21 -110 1 -201 9 -36 9 -66 1 -123 -14 -95 -14 -194
0 -230 13 -31 15 -77 23 -568 l5 -340 -78 -73 -79 -72 -118 -10 c-66 -6 -137
-15 -159 -20 -119 -29 -396 22 -529 96 -39 22 -44 28 -32 40 8 7 20 31 28 51
18 52 14 254 -7 363 -51 265 -56 320 -60 615 l-3 290 -35 135 c-87 336 -147
559 -162 600 -33 92 -46 169 -55 330 -5 91 -16 203 -25 250 -9 47 -19 133 -22
191 l-6 107 49 -5 c27 -3 102 -23 167 -45 133 -43 212 -54 497 -63 227 -8 313
3 630 80 285 68 476 135 561 196 17 12 51 27 77 34 26 7 90 31 142 53 52 22
147 55 210 71 76 21 154 51 230 89 63 33 123 60 132 60 15 2 17 -11 17 -103z
m-571 -3667 c39 -63 281 -262 417 -343 113 -68 232 -114 410 -159 348 -87 520
-97 688 -39 145 51 211 98 331 237 33 38 61 65 63 59 2 -5 -6 -31 -17 -57 -11
-26 -20 -56 -20 -66 0 -25 -78 -77 -240 -162 -175 -92 -263 -121 -354 -116
-69 4 -302 53 -481 102 -236 64 -569 240 -727 385 -78 71 -128 169 -127 247
l1 59 18 -57 c10 -31 27 -72 38 -90z m-777 -176 c-24 -47 -75 -90 -186 -159
-44 -27 -161 -110 -260 -184 -243 -182 -410 -273 -665 -364 -62 -22 -221 -45
-314 -45 -69 0 -220 54 -286 102 -62 45 -67 52 -80 105 l-8 33 43 -38 c24 -21
66 -50 94 -66 29 -15 63 -38 76 -51 77 -71 303 -62 555 22 140 47 358 174 544
317 44 34 146 102 225 151 154 96 213 143 252 199 30 45 37 30 10 -22z"/>
<path d="M4105 11390 c-44 -49 26 -260 87 -260 35 0 43 42 23 134 -27 132 -65
175 -110 126z"/>
<path d="M3927 11303 c-26 -25 10 -106 78 -176 36 -38 52 -48 73 -45 21 2 28
9 30 30 4 36 -21 82 -81 145 -46 49 -81 65 -100 46z"/>
<path d="M4744 11040 c-27 -10 -54 -78 -54 -135 0 -96 75 -225 130 -225 30 0
68 42 76 85 5 27 -1 58 -21 121 -42 129 -80 173 -131 154z"/>
<path d="M3372 10850 c-18 -4 -42 -16 -52 -25 -26 -24 -43 -89 -36 -134 11
-64 60 -183 88 -212 22 -25 34 -29 78 -29 47 0 56 4 85 35 55 58 54 121 -5
277 -33 88 -70 109 -158 88z"/>
<path d="M5160 9956 c0 -9 5 -16 10 -16 6 0 10 4 10 9 0 6 -4 13 -10 16 -5 3
-10 -1 -10 -9z"/>
<path d="M5140 9820 c0 -5 7 -10 15 -10 8 0 15 5 15 10 0 6 -7 10 -15 10 -8 0
-15 -4 -15 -10z"/>
<path d="M5240 9811 c0 -6 5 -13 10 -16 6 -3 10 1 10 9 0 9 -4 16 -10 16 -5 0
-10 -4 -10 -9z"/>
<path d="M4910 9745 c7 -8 18 -15 25 -15 7 0 15 7 19 15 4 11 -2 15 -26 15
-26 0 -29 -2 -18 -15z"/>
<path d="M5050 9730 c0 -19 3 -21 12 -12 9 9 9 15 0 24 -9 9 -12 7 -12 -12z"/>
<path d="M2245 9670 c-9 -15 -1 -23 21 -18 15 3 16 4 1 16 -11 9 -17 10 -22 2z"/>
<path d="M5230 9666 c0 -9 5 -16 10 -16 6 0 10 4 10 9 0 6 -4 13 -10 16 -5 3
-10 -1 -10 -9z"/>
<path d="M3386 9633 c-11 -11 -6 -23 9 -23 8 0 15 4 15 9 0 13 -16 22 -24 14z"/>
<path d="M4887 9628 c-10 -8 -14 -18 -9 -26 7 -10 13 -8 30 6 12 11 22 22 22
26 0 10 -25 7 -43 -6z"/>
<path d="M2000 9609 c0 -11 5 -17 10 -14 6 3 10 13 10 21 0 8 -4 14 -10 14 -5
0 -10 -9 -10 -21z"/>
<path d="M4408 9606 c-29 -10 -35 -21 -19 -30 10 -6 59 30 51 36 -3 3 -17 0
-32 -6z"/>
<path d="M2840 9590 c0 -11 5 -20 10 -20 6 0 10 9 10 20 0 11 -4 20 -10 20 -5
0 -10 -9 -10 -20z"/>
<path d="M5150 9595 c0 -8 5 -15 10 -15 6 0 10 7 10 15 0 8 -4 15 -10 15 -5 0
-10 -7 -10 -15z"/>
<path d="M3600 9589 c0 -5 5 -7 10 -4 6 3 10 8 10 11 0 2 -4 4 -10 4 -5 0 -10
-5 -10 -11z"/>
<path d="M4152 9588 c5 -15 28 -18 29 -3 0 6 -7 12 -17 13 -10 3 -15 -1 -12
-10z"/>
<path d="M3900 9560 c0 -5 6 -10 14 -10 8 0 18 5 21 10 3 6 -3 10 -14 10 -12
0 -21 -4 -21 -10z"/>
<path d="M3115 9549 c-10 -15 3 -25 16 -12 7 7 7 13 1 17 -6 3 -14 1 -17 -5z"/>
<path d="M4542 9515 c-216 -58 -362 -146 -362 -221 0 -40 25 -39 112 4 75 36
213 77 381 112 60 12 77 28 77 73 0 61 -61 70 -208 32z"/>
<path d="M3525 9500 c-3 -5 3 -10 14 -10 12 0 21 5 21 10 0 6 -6 10 -14 10 -8
0 -18 -4 -21 -10z"/>
<path d="M2580 9491 c0 -5 7 -11 15 -15 9 -3 15 0 15 9 0 8 -7 15 -15 15 -8 0
-15 -4 -15 -9z"/>
<path d="M5145 9477 c-4 -10 -5 -21 -1 -24 10 -10 18 4 13 24 -4 17 -4 17 -12
0z"/>
<path d="M1965 9470 c-4 -6 -3 -16 3 -22 6 -6 12 -6 17 2 4 6 3 16 -3 22 -6 6
-12 6 -17 -2z"/>
<path d="M2480 9465 c0 -8 5 -15 10 -15 6 0 10 7 10 15 0 8 -4 15 -10 15 -5 0
-10 -7 -10 -15z"/>
<path d="M4915 9470 c-4 -6 -3 -16 3 -22 6 -6 12 -6 17 2 4 6 3 16 -3 22 -6 6
-12 6 -17 -2z"/>
<path d="M2265 9449 c-10 -15 3 -25 16 -12 7 7 7 13 1 17 -6 3 -14 1 -17 -5z"/>
<path d="M3160 9432 c0 -13 23 -32 38 -32 7 0 10 4 7 10 -9 14 -45 32 -45 22z"/>
<path d="M2947 9423 c-3 -5 -2 -15 2 -22 7 -10 10 -10 16 -1 4 6 3 16 -3 22
-5 5 -12 6 -15 1z"/>
<path d="M3280 9390 c0 -5 7 -10 15 -10 8 0 15 5 15 10 0 6 -7 10 -15 10 -8 0
-15 -4 -15 -10z"/>
<path d="M3955 9369 c-4 -6 -5 -13 -2 -16 7 -7 27 6 27 18 0 12 -17 12 -25 -2z"/>
<path d="M3060 9355 c0 -8 5 -15 10 -15 6 0 10 7 10 15 0 8 -4 15 -10 15 -5 0
-10 -7 -10 -15z"/>
<path d="M4117 9364 c-10 -11 -8 -44 2 -44 6 0 13 4 16 10 8 12 -9 43 -18 34z"/>
<path d="M5070 9340 c0 -5 5 -10 10 -10 6 0 10 5 10 10 0 6 -4 10 -10 10 -5 0
-10 -4 -10 -10z"/>
<path d="M2640 9325 c0 -8 5 -15 10 -15 6 0 10 7 10 15 0 8 -4 15 -10 15 -5 0
-10 -7 -10 -15z"/>
<path d="M3570 9300 c0 -5 5 -10 10 -10 6 0 10 5 10 10 0 6 -4 10 -10 10 -5 0
-10 -4 -10 -10z"/>
<path d="M5190 9296 c0 -9 5 -16 10 -16 6 0 10 4 10 9 0 6 -4 13 -10 16 -5 3
-10 -1 -10 -9z"/>
<path d="M2236 9282 c-3 -6 -1 -14 5 -17 15 -10 25 3 12 16 -7 7 -13 7 -17 1z"/>
<path d="M4862 9279 c2 -7 10 -15 17 -17 8 -3 12 1 9 9 -2 7 -10 15 -17 17 -8
3 -12 -1 -9 -9z"/>
<path d="M4380 9270 c-11 -7 -12 -12 -4 -20 8 -8 14 -7 23 4 14 17 1 28 -19
16z"/>
<path d="M3420 9189 c-13 -24 -4 -41 10 -19 10 16 13 40 5 40 -2 0 -9 -9 -15
-21z"/>
<path d="M4730 9180 c0 -5 5 -10 10 -10 6 0 10 5 10 10 0 6 -4 10 -10 10 -5 0
-10 -4 -10 -10z"/>
<path d="M3133 9173 c-7 -2 -13 -11 -13 -19 0 -12 4 -12 20 -2 31 20 26 35 -7
21z"/>
<path d="M4480 9155 c0 -9 5 -15 11 -13 6 2 11 8 11 13 0 5 -5 11 -11 13 -6 2
-11 -4 -11 -13z"/>
<path d="M2735 9148 c-9 -22 4 -43 17 -30 7 7 7 16 0 29 -10 17 -11 17 -17 1z"/>
<path d="M2510 9130 c0 -5 7 -10 15 -10 8 0 15 5 15 10 0 6 -7 10 -15 10 -8 0
-15 -4 -15 -10z"/>
<path d="M1950 9085 c0 -25 14 -34 24 -16 8 12 -3 41 -15 41 -5 0 -9 -11 -9
-25z"/>
<path d="M3680 9090 c0 -5 5 -10 10 -10 6 0 10 5 10 10 0 6 -4 10 -10 10 -5 0
-10 -4 -10 -10z"/>
<path d="M3345 9061 c-6 -11 9 -23 19 -14 9 9 7 23 -3 23 -6 0 -12 -4 -16 -9z"/>
<path d="M5075 9050 c3 -5 8 -10 11 -10 2 0 4 5 4 10 0 6 -5 10 -11 10 -5 0
-7 -4 -4 -10z"/>
<path d="M3960 9030 c0 -11 5 -20 10 -20 6 0 10 9 10 20 0 11 -4 20 -10 20 -5
0 -10 -9 -10 -20z"/>
<path d="M4985 9029 c-10 -15 3 -25 16 -12 7 7 7 13 1 17 -6 3 -14 1 -17 -5z"/>
<path d="M4755 8997 c-4 -10 -5 -21 -1 -24 10 -10 18 4 13 24 -4 17 -4 17 -12
0z"/>
<path d="M2310 8980 c13 -24 35 -27 26 -4 -3 9 -6 18 -6 20 0 2 -7 4 -15 4
-13 0 -14 -4 -5 -20z"/>
<path d="M3730 8947 c0 -19 16 -31 24 -18 3 5 -1 14 -9 21 -12 10 -15 10 -15
-3z"/>
<path d="M4367 8940 c-20 -24 -21 -30 -6 -30 12 0 38 29 39 43 0 13 -15 7 -33
-13z"/>
<path d="M3046 8941 c-4 -5 -2 -12 3 -15 5 -4 12 -2 15 3 4 5 2 12 -3 15 -5 4
-12 2 -15 -3z"/>
<path d="M3200 8928 c0 -18 18 -34 28 -24 3 4 -2 14 -11 23 -16 16 -17 16 -17
1z"/>
<path d="M4142 8928 c6 -18 28 -21 28 -4 0 9 -7 16 -16 16 -9 0 -14 -5 -12
-12z"/>
<path d="M2130 8869 c0 -24 23 -21 28 4 2 10 -3 17 -12 17 -10 0 -16 -9 -16
-21z"/>
<path d="M2927 8853 c-10 -9 -8 -33 2 -33 5 0 11 9 14 20 5 20 -3 26 -16 13z"/>
<path d="M3334 8839 c-3 -6 -1 -16 5 -22 8 -8 11 -5 11 11 0 24 -5 28 -16 11z"/>
<path d="M3810 8832 c0 -18 12 -42 21 -42 14 0 10 26 -6 40 -9 8 -15 8 -15 2z"/>
<path d="M2695 8810 c-4 -6 -3 -16 3 -22 6 -6 12 -6 17 2 4 6 3 16 -3 22 -6 6
-12 6 -17 -2z"/>
<path d="M2586 8794 c-11 -28 -6 -39 9 -20 8 11 15 23 15 28 0 14 -18 9 -24
-8z"/>
<path d="M2390 8700 c0 -5 9 -10 20 -10 11 0 20 5 20 10 0 6 -9 10 -20 10 -11
0 -20 -4 -20 -10z"/>
<path d="M3980 8700 c0 -5 5 -10 10 -10 6 0 10 5 10 10 0 6 -4 10 -10 10 -5 0
-10 -4 -10 -10z"/>
<path d="M3557 8636 c-3 -8 -3 -17 0 -20 9 -9 34 15 27 25 -8 13 -21 11 -27
-5z"/>
<path d="M3606 8641 c-4 -5 -2 -12 3 -15 5 -4 12 -2 15 3 4 5 2 12 -3 15 -5 4
-12 2 -15 -3z"/>
<path d="M2760 8594 c0 -9 5 -14 12 -12 18 6 21 28 4 28 -9 0 -16 -7 -16 -16z"/>
<path d="M3734 8514 c3 -8 6 -22 6 -30 0 -8 5 -14 10 -14 17 0 11 47 -6 54
-12 5 -15 2 -10 -10z"/>
<path d="M2816 8501 c-4 -7 -5 -15 -2 -18 9 -9 19 4 14 18 -4 11 -6 11 -12 0z"/>
<path d="M4150 7781 c0 -6 5 -13 10 -16 8 -5 7 -11 -1 -21 -10 -13 -15 -12
-35 1 -30 20 -34 19 -34 -5 0 -11 11 -27 25 -36 21 -14 31 -15 51 -6 33 16 51
56 34 77 -14 16 -50 21 -50 6z"/>
<path d="M4176 7598 c-31 -43 -8 -98 41 -98 43 0 72 77 41 108 -20 20 -65 14
-82 -10z m51 -40 c-3 -7 -5 -2 -5 12 0 14 2 19 5 13 2 -7 2 -19 0 -25z"/>
</g>
</svg>
