<?xml version="1.0" encoding="UTF-8"?>
<svg width="274px" height="11px" viewBox="0 0 274 11" version="1.1" xmlns="http://www.w3.org/2000/svg" xmlns:xlink="http://www.w3.org/1999/xlink">
    <title>sub</title>
    <g id="Page-1-Copy" stroke="none" stroke-width="1" fill="none" fill-rule="evenodd" opacity="0.5">
        <g id="Mobile-Copy" transform="translate(-20.000000, -165.000000)" fill="#000000" fill-rule="nonzero">
            <path d="M22.5454102,175 L22.5454102,171.565918 L24.4560547,171.565918 C25.5266927,171.565918 26.3592936,171.314128 26.9538574,170.810547 C27.5484212,170.306966 27.8457031,169.602376 27.8457031,168.696777 C27.8457031,167.812337 27.5420736,167.1014 26.9348145,166.563965 C26.3275553,166.02653 25.5076497,165.757812 24.4750977,165.757812 L24.4750977,165.757812 L20.9394531,165.757812 L20.9394531,175 L22.5454102,175 Z M24.4750977,170.277344 L22.5454102,170.277344 L22.5454102,167.052734 L24.5195312,167.052734 C25.0527344,167.061198 25.4716797,167.2146 25.7763672,167.512939 C26.0810547,167.811279 26.2333984,168.210124 26.2333984,168.709473 C26.2333984,169.217285 26.0831706,169.60555 25.7827148,169.874268 C25.4822591,170.142985 25.0463867,170.277344 24.4750977,170.277344 L24.4750977,170.277344 Z M32.8006227,175.126953 C33.5581096,175.126953 34.2277874,174.943929 34.8096559,174.577881 C35.3915243,174.211833 35.8390341,173.687093 36.1521852,173.003662 C36.4653362,172.320231 36.6219117,171.525716 36.6219117,170.620117 L36.6219117,170.620117 L36.6219117,170.105957 C36.6176799,169.20459 36.4568727,168.414307 36.1394898,167.735107 C35.822107,167.055908 35.3724814,166.5354 34.7906129,166.173584 C34.2087444,165.811768 33.5411826,165.630859 32.7879273,165.630859 C32.0346721,165.630859 31.3671103,165.813883 30.7852418,166.179932 C30.2033733,166.54598 29.7526897,167.073893 29.433191,167.763672 C29.1136923,168.453451 28.953943,169.249023 28.953943,170.150391 L28.953943,170.150391 L28.953943,170.670898 C28.9581747,171.555339 29.12004,172.3361 29.4395387,173.013184 C29.7590374,173.690267 30.2118368,174.211833 30.7979371,174.577881 C31.3840374,174.943929 32.0515992,175.126953 32.8006227,175.126953 Z M32.8006227,173.806641 C32.0981487,173.806641 31.5490764,173.52946 31.1534059,172.975098 C30.7577353,172.420736 30.5599,171.635742 30.5599,170.620117 L30.5599,170.620117 L30.5599,170.086914 C30.5683635,169.092448 30.7683147,168.323324 31.1597535,167.779541 C31.5511923,167.235758 32.0939169,166.963867 32.7879273,166.963867 C33.4988648,166.963867 34.0479371,167.236816 34.4351441,167.782715 C34.8223512,168.328613 35.0159547,169.113607 35.0159547,170.137695 L35.0159547,170.137695 L35.0159547,170.620117 C35.0159547,171.661133 34.8244671,172.452474 34.4414918,172.994141 C34.0585165,173.535807 33.5115602,173.806641 32.8006227,173.806641 Z M39.8248781,175 L39.8248781,171.438965 L41.6149172,171.438965 L43.4684328,175 L45.1886477,175 L45.1886477,174.91748 L43.1129641,171.064453 C43.6461672,170.840169 44.0619387,170.519613 44.3602785,170.102783 C44.6586184,169.685954 44.8077883,169.16862 44.8077883,168.550781 C44.8077883,167.645182 44.517912,166.953288 43.9381594,166.475098 C43.3584068,165.996908 42.5353273,165.757812 41.4689211,165.757812 L41.4689211,165.757812 L38.2189211,165.757812 L38.2189211,175 L39.8248781,175 Z M41.4752687,170.150391 L39.8248781,170.150391 L39.8248781,167.052734 L41.5197023,167.052734 C42.0782961,167.061198 42.4982993,167.200846 42.7797121,167.47168 C43.0611249,167.742513 43.2018312,168.125488 43.2018312,168.620605 C43.2018312,169.094564 43.0494875,169.468018 42.7448,169.740967 C42.4401125,170.013916 42.0169354,170.150391 41.4752687,170.150391 L41.4752687,170.150391 Z M49.8071414,175 L49.8071414,167.052734 L52.6889773,167.052734 L52.6889773,165.757812 L45.3574344,165.757812 L45.3574344,167.052734 L48.2138797,167.052734 L48.2138797,175 L49.8071414,175 Z M55.5047367,175 L55.5047367,171.083496 L59.2244633,171.083496 L59.2244633,169.80127 L55.5047367,169.80127 L55.5047367,167.052734 L59.7703617,167.052734 L59.7703617,165.757812 L53.8987797,165.757812 L53.8987797,175 L55.5047367,175 Z M64.5919805,175.126953 C65.3494674,175.126953 66.0191452,174.943929 66.6010137,174.577881 C67.1828822,174.211833 67.6303919,173.687093 67.943543,173.003662 C68.256694,172.320231 68.4132695,171.525716 68.4132695,170.620117 L68.4132695,170.620117 L68.4132695,170.105957 C68.4090378,169.20459 68.2482305,168.414307 67.9308477,167.735107 C67.6134648,167.055908 67.1638392,166.5354 66.5819707,166.173584 C66.0001022,165.811768 65.3325404,165.630859 64.5792852,165.630859 C63.8260299,165.630859 63.1584681,165.813883 62.5765996,166.179932 C61.9947311,166.54598 61.5440475,167.073893 61.2245488,167.763672 C60.9050501,168.453451 60.7453008,169.249023 60.7453008,170.150391 L60.7453008,170.150391 L60.7453008,170.670898 C60.7495326,171.555339 60.9113978,172.3361 61.2308965,173.013184 C61.5503952,173.690267 62.0031947,174.211833 62.5892949,174.577881 C63.1753952,174.943929 63.842957,175.126953 64.5919805,175.126953 Z M64.5919805,173.806641 C63.8895065,173.806641 63.3404342,173.52946 62.9447637,172.975098 C62.5490931,172.420736 62.3512578,171.635742 62.3512578,170.620117 L62.3512578,170.620117 L62.3512578,170.086914 C62.3597214,169.092448 62.5596725,168.323324 62.9511113,167.779541 C63.3425501,167.235758 63.8852747,166.963867 64.5792852,166.963867 C65.2902227,166.963867 65.8392949,167.236816 66.226502,167.782715 C66.613709,168.328613 66.8073125,169.113607 66.8073125,170.137695 L66.8073125,170.137695 L66.8073125,170.620117 C66.8073125,171.661133 66.6158249,172.452474 66.2328496,172.994141 C65.8498743,173.535807 65.302918,173.806641 64.5919805,173.806641 Z M75.8120367,175 L75.8120367,173.717773 L71.6162359,173.717773 L71.6162359,165.757812 L70.0102789,165.757812 L70.0102789,175 L75.8120367,175 Z M78.7357062,175 L78.7357062,165.757812 L77.1360969,165.757812 L77.1360969,175 L78.7357062,175 Z M84.2619148,175.126953 C85.0194018,175.126953 85.6890796,174.943929 86.270948,174.577881 C86.8528165,174.211833 87.3003263,173.687093 87.6134773,173.003662 C87.9266284,172.320231 88.0832039,171.525716 88.0832039,170.620117 L88.0832039,170.620117 L88.0832039,170.105957 C88.0789721,169.20459 87.9181648,168.414307 87.600782,167.735107 C87.2833992,167.055908 86.8337736,166.5354 86.2519051,166.173584 C85.6700366,165.811768 85.0024747,165.630859 84.2492195,165.630859 C83.4959643,165.630859 82.8284025,165.813883 82.246534,166.179932 C81.6646655,166.54598 81.2139819,167.073893 80.8944832,167.763672 C80.5749845,168.453451 80.4152352,169.249023 80.4152352,170.150391 L80.4152352,170.150391 L80.4152352,170.670898 C80.4194669,171.555339 80.5813322,172.3361 80.9008309,173.013184 C81.2203296,173.690267 81.673129,174.211833 82.2592293,174.577881 C82.8453296,174.943929 83.5128914,175.126953 84.2619148,175.126953 Z M84.2619148,173.806641 C83.5594409,173.806641 83.0103686,173.52946 82.614698,172.975098 C82.2190275,172.420736 82.0211922,171.635742 82.0211922,170.620117 L82.0211922,170.620117 L82.0211922,170.086914 C82.0296557,169.092448 82.2296069,168.323324 82.6210457,167.779541 C83.0124845,167.235758 83.5552091,166.963867 84.2492195,166.963867 C84.960157,166.963867 85.5092293,167.236816 85.8964363,167.782715 C86.2836434,168.328613 86.4772469,169.113607 86.4772469,170.137695 L86.4772469,170.137695 L86.4772469,170.620117 C86.4772469,171.661133 86.2857592,172.452474 85.902784,172.994141 C85.5198087,173.535807 84.9728523,173.806641 84.2619148,173.806641 Z M93.2005625,175.793457 L96.8377695,165.757812 L95.6253672,165.757812 L91.9881602,175.793457 L93.2005625,175.793457 Z M104.716359,175.126953 C105.77007,175.126953 106.614308,174.85083 107.249073,174.298584 C107.883839,173.746338 108.247771,172.977214 108.34087,171.991211 L108.34087,171.991211 L106.741261,171.991211 C106.656626,172.651367 106.455616,173.12321 106.138234,173.406738 C105.820851,173.690267 105.346892,173.832031 104.716359,173.832031 C104.02658,173.832031 103.502898,173.569661 103.145314,173.044922 C102.787729,172.520182 102.608937,171.758464 102.608937,170.759766 L102.608937,170.759766 L102.608937,169.940918 C102.6174,168.954915 102.808888,168.20695 103.1834,167.697021 C103.557911,167.187093 104.094288,166.932129 104.79253,166.932129 C105.393442,166.932129 105.849415,167.079183 106.16045,167.373291 C106.471486,167.667399 106.665089,168.146647 106.741261,168.811035 L106.741261,168.811035 L108.34087,168.811035 C108.239308,167.799642 107.877491,167.016764 107.255421,166.462402 C106.633351,165.90804 105.812387,165.630859 104.79253,165.630859 C104.035043,165.630859 103.367482,165.81071 102.789845,166.17041 C102.212208,166.530111 101.76893,167.042155 101.460011,167.706543 C101.151092,168.370931 100.996632,169.138997 100.996632,170.010742 L100.996632,170.010742 L100.996632,170.874023 C101.009327,171.724609 101.168019,172.471517 101.472706,173.114746 C101.777394,173.757975 102.210092,174.25415 102.770802,174.603271 C103.331512,174.952393 103.98003,175.126953 104.716359,175.126953 Z M113.327528,175.126953 C114.085015,175.126953 114.754693,174.943929 115.336561,174.577881 C115.91843,174.211833 116.36594,173.687093 116.679091,173.003662 C116.992242,172.320231 117.148817,171.525716 117.148817,170.620117 L117.148817,170.620117 L117.148817,170.105957 C117.144585,169.20459 116.983778,168.414307 116.666395,167.735107 C116.349013,167.055908 115.899387,166.5354 115.317518,166.173584 C114.73565,165.811768 114.068088,165.630859 113.314833,165.630859 C112.561578,165.630859 111.894016,165.813883 111.312147,166.179932 C110.730279,166.54598 110.279595,167.073893 109.960096,167.763672 C109.640598,168.453451 109.480848,169.249023 109.480848,170.150391 L109.480848,170.150391 L109.480848,170.670898 C109.48508,171.555339 109.646945,172.3361 109.966444,173.013184 C110.285943,173.690267 110.738742,174.211833 111.324843,174.577881 C111.910943,174.943929 112.578505,175.126953 113.327528,175.126953 Z M113.327528,173.806641 C112.625054,173.806641 112.075982,173.52946 111.680311,172.975098 C111.284641,172.420736 111.086805,171.635742 111.086805,170.620117 L111.086805,170.620117 L111.086805,170.086914 C111.095269,169.092448 111.29522,168.323324 111.686659,167.779541 C112.078098,167.235758 112.620822,166.963867 113.314833,166.963867 C114.02577,166.963867 114.574843,167.236816 114.96205,167.782715 C115.349257,168.328613 115.54286,169.113607 115.54286,170.137695 L115.54286,170.137695 L115.54286,170.620117 C115.54286,171.661133 115.351373,172.452474 114.968397,172.994141 C114.585422,173.535807 114.038466,173.806641 113.327528,173.806641 Z M121.405495,175 C122.239153,175 122.978655,174.82015 123.624,174.460449 C124.269345,174.100749 124.766579,173.588704 125.1157,172.924316 C125.464821,172.259928 125.639381,171.489746 125.639381,170.61377 L125.639381,170.61377 L125.639381,170.150391 C125.639381,169.287109 125.465879,168.521159 125.118873,167.852539 C124.771868,167.183919 124.282041,166.667643 123.649391,166.303711 C123.016741,165.939779 122.292051,165.757812 121.475319,165.757812 L121.475319,165.757812 L118.745827,165.757812 L118.745827,175 L121.405495,175 Z M121.399147,173.717773 L120.351784,173.717773 L120.351784,167.052734 L121.475319,167.052734 C122.304746,167.052734 122.937396,167.31722 123.373268,167.846191 C123.80914,168.375163 124.027077,169.141113 124.027077,170.144043 L124.027077,170.144043 L124.027077,170.658203 C124.018613,171.644206 123.789039,172.400635 123.338356,172.92749 C122.887672,173.454346 122.241269,173.717773 121.399147,173.717773 L121.399147,173.717773 Z M128.931215,175 L128.931215,165.757812 L127.331605,165.757812 L127.331605,175 L128.931215,175 Z M132.508693,175 L132.508693,168.442871 L136.628322,175 L138.234279,175 L138.234279,165.757812 L136.641017,165.757812 L136.641017,172.340332 L132.508693,165.757812 L130.902736,165.757812 L130.902736,175 L132.508693,175 Z M143.804921,175.126953 C144.558176,175.126953 145.231028,175.014811 145.823476,174.790527 C146.415924,174.566243 146.879303,174.236165 147.213613,173.800293 L147.213613,173.800293 L147.213613,170.258301 L143.709706,170.258301 L143.709706,171.477051 L145.614003,171.477051 L145.614003,173.286133 C145.266998,173.658529 144.683014,173.844727 143.86205,173.844727 C143.113027,173.844727 142.527984,173.568604 142.106923,173.016357 C141.685862,172.464111 141.475331,171.688639 141.475331,170.689941 L141.475331,170.689941 L141.475331,169.979004 C141.488027,168.976074 141.68163,168.215413 142.056142,167.697021 C142.430654,167.17863 142.97761,166.919434 143.697011,166.919434 C144.809967,166.919434 145.455312,167.475911 145.633046,168.588867 L145.633046,168.588867 L147.207265,168.588867 C147.084543,167.632487 146.720611,166.900391 146.115468,166.392578 C145.510325,165.884766 144.693593,165.630859 143.665273,165.630859 C142.467682,165.630859 141.534576,166.023356 140.865956,166.80835 C140.197336,167.593343 139.863027,168.684082 139.863027,170.080566 L139.863027,170.080566 L139.863027,170.804199 C139.875722,171.675944 140.043935,172.438721 140.367665,173.092529 C140.691396,173.746338 141.151601,174.248861 141.74828,174.600098 C142.34496,174.951335 143.030507,175.126953 143.804921,175.126953 Z M154.870034,175 C155.703692,175 156.443194,174.82015 157.088539,174.460449 C157.733885,174.100749 158.231118,173.588704 158.580239,172.924316 C158.92936,172.259928 159.10392,171.489746 159.10392,170.61377 L159.10392,170.61377 L159.10392,170.150391 C159.10392,169.287109 158.930418,168.521159 158.583413,167.852539 C158.236407,167.183919 157.74658,166.667643 157.11393,166.303711 C156.48128,165.939779 155.75659,165.757812 154.939858,165.757812 L154.939858,165.757812 L152.210366,165.757812 L152.210366,175 L154.870034,175 Z M154.863686,173.717773 L153.816323,173.717773 L153.816323,167.052734 L154.939858,167.052734 C155.769285,167.052734 156.401935,167.31722 156.837807,167.846191 C157.273679,168.375163 157.491616,169.141113 157.491616,170.144043 L157.491616,170.144043 L157.491616,170.658203 C157.483152,171.644206 157.253579,172.400635 156.802895,172.92749 C156.352211,173.454346 155.705808,173.717773 154.863686,173.717773 L154.863686,173.717773 Z M166.743898,175 L166.743898,173.717773 L162.306887,173.717773 L162.306887,170.874023 L166.102785,170.874023 L166.102785,169.604492 L162.306887,169.604492 L162.306887,167.052734 L166.699465,167.052734 L166.699465,165.757812 L160.70093,165.757812 L160.70093,175 L166.743898,175 Z M169.648525,175 L169.648525,171.953125 L169.489834,167.884277 L172.212978,175 L173.361904,175 L176.091396,167.87793 L175.932705,171.953125 L175.932705,175 L177.532314,175 L177.532314,165.757812 L175.45663,165.757812 L172.796963,172.841797 L170.130947,165.757812 L168.048916,165.757812 L168.048916,175 L169.648525,175 Z M182.982351,175.126953 C183.739838,175.126953 184.409515,174.943929 184.991384,174.577881 C185.573252,174.211833 186.020762,173.687093 186.333913,173.003662 C186.647064,172.320231 186.80364,171.525716 186.80364,170.620117 L186.80364,170.620117 L186.80364,170.105957 C186.799408,169.20459 186.638601,168.414307 186.321218,167.735107 C186.003835,167.055908 185.55421,166.5354 184.972341,166.173584 C184.390473,165.811768 183.722911,165.630859 182.969655,165.630859 C182.2164,165.630859 181.548838,165.813883 180.96697,166.179932 C180.385101,166.54598 179.934418,167.073893 179.614919,167.763672 C179.29542,168.453451 179.135671,169.249023 179.135671,170.150391 L179.135671,170.150391 L179.135671,170.670898 C179.139903,171.555339 179.301768,172.3361 179.621267,173.013184 C179.940765,173.690267 180.393565,174.211833 180.979665,174.577881 C181.565765,174.943929 182.233327,175.126953 182.982351,175.126953 Z M182.982351,173.806641 C182.279877,173.806641 181.730805,173.52946 181.335134,172.975098 C180.939463,172.420736 180.741628,171.635742 180.741628,170.620117 L180.741628,170.620117 L180.741628,170.086914 C180.750092,169.092448 180.950043,168.323324 181.341482,167.779541 C181.73292,167.235758 182.275645,166.963867 182.969655,166.963867 C183.680593,166.963867 184.229665,167.236816 184.616872,167.782715 C185.004079,168.328613 185.197683,169.113607 185.197683,170.137695 L185.197683,170.137695 L185.197683,170.620117 C185.197683,171.661133 185.006195,172.452474 184.62322,172.994141 C184.240245,173.535807 183.693288,173.806641 182.982351,173.806641 Z M191.549087,175.126953 C192.56048,175.126953 193.361343,174.899495 193.951675,174.44458 C194.542007,173.989665 194.837173,173.377116 194.837173,172.606934 C194.837173,172.132975 194.73561,171.71932 194.532485,171.365967 C194.32936,171.012614 194.009861,170.699463 193.573989,170.426514 C193.138117,170.153564 192.56048,169.910238 191.841079,169.696533 C191.121678,169.482829 190.605402,169.262777 190.292251,169.036377 C189.9791,168.809977 189.822524,168.527507 189.822524,168.188965 C189.822524,167.786947 189.967462,167.473796 190.257339,167.249512 C190.547215,167.025228 190.954523,166.913086 191.479263,166.913086 C192.042088,166.913086 192.474787,167.049561 192.777358,167.32251 C193.07993,167.595459 193.231216,167.973145 193.231216,168.455566 L193.231216,168.455566 L194.830825,168.455566 C194.830825,167.922363 194.686945,167.436768 194.399184,166.998779 C194.111424,166.560791 193.715753,166.223307 193.212173,165.986328 C192.708592,165.749349 192.135187,165.630859 191.491958,165.630859 C190.522882,165.630859 189.734715,165.87207 189.127456,166.354492 C188.520197,166.836914 188.216567,167.450521 188.216567,168.195312 C188.216567,169.045898 188.637628,169.735677 189.479751,170.264648 C189.919855,170.539714 190.512303,170.789388 191.257095,171.013672 C192.001886,171.237956 192.517104,171.460124 192.802749,171.680176 C193.088393,171.900228 193.231216,172.213379 193.231216,172.619629 C193.231216,172.992025 193.090509,173.291423 192.809096,173.517822 C192.527684,173.744222 192.10768,173.857422 191.549087,173.857422 C190.901626,173.857422 190.404393,173.713542 190.057388,173.425781 C189.710382,173.138021 189.53688,172.731771 189.53688,172.207031 L189.53688,172.207031 L187.930923,172.207031 C187.930923,172.786784 188.08644,173.294596 188.397475,173.730469 C188.708511,174.166341 189.144383,174.508057 189.705093,174.755615 C190.265802,175.003174 190.880467,175.126953 191.549087,175.126953 Z M199.764102,175.793457 L203.401309,165.757812 L202.188906,165.757812 L198.551699,175.793457 L199.764102,175.793457 Z M211.279898,175.126953 C212.333609,175.126953 213.177847,174.85083 213.812613,174.298584 C214.447378,173.746338 214.81131,172.977214 214.904409,171.991211 L214.904409,171.991211 L213.3048,171.991211 C213.220165,172.651367 213.019155,173.12321 212.701773,173.406738 C212.38439,173.690267 211.910432,173.832031 211.279898,173.832031 C210.590119,173.832031 210.066437,173.569661 209.708853,173.044922 C209.351268,172.520182 209.172476,171.758464 209.172476,170.759766 L209.172476,170.759766 L209.172476,169.940918 C209.180939,168.954915 209.372427,168.20695 209.746939,167.697021 C210.12145,167.187093 210.657827,166.932129 211.35607,166.932129 C211.956981,166.932129 212.412954,167.079183 212.723989,167.373291 C213.035025,167.667399 213.228628,168.146647 213.3048,168.811035 L213.3048,168.811035 L214.904409,168.811035 C214.802847,167.799642 214.44103,167.016764 213.81896,166.462402 C213.19689,165.90804 212.375926,165.630859 211.35607,165.630859 C210.598583,165.630859 209.931021,165.81071 209.353384,166.17041 C208.775747,166.530111 208.332469,167.042155 208.02355,167.706543 C207.714631,168.370931 207.560171,169.138997 207.560171,170.010742 L207.560171,170.010742 L207.560171,170.874023 C207.572866,171.724609 207.731558,172.471517 208.036245,173.114746 C208.340933,173.757975 208.773631,174.25415 209.334341,174.603271 C209.895051,174.952393 210.54357,175.126953 211.279898,175.126953 Z M217.180618,175 L217.929641,172.848145 L221.50972,172.848145 L222.265091,175 L223.940872,175 L220.443313,165.757812 L219.002395,165.757812 L215.511184,175 L217.180618,175 Z M221.059036,171.553223 L218.380325,171.553223 L219.71968,167.719238 L221.059036,171.553223 Z M228.134073,175.126953 C229.145466,175.126953 229.946329,174.899495 230.536661,174.44458 C231.126993,173.989665 231.422159,173.377116 231.422159,172.606934 C231.422159,172.132975 231.320596,171.71932 231.117471,171.365967 C230.914346,171.012614 230.594847,170.699463 230.158975,170.426514 C229.723103,170.153564 229.145466,169.910238 228.426065,169.696533 C227.706664,169.482829 227.190388,169.262777 226.877237,169.036377 C226.564086,168.809977 226.40751,168.527507 226.40751,168.188965 C226.40751,167.786947 226.552448,167.473796 226.842325,167.249512 C227.132201,167.025228 227.539509,166.913086 228.064248,166.913086 C228.627074,166.913086 229.059773,167.049561 229.362344,167.32251 C229.664916,167.595459 229.816202,167.973145 229.816202,168.455566 L229.816202,168.455566 L231.415811,168.455566 C231.415811,167.922363 231.271931,167.436768 230.98417,166.998779 C230.69641,166.560791 230.300739,166.223307 229.797159,165.986328 C229.293578,165.749349 228.720173,165.630859 228.076944,165.630859 C227.107868,165.630859 226.319701,165.87207 225.712442,166.354492 C225.105183,166.836914 224.801553,167.450521 224.801553,168.195312 C224.801553,169.045898 225.222614,169.735677 226.064737,170.264648 C226.504841,170.539714 227.097289,170.789388 227.84208,171.013672 C228.586872,171.237956 229.10209,171.460124 229.387735,171.680176 C229.673379,171.900228 229.816202,172.213379 229.816202,172.619629 C229.816202,172.992025 229.675495,173.291423 229.394082,173.517822 C229.11267,173.744222 228.692666,173.857422 228.134073,173.857422 C227.486612,173.857422 226.989379,173.713542 226.642373,173.425781 C226.295368,173.138021 226.121866,172.731771 226.121866,172.207031 L226.121866,172.207031 L224.515909,172.207031 C224.515909,172.786784 224.671426,173.294596 224.982461,173.730469 C225.293496,174.166341 225.729369,174.508057 226.290079,174.755615 C226.850788,175.003174 227.465453,175.126953 228.134073,175.126953 Z M238.871707,175 L238.871707,173.717773 L234.434695,173.717773 L234.434695,170.874023 L238.230594,170.874023 L238.230594,169.604492 L234.434695,169.604492 L234.434695,167.052734 L238.827273,167.052734 L238.827273,165.757812 L232.828738,165.757812 L232.828738,175 L238.871707,175 Z M246.559866,175.126953 C247.57126,175.126953 248.372122,174.899495 248.962454,174.44458 C249.552786,173.989665 249.847952,173.377116 249.847952,172.606934 C249.847952,172.132975 249.74639,171.71932 249.543265,171.365967 C249.34014,171.012614 249.020641,170.699463 248.584769,170.426514 C248.148896,170.153564 247.57126,169.910238 246.851859,169.696533 C246.132458,169.482829 245.616182,169.262777 245.30303,169.036377 C244.989879,168.809977 244.833304,168.527507 244.833304,168.188965 C244.833304,167.786947 244.978242,167.473796 245.268118,167.249512 C245.557995,167.025228 245.965303,166.913086 246.490042,166.913086 C247.052868,166.913086 247.485566,167.049561 247.788138,167.32251 C248.09071,167.595459 248.241995,167.973145 248.241995,168.455566 L248.241995,168.455566 L249.841605,168.455566 C249.841605,167.922363 249.697724,167.436768 249.409964,166.998779 C249.122204,166.560791 248.726533,166.223307 248.222952,165.986328 C247.719372,165.749349 247.145967,165.630859 246.502737,165.630859 C245.533662,165.630859 244.745495,165.87207 244.138236,166.354492 C243.530976,166.836914 243.227347,167.450521 243.227347,168.195312 C243.227347,169.045898 243.648408,169.735677 244.49053,170.264648 C244.930635,170.539714 245.523083,170.789388 246.267874,171.013672 L246.507635,171.088355 C247.124325,171.2873 247.559622,171.484574 247.813529,171.680176 C248.099173,171.900228 248.241995,172.213379 248.241995,172.619629 C248.241995,172.992025 248.101289,173.291423 247.819876,173.517822 C247.538463,173.744222 247.11846,173.857422 246.559866,173.857422 C245.912405,173.857422 245.415172,173.713542 245.068167,173.425781 C244.721162,173.138021 244.547659,172.731771 244.547659,172.207031 L244.547659,172.207031 L242.941702,172.207031 C242.941702,172.786784 243.09722,173.294596 243.408255,173.730469 C243.71929,174.166341 244.155163,174.508057 244.715872,174.755615 C245.276582,175.003174 245.891247,175.126953 246.559866,175.126953 Z M255.05043,175 L255.05043,167.052734 L257.932266,167.052734 L257.932266,165.757812 L250.600723,165.757812 L250.600723,167.052734 L253.457169,167.052734 L253.457169,175 L255.05043,175 Z M262.449198,175.126953 C263.494445,175.126953 264.331278,174.840251 264.959696,174.266846 C265.588114,173.693441 265.902323,172.915853 265.902323,171.934082 L265.902323,171.934082 L265.902323,165.757812 L264.302713,165.757812 L264.302713,171.889648 C264.302713,173.193034 263.684875,173.844727 262.449198,173.844727 C261.839823,173.844727 261.37856,173.681803 261.065409,173.355957 C260.752258,173.030111 260.595682,172.558268 260.595682,171.94043 L260.595682,171.94043 L260.595682,165.757812 L258.996073,165.757812 L258.996073,171.927734 C258.996073,172.930664 259.307108,173.7146 259.929178,174.279541 C260.551248,174.844482 261.391255,175.126953 262.449198,175.126953 Z M270.273258,175 C271.106917,175 271.846419,174.82015 272.491764,174.460449 C273.137109,174.100749 273.634342,173.588704 273.983463,172.924316 C274.332584,172.259928 274.507145,171.489746 274.507145,170.61377 L274.507145,170.61377 L274.507145,170.150391 C274.507145,169.287109 274.333642,168.521159 273.986637,167.852539 C273.639632,167.183919 273.149804,166.667643 272.517154,166.303711 C271.884505,165.939779 271.159814,165.757812 270.343082,165.757812 L270.343082,165.757812 L267.61359,165.757812 L267.61359,175 L270.273258,175 Z M270.26691,173.717773 L269.219547,173.717773 L269.219547,167.052734 L270.343082,167.052734 C271.172509,167.052734 271.805159,167.31722 272.241031,167.846191 C272.676904,168.375163 272.89484,169.141113 272.89484,170.144043 L272.89484,170.144043 L272.89484,170.658203 C272.886376,171.644206 272.656803,172.400635 272.206119,172.92749 C271.755436,173.454346 271.109033,173.717773 270.26691,173.717773 L270.26691,173.717773 Z M277.798978,175 L277.798978,165.757812 L276.199369,165.757812 L276.199369,175 L277.798978,175 Z M285.813468,175 L285.813468,173.717773 L281.376456,173.717773 L281.376456,170.874023 L285.172355,170.874023 L285.172355,169.604492 L281.376456,169.604492 L281.376456,167.052734 L285.769034,167.052734 L285.769034,165.757812 L279.770499,165.757812 L279.770499,175 L285.813468,175 Z M290.266923,175.126953 C291.278316,175.126953 292.079179,174.899495 292.669511,174.44458 C293.259843,173.989665 293.555009,173.377116 293.555009,172.606934 C293.555009,172.132975 293.453446,171.71932 293.250321,171.365967 C293.047196,171.012614 292.727697,170.699463 292.291825,170.426514 C291.855953,170.153564 291.278316,169.910238 290.558915,169.696533 C289.839514,169.482829 289.323238,169.262777 289.010087,169.036377 C288.696936,168.809977 288.54036,168.527507 288.54036,168.188965 C288.54036,167.786947 288.685298,167.473796 288.975175,167.249512 C289.265051,167.025228 289.672359,166.913086 290.197098,166.913086 C290.759924,166.913086 291.192623,167.049561 291.495194,167.32251 C291.797766,167.595459 291.949052,167.973145 291.949052,168.455566 L291.949052,168.455566 L293.548661,168.455566 C293.548661,167.922363 293.404781,167.436768 293.11702,166.998779 C292.82926,166.560791 292.433589,166.223307 291.930009,165.986328 C291.426428,165.749349 290.853023,165.630859 290.209794,165.630859 C289.240718,165.630859 288.452551,165.87207 287.845292,166.354492 C287.238033,166.836914 286.934403,167.450521 286.934403,168.195312 C286.934403,169.045898 287.355464,169.735677 288.197587,170.264648 C288.637691,170.539714 289.230139,170.789388 289.97493,171.013672 L290.214692,171.088355 C290.831381,171.2873 291.266679,171.484574 291.520585,171.680176 C291.806229,171.900228 291.949052,172.213379 291.949052,172.619629 C291.949052,172.992025 291.808345,173.291423 291.526932,173.517822 C291.24552,173.744222 290.825516,173.857422 290.266923,173.857422 C289.619462,173.857422 289.122229,173.713542 288.775223,173.425781 C288.428218,173.138021 288.254716,172.731771 288.254716,172.207031 L288.254716,172.207031 L286.648759,172.207031 C286.648759,172.786784 286.804276,173.294596 287.115311,173.730469 C287.426346,174.166341 287.862219,174.508057 288.422929,174.755615 C288.983638,175.003174 289.598303,175.126953 290.266923,175.126953 Z" id="sub"></path>
        </g>
    </g>
</svg>