<?xml version="1.0" encoding="UTF-8" standalone="no"?><!DOCTYPE svg PUBLIC "-//W3C//DTD SVG 1.1//EN" "http://www.w3.org/Graphics/SVG/1.1/DTD/svg11.dtd"><svg width="100%" height="100%" viewBox="0 0 363 359" version="1.1" xmlns="http://www.w3.org/2000/svg" xmlns:xlink="http://www.w3.org/1999/xlink" xml:space="preserve" xmlns:serif="http://www.serif.com/" style="fill-rule:evenodd;clip-rule:evenodd;stroke-linejoin:round;stroke-miterlimit:2;"><path d="M353.78,163.178c0,-0 -0.299,-0.395 0,-0c8.535,48.373 -28.917,127.407 -75.145,156.193c-11.452,7.131 -26.893,15.347 -39.741,20.26c-3.99,1.525 -7.981,3.075 -12.078,4.285c-2.907,0.86 -3.769,1.301 -8.27,2.647c0,0 -0.691,-1.088 0,0c-61.762,16.51 -133.673,-16.374 -172.51,-62.647c-14.708,-17.524 -22.939,-36.252 -28.831,-58.052c-1.17,-4.329 -4.54,-16.979 -4.941,-20.04c-0.698,-5.336 -0.644,-13.391 -1.248,-18.738c-1.665,-14.734 -3.251,-38.127 2.337,-52.598c17.425,-45.116 33.469,-75.641 75.196,-102.079c11.923,-7.554 18.109,-11.895 32.03,-17.124c0,0 0.236,0.098 0,0c1.849,-1.418 10.997,-2.019 13.51,-2.54c7.034,-1.457 13.944,-3.545 21.039,-4.675c27.226,-4.337 54.218,-3.608 80.65,4.675c4.231,1.326 15.146,7.587 25.002,13.683c7.352,4.548 14.115,9.004 17.076,11.253c12.012,9.122 25.532,16.795 35.359,28.238c20.052,23.349 40.565,65.16 40.565,97.259Z" style="fill:#fff;"/><clipPath id="_clip1"><path d="M353.78,163.178c0,-0 -0.299,-0.395 0,-0c8.535,48.373 -28.917,127.407 -75.145,156.193c-11.452,7.131 -26.893,15.347 -39.741,20.26c-3.99,1.525 -7.981,3.075 -12.078,4.285c-2.907,0.86 -3.769,1.301 -8.27,2.647c0,0 -0.691,-1.088 0,0c-61.762,16.51 -133.673,-16.374 -172.51,-62.647c-14.708,-17.524 -22.939,-36.252 -28.831,-58.052c-1.17,-4.329 -4.54,-16.979 -4.941,-20.04c-0.698,-5.336 -0.644,-13.391 -1.248,-18.738c-1.665,-14.734 -3.251,-38.127 2.337,-52.598c17.425,-45.116 33.469,-75.641 75.196,-102.079c11.923,-7.554 18.109,-11.895 32.03,-17.124c0,0 0.236,0.098 0,0c1.849,-1.418 10.997,-2.019 13.51,-2.54c7.034,-1.457 13.944,-3.545 21.039,-4.675c27.226,-4.337 54.218,-3.608 80.65,4.675c4.231,1.326 15.146,7.587 25.002,13.683c7.352,4.548 14.115,9.004 17.076,11.253c12.012,9.122 25.532,16.795 35.359,28.238c20.052,23.349 40.565,65.16 40.565,97.259Z"/></clipPath><g clip-path="url(#_clip1)"><path d="M74.633,377.522c0.035,-0.629 0.036,-1.314 0.296,-1.879c1.03,-2.237 2.125,-4.445 3.226,-6.648c1.501,-3.003 3.007,-6.004 4.558,-8.982c0.61,-1.17 1.361,-2.266 2.024,-3.41c1.031,-1.779 1.881,-3.689 3.098,-5.328c1.886,-2.54 3.387,-5.322 5.226,-7.899c1.946,-2.727 3.966,-5.431 5.812,-8.248c1.613,-2.463 3.891,-4.481 5.673,-6.847c2.366,-3.142 5.289,-5.739 7.935,-8.604c2.425,-2.626 5.141,-4.9 7.865,-7.191c2.185,-1.837 4.739,-3.223 6.582,-5.487c0.847,-1.04 1.845,-1.973 2.852,-2.867c2.853,-2.529 5.696,-5.076 8.931,-7.131c0.318,-0.203 0.658,-0.411 0.895,-0.694c0.631,-0.753 0.511,-0.952 -0.433,-1.353c-1.492,-0.635 -2.918,-1.439 -4.433,-2.008c-3.388,-1.273 -6.284,-3.438 -9.378,-5.216c-3.078,-1.768 -6.037,-3.798 -8.988,-5.805c-1.104,-0.751 -2.253,-1.465 -3.369,-2.162c-1.755,-1.096 -2.979,-2.725 -4.648,-3.882c-1.396,-0.968 -2.609,-2.223 -3.816,-3.437c-1.408,-1.414 -2.588,-3.084 -4.115,-4.342c-1.369,-1.128 -2.257,-2.597 -3.39,-3.879c-1.721,-1.947 -3.248,-4.067 -4.814,-6.146c-1.164,-1.544 -2.289,-3.118 -3.378,-4.716c-1.078,-1.581 -2.118,-3.191 -3.123,-4.82c-1.193,-1.934 -2.337,-3.898 -3.488,-5.858c-0.774,-1.319 -1.55,-2.638 -2.279,-3.982c-1.301,-2.403 -2.563,-4.826 -3.85,-7.237c-0.793,-1.484 -1.76,-2.899 -2.36,-4.457c-0.753,-1.952 -1.559,-3.902 -2.358,-5.818c-0.906,-2.173 -1.597,-4.435 -2.609,-6.563c-0.442,-0.93 -0.458,-0.93 -1.075,-0.29c-0.227,0.235 -0.492,0.473 -0.617,0.763c-0.861,1.993 -2.721,2.629 -4.536,3.046c-4.446,1.02 -8.344,-0.318 -11.794,-3.187c-0.914,-0.761 -2.011,-1.334 -2.81,-2.192c-1.559,-1.675 -2.988,-3.47 -4.41,-5.272c-1.245,-1.577 -2.322,-3.219 -3.151,-5.003c-0.933,-2.01 -1.467,-4.164 -1.877,-6.362c-0.593,-3.18 -0.26,-6.368 -0.262,-9.546c-0.001,-1.582 0.645,-3.154 0.766,-4.748c0.191,-2.502 1.732,-4.519 2.274,-6.888c0.133,-0.585 0.66,-1.077 0.986,-1.624c1.659,-2.787 3.518,-5.417 6.022,-7.524c1.168,-0.984 2.33,-1.983 3.571,-2.869c1.002,-0.715 2.23,-0.919 3.426,-1.153c0.207,-0.041 0.565,-0.289 0.546,-0.36c-0.466,-1.774 0.929,-2.831 1.66,-4.079c0.763,-1.303 1.875,-2.402 2.84,-3.586c0.143,-0.174 0.399,-0.294 0.466,-0.486c0.849,-2.42 2.909,-3.845 4.595,-5.561c0.907,-0.923 1.267,-1.883 1.392,-3.188c0.274,-2.86 0.822,-5.691 1.699,-8.45c0.829,-2.607 1.521,-5.257 2.335,-7.868c0.529,-1.699 1.168,-3.365 1.761,-5.044c0.993,-2.816 1.979,-5.635 2.988,-8.445c0.46,-1.28 0.929,-2.559 1.465,-3.809c0.763,-1.779 1.522,-3.567 2.331,-5.316c0.994,-2.148 2.39,-4.116 3.673,-6.123c1.321,-2.066 2.653,-4.132 4.098,-6.111c1.097,-1.504 2.379,-2.872 3.58,-4.299c1.801,-2.142 3.57,-4.312 5.418,-6.413c1.007,-1.145 2.131,-2.191 3.233,-3.25c2.384,-2.294 4.722,-4.642 7.203,-6.826c1.867,-1.643 4.009,-2.973 5.884,-4.609c3.057,-2.669 6.463,-4.834 9.833,-7.048c3.056,-2.007 6.178,-3.918 9.324,-5.781c2.946,-1.743 5.883,-3.538 8.972,-4.995c2.783,-1.311 5.619,-2.537 8.52,-3.626c2.503,-0.94 5.006,-1.865 7.558,-2.656c1.261,-0.392 2.567,-0.633 3.846,-0.97c3.938,-1.038 7.971,-0.42 11.946,-0.712c7.428,-0.547 14.857,-0.171 22.283,-0.302c1.973,-0.035 3.893,0.416 5.837,0.642c4.888,0.568 9.539,2.036 14.217,3.43c2.319,0.691 4.769,1.099 6.93,2.121c1.855,0.877 3.779,1.55 5.639,2.39c2.003,0.904 4.012,1.796 6.051,2.615c2.719,1.092 5.447,2.167 8.21,3.141c3.232,1.14 6.194,2.833 9.234,4.359c4.026,2.021 7.947,4.248 11.545,6.968c1.845,1.394 3.525,3.007 5.257,4.546c1.373,1.22 2.777,2.416 4.053,3.733c2.274,2.346 4.381,4.818 6.055,7.669c1.218,2.075 2.777,3.948 4.158,5.93c0.266,0.381 0.393,0.856 0.613,1.272c1.034,1.95 2.125,3.872 3.108,5.847c1.339,2.691 2.157,5.573 2.944,8.463c0.345,1.267 0.783,2.508 1.145,3.77c0.32,1.117 0.615,2.241 0.882,3.372c0.5,2.123 0.82,4.29 1.249,6.423c0.484,2.404 1.401,4.739 1.473,7.227c0.979,1.295 0.788,2.936 0.903,4.344c0.153,1.854 0.329,3.906 -0.617,5.687c-0.45,0.847 -0.33,1.24 0.446,1.777c1.702,1.179 2.369,2.925 2.326,4.965c-0.041,1.919 0.232,3.792 0.633,5.673c0.186,0.87 -0.137,1.844 -0.203,2.773c-0.051,0.722 -0.091,1.449 -0.067,2.171c0.005,0.159 0.289,0.325 0.465,0.461c1.504,1.156 3.157,2.139 3.634,4.237c0.142,0.622 0.907,1.077 1.25,1.685c0.251,0.444 0.385,1.017 0.376,1.528c-0.012,0.63 -0.548,0.73 -1.095,0.723c-0.077,-0.001 -0.225,0.236 -0.217,0.353c0.008,0.11 0.166,0.235 0.287,0.3c0.087,0.047 0.221,0.012 0.335,0.009c3.295,-0.105 6.377,0.915 8.639,3.039c0.773,0.726 1.166,1.876 1.971,2.545c1.707,1.42 2.444,3.357 3.166,5.305c0.33,0.889 0.43,1.883 0.516,2.84c0.163,1.817 0.438,3.657 0.301,5.459c-0.146,1.913 -0.48,3.828 -0.842,5.734c-0.592,3.109 -1.805,5.933 -3.19,8.713c-1.447,2.903 -3.661,5.165 -6.197,7.133c-1.113,0.865 -2.235,1.719 -3.344,2.588c-0.91,0.714 -1.876,1.131 -3.089,1.187c-1.556,0.073 -3.1,0.407 -4.644,0.657c-0.145,0.023 -0.361,0.246 -0.367,0.384c-0.035,0.791 -0.231,1.669 0.04,2.354c0.307,0.777 0.237,1.506 0.278,2.26c0.126,2.274 0.467,4.567 0.29,6.819c-0.267,3.393 -0.162,6.836 -1.264,10.156c-0.568,1.708 -0.657,3.57 -1.078,5.335c-0.389,1.635 -0.797,3.29 -1.436,4.837c-1.238,2.998 -2.663,5.917 -3.976,8.884c-1.27,2.871 -2.315,5.859 -3.808,8.606c-0.953,1.754 -1.808,3.6 -3.195,5.159c-1.787,2.01 -3.2,4.348 -4.916,6.428c-1.537,1.863 -3.133,3.66 -5.009,5.257c-1.63,1.387 -3.429,2.445 -5.165,3.621c-0.986,0.667 -2.132,1.134 -3.259,1.544c-0.808,0.294 -1.43,0.758 -1.981,1.367c-1.734,1.917 -4.003,3.083 -6.129,4.466c-2.31,1.504 -4.825,2.558 -7.298,3.717c-0.809,0.38 -1.527,0.955 -2.335,1.336c-2.325,1.095 -4.751,1.931 -7.188,2.742c-0.791,0.263 -1.563,0.615 -2.294,1.017c-1.747,0.963 -3.715,1.157 -5.581,1.707c-1.352,0.399 -2.64,1.011 -3.981,1.453c-0.856,0.282 -1.64,0.693 -2.452,1.058c-1.189,0.535 -2.488,0.827 -3.745,1.205c-2.214,0.666 -4.394,1.438 -6.405,2.575c-1.831,1.035 -3.778,1.419 -5.834,1.517c-0.693,0.033 -1.379,0.209 -2.064,0.344c-0.03,0.006 -0.073,0.33 -0.005,0.39c0.859,0.777 1.704,1.577 2.619,2.284c2.017,1.558 4.308,2.757 6.048,4.682c0.392,0.434 0.941,0.724 1.407,1.094c0.429,0.339 0.845,0.696 1.266,1.046c0.211,-0.455 0.401,-0.921 0.638,-1.362c0.435,-0.808 2.15,-1.562 3.005,-1.189c0.571,0.249 0.848,0.104 1.308,-0.202c1.408,-0.94 2.887,-1.772 4.325,-2.667c2.279,-1.418 4.456,-2.947 5.982,-5.242c0.368,-0.553 0.845,-1.17 1.42,-1.424c1.785,-0.789 2.21,-2.42 2.596,-4.013c0.189,-0.777 0.418,-1.427 0.965,-1.99c0.181,-0.187 0.472,-0.552 0.412,-0.647c-0.957,-1.523 0.467,-0.892 0.904,-0.948c2.169,-0.28 4.059,0.816 6.046,1.382c0.677,0.193 1.254,0.855 1.794,1.386c2.255,2.215 4.479,4.461 6.714,6.696c0.12,0.121 0.242,0.239 0.36,0.361c2.803,2.915 5.632,5.806 8.395,8.759c1.195,1.277 2.236,2.699 3.383,4.024c0.548,0.633 1.176,1.198 1.774,1.787c3.229,3.179 5.497,7.086 7.984,10.802c2.688,4.019 4.771,8.405 6.853,12.776c1.556,3.267 2.976,6.586 4.114,10.015c0.565,1.702 0.844,3.497 1.32,5.232c0.305,1.11 0.631,2.235 1.131,3.265c0.694,1.432 1.279,2.87 1.606,4.439c0.167,0.799 0.567,1.595 1.029,2.28c1.338,1.981 1.699,4.29 2.34,6.509c0.204,0.706 0.483,1.39 0.666,2.1c0.161,0.626 0.237,1.273 0.35,1.996c-15.232,0.085 -30.463,0.085 -45.78,0c-0.198,-0.604 -0.328,-1.12 -0.421,-1.643c-0.348,-1.952 -0.441,-3.991 -1.086,-5.838c-0.756,-2.165 -1.193,-4.328 -1.309,-6.591c-0.008,-0.155 -0.205,-0.301 -0.314,-0.452c-0.117,0.143 -0.346,0.296 -0.334,0.426c0.077,0.805 0.284,1.604 0.305,2.408c0.033,1.317 -0.1,2.622 -0.263,3.942c-0.318,2.588 -0.287,5.22 -0.4,7.833c-41.278,0 -82.556,0 -123.919,-0.085c-0.085,-2.397 -0.079,-4.71 -0.095,-7.023c-0.001,-0.219 -0.136,-0.438 -0.209,-0.656c-0.154,0.218 -0.375,0.416 -0.448,0.659c-0.258,0.855 -0.447,1.732 -0.696,2.59c-0.438,1.509 -0.902,3.011 -1.355,4.515l-42.722,0m-8.408,-212.336c-0.389,0.69 0.274,1.032 0.498,1.522c0.37,0.809 0.623,1.694 1.119,2.414c0.333,0.484 0.007,0.613 -0.193,0.728c-0.555,0.318 -2.145,-0.228 -2.636,-0.766c-1.311,-1.438 -2.407,-3.037 -4.245,-4.008c-1.443,-0.762 -2.917,-1.155 -4.372,-0.842c-1.61,0.346 -3.175,1.088 -4.643,1.875c-2.707,1.452 -4.605,3.74 -6.113,6.389c-0.479,0.843 -0.853,1.645 -1.09,2.626c-0.23,0.956 0.129,1.971 -0.278,2.751c-1.237,2.367 -0.915,4.971 -1.253,7.45c-0.397,2.916 -0.318,5.899 -0.387,8.854c-0.016,0.686 0.162,1.389 0.329,2.065c0.505,2.041 0.97,4.041 1.933,6c1.237,2.519 2.925,4.635 4.686,6.697c1.843,2.157 3.979,4.018 6.573,5.378c1.642,0.861 3.172,0.975 4.847,0.589c2.23,-0.515 4.137,-1.769 6.175,-2.728c0.505,-0.237 0.682,-0.464 0.573,-0.942c-0.177,-0.772 -0.417,-1.531 -0.577,-2.306c-0.28,-1.361 -0.669,-2.722 -0.747,-4.098c-0.201,-3.516 -0.256,-7.039 -0.369,-10.559c-0.005,-0.17 -0.034,-0.348 0.005,-0.509c0.194,-0.797 -0.23,-1.44 -0.831,-1.668c-1.77,-0.671 -2.842,-2.203 -4.199,-3.337c-1.916,-1.602 -3.513,-3.593 -5.2,-5.459c-0.416,-0.46 -0.679,-1.069 -0.95,-1.639c-0.042,-0.088 0.224,-0.454 0.391,-0.49c1.111,-0.241 1.876,0.499 2.559,1.144c1.044,0.986 1.895,2.174 2.917,3.187c1.304,1.292 2.679,2.514 4.061,3.724c0.451,0.396 1.102,1.008 1.512,0.908c0.705,-0.172 0.383,-1.045 0.405,-1.628c0.046,-1.207 -0.135,-2.436 0.357,-3.593c0.102,-0.241 0.302,-0.441 0.458,-0.66c0.184,0.178 0.441,0.322 0.542,0.538c0.734,1.573 1.887,2.953 1.781,4.9c-0.037,0.673 0.315,1.322 0.045,2.136c-0.228,0.687 0.134,1.568 0.217,2.365c0.016,0.153 -0.061,0.313 -0.084,0.471c-0.085,0.588 -0.405,1.286 -0.198,1.743c0.398,0.878 0.221,1.735 0.285,2.6c0.025,0.337 -0.079,0.709 0.03,1.009c1.188,3.244 1.155,6.732 2.025,10.034c0.454,1.726 1.009,3.428 1.576,5.121c0.315,0.94 0.779,1.83 1.123,2.762c0.682,1.847 1.2,3.854 3.906,3.317c0.141,-0.028 0.312,0.052 0.46,0.108c1.661,0.635 1.989,2.274 0.68,3.488c-0.168,0.156 -0.247,0.663 -0.738,0.245c-0.227,-0.193 -0.733,-0.059 -1.113,-0.074c0.183,0.285 0.433,0.547 0.537,0.857c0.612,1.823 1.386,3.55 2.677,5.011c0.168,0.19 0.287,0.449 0.36,0.696c0.655,2.194 2.173,3.947 3.053,6.04c0.589,1.399 1.625,2.606 2.409,3.93c2.239,3.785 4.314,7.671 6.918,11.231c2.194,3.001 4.291,6.082 6.637,8.96c2.204,2.704 4.586,5.282 7.063,7.741c1.893,1.88 3.794,3.788 6.117,5.203c0.743,0.453 1.175,1.477 1.938,1.829c2.397,1.102 4.147,3.183 6.588,4.184c0.194,0.079 0.377,0.191 0.553,0.306c1.962,1.278 3.933,2.544 5.88,3.846c2.069,1.383 4.455,2.107 6.669,3.187c0.715,0.348 1.35,0.836 2.079,1.121c2.535,0.991 5.132,1.832 7.625,2.915c4.993,2.169 10.227,3.389 15.567,4.246c1.015,0.163 2.044,0.241 3.055,0.425c2.205,0.403 4.387,0.976 6.607,1.24c1.974,0.234 3.974,0.032 5.978,0.326c2.298,0.337 4.649,-0.045 6.995,0.332c2.063,0.332 4.202,-0.02 6.313,0.355c1.317,0.235 2.71,0.062 4.069,0.039c1.265,-0.022 2.5,0.224 3.802,0.063c1.841,-0.228 3.734,0.016 5.597,-0.085c1.225,-0.066 2.441,-0.358 3.651,-0.599c1.668,-0.333 3.345,-0.647 4.984,-1.095c1.206,-0.329 2.37,-0.831 3.532,-1.306c2.478,-1.012 4.564,-2.792 7.212,-3.517c1.652,-0.451 3.191,-1.307 4.794,-1.945c3.452,-1.373 6.915,-2.717 10.369,-4.086c0.68,-0.27 1.363,-0.551 2.002,-0.905c1.661,-0.919 3.207,-2.129 4.964,-2.777c3.714,-1.369 6.87,-3.678 10.237,-5.633c1.332,-0.774 2.524,-1.818 3.905,-2.474c1.816,-0.864 3.444,-1.969 4.912,-3.293c3.449,-3.111 6.247,-6.782 8.91,-10.568c1.303,-1.853 2.826,-3.561 4.023,-5.477c1.277,-2.044 2.369,-4.217 3.395,-6.402c1.4,-2.983 2.656,-6.033 3.985,-9.05c1.563,-3.55 3.351,-7.011 4.092,-10.877c0.44,-2.297 0.894,-4.598 1.506,-6.853c0.329,-1.212 0.143,-2.419 0.332,-3.601c0.337,-2.107 0.513,-4.221 0.699,-6.343c0.172,-1.96 -0.621,-3.797 -0.217,-5.834c0.332,-1.677 -0.425,-3.541 -0.485,-5.329c-0.178,-5.33 -0.247,-10.664 -0.367,-15.996c-0.011,-0.493 -0.08,-0.985 -0.119,-1.477c-0.073,-0.933 -0.428,-1.958 -0.16,-2.78c0.649,-1.99 -0.132,-4.071 0.596,-6.032c0.184,-0.495 0.135,-0.922 -0.758,-0.538c-1.56,0.67 -2.697,1.839 -3.606,3.09c-1.173,1.614 -2.877,2.339 -4.444,3.256c-1.705,0.998 -3.605,1.669 -5.437,2.441c-1.687,0.711 -3.368,1.457 -5.105,2.022c-1.606,0.523 -3.338,0.68 -4.916,1.264c-2.051,0.759 -4.137,1.257 -6.274,1.683c-2.137,0.427 -4.171,1.19 -6.399,1.412c-2.228,0.223 -4.469,0.292 -6.697,0.549c-3.919,0.452 -7.78,-0.376 -11.63,-1.002c-1.13,-0.184 -2.269,-0.537 -3.307,-1.021c-2.053,-0.957 -3.993,-2.118 -5.562,-3.813c-0.393,-0.425 -0.848,-0.732 -1.456,-0.981c-1.646,-0.673 -3.338,-1.442 -4.7,-2.554c-3.171,-2.59 -6.225,-5.334 -9.188,-8.161c-1.102,-1.052 -2.04,-2.41 -2.667,-3.802c-1.548,-3.435 -3.046,-6.905 -3.978,-10.581c-0.555,-2.19 -1.191,-4.361 -1.165,-6.653c0.017,-1.472 -0.01,-2.944 0.009,-4.416c0.008,-0.629 -0.134,-1.178 -0.861,-1.126c-2.538,0.178 -4.998,-0.706 -7.568,-0.395c-2.478,0.3 -4.997,0.267 -7.498,0.379c-0.17,0.008 -0.351,-0.039 -0.508,0.007c-1.862,0.544 -3.732,1.005 -5.694,1.037c-0.442,0.007 -0.891,0.292 -1.311,0.501c-0.117,0.059 -0.237,0.343 -0.192,0.459c0.489,1.261 -0.156,2.465 -0.293,3.655c-0.226,1.965 -0.889,3.882 -0.882,5.898c0.001,0.395 0.093,0.821 -0.018,1.183c-0.878,2.861 -1.766,5.719 -2.714,8.557c-0.364,1.088 -0.81,2.166 -1.363,3.169c-0.915,1.66 -1.473,3.505 -2.734,4.994c-0.825,0.972 -1.496,2.082 -2.175,3.169c-1.52,2.43 -3.037,4.817 -5.109,6.881c-2.287,2.278 -5.076,3.507 -7.956,4.635c-1.537,0.601 -3.187,0.816 -4.824,1.103c-2.873,0.504 -5.754,0.752 -8.65,0.965c-0.862,0.064 -1.723,0.192 -2.576,0.339c-1.157,0.199 -2.303,0.457 -3.458,0.667c-0.377,0.068 -0.826,-0.048 -1.14,0.116c-1.492,0.781 -3.088,0.913 -4.722,0.91c-2.718,-0.005 -5.435,-0.001 -8.153,-0.001c-0.397,-0 -0.801,0.05 -1.188,-0.009c-1.325,-0.203 -2.642,-0.461 -3.967,-0.667c-2.047,-0.317 -4.017,-0.856 -5.96,-1.604c-1.706,-0.655 -3.307,-1.746 -5.39,-1.185c-0.971,0.261 -2.187,-0.045 -3.201,-0.373c-1.134,-0.367 -2.155,-1.073 -3.243,-1.593c-1.701,-0.812 -3.455,-1.52 -5.119,-2.401c-2.165,-1.145 -4.037,-2.735 -5.817,-4.391c-2.188,-2.037 -4.249,-4.21 -6.36,-6.329c-0.233,-0.234 -0.461,-0.48 -0.643,-0.753c-0.797,-1.196 -1.524,-2.442 -2.373,-3.599c-2.42,-3.3 -4.213,-6.816 -4.088,-11.05c0.008,-0.283 0.071,-0.589 -0.011,-0.846c-0.46,-1.46 -0.677,-2.951 -0.668,-4.478c0.003,-0.51 0.03,-1.023 -0.027,-1.526c-0.01,-0.09 -0.377,-0.139 -0.58,-0.207c-0.279,0.937 -1.449,1.304 -1.461,2.465c-0.009,0.84 -0.082,1.808 -0.499,2.491c-1.522,2.495 -3.008,5.04 -5.416,7.177m17.666,-32.615c0.689,-0.113 1.378,-0.315 2.067,-0.315c0.689,0 1.375,0.243 2.069,0.296c0.292,0.022 0.598,-0.178 0.902,-0.26c2.191,-0.589 4.355,-1.459 6.583,-1.68c2.327,-0.231 4.536,-1.047 6.873,-1.116c0.124,-0.003 0.36,-0.281 0.341,-0.397c-0.082,-0.488 -1.181,-0.978 -1.675,-0.776c-1.161,0.476 -2.307,0.995 -3.483,1.432c-2.037,0.757 -4.12,-0.159 -5.238,-1.992c-0.248,-0.407 -0.153,-0.583 0.327,-0.641c0.248,-0.03 0.498,-0.167 0.718,-0.305c1.08,-0.678 2.094,-1.488 3.237,-2.032c1.656,-0.787 3.262,-1.676 4.92,-2.461c1.987,-0.941 3.886,-2.101 5.976,-2.799c1.496,-0.5 2.887,-1.437 4.593,-1.24c0.597,0.069 0.942,0.172 1.213,0.82c0.456,1.095 0.644,1.046 1.807,0.601c1.077,-0.413 2.179,-0.794 3.303,-1.034c0.698,-0.149 1.693,-0.305 2.145,0.055c1.424,1.134 2.808,0.526 4.219,0.245c0.879,-0.174 1.73,-0.559 2.611,-0.629c0.594,-0.048 1.418,0.098 1.792,0.489c0.984,1.03 2.028,0.431 3.058,0.366c0.312,-0.02 0.616,-0.198 0.927,-0.208c4.085,-0.126 8.173,-0.2 12.257,-0.37c1.156,-0.049 2.056,0.172 2.781,1.127c0.428,0.563 0.972,0.88 1.801,1.002c1.174,0.173 2.422,0.503 3.236,1.628c0.191,0.264 0.781,0.303 1.195,0.33c1.548,0.1 2.908,0.481 3.775,1.941c0.197,0.333 0.67,0.674 1.04,0.701c1.169,0.087 1.462,0.874 1.778,1.787c0.251,0.725 0.246,1.374 -0.432,1.713c-0.488,0.244 -1.245,0.417 -1.677,0.205c-0.765,-0.376 -1.616,-0.944 -1.985,-1.662c-0.463,-0.899 -1.031,-0.984 -1.84,-0.941c-2.387,0.127 -4.776,0.219 -7.162,0.35c-1.225,0.067 -2.341,-0.231 -3.394,-0.835c-0.301,-0.172 -0.646,-0.465 -0.935,-0.427c-1.381,0.179 -2.796,0.306 -4.109,0.73c-1.585,0.513 -2.842,-0.019 -3.788,-1.069c-0.761,-0.846 -1.277,-0.879 -2.266,-0.481c-1.744,0.703 -3.639,0.886 -5.509,1.034c-0.508,0.04 -1.07,-0.374 -1.55,-0.281c-1.024,0.199 -2.001,0.63 -3.016,0.898c-2.216,0.586 -4.43,1.36 -6.674,-0.006c-0.286,-0.175 -0.916,-0.049 -1.246,0.16c-1.314,0.83 -2.626,0.827 -4.043,0.315c-0.349,-0.126 -0.869,0.028 -1.24,0.202c-0.62,0.291 -1.193,0.686 -1.764,1.07c-0.214,0.144 -0.367,0.379 -0.548,0.572c0.307,0.021 0.622,0.098 0.918,0.052c1.112,-0.172 2.21,-0.439 3.326,-0.567c1.475,-0.168 3.044,0.013 4.417,-0.433c1.107,-0.359 2.127,-0.073 3.178,-0.202c2.422,-0.296 4.881,-0.348 7.326,-0.374c1.48,-0.015 2.962,0.267 4.445,0.302c2.377,0.054 4.756,0.014 7.134,0.014c0.396,0 0.806,-0.065 1.187,0.011c2.263,0.454 4.55,0.594 6.853,0.697c2.063,0.092 4.171,0.203 6.162,0.699c3.618,0.902 7.148,2.154 10.746,3.145c2.048,0.564 3.96,1.37 5.798,2.415c1.369,0.778 2.804,1.441 4.169,2.226c0.432,0.248 0.621,0.367 1.106,0c1.906,-1.44 4.094,-2.324 6.347,-3.114c1.429,-0.502 2.853,-0.85 4.346,-0.982c0.847,-0.074 0.938,-0.223 0.66,-1.193c-0.144,-0.504 -0.297,-1.008 -0.484,-1.498c-1.007,-2.638 -1.446,-5.383 -1.538,-8.19c-0.007,-0.22 0.126,-0.59 0.275,-0.637c0.214,-0.067 0.531,0.047 0.749,0.176c0.236,0.14 0.508,0.352 0.592,0.593c0.504,1.435 1.008,2.874 1.415,4.339c0.467,1.682 0.946,3.376 1.206,5.097c0.196,1.296 1.141,1.371 2.014,1.638c0.406,0.124 0.669,-0.099 0.468,-0.544c-0.151,-0.335 -0.37,-0.647 -0.595,-0.942c-0.664,-0.867 -0.846,-1.799 -0.35,-2.791c0.153,-0.305 0.447,-0.539 0.676,-0.805c0.224,0.272 0.548,0.511 0.653,0.823c0.385,1.146 0.637,2.34 1.067,3.467c0.171,0.448 0.616,0.98 1.044,1.105c1.173,0.345 2.407,0.48 3.612,0.723c2.744,0.552 5.555,0.891 7.942,2.571c0.207,0.145 0.647,0.128 0.9,0.014c2.384,-1.084 4.729,-2.254 7.274,-2.951c0.246,-0.067 0.452,-0.432 0.593,-0.703c0.632,-1.206 0.953,-2.628 2.415,-3.228c0.241,-0.099 0.438,-0.363 0.601,-0.59c1.424,-1.989 3.205,-3.571 5.188,-5.013c1.343,-0.977 2.422,-0.634 3.518,0.091c0.516,0.342 0.673,0.2 1.096,-0.08c2.067,-1.373 4.125,-2.757 6.417,-3.767c1.435,-0.633 2.795,-1.473 4.381,-0.601c0.636,0.35 1.176,0.187 1.767,-0.012c0.796,-0.267 1.619,-0.464 2.395,-0.777c1.751,-0.706 3.433,-0.586 4.834,0.656c0.738,0.654 1.695,0.686 2.157,0.387c1.019,-0.659 2.154,-0.573 3.2,-0.921c1.054,-0.35 2.173,-0.561 3.28,-0.675c0.614,-0.063 1.26,0.277 1.895,0.291c1.319,0.029 2.314,1.161 3.653,1.03c1.412,-0.138 2.731,0.258 3.797,1.063c1.148,0.867 2.343,1.085 3.682,0.98c1.096,-0.086 1.927,0.388 2.453,1.295c0.463,0.798 1.006,1.311 1.951,1.553c0.553,0.143 1.389,0.783 1.383,1.189c-0.016,1.096 0.682,1.314 1.359,1.779c0.389,0.266 0.571,0.901 0.718,1.408c0.036,0.121 -0.418,0.537 -0.676,0.567c-1.419,0.165 -2.857,0.406 -4.269,0.316c-1.128,-0.073 -2.387,-0.203 -3.219,-1.201c-0.803,-0.964 -1.673,-0.908 -2.797,-0.539c-1.61,0.528 -3.234,1.105 -4.979,1.12c-0.895,0.008 -1.711,-0.283 -2.109,-1.002c-0.499,-0.903 -1.153,-0.818 -1.873,-0.604c-1.053,0.313 -2.059,0.837 -3.129,1.031c-0.994,0.18 -2.194,0.361 -3.032,-0.034c-0.921,-0.434 -1.512,-0.903 -2.526,-0.204c-0.661,0.457 -1.579,0.535 -2.372,0.81c-0.209,0.072 -0.384,0.244 -0.574,0.37c0.216,0.101 0.431,0.287 0.648,0.289c5.163,0.057 10.332,-0.167 15.486,0.349c1.31,0.132 2.656,0.087 3.928,0.376c2.045,0.465 4.129,0.338 6.183,0.627c1.524,0.214 3.118,0.063 4.596,0.423c1,0.244 1.97,0.121 2.929,0.294c1.514,0.272 2.991,0.78 4.511,0.967c1.445,0.178 2.867,0.39 4.21,0.934c0.608,0.246 0.694,0.022 0.652,-0.463c-0.1,-1.143 -0.325,-2.285 -0.314,-3.426c0.02,-2.195 -0.808,-4.19 -1.283,-6.27c-0.533,-2.336 -0.996,-4.69 -1.45,-7.043c-0.364,-1.889 -0.744,-3.784 -1.159,-5.651c-0.486,-2.187 -1.336,-4.309 -1.92,-6.496c-0.664,-2.482 -1.459,-4.923 -2.56,-7.26c-1.62,-3.443 -3.468,-6.758 -5.591,-9.91c-2.15,-3.194 -4.26,-6.428 -7.027,-9.151c-2.379,-2.341 -4.775,-4.644 -7.353,-6.788c-2.627,-2.185 -5.414,-4.043 -8.364,-5.707c-1.556,-0.877 -3.037,-1.866 -4.713,-2.561c-1.594,-0.662 -2.998,-1.77 -4.565,-2.515c-1.935,-0.919 -3.944,-1.683 -5.934,-2.482c-2.233,-0.897 -4.485,-1.748 -6.72,-2.641c-1.943,-0.776 -3.864,-1.607 -5.814,-2.363c-0.94,-0.364 -1.867,-0.815 -2.944,-0.712c-0.34,0.032 -0.718,-0.154 -1.054,-0.299c-1.297,-0.56 -2.543,-1.273 -3.883,-1.692c-3.113,-0.973 -6.247,-1.898 -9.369,-2.836c-1.972,-0.592 -4.017,-0.824 -5.98,-1.515c-1.606,-0.565 -3.5,-0.441 -5.262,-0.408c-5.275,0.097 -10.547,-0.202 -15.831,0.262c-4.911,0.432 -9.879,-0.328 -14.801,0.392c-1.018,0.149 -2.072,0.154 -3.054,0.428c-2.53,0.703 -5.037,1.493 -7.538,2.299c-2.745,0.885 -5.403,1.988 -7.966,3.319c-3.028,1.573 -6.085,3.089 -9.092,4.701c-1.721,0.923 -3.362,1.998 -5.049,2.986c-2.254,1.319 -4.444,2.73 -6.557,4.267c-2.821,2.051 -5.686,4.04 -8.524,6.068c-0.574,0.411 -1.127,0.856 -1.66,1.32c-1.876,1.632 -3.771,3.246 -5.599,4.929c-2.294,2.113 -4.585,4.234 -6.773,6.455c-1.424,1.446 -2.572,3.166 -4.004,4.603c-2.069,2.075 -3.898,4.335 -5.616,6.69c-1.961,2.688 -3.887,5.403 -5.791,8.132c-1.147,1.645 -2.016,3.445 -2.892,5.253c-1.553,3.207 -3.098,6.411 -4.295,9.772c-0.439,1.234 -0.645,2.632 -1.37,3.665c-1.463,2.083 -1.935,4.545 -2.87,6.808c-0.976,2.359 -1.278,4.996 -2.181,7.42c-0.609,1.632 -1.152,3.278 -1.495,4.983c-0.118,0.587 -0.138,1.193 -0.183,1.792c-0.006,0.079 0.109,0.166 0.169,0.25c0.08,-0.08 0.187,-0.147 0.235,-0.243c0.211,-0.421 0.31,-0.946 0.624,-1.259c0.819,-0.815 1.738,-1.53 2.599,-2.304c0.452,-0.406 0.872,-0.79 0.824,-1.546c-0.025,-0.402 0.293,-1.037 0.639,-1.216c1.998,-1.037 4.041,-1.989 6.09,-2.922c0.473,-0.215 1.032,-0.241 1.891,-0.355m17.666,3.737c-1.679,0.321 -3.357,0.645 -5.037,0.959c-1.019,0.191 -1.94,0.483 -2.705,1.298c-0.573,0.609 -1.413,0.957 -2.082,1.488c-1.37,1.09 -2.776,2.15 -4.029,3.364c-0.886,0.857 -1.511,1.977 -2.313,2.929c-1.545,1.832 -1.804,4.057 -1.995,6.304c-0.02,0.237 0.175,0.488 0.246,0.739c0.258,0.913 0.54,1.821 0.748,2.745c0.165,0.734 0.2,1.497 0.358,2.232c0.313,1.45 0.664,2.892 1.014,4.334c0.324,1.336 0.594,2.691 1.021,3.993c0.488,1.489 1.216,2.901 1.674,4.397c0.856,2.794 2.308,5.048 4.815,6.697c2.744,1.805 5.571,3.42 8.595,4.684c2.026,0.847 4.059,1.69 6.135,2.401c2.683,0.919 5.492,1.396 8.294,1.67c2.539,0.248 5.108,0.109 7.67,0.338c3.17,0.284 6.298,-0.413 9.428,-0.936c2.368,-0.396 4.784,-0.617 7.185,-0.677c2.479,-0.063 4.911,-0.434 7.365,-0.652c2.19,-0.195 4.118,-0.952 6.084,-1.758c4.193,-1.716 7.459,-4.528 9.865,-8.339c0.786,-1.245 1.319,-2.668 2.21,-3.823c0.829,-1.075 1.475,-2.235 1.97,-3.443c1.189,-2.904 2.227,-5.87 3.296,-8.823c0.965,-2.667 1.043,-5.488 1.358,-8.265c0.056,-0.498 -0.094,-1.058 0.082,-1.496c0.498,-1.242 0.662,-2.509 0.605,-3.826c-0.017,-0.395 -0.136,-0.86 0.023,-1.175c0.437,-0.865 -0.078,-1.27 -0.686,-1.571c-1.829,-0.907 -3.67,-1.794 -5.537,-2.619c-0.763,-0.338 -1.602,-0.506 -2.412,-0.734c-1.724,-0.487 -3.449,-0.968 -5.177,-1.44c-1.069,-0.292 -2.135,-0.607 -3.219,-0.832c-2.039,-0.424 -4.079,-0.863 -6.139,-1.158c-1.521,-0.218 -3.062,0.033 -4.621,-0.311c-2.01,-0.442 -4.098,-0.619 -6.161,-0.705c-2.952,-0.122 -5.908,-0.183 -8.86,-0.294c-3.676,-0.137 -7.376,-0.321 -11.071,0.219c-2.013,0.294 -4.098,-0.041 -6.138,0.37c-1.117,0.225 -2.274,0.239 -3.404,0.407c-1.163,0.172 -2.308,0.473 -3.474,0.616c-1.417,0.173 -2.848,0.232 -4.271,0.367c-0.132,0.013 -0.247,0.213 -0.71,0.326m126.043,1.359c-0.463,0.114 -0.922,0.245 -1.389,0.337c-1.205,0.237 -2.411,0.48 -3.623,0.676c-1.287,0.209 -2.386,1.469 -3.853,0.693c-0.084,-0.045 -0.269,-0.039 -0.32,0.02c-0.544,0.619 -1.706,0.427 -1.928,1.524c-0.044,0.218 -0.604,0.405 -0.952,0.473c-1.151,0.228 -2.213,0.755 -3.448,0.786c-0.431,0.01 -1.575,0.09 -1.644,1.14c-0.112,1.707 -0.244,3.414 -0.328,5.122c-0.024,0.49 0.115,0.985 0.135,1.479c0.075,1.855 0.13,3.712 0.197,5.567c0.002,0.043 0.083,0.079 0.1,0.127c1.384,3.951 2.764,7.906 4.661,11.649c0.867,1.71 2.22,3.064 3.838,4.002c1.638,0.949 3.078,2.133 4.605,3.215c2.05,1.454 4.094,2.922 6.21,4.277c1.14,0.731 2.425,1.237 3.642,1.849c2.858,1.438 5.865,2.297 9.083,2.235c1.03,-0.02 2.056,-0.221 3.086,-0.323c1.253,-0.123 2.527,-0.13 3.759,-0.362c2.58,-0.487 5.126,-1.137 7.757,-1.363c0.824,-0.071 1.633,-0.402 2.434,-0.661c2.148,-0.693 4.383,-1.036 6.48,-1.982c1.804,-0.813 3.82,-1.146 5.72,-1.76c1.743,-0.563 3.504,-1.109 5.172,-1.854c3.025,-1.352 5.604,-3.229 6.884,-6.489c0.458,-1.167 1.156,-2.238 1.631,-3.398c0.599,-1.459 1.204,-2.873 1.47,-4.508c0.402,-2.474 1.022,-4.947 1.204,-7.435c0.243,-3.321 0.103,-6.673 0.04,-10.011c-0.028,-1.48 -0.814,-2.357 -2.271,-2.257c-1.912,0.13 -3.665,-0.537 -5.483,-0.799c-2.856,-0.411 -5.684,-0.966 -8.585,-0.95c-0.226,0.002 -0.471,0.058 -0.676,-0.008c-1.567,-0.506 -3.172,-0.662 -4.813,-0.689c-1.2,-0.02 -2.46,-0.009 -3.58,-0.365c-2.042,-0.649 -4.137,-0.075 -6.2,-0.566c-1.499,-0.357 -3.152,-0.07 -4.736,-0.07c-1.585,-0 -3.173,-0.067 -4.752,0.019c-1.496,0.082 -2.982,-0.42 -4.473,-0.02c-1.045,0.28 -2.05,-0.289 -3.136,-0.078c-1.089,0.211 -2.246,0.07 -3.372,0.078c-0.736,0.005 -1.518,-0.161 -2.198,0.032c-1.977,0.56 -4.043,0.115 -6.348,0.648m-28.538,167.491c1.616,0.937 1.867,1.524 1.538,3.306c-0.167,0.906 -0.408,1.848 -0.309,2.74c0.156,1.419 0.544,2.815 0.884,4.209c0.211,0.866 0.67,1.697 0.744,2.567c0.182,2.142 0.409,4.315 0.229,6.443c-0.135,1.594 -0.167,3.1 0.096,4.687c0.307,1.846 0.359,3.748 0.37,5.626c0.039,6.906 0.024,13.812 0.001,20.718c-0.002,0.634 -0.067,1.256 -0.252,1.918c-0.363,1.298 -0.311,2.715 -0.397,4.085c-0.009,0.138 0.211,0.291 0.324,0.437c0.113,-0.09 0.27,-0.156 0.332,-0.273c0.319,-0.602 0.572,-1.243 0.926,-1.822c1.463,-2.398 2.967,-4.771 4.431,-7.168c1.378,-2.256 2.646,-4.584 4.117,-6.776c0.821,-1.224 1.923,-2.267 2.958,-3.334c1.323,-1.363 2.068,-3.026 1.753,-4.829c-0.147,-0.843 0.015,-1.346 0.458,-1.78c1.956,-1.914 3.117,-4.338 4.375,-6.691c1.358,-2.543 2.562,-5.168 3.901,-7.722c1.924,-3.671 4.416,-7.052 5.635,-11.082c0.05,-0.164 0.121,-0.321 0.183,-0.481c-0.154,0.026 -0.344,0.001 -0.455,0.084c-1.998,1.5 -4.236,2.579 -6.488,3.612c-0.995,0.456 -2.073,0.9 -3.14,0.977c-0.911,0.066 -1.29,0.456 -1.543,1.15c-0.184,0.505 -0.284,0.99 -0.71,1.418c-0.629,0.633 -0.921,-0.357 -1.495,-0.163c-0.678,0.229 -1.412,-0.021 -1.98,-0.479c-1.916,-1.542 -3.787,-3.14 -5.714,-4.669c-1.907,-1.513 -3.87,-2.958 -5.792,-4.454c-0.816,-0.636 -1.787,-1.066 -2.379,-2.007c-0.689,-1.095 -1.754,-1.453 -3.032,-1.275c-0.549,0.076 -1.158,-0.063 -1.647,0.131c-0.181,0.072 -0.058,0.824 -0.143,1.253c-0.059,0.301 -0.193,0.608 -0.368,0.861c-0.764,1.104 -1.52,2.217 -2.346,3.273c-1.145,1.463 -2.312,2.913 -3.543,4.304c-0.93,1.05 -2.135,1.885 -2.936,3.015c-1.753,2.475 -4.235,4.075 -6.597,5.81c-0.989,0.726 -3.163,0.641 -4.123,-0.329c-0.403,-0.406 -0.717,-0.73 -0.09,-1.196c0.147,-0.11 0.533,-0.239 -0.026,-0.489c-1.626,-0.727 -3.322,-1.39 -4.777,-2.389c-3.689,-2.532 -8.003,-4.103 -11.254,-7.307c-0.098,-0.097 -0.374,-0.014 -0.568,-0.015c0.006,0.154 -0.048,0.351 0.027,0.453c1.027,1.391 2.072,2.768 3.113,4.148c0.293,0.389 0.607,0.763 0.883,1.163c1.033,1.495 2.02,3.023 3.088,4.492c1.365,1.879 2.802,3.707 4.19,5.57c0.899,1.207 1.752,2.447 2.648,3.656c1.35,1.822 2.754,3.605 4.067,5.453c0.828,1.165 1.482,2.454 2.305,3.623c1.67,2.376 3.401,4.709 5.109,7.057c1.013,1.393 2.026,2.785 3.046,4.173c1.276,1.737 2.588,3.448 3.833,5.208c1.14,1.611 2.207,3.273 3.314,4.907c0.57,0.842 1.151,1.677 1.742,2.504c0.126,0.177 0.315,0.31 0.475,0.463c0.053,-0.204 0.173,-0.418 0.147,-0.611c-0.078,-0.581 -0.325,-1.157 -0.306,-1.729c0.054,-1.653 -0.042,-3.371 0.387,-4.935c0.448,-1.634 0.215,-3.288 0.604,-4.892c0.332,-1.37 -0.619,-2.753 0.002,-4.135c0.042,-0.094 0.043,-0.241 -0,-0.335c-0.72,-1.554 -0.207,-3.193 -0.31,-4.788c-0.04,-0.622 0.455,-1.356 0.264,-1.877c-0.444,-1.21 -0.323,-2.42 -0.26,-3.612c0.111,-2.063 -0.886,-4.113 -0.039,-6.178c0.079,-0.193 0.066,-0.466 0.001,-0.672c-0.442,-1.403 -0.71,-2.835 -0.661,-4.306c0.047,-1.428 -0.051,-2.843 0.263,-4.29c0.232,-1.066 -0.232,-2.267 -0.257,-3.411c-0.051,-2.319 -0.051,-4.642 0,-6.962c0.025,-1.143 0.158,-2.292 0.342,-3.422c0.136,-0.827 0.436,-1.627 0.832,-2.609m111.604,-128.93c-0.12,-1.026 -0.185,-2.062 -0.376,-3.074c-0.156,-0.822 -0.399,-1.641 -0.715,-2.416c-0.759,-1.857 -2.239,-3.21 -3.759,-4.337c-1.138,-0.843 -2.632,-1.497 -4.226,-1.21c-2.13,0.383 -3.843,1.666 -5.672,2.694c-0.19,0.106 -0.324,0.312 -0.484,0.473c-0.513,0.513 -1.028,1.024 -1.539,1.54c-0.19,0.192 -0.518,0.382 -0.533,0.59c-0.151,2.101 -0.346,4.206 -0.338,6.308c0.011,2.613 0.192,5.226 0.328,7.837c0.016,0.298 0.245,0.578 0.32,0.88c0.164,0.659 0.357,0.436 0.695,0.097c0.961,-0.965 1.879,-2.004 2.968,-2.803c1.975,-1.449 4.074,-2.726 6.095,-4.113c0.979,-0.673 1.89,-1.444 2.848,-2.148c0.493,-0.361 1.072,-0.195 0.969,0.251c-0.272,1.177 -0.48,2.42 -1.036,3.465c-0.454,0.851 -1.477,1.379 -2.064,2.184c-1.007,1.382 -2.29,2.345 -3.768,3.156c-0.596,0.327 -1.291,0.746 -0.67,1.838c0.541,0.951 -0.406,2.171 -1.557,2.186c-1.183,0.016 -2.431,0.309 -3.514,-0.522c-0.187,-0.144 -0.704,-0.202 -0.753,-0.116c-0.151,0.261 -0.219,0.617 -0.193,0.925c0.075,0.861 0.315,1.719 0.3,2.576c-0.017,0.983 0.315,1.931 0.099,2.959c-0.091,0.431 0.33,1.014 0.161,1.661c-0.146,0.554 0.063,1.2 0.105,1.806c0.117,1.65 0.223,3.301 0.354,4.95c0.007,0.087 0.236,0.248 0.307,0.222c0.588,-0.215 1.23,-0.371 1.733,-0.721c2.829,-1.968 5.787,-3.752 7.977,-6.544c1.79,-2.281 3.327,-4.672 4.223,-7.425c0.737,-2.264 1.468,-4.512 1.792,-6.92c0.277,-2.056 0.285,-4.049 -0.077,-6.249m-125.703,137.593c0.458,-0.396 0.866,-0.879 1.382,-1.173c1.806,-1.027 3.105,-2.489 4.11,-4.293c0.849,-1.522 1.852,-2.954 3.407,-3.882c0.116,-0.069 0.184,-0.22 0.274,-0.333c-0.146,-0.113 -0.287,-0.32 -0.438,-0.327c-1.708,-0.073 -3.413,-0.157 -5.121,-0.286c-4.234,-0.319 -8.494,-0.303 -12.745,-0.402c-1.412,-0.033 -2.826,-0.005 -4.24,-0.005c-0.339,-0 -0.706,0.086 -1.013,-0.014c-1.957,-0.637 -4.042,-0.126 -5.991,-0.692c-0.447,-0.13 -0.628,0.29 -1.132,0.18c-1.141,-0.25 -2.272,-0.534 -3.41,-0.792c-2.166,-0.491 -4.418,-0.608 -6.45,-1.65c-0.154,-0.08 -0.475,0.095 -0.677,0.219c-0.061,0.038 -0.042,0.341 0.038,0.455c1.386,1.973 2.769,3.949 4.195,5.894c0.622,0.847 1.447,1.484 2.47,1.801c1.472,0.456 2.891,0.907 4.112,1.998c1.001,0.895 2.266,1.591 3.529,2.076c2.183,0.838 4.143,2.044 6.122,3.239c1.352,0.816 2.504,1.983 4.294,1.996c0.383,0.003 1.549,0.014 1.518,1.098c0.234,-0.014 0.538,0.063 0.688,-0.055c0.817,-0.648 1.646,-1.296 2.377,-2.036c0.892,-0.901 1.692,-1.893 2.701,-3.016m35.163,-182.609c-0.271,-0.068 -0.549,-0.214 -0.812,-0.192c-0.873,0.075 -1.829,0.799 -2.522,-0.387c-0.018,-0.032 -0.553,0.18 -0.547,0.202c0.114,0.452 0.16,1.156 0.446,1.278c0.523,0.222 1.372,0.344 1.759,0.061c0.588,-0.431 1.587,0.22 1.676,-0.962m20.894,-1.528c-0.794,-1.301 -1.349,-1.494 -2.67,-0.839c-0.48,0.237 -0.901,0.595 -1.348,0.898c0.486,0.037 0.971,0.083 1.457,0.107c0.333,0.017 0.861,0.137 0.969,-0.019c0.535,-0.77 0.959,0.134 1.592,-0.147m-11.382,199.256c-0.034,0.079 -0.08,0.156 -0.094,0.239c-0.005,0.025 0.098,0.104 0.115,0.095c0.273,-0.155 0.667,-0.257 0.787,-0.495c0.511,-1.016 0.949,-2.069 1.388,-3.12c0.045,-0.108 -0.087,-0.289 -0.137,-0.437c-0.119,0.106 -0.285,0.189 -0.35,0.321c-0.523,1.07 -1.028,2.15 -1.709,3.397m2.548,-199.596c-0.109,0.23 -0.219,0.46 -0.328,0.69c0.191,0.029 0.381,0.073 0.572,0.08c0.157,0.006 0.315,-0.047 0.473,-0.05c0.191,-0.004 0.382,0.018 0.572,0.029c-0.07,-0.23 -0.071,-0.562 -0.226,-0.667c-0.243,-0.164 -0.59,-0.176 -1.063,-0.082m62.682,33.804c-0.057,0.197 -0.161,0.394 -0.158,0.59c0.005,0.254 0.096,0.507 0.149,0.76c0.173,-0.253 0.398,-0.488 0.498,-0.767c0.057,-0.156 -0.093,-0.386 -0.489,-0.583m-68.627,-32.275c0.146,-0.194 0.293,-0.387 0.439,-0.58c-0.259,-0.033 -0.519,-0.067 -0.779,-0.1c0,0.227 0,0.453 0.34,0.68m-80.518,169.529c-0.152,0.039 -0.339,0.037 -0.448,0.128c-0.139,0.116 -0.214,0.307 -0.316,0.466c0.192,-0.022 0.401,-0.006 0.571,-0.079c0.144,-0.061 0.244,-0.226 0.193,-0.515m82.726,31.086c0.13,0.17 0.26,0.339 0.39,0.509c0.097,-0.096 0.193,-0.193 0.29,-0.289c-0.17,-0.13 -0.34,-0.26 -0.68,-0.22m-12.23,36.691c0.039,0.04 0.073,0.089 0.119,0.114c0.029,0.016 0.11,-0 0.111,-0.01c0.041,-0.317 0.094,-0.635 0.097,-0.953c0.002,-0.092 -0.143,-0.185 -0.22,-0.277c-0.036,0.151 -0.081,0.301 -0.104,0.455c-0.016,0.108 -0.003,0.221 -0.003,0.671m0.339,2.039c-0.036,-0.15 -0.073,-0.3 -0.109,-0.45c-0.077,0.093 -0.233,0.252 -0.218,0.27c0.132,0.16 -0.354,0.729 0.327,0.18m79.839,-213.016c0.113,-0.056 0.226,-0.113 0.34,-0.17c-0.114,-0.056 -0.227,-0.113 -0.34,0.17Z" style="fill-rule:nonzero;"/><path d="M305.909,235.172c0.437,-0.614 0.652,-0.171 0.906,0.068c0.036,0.034 -0.005,0.149 -0.011,0.226c-0.298,-0.041 -0.596,-0.083 -0.895,-0.294Z" style="fill-rule:nonzero;"/><path d="M199.572,216.487c-0.463,0.113 -0.75,0.305 -1.05,0.326c-1.314,0.09 -2.617,0.04 -3.947,0.283c-1.195,0.218 -2.497,-0.172 -3.754,-0.266c-1.707,-0.128 -3.44,-0.09 -5.117,-0.384c-1.595,-0.28 -3.106,-1.015 -4.697,-1.334c-2.408,-0.482 -4.211,-2.134 -6.378,-3.07c-0.627,-0.271 -1.146,-0.84 -1.65,-1.338c-1.722,-1.698 -3.876,-2.961 -5.161,-5.094c-0.157,-0.26 -0.172,-0.606 -0.25,-0.913c-0.149,-0.588 0.095,-0.887 0.636,-0.713c1.682,0.539 3.204,1.375 4.565,2.512c3.013,2.516 6.309,4.494 10.231,5.229c1.372,0.258 2.842,0.858 4.111,0.582c1.53,-0.333 2.877,0.364 4.331,0.125c2.07,-0.341 4.159,-0.504 6.23,-0.931c1.67,-0.344 3.36,-0.581 4.981,-1.133c2.629,-0.895 5.272,-1.754 7.867,-2.741c1.071,-0.407 2.077,-1.041 3.027,-1.695c0.622,-0.428 1.143,-0.384 1.271,0.251c0.177,0.885 0.869,0.683 1.358,0.915c0.521,0.248 0.843,-0.156 1.175,-0.418c1.2,-0.945 2.48,-1.817 3.544,-2.898c1.828,-1.857 2.092,-4.213 1.597,-6.653c-0.413,-2.035 -1.464,-3.846 -2.578,-5.543c-1.207,-1.84 -1.903,-3.859 -2.653,-5.874c-0.118,-0.317 0.019,-1.058 0.119,-1.073c0.569,-0.087 1.177,-0.29 1.719,0.227c1.124,1.072 2.276,2.107 3.096,3.45c0.83,1.357 1.699,2.69 2.512,4.056c1.158,1.946 2.021,4.027 2.718,6.177c0.147,0.452 0.108,1.017 0.372,1.366c0.458,0.603 0.249,1.035 0.001,1.619c-0.244,0.577 -0.257,1.253 -0.368,1.886c-0.288,1.647 -1.395,2.768 -2.719,3.511c-1.539,0.864 -3.246,1.446 -4.911,2.068c-1.412,0.526 -2.842,0.842 -4.148,-0.365c-0.598,-0.554 -0.695,-0.365 -1.161,0.387c-0.738,1.189 -1.531,2.403 -2.542,3.35c-1.684,1.575 -3.989,2.087 -6.048,2.992c-1.097,0.483 -2.378,0.559 -3.583,0.776c-0.852,0.153 -1.717,0.234 -2.746,0.348Z" style="fill-rule:nonzero;"/><path d="M169.675,242.307c1.321,0.226 2.471,0.46 3.624,0.677c1.839,0.347 3.671,0.76 5.524,0.994c1.246,0.157 2.512,0.203 3.766,0.315c6.503,0.582 13.032,0.379 19.553,0.375c0.797,-0.001 1.681,-0.056 2.373,-0.396c1.396,-0.684 2.292,-0.046 3.15,0.877c0.365,0.392 0.659,0.852 0.961,1.298c0.083,0.123 0.099,0.302 0.116,0.458c0.114,1.076 -1.372,2.832 -2.462,2.871c-3.462,0.126 -6.924,0.268 -10.387,0.324c-1.14,0.018 -2.284,-0.2 -3.425,-0.321c-1.141,-0.12 -2.325,0.285 -3.435,-0.321c-0.218,-0.119 -0.556,-0.018 -0.839,-0.017c-1.537,0.008 -3.045,-0.235 -4.566,-0.403c-2.599,-0.287 -5.087,-1.082 -7.69,-1.339c-2.605,-0.256 -5.171,-0.896 -7.764,-1.304c-1.821,-0.286 -3.69,-0.327 -5.482,-0.728c-1.992,-0.445 -3.949,-1.099 -5.871,-1.8c-2.652,-0.967 -5.215,-2.193 -7.894,-3.068c-3.227,-1.054 -6.028,-2.715 -8.42,-5.086c-0.699,-0.693 -1.295,-1.493 -1.924,-2.256c-0.094,-0.114 -0.189,-0.391 -0.15,-0.421c0.15,-0.119 0.39,-0.272 0.535,-0.225c1.045,0.339 2.207,0.532 3.086,1.132c2.38,1.626 4.912,2.844 7.681,3.62c1.107,0.31 2.174,0.761 3.261,1.144c2.124,0.748 4.24,1.52 6.378,2.225c0.656,0.216 1.37,0.268 2.063,0.35c1.139,0.134 2.286,0.205 3.423,0.352c1.552,0.2 3.097,0.446 4.815,0.673Z" style="fill-rule:nonzero;"/><path d="M162.285,189.392c0.438,-0.324 0.864,-0.502 1.128,-0.816c0.49,-0.584 1.055,-0.827 1.746,-0.537c0.557,0.235 0.955,1.548 0.707,2.179c-0.114,0.291 -0.273,0.582 -0.478,0.816c-1.066,1.221 -1.641,2.678 -2.194,4.179c-0.551,1.497 -0.444,2.98 -0.273,4.488c0.065,0.578 0.101,1.217 0.376,1.701c0.501,0.881 1.129,1.7 1.785,2.477c0.338,0.4 0.901,0.604 1.263,0.99c0.25,0.264 0.554,0.863 0.442,1.006c-0.272,0.348 -0.755,0.683 -1.184,0.727c-1.108,0.113 -2.109,-0.183 -2.954,-1.026c-1.666,-1.663 -3.015,-3.54 -3.421,-5.867c-0.32,-1.839 -0.125,-3.72 0.327,-5.563c0.445,-1.82 1.414,-3.311 2.73,-4.754Z" style="fill-rule:nonzero;"/><path d="M193.202,170.367c1.214,-0.085 2.346,-0.129 3.473,-0.071c0.915,0.048 1.849,0.13 2.726,0.372c0.452,0.125 0.88,0.578 1.159,0.991c0.176,0.26 0.731,0.632 0.124,1.101c-0.396,0.305 -0.722,0.795 -1.282,0.563c-1.167,-0.485 -2.265,-0.388 -3.466,-0.024c-1.023,0.31 -2.152,0.347 -3.236,0.36c-1.263,0.015 -2.427,0.333 -3.58,0.787c-2.039,0.803 -4.082,1.599 -6.127,2.387c-0.294,0.113 -0.617,0.25 -0.915,0.228c-0.815,-0.061 -1.436,0.268 -2.098,0.7c-0.412,0.27 -1.043,0.368 -1.543,0.3c-0.577,-0.078 -0.819,-0.698 -0.556,-1.157c0.33,-0.577 0.837,-1.086 1.357,-1.515c2.195,-1.806 4.829,-2.751 7.481,-3.604c1.257,-0.405 2.596,-0.557 3.898,-0.823c0.833,-0.171 1.666,-0.34 2.585,-0.595Z" style="fill-rule:nonzero;"/><path d="M204.243,176.652c-0.844,0.614 -1.549,1.129 -2.558,0.462c-0.353,-0.233 -0.99,-0.015 -1.496,-0.041c-2.261,-0.115 -4.556,0.339 -6.778,-0.352c-0.589,-0.183 -1.171,-0.493 -1.657,-0.871c-0.514,-0.4 -0.301,-1.088 0.349,-1.136c2.089,-0.154 4.192,-0.41 6.273,-0.304c1.786,0.092 3.555,0.603 5.319,0.983c0.57,0.123 0.723,0.619 0.548,1.259Z" style="fill-rule:nonzero;"/><path d="M193.711,167.479c-1.951,0.199 -3.816,0.334 -5.684,0.415c-0.873,0.038 -1.684,-0.201 -2.364,-0.808c-0.296,-0.265 -0.446,-0.487 -0.008,-0.719c0.553,-0.292 1.09,-0.685 1.682,-0.819c2.068,-0.466 4.151,-0.912 6.297,-0.699c0.967,0.096 1.938,0.19 2.895,0.352c0.481,0.081 0.705,0.441 0.677,0.973c-0.022,0.412 0.003,0.743 -0.564,0.769c-0.357,0.016 -0.701,0.22 -1.061,0.273c-0.591,0.088 -1.189,0.122 -1.87,0.263Z" style="fill-rule:nonzero;"/><path d="M60.194,192.79c0.94,0.481 1.804,0.859 2.644,1.284c0.309,0.156 0.676,0.371 0.81,0.657c0.185,0.393 0.357,0.958 0.206,1.306c-0.267,0.612 -0.922,0.485 -1.458,0.307c-2.044,-0.679 -4.085,-1.381 -5.869,-2.63c-0.541,-0.379 -1.049,-0.836 -1.478,-1.338c-0.505,-0.591 -0.128,-1.358 0.669,-1.348c0.459,0.006 0.942,0.171 1.367,0.368c0.997,0.464 1.852,1.249 3.109,1.394Z" style="fill-rule:nonzero;"/><path d="M111.24,230.076c1.785,-0.709 2.841,-0.478 3.259,0.74c0.102,0.296 0.071,0.846 -0.123,1.004c-1.82,1.481 -2.775,1.388 -3.863,-0.548c-0.507,-0.9 -0.132,-1.032 0.727,-1.196Z" style="fill-rule:nonzero;"/><path d="M269.642,228.972c-0.682,-0.19 -1.001,-0.634 -0.706,-1.094c0.222,-0.346 0.792,-0.65 1.31,-0.183c0.198,0.179 0.478,0.287 0.634,0.493c0.436,0.577 0.993,0.622 1.625,0.471c0.157,-0.037 0.321,-0.089 0.478,-0.078c0.847,0.062 0.852,0.951 0.61,1.173c-0.728,0.668 0.419,2.325 -1.188,2.322c-0.919,-0.002 -1.064,-0.931 -1.139,-1.682c-0.096,-0.961 -0.614,-1.365 -1.624,-1.422Z" style="fill-rule:nonzero;"/><path d="M102.407,231.095c-0.104,0.473 0.28,0.931 -0.427,1.04c-1.586,0.243 -3.22,-1.485 -3.633,-2.729c-0.207,-0.624 0.339,-1.116 1.099,-1.019c1.038,0.134 1.712,0.824 2.283,1.639c0.215,0.307 0.451,0.6 0.678,1.069Z" style="fill-rule:nonzero;"/><path d="M258.686,260.652c-0.512,0.808 -1.037,0.939 -1.627,0.251c-0.29,-0.339 -0.683,-0.598 -0.934,-0.96c-0.933,-1.343 -0.528,-2.185 1.103,-2.344c0.332,-0.032 0.675,-0.038 1.004,0.01c0.162,0.024 0.447,0.23 0.432,0.299c-0.194,0.864 0.666,1.718 0.022,2.744Z" style="fill-rule:nonzero;"/><path d="M245.436,242.986c0,-0.226 0.002,-0.283 -0,-0.34c-0.017,-0.56 -0.063,-1.285 0.638,-1.298c0.389,-0.008 1.072,0.156 1.116,1.04c0.039,0.794 0.566,1.558 0.828,2.351c0.065,0.199 0.012,0.585 -0.121,0.666c-0.207,0.128 -0.562,0.16 -0.796,0.074c-1.062,-0.392 -1.649,-1.162 -1.665,-2.493Z" style="fill-rule:nonzero;"/><path d="M178.253,291.144c-0.045,-0.238 -0.028,-0.513 0.037,-0.525c1.363,-0.249 2.55,0.219 3.537,1.096c0.298,0.265 0.287,0.877 0.418,1.33c-0.354,0.074 -0.705,0.17 -1.062,0.218c-1.58,0.214 -2.18,-0.958 -2.93,-2.119Z" style="fill-rule:nonzero;"/><path d="M135.786,264.984c-0.827,-0.817 -1.302,-1.682 -1.448,-2.725c-0.083,-0.595 0.266,-0.668 0.696,-0.581c1.071,0.214 2.308,1.684 2.366,2.771c0.056,1.08 -0.029,1.137 -1.073,0.74c-0.146,-0.056 -0.304,-0.081 -0.541,-0.205Z" style="fill-rule:nonzero;"/><path d="M133.068,243.75c-1.01,0.671 -1.346,-0.209 -1.819,-0.65c-0.539,-0.501 -0.746,-1.186 -0.621,-1.907c0.038,-0.219 0.453,-0.59 0.519,-0.555c0.831,0.438 1.743,0.824 2.398,1.464c0.408,0.399 0.199,1.149 -0.477,1.648Z" style="fill-rule:nonzero;"/><path d="M235.669,246.129c-1.272,0.909 -2.349,0.559 -2.725,-0.898c-0.152,-0.587 0.059,-1.267 0.105,-1.905c0.501,0.278 1.038,0.509 1.492,0.85c0.443,0.332 0.833,0.754 1.181,1.188c0.115,0.143 0.027,0.449 -0.053,0.765Z" style="fill-rule:nonzero;"/><path d="M186.747,224.216c0.322,0.322 0.633,0.522 0.781,0.806c0.26,0.5 0.364,1.117 -0.199,1.444c-0.258,0.149 -0.792,0.03 -1.098,-0.146c-0.937,-0.538 -1.394,-1.441 -1.606,-2.473c-0.128,-0.628 0.345,-0.68 0.699,-0.542c0.48,0.188 0.895,0.543 1.423,0.911Z" style="fill-rule:nonzero;"/><path d="M85.675,234.238c-0.285,-0.398 -0.582,-0.688 -0.662,-1.029c-0.13,-0.553 -0.118,-1.139 -0.166,-1.711c0.619,0.237 1.248,0.452 1.851,0.725c0.178,0.081 0.369,0.307 0.405,0.495c0.126,0.669 0.48,1.539 0.198,1.978c-0.339,0.525 -1.008,-0.21 -1.626,-0.458Z" style="fill-rule:nonzero;"/><path d="M124.235,271.949c1.037,-0.213 1.788,0.178 2.386,0.872c0.248,0.288 0.927,0.481 0.439,1.038c-0.414,0.471 -0.749,0.956 -1.644,0.531c-1.12,-0.532 -1.401,-1.272 -1.181,-2.441Z" style="fill-rule:nonzero;"/><path d="M248.069,252.244c-0.255,-0.409 -0.518,-0.719 -0.568,-1.061c-0.049,-0.338 0.009,-0.896 0.217,-1.015c0.26,-0.149 0.835,-0.081 1.073,0.125c0.831,0.718 1.545,1.543 1.408,2.784c-0.053,0.479 -0.244,0.595 -0.628,0.322c-0.483,-0.342 -0.946,-0.712 -1.502,-1.155Z" style="fill-rule:nonzero;"/><path d="M168.231,228.802c-0.324,-0.551 -0.606,-1.001 -0.786,-1.488c-0.101,-0.272 -0.152,-0.779 -0.015,-0.874c0.234,-0.161 0.75,-0.227 0.943,-0.074c0.599,0.475 1.206,1.008 1.596,1.648c0.19,0.311 0.051,1.183 -0.203,1.323c-0.446,0.246 -1.096,0.127 -1.535,-0.535Z" style="fill-rule:nonzero;"/><path d="M199.911,288.171c-0.52,-0.643 -0.546,-1.204 0.049,-1.52c0.346,-0.184 0.908,-0.055 1.342,0.054c0.233,0.058 0.512,0.34 0.579,0.576c0.168,0.589 0.325,1.216 0.287,1.815c-0.018,0.287 -1.393,0.035 -1.899,-0.4c-0.127,-0.109 -0.239,-0.236 -0.358,-0.525Z" style="fill-rule:nonzero;"/><path d="M263.442,251.14c-0.086,0.453 -0.178,0.98 -0.258,0.978c-0.41,-0.01 -1.064,-0.035 -1.18,-0.275c-0.4,-0.823 -0.635,-1.732 -0.843,-2.629c-0.014,-0.06 0.866,-0.527 1.067,-0.397c0.412,0.265 0.96,0.576 0.897,1.286c-0.024,0.278 0.204,0.577 0.317,1.037Z" style="fill-rule:nonzero;"/><path d="M172.393,284.094c1.324,0.183 1.138,1.381 1.678,2.032c0.041,0.049 -0.166,0.389 -0.323,0.504c-0.623,0.457 -1.6,0.109 -2.169,-0.83c-0.179,-0.295 -0.275,-0.766 -0.166,-1.07c0.097,-0.274 0.527,-0.428 0.98,-0.636Z" style="fill-rule:nonzero;"/><path d="M201.355,234.238c-1.174,0.296 -1.723,-0.353 -2.06,-1.23c-0.18,-0.468 -0.217,-0.99 -0.318,-1.488c0.538,0.141 1.175,0.147 1.59,0.454c0.679,0.503 1.477,1.101 0.788,2.264Z" style="fill-rule:nonzero;"/><path d="M283.232,214.363c-0.593,-0.511 -0.528,-1.059 -0.293,-1.554c0.292,-0.618 1.058,-0.91 1.48,-0.656c0.463,0.279 1.012,1.759 0.712,2.153c-0.512,0.671 -1.158,0.747 -1.899,0.057Z" style="fill-rule:nonzero;"/><path d="M171.798,261.247c-0.198,-0.431 -0.403,-0.778 -0.399,-1.122c0.004,-0.344 0.164,-0.726 0.372,-1.004c0.066,-0.087 0.569,0.03 0.767,0.187c0.644,0.508 1.204,1.128 1.19,2.005c-0.006,0.331 -0.238,0.698 -0.468,0.96c-0.056,0.064 -0.532,-0.189 -0.776,-0.355c-0.227,-0.155 -0.403,-0.388 -0.686,-0.671Z" style="fill-rule:nonzero;"/><path d="M151.584,274.497c-1.345,0.37 -1.81,-0.717 -2.514,-1.364c-0.087,-0.081 0.064,-0.637 0.14,-0.646c0.604,-0.066 1.311,-0.246 1.8,-0.009c0.453,0.22 0.699,0.901 0.975,1.412c0.049,0.09 -0.203,0.344 -0.401,0.607Z" style="fill-rule:nonzero;"/><path d="M189.379,275.941c0.523,-0.423 1.07,-0.568 1.48,-0.03c0.348,0.455 0.69,0.952 0.874,1.487c0.178,0.517 -0.701,1.015 -1.308,0.777c-0.709,-0.277 -1.247,-0.666 -1.051,-1.56c0.036,-0.161 0.005,-0.336 0.005,-0.674Z" style="fill-rule:nonzero;"/><path d="M261.659,246.468c-0.182,0.368 -0.41,0.801 -0.729,0.885c-0.233,0.061 -0.733,-0.272 -0.857,-0.546c-0.343,-0.76 -0.914,-1.469 -0.716,-2.41c0.106,-0.509 0.397,-0.549 0.652,-0.231c0.564,0.705 1.048,1.474 1.65,2.302Z" style="fill-rule:nonzero;"/><path d="M95.867,244.43c0.396,0.283 0.726,0.456 1.013,0.684c0.424,0.335 0.662,0.73 0.269,1.267c-0.369,0.506 -0.682,0.365 -1.076,0.013c-0.309,-0.278 -0.674,-0.56 -1.062,-0.669c-0.689,-0.194 -0.987,-0.703 -0.692,-1.204c0.259,-0.44 0.934,-0.383 1.548,-0.091Z" style="fill-rule:nonzero;"/><path d="M123.131,251.48c0.215,0.407 0.431,0.644 0.646,0.882c-0.326,0.159 -0.642,0.421 -0.98,0.454c-0.643,0.063 -1.376,0.194 -1.766,-0.56c-0.14,-0.273 -0.348,-0.685 -0.241,-0.87c0.158,-0.272 0.58,-0.568 0.87,-0.548c0.498,0.033 0.981,0.302 1.471,0.642Z" style="fill-rule:nonzero;"/><path d="M154.811,229.991c-0.324,-0.437 -0.608,-0.769 -0.789,-1.149c-0.149,-0.314 -0.176,-0.686 -0.258,-1.031c0.419,0.004 0.902,-0.125 1.245,0.038c0.847,0.405 1.031,1.342 1.391,2.115c0.03,0.066 -0.308,0.436 -0.456,0.424c-0.356,-0.028 -0.699,-0.199 -1.133,-0.397Z" style="fill-rule:nonzero;"/><path d="M236.348,271.949c1.433,0.16 1.931,0.655 2.132,1.966c0.016,0.104 -0.029,0.313 -0.045,0.313c-0.695,-0.004 -1.401,0.169 -1.94,-0.567c-0.401,-0.549 -0.956,-0.963 -0.147,-1.712Z" style="fill-rule:nonzero;"/><path d="M153.962,286.218c0.169,0.629 0.03,1.163 -0.532,1.233c-0.344,0.043 -0.741,-0.31 -1.107,-0.5c-0.094,-0.049 -0.221,-0.148 -0.228,-0.233c-0.043,-0.54 -0.847,-1.001 -0.25,-1.581c0.324,-0.315 1.529,0.1 1.858,0.568c0.086,0.123 0.117,0.284 0.259,0.513Z" style="fill-rule:nonzero;"/><path d="M119.733,263.031c0.672,0.654 0.263,1.08 -0.164,1.32c-0.628,0.353 -2.052,-0.385 -2.137,-1.112c-0.033,-0.273 0.286,-0.818 0.496,-0.845c0.625,-0.081 1.359,-0.26 1.805,0.637Z" style="fill-rule:nonzero;"/><path d="M227.43,258.954c0,0.338 0.046,0.524 -0.009,0.672c-0.128,0.339 -0.305,0.659 -0.461,0.987c-0.312,-0.171 -0.722,-0.271 -0.911,-0.532c-0.297,-0.411 -0.501,-0.917 -0.627,-1.413c-0.045,-0.173 0.21,-0.539 0.413,-0.63c0.28,-0.127 0.703,-0.199 0.95,-0.071c0.281,0.144 0.436,0.534 0.645,0.987Z" style="fill-rule:nonzero;"/><path d="M219.191,242.731c0.551,0.324 1.057,0.508 1.472,0.816c0.545,0.404 0.423,0.972 0.124,1.475c-0.096,0.161 -0.353,0.335 -0.525,0.325c-0.854,-0.05 -1.843,-1.868 -1.482,-2.695c0.018,-0.042 0.214,-0.006 0.411,0.079Z" style="fill-rule:nonzero;"/><path d="M181.311,276.026c0.677,0.394 1.323,0.821 1.843,1.368c0.39,0.41 0.059,0.829 -0.532,0.94c-1.06,0.198 -1.552,-0.587 -2.022,-1.214c-0.318,-0.425 0.027,-0.905 0.711,-1.094Z" style="fill-rule:nonzero;"/><path d="M148.186,262.266c0.866,-0.314 1.683,-0.646 2.116,0.432c0.122,0.303 0.312,0.763 0.183,0.939c-0.179,0.243 -0.629,0.386 -0.966,0.392c-0.722,0.011 -1.374,-0.816 -1.333,-1.763Z" style="fill-rule:nonzero;"/><path d="M186.747,288.256c0.949,-0.195 1.712,-0.075 2.265,0.717c0.19,0.271 0.344,0.349 0.088,0.749c-0.192,0.301 -0.242,0.492 -0.637,0.497c-1.11,0.014 -1.534,-0.408 -1.716,-1.963Z" style="fill-rule:nonzero;"/><path d="M149.545,227.953c-0.46,0.049 -0.965,0.153 -1.182,-0.05c-0.452,-0.422 -0.817,-0.976 -1.084,-1.539c-0.146,-0.306 -0.127,-0.743 0.524,-0.723c0.987,0.03 1.538,0.642 1.742,2.312Z" style="fill-rule:nonzero;"/><path d="M283.487,203.237c-0.088,-0.719 0.075,-1.305 0.619,-1.301c0.362,0.003 0.897,0.498 1.035,0.886c0.172,0.488 0.097,1.11 -0.029,1.637c-0.066,0.273 -0.426,0.715 -0.802,0.118c-0.254,-0.404 -0.547,-0.781 -0.823,-1.34Z" style="fill-rule:nonzero;"/><path d="M141.816,280.357c-0.052,1.037 -0.724,1.205 -1.281,0.972c-0.456,-0.191 -0.785,-0.773 -1.056,-1.248c-0.051,-0.091 0.386,-0.609 0.678,-0.72c0.793,-0.3 1.188,0.376 1.659,0.996Z" style="fill-rule:nonzero;"/><path d="M215.879,269.825c0.113,0.573 0.23,0.974 0.324,1.381c0.003,0.012 -0.231,0.115 -0.353,0.113c-0.932,-0.015 -1.44,-0.712 -1.971,-1.313c-0.285,-0.322 0.057,-0.826 0.527,-0.859c0.562,-0.041 1.121,-0.063 1.473,0.678Z" style="fill-rule:nonzero;"/><path d="M219.022,280.442c0.782,-0.065 1.601,-0.307 2,0.504c0.193,0.392 0.153,0.899 0.219,1.354c-0.455,-0.051 -1.018,0.046 -1.339,-0.188c-0.493,-0.359 -1.157,-0.752 -0.88,-1.67Z" style="fill-rule:nonzero;"/><path d="M255.204,239.164c-0.26,0.198 -0.536,0.446 -0.594,0.403c-0.474,-0.356 -1.042,-0.694 -1.31,-1.186c-0.197,-0.362 0.013,-0.946 0.042,-1.432c0.346,0.181 0.677,0.468 1.043,0.524c1.04,0.159 0.901,0.906 0.819,1.691Z" style="fill-rule:nonzero;"/><path d="M237.537,255.471c-0.308,0.085 -0.534,0.064 -0.754,0.09c-0.543,0.064 -1.081,-0.046 -1.147,-0.617c-0.026,-0.223 0.532,-0.512 0.822,-0.773c0.083,-0.075 0.159,-0.225 0.238,-0.225c0.527,0.002 1.313,-0.169 1.526,0.101c0.406,0.516 -0.212,0.959 -0.685,1.424Z" style="fill-rule:nonzero;"/><path d="M221.4,229.651c0.755,0.584 1.142,1.22 0.914,2.072c-0.044,0.166 -0.43,0.414 -0.517,0.366c-0.414,-0.229 -1.028,-0.491 -1.105,-0.844c-0.127,-0.574 0.108,-1.228 0.191,-1.848c0.144,0.056 0.288,0.113 0.517,0.254Z" style="fill-rule:nonzero;"/><path d="M212.906,251.564c0.594,-0.084 1.109,-0.138 1.608,-0.07c0.504,0.069 0.796,0.454 0.655,0.948c-0.053,0.184 -0.443,0.338 -0.701,0.38c-0.385,0.063 -0.788,0.026 -1.183,0.014c-0.978,-0.029 -0.978,-0.033 -0.379,-1.272Z" style="fill-rule:nonzero;"/><path d="M207.131,237.805c-0.312,-0.324 -0.617,-0.527 -0.744,-0.81c-0.152,-0.337 -0.15,-0.743 -0.214,-1.12c0.413,0.058 0.875,0.019 1.225,0.199c0.366,0.188 0.728,0.538 0.896,0.907c0.118,0.258 -0.015,0.707 -0.172,0.997c-0.313,0.578 -0.561,-0.414 -0.991,-0.173Z" style="fill-rule:nonzero;"/><path d="M137.4,253.178c-1.256,0.158 -1.507,-0.729 -1.897,-1.414c-0.05,-0.087 0.111,-0.426 0.214,-0.445c0.407,-0.079 0.83,-0.078 1.247,-0.106c-0.093,0.746 1.386,1.007 0.436,1.965Z" style="fill-rule:nonzero;"/><path d="M228.449,279.678c0.039,-0.436 0.026,-0.904 0.127,-0.93c0.354,-0.091 0.885,-0.183 1.095,0.007c0.37,0.334 0.602,0.858 0.784,1.343c0.045,0.12 -0.35,0.584 -0.493,0.563c-0.399,-0.059 -0.779,-0.276 -1.15,-0.463c-0.144,-0.072 -0.243,-0.231 -0.363,-0.52Z" style="fill-rule:nonzero;"/><path d="M188.105,268.721c-0.201,-0.315 -0.273,-0.59 -0.445,-0.766c-0.312,-0.318 -0.55,-0.663 -0.047,-0.91c0.312,-0.154 0.75,-0.065 1.131,-0.052c0.082,0.003 0.198,0.133 0.23,0.228c0.148,0.441 0.273,0.891 0.405,1.337c-0.396,0.083 -0.792,0.165 -1.274,0.163Z" style="fill-rule:nonzero;"/><path d="M211.038,272.628c0.262,0.474 0.638,0.914 0.557,1.239c-0.075,0.299 -0.874,0.734 -0.953,0.663c-0.469,-0.422 -0.894,-0.937 -1.181,-1.498c-0.134,-0.262 0.944,-0.647 1.577,-0.404Z" style="fill-rule:nonzero;"/><path d="M279.835,217.761c-0.123,-0.35 -0.091,-0.654 -0.213,-0.87c-0.269,-0.475 0.204,-0.704 0.272,-1.058c0.343,0.1 0.935,0.131 0.985,0.312c0.167,0.608 0.316,1.327 0.129,1.89c-0.127,0.38 -0.768,0.225 -1.173,-0.274Z" style="fill-rule:nonzero;"/><path d="M254.354,228.802c0.32,-0.32 0.521,-0.617 0.8,-0.774c0.3,-0.169 0.83,-0.389 0.979,-0.261c0.279,0.24 0.487,0.724 0.462,1.089c-0.014,0.199 -0.546,0.448 -0.878,0.521c-0.544,0.119 -1.1,0.068 -1.363,-0.575Z" style="fill-rule:nonzero;"/><path d="M207.725,261.672c-0.141,-0.35 -0.535,-0.511 -0.085,-0.751c0.202,-0.108 0.608,-0.233 0.66,-0.161c0.395,0.545 0.739,1.13 1.039,1.733c0.015,0.03 -0.705,0.531 -0.762,0.477c-0.336,-0.321 -0.578,-0.742 -0.852,-1.298Z" style="fill-rule:nonzero;"/><path d="M264.122,262.011c0.531,-1.138 0.679,-1.193 0.981,-0.432c0.228,0.575 1.048,0.877 0.74,1.722c-0.161,0.44 -0.336,0.589 -0.645,0.271c-0.407,-0.418 -0.722,-0.923 -1.076,-1.561Z" style="fill-rule:nonzero;"/><path d="M248.749,234.578c0.197,0.425 0.309,0.766 0.421,1.107c-0.341,-0.003 -0.682,-0.003 -1.022,-0.015c-0.041,-0.001 -0.072,-0.094 -0.119,-0.109c-0.427,-0.138 -1.231,0.105 -1.056,-0.691c0.148,-0.674 0.837,-0.759 1.776,-0.292Z" style="fill-rule:nonzero;"/><path d="M262.848,226.764c-0.292,0.028 -0.51,-0.004 -0.703,-0.091c-0.358,-0.161 -0.702,-0.354 -1.051,-0.533c0.42,-0.307 0.616,-0.897 1.325,-0.843c0.576,0.045 0.931,0.22 1.019,0.794c0.056,0.369 -0.008,0.676 -0.59,0.673Z" style="fill-rule:nonzero;"/><path d="M131.284,277.3c-0.044,0.776 -0.452,1.207 -0.955,0.972c-0.457,-0.214 -0.737,-0.816 -1.064,-1.27c-0.019,-0.026 0.266,-0.381 0.359,-0.36c0.561,0.126 1.108,0.318 1.66,0.658Z" style="fill-rule:nonzero;"/><path d="M157.359,287.747c-0.544,-0.149 -1.038,-0.336 -1.447,-0.638c-0.155,-0.115 -0.22,-0.538 -0.133,-0.735c0.067,-0.15 0.494,-0.292 0.663,-0.217c0.471,0.21 0.907,0.517 1.311,0.841c0.045,0.037 -0.199,0.434 -0.394,0.749Z" style="fill-rule:nonzero;"/><path d="M193.032,225.065c0.185,0.79 -0.059,1.133 -0.801,0.885c-0.14,-0.047 -0.236,-0.225 -0.354,-0.341c-0.387,-0.381 -0.901,-0.851 -0.523,-1.366c0.594,-0.806 0.845,0.178 1.238,0.393c0.139,0.076 0.238,0.227 0.44,0.429Z" style="fill-rule:nonzero;"/><path d="M284.506,223.961c0.224,-1.029 0.772,-0.895 1.099,-0.371c0.257,0.411 0.201,1.025 0.234,1.551c0.003,0.048 -0.371,0.186 -0.558,0.167c-0.71,-0.075 -0.834,-0.574 -0.775,-1.347Z" style="fill-rule:nonzero;"/><path d="M272.191,244.77c0.003,0.708 -0.226,1.048 -0.879,0.595c-0.213,-0.147 -0.54,-0.237 -0.628,-0.436c-0.17,-0.383 -0.207,-0.825 -0.298,-1.242c0.378,0.138 0.776,0.237 1.127,0.426c0.233,0.125 0.398,0.377 0.678,0.657Z" style="fill-rule:nonzero;"/><path d="M100.963,244.09c-0.56,-0.777 0.047,-0.963 0.468,-1.081c0.482,-0.135 1.033,-0.052 1.271,0.481c0.068,0.153 -0.15,0.618 -0.296,0.648c-0.437,0.09 -0.903,0.035 -1.443,-0.048Z" style="fill-rule:nonzero;"/><path d="M233.885,239.589c-0.104,1.123 -0.808,0.632 -1.226,0.604c-0.282,-0.019 -0.542,-0.38 -0.812,-0.588c0.198,-0.232 0.359,-0.603 0.602,-0.667c0.535,-0.143 1.09,-0.071 1.436,0.651Z" style="fill-rule:nonzero;"/><path d="M231.082,262.266c-0.55,0.648 -0.938,0.085 -1.226,-0.1c-0.24,-0.154 -0.275,-0.64 -0.369,-0.988c-0.006,-0.025 0.251,-0.161 0.394,-0.18c0.904,-0.12 1.061,0.031 1.201,1.268Z" style="fill-rule:nonzero;"/><path d="M239.746,236.446c-0.308,-0.316 -0.762,-0.648 -0.713,-0.76c0.271,-0.618 0.892,-0.57 1.429,-0.469c0.078,0.014 0.129,0.652 0.031,0.949c-0.058,0.175 -0.431,0.247 -0.747,0.28Z" style="fill-rule:nonzero;"/><path d="M254.864,273.987c0.039,0.497 0.75,1.118 -0.228,1.269c-0.578,0.09 -0.989,-0.168 -1.036,-0.761c-0.086,-1.091 0.786,-0.389 1.264,-0.508Z" style="fill-rule:nonzero;"/><path d="M171.288,273.987c-0.29,0.255 -0.657,0.518 -1.045,0.551c-0.168,0.015 -0.43,-0.42 -0.548,-0.694c-0.065,-0.154 0.083,-0.572 0.127,-0.571c0.304,0.008 0.624,0.053 0.902,0.171c0.191,0.081 0.322,0.301 0.564,0.543Z" style="fill-rule:nonzero;"/><path d="M279.41,234.493c0.146,-0.34 0.292,-0.51 0.438,-0.68c0.247,0.223 0.566,0.406 0.72,0.682c0.14,0.25 0.101,0.6 0.141,0.907c-0.273,-0.087 -0.565,-0.138 -0.813,-0.271c-0.191,-0.103 -0.326,-0.309 -0.486,-0.638Z" style="fill-rule:nonzero;"/><path d="M195.41,260.567c-0.242,-0.071 -0.463,-0.201 -0.541,-0.39c-0.148,-0.359 -0.214,-0.753 -0.315,-1.132c0.19,0.016 0.481,-0.04 0.551,0.059c0.284,0.403 1.272,0.646 0.305,1.463Z" style="fill-rule:nonzero;"/><path d="M102.322,252.074c-0.468,0.085 -0.863,0.138 -1.23,0.06c-0.157,-0.033 -0.362,-0.341 -0.354,-0.515c0.008,-0.166 0.304,-0.478 0.406,-0.452c0.501,0.123 1.17,0.058 1.178,0.907Z" style="fill-rule:nonzero;"/><path d="M288.158,209.777c0.198,0.316 0.368,0.538 0.413,0.782c0.081,0.451 -0.166,0.64 -0.56,0.408c-0.278,-0.165 -0.572,-0.422 -0.69,-0.707c-0.102,-0.248 0.032,-0.594 0.062,-0.897c0.23,0.11 0.46,0.219 0.775,0.414Z" style="fill-rule:nonzero;"/><path d="M110.306,260.058c0.274,-0.009 0.517,0.019 0.642,0.155c0.245,0.266 0.425,0.593 0.632,0.894c-0.125,0.075 -0.314,0.244 -0.363,0.21c-0.425,-0.292 -0.824,-0.621 -1.231,-0.939c0.078,-0.079 0.156,-0.157 0.32,-0.32Z" style="fill-rule:nonzero;"/><path d="M92.13,235.257c-0.027,0.661 -0.206,1.231 -0.915,0.698c-0.227,-0.171 -0.407,-0.826 -0.284,-0.959c0.343,-0.37 0.793,-0.239 1.199,0.261Z" style="fill-rule:nonzero;"/><path d="M218.512,226.084c-0.111,0.229 -0.392,0.538 -0.487,0.489c-0.406,-0.211 -0.76,-0.524 -1.112,-0.824c-0.012,-0.01 0.262,-0.422 0.292,-0.408c0.418,0.195 0.818,0.432 1.307,0.743Z" style="fill-rule:nonzero;"/><path d="M135.956,220.478c-0.424,0.085 -0.766,0.114 -1.099,0.074c-0.179,-0.022 -0.437,-0.126 -0.492,-0.261c-0.072,-0.179 -0.054,-0.55 0.056,-0.614c0.212,-0.124 0.582,-0.203 0.768,-0.096c0.33,0.19 0.572,0.533 0.767,0.897Z" style="fill-rule:nonzero;"/><path d="M154.981,270.08c-0.316,-0.033 -0.617,-0.096 -0.761,-0.282c-0.201,-0.258 -0.284,-0.608 -0.417,-0.918c0.343,0.068 0.762,0.04 1.007,0.234c0.195,0.154 0.179,0.577 0.171,0.966Z" style="fill-rule:nonzero;"/><path d="M221.4,253.433c-0.487,0.56 -1.393,0.482 -1.363,-0.045c0.01,-0.185 0.508,-0.395 0.815,-0.482c0.104,-0.029 0.306,0.285 0.548,0.527Z" style="fill-rule:nonzero;"/><path d="M167.551,268.551c-0.368,-0.29 -0.651,-0.495 -0.934,-0.701c0.121,-0.134 0.242,-0.268 0.364,-0.403c0.331,0.39 0.664,0.779 0.99,1.174c0.006,0.007 -0.071,0.117 -0.098,0.112c-0.082,-0.015 -0.158,-0.062 -0.322,-0.182Z" style="fill-rule:nonzero;"/><path d="M109.881,249.101c-0.36,-0.076 -0.581,-0.116 -0.728,-0.243c-0.09,-0.077 -0.066,-0.286 -0.094,-0.436c0.443,-0 0.888,-0.018 1.327,0.019c0.069,0.006 0.201,0.346 0.158,0.391c-0.124,0.128 -0.323,0.185 -0.663,0.269Z" style="fill-rule:nonzero;"/><path d="M279.325,223.706c-0.073,0.243 -0.248,0.545 -0.386,0.529c-0.282,-0.033 -0.563,-0.211 -0.803,-0.385c-0.08,-0.058 -0.097,-0.381 -0.033,-0.426c0.425,-0.298 0.818,-0.218 1.222,0.282Z" style="fill-rule:nonzero;"/><path d="M165.513,220.478c-0.347,0.163 -0.61,0.24 -0.872,0.318c0.027,-0.296 0.001,-0.824 0.091,-0.845c0.345,-0.079 0.909,-0.325 0.781,0.527Z" style="fill-rule:nonzero;"/><path d="M178.168,230.756c0.34,0.138 0.51,0.277 0.68,0.416c-0.284,0.2 -0.568,0.4 -0.852,0.601c-0.056,-0.198 -0.147,-0.393 -0.156,-0.593c-0.006,-0.139 0.102,-0.283 0.328,-0.424Z" style="fill-rule:nonzero;"/><path d="M271.936,234.493c-0.227,-0.143 -0.356,-0.305 -0.324,-0.424c0.056,-0.213 0.21,-0.399 0.324,-0.596c0.113,0.197 0.267,0.383 0.324,0.596c0.031,0.119 -0.098,0.281 -0.324,0.424Z" style="fill-rule:nonzero;"/><path d="M138.759,267.447c0.357,0.074 0.56,0.124 0.725,0.231c0.107,0.069 0.159,0.222 0.235,0.338c-0.148,0.037 -0.322,0.142 -0.439,0.097c-0.281,-0.108 -0.536,-0.284 -0.798,-0.438c-0.018,-0.011 -0.021,-0.082 -0.005,-0.11c0.026,-0.046 0.073,-0.079 0.282,-0.118Z" style="fill-rule:nonzero;"/><path d="M134.682,267.107c-0.055,-0.224 0.06,-0.449 0.175,-0.673c0.153,0.152 0.305,0.304 0.457,0.457c-0.154,0.072 -0.308,0.144 -0.632,0.216Z" style="fill-rule:nonzero;"/><path d="M133.917,257.68c0.055,0.228 0.025,0.371 -0.005,0.514c-0.073,-0.02 -0.211,-0.052 -0.21,-0.058c0.035,-0.182 0.084,-0.361 0.215,-0.456Z" style="fill-rule:nonzero;"/><path d="M136.72,254.537c0.113,0.113 0.057,0.227 0,0.34c-0.056,-0.113 -0.113,-0.227 0,-0.34Z" style="fill-rule:nonzero;"/><path d="M195.919,129.599c0.387,0.019 0.94,-0.381 0.935,0.34c-0.002,0.335 0.024,0.673 -0.005,1.006c-0.077,0.863 -0.574,1.474 -1.249,1.958c-0.064,0.046 -0.293,0.003 -0.302,-0.034c-0.179,-0.736 -0.366,-1.461 0.171,-2.167c0.208,-0.274 0.249,-0.675 0.45,-1.103Z" style="fill-rule:nonzero;"/><path d="M144.194,162.468c-0.462,0.113 -0.748,0.306 -1.047,0.328c-2.771,0.197 -4.676,-1.24 -6.061,-3.434c-0.606,-0.959 -1.01,-2.07 -1.359,-3.159c-0.249,-0.776 -0.36,-1.634 -0.337,-2.45c0.025,-0.912 0.08,-1.834 0.211,-2.756c0.229,-1.605 0.529,-3.175 1.151,-4.635c0.738,-1.73 1.623,-3.415 2.614,-5.014c1.013,-1.635 2.76,-1.435 4.341,-1.237c0.8,0.1 1.574,0.551 2.316,0.929c1.543,0.788 1.959,2.381 2.581,3.809c0.376,0.861 0.65,1.766 1.033,2.623c0.908,2.031 0.869,4.115 0.433,6.233c-0.032,0.156 -0.14,0.342 -0.089,0.462c0.743,1.77 -0.454,3.141 -1.086,4.531c-0.736,1.619 -2.021,2.915 -3.736,3.643c-0.24,0.102 -0.529,0.088 -0.965,0.127Z" style="fill-rule:nonzero;"/><path d="M244.077,151.257c0.204,2.814 -0.82,5.229 -1.464,7.707c-0.178,0.683 -0.684,1.336 -1.179,1.873c-1.791,1.942 -4.272,1.73 -6.148,-0.13c-1.88,-1.863 -2.691,-4.228 -3.363,-6.585c-0.536,-1.877 0.132,-3.887 0.644,-5.785c0.473,-1.748 1.684,-3.059 2.743,-4.459c1.117,-1.476 2.278,-1.483 4.608,-0.65c2.48,0.887 4.135,3.502 4.159,6.164c0.004,0.565 0,1.13 0,1.865Z" style="fill-rule:nonzero;"/><path d="M195.75,323.419c-1.332,0.084 -2.608,0.238 -3.697,-0.595c-0.216,-0.165 -0.605,-0.339 -0.607,-0.511c-0.011,-1.429 -0.822,-2.861 -0.023,-4.286c0.067,-0.12 0.198,-0.272 0.308,-0.279c0.117,-0.007 0.321,0.116 0.354,0.224c0.249,0.802 0.562,1.603 0.661,2.427c0.079,0.656 0.272,1.049 0.932,1.11c0.304,0.028 0.704,0.082 0.898,-0.075c0.18,-0.147 0.276,-0.615 0.179,-0.845c-0.384,-0.914 -0.835,-1.802 -1.307,-2.675c-0.289,-0.532 -1.424,-0.791 -2.028,-0.526c-0.095,0.042 -0.19,0.092 -0.29,0.116c-0.473,0.11 -0.779,0.792 -1.395,0.41c0.308,-0.433 0.548,-0.945 0.938,-1.282c1.315,-1.136 2.126,-1.198 3.718,-0.252c1.333,0.792 2.336,1.885 2.811,3.424c0.588,1.905 0.349,2.587 -1.452,3.615Z" style="fill-rule:nonzero;"/><path d="M193.541,336.159c1.501,-0.134 2.481,0.638 3.308,1.663c0.369,0.458 0.787,0.918 1.004,1.45c0.559,1.373 0.104,3.303 -0.836,3.937c-1.437,0.968 -3.4,0.865 -4.728,-0.335c-1.174,-1.061 -1.392,-2.334 -1.309,-3.972c0.095,-1.868 1.147,-2.25 2.561,-2.743m1.274,5.861c0.75,0.34 1.285,-0.119 1.601,-0.636c0.276,-0.453 0.174,-1.019 -0.299,-1.488c-0.576,-0.572 -1.024,-1.271 -1.575,-1.872c-0.423,-0.461 -0.931,-0.37 -1.25,0.112c-0.252,0.381 -0.448,0.855 -0.497,1.306c-0.144,1.353 0.878,1.876 2.02,2.578Z" style="fill-rule:nonzero;"/><path d="M192.862,347.031c0.79,-0.069 1.627,-0.269 1.628,0.887c-0,0.077 0.237,0.244 0.306,0.217c1.186,-0.455 2.151,0.036 2.876,0.861c0.824,0.939 0.65,2.168 0.444,3.288c-0.219,1.183 -1.429,1.721 -2.253,1.69c-1.001,-0.038 -2.337,-0.191 -2.955,-1.321c-0.474,-0.865 -0.899,-1.795 -1.117,-2.748c-0.242,-1.058 -0.076,-2.12 1.071,-2.874m2.293,3.142c-0.309,-0.144 -0.618,-0.288 -0.927,-0.432c0.054,0.343 0.011,0.752 0.189,1.009c0.192,0.278 0.59,0.414 0.898,0.612c0.003,-0.339 0.006,-0.679 -0.16,-1.189Z" style="fill-rule:nonzero;"/><path d="M197.193,329.619c0.068,0.443 0.249,0.748 0.182,0.982c-0.267,0.919 -0.499,1.908 -1.437,2.407c-1.362,0.724 -4.086,0.521 -5.145,-1.153c-0.283,-0.448 -0.474,-0.943 -0.086,-1.573c0.487,-0.788 0.748,-1.715 1.103,-2.584c0.449,-1.103 1.633,-1.578 2.744,-0.821c1,0.681 1.769,1.702 2.639,2.742m-2.378,0.17c-0.048,-0.726 -0.609,-1.069 -1.108,-0.796c-0.425,0.233 -0.768,0.914 -0.819,1.428c-0.036,0.366 0.269,1.078 0.886,1.019c0.557,-0.054 1.091,-0.354 1.635,-0.546c-0.141,-0.312 -0.283,-0.623 -0.594,-1.105Z" style="fill-rule:nonzero;"/></g><path d="M118.824,11.495c-14.045,5.301 -20.384,9.715 -32.505,17.395c-42.585,26.981 -59.07,58.052 -76.853,104.097c-5.798,15.014 -4.318,39.279 -2.591,54.566c0.607,5.369 0.556,13.455 1.258,18.811c0.411,3.144 3.848,16.142 5.049,20.587c6.056,22.404 14.547,41.634 29.663,59.644c39.783,47.4 113.51,80.906 176.778,63.993l0.117,-0.033c4.494,-1.344 5.354,-1.785 8.257,-2.643c4.201,-1.241 8.294,-2.825 12.386,-4.389c13.077,-5 28.798,-13.357 40.454,-20.615c23.703,-14.759 45.232,-42.338 59.665,-72.49c14.414,-30.113 21.702,-62.751 17.443,-87.598c-0.149,-32.931 -21.041,-75.712 -41.569,-99.616c-10.018,-11.665 -23.755,-19.542 -36,-28.842c-3.019,-2.292 -9.909,-6.841 -17.405,-11.477c-10.214,-6.319 -21.562,-12.741 -25.947,-14.116c-27.056,-8.478 -54.683,-9.253 -82.552,-4.814c-7.158,1.14 -14.131,3.24 -21.228,4.71c-1.754,0.364 -6.751,0.765 -10.223,1.459c-1.753,0.35 -3.218,0.858 -4.197,1.371Zm234.952,150.929c-0.316,-31.996 -20.666,-73.338 -40.561,-96.505c-9.827,-11.443 -23.347,-19.116 -35.359,-28.238c-2.961,-2.249 -9.724,-6.705 -17.076,-11.253c-9.856,-6.096 -20.771,-12.357 -25.002,-13.683c-26.432,-8.283 -53.424,-9.012 -80.65,-4.675c-7.095,1.13 -14.005,3.218 -21.039,4.675c-2.513,0.521 -11.661,1.122 -13.51,2.54l-1.283,0.488c-0.896,0.345 -1.76,0.687 -2.596,1.027l-0.053,-0.138l0.03,0.084l0.021,0.055c-11.307,4.594 -17.394,8.794 -28.149,15.608c-41.727,26.438 -57.771,56.963 -75.196,102.079c-5.588,14.471 -4.002,37.864 -2.337,52.598c0.604,5.347 0.55,13.402 1.248,18.738c0.401,3.061 3.771,15.711 4.941,20.04c5.892,21.8 14.123,40.528 28.831,58.052c38.837,46.273 110.748,79.157 172.51,62.647l1.529,-0.465c3.22,-0.998 4.197,-1.43 6.741,-2.182c4.097,-1.21 8.088,-2.76 12.078,-4.285c12.848,-4.913 28.289,-13.129 39.741,-20.26c46.228,-28.786 83.68,-107.82 75.145,-156.193l-0.004,-0.754Zm-237.216,-146.043c0.01,0.041 0.022,0.081 0.034,0.12c0.012,0.04 0.025,0.079 0.038,0.118l-0.072,-0.238Zm-0.043,-0.167l0.036,0.14l-0.051,-0.213l0.015,0.073Zm-0.088,-0.555l0.018,0.16l-0.023,-0.236l0.005,0.076Zm-0.008,-0.634l-0,0.508c-0.011,-0.17 -0.011,-0.34 0,-0.508Zm0.028,-0.289c-0.011,0.084 -0.02,0.169 -0.026,0.254l0.068,-0.505l-0.042,0.251Zm0.178,-0.768l-0.13,0.484c0.033,-0.164 0.077,-0.326 0.13,-0.484Zm0.1,-0.271c-0.015,0.038 -0.03,0.076 -0.045,0.114c-0.014,0.038 -0.028,0.077 -0.041,0.116l0.086,-0.23Zm0.066,-0.151l-0.057,0.132l0.091,-0.203l-0.034,0.071Zm0.17,-0.329c-0.02,0.034 -0.039,0.069 -0.058,0.104c-0.018,0.034 -0.036,0.069 -0.054,0.105l0.112,-0.209Zm0.083,-0.14l-0.063,0.106l0.109,-0.176l-0.046,0.07Zm0.215,-0.311c-0.024,0.032 -0.048,0.064 -0.071,0.096c-0.023,0.032 -0.045,0.065 -0.067,0.098l0.138,-0.194Zm0.096,-0.123l-0.072,0.092l0.138,-0.169l-0.066,0.077Zm0.264,-0.291c-0.03,0.029 -0.059,0.06 -0.087,0.09c-0.029,0.031 -0.057,0.062 -0.084,0.093l0.171,-0.183Zm0.102,-0.101l-0.084,0.082l0.183,-0.171l-0.099,0.089Zm0.314,-0.266c-0.036,0.027 -0.07,0.055 -0.105,0.083c-0.034,0.028 -0.068,0.057 -0.101,0.086l0.206,-0.169Zm0.489,-0.325l-0.471,0.311c0.149,-0.114 0.306,-0.217 0.471,-0.311Z"/></svg>