<?xml version="1.0" standalone="no"?>
<!DOCTYPE svg PUBLIC "-//W3C//DTD SVG 20010904//EN"
 "http://www.w3.org/TR/2001/REC-SVG-20010904/DTD/svg10.dtd">
<svg version="1.0" xmlns="http://www.w3.org/2000/svg"
 width="233.000000pt" height="233.000000pt" viewBox="0 0 233.000000 233.000000"
 preserveAspectRatio="xMidYMid meet">

<g transform="translate(0.000000,233.000000) scale(0.100000,-0.100000)"
fill="#000000" stroke="none">
<path d="M1015 1897 c-152 -51 -331 -191 -409 -321 -32 -53 -86 -199 -86 -232
0 -16 -79 -124 -91 -124 -16 0 -61 -71 -70 -110 -13 -55 4 -112 45 -157 32
-36 70 -46 106 -30 12 6 24 -9 50 -65 41 -84 108 -189 153 -237 34 -35 164
-126 197 -136 11 -4 20 -9 20 -13 -1 -4 -24 -25 -52 -47 -74 -58 -162 -151
-209 -220 -37 -54 -109 -186 -109 -200 0 -3 53 -5 119 -5 114 0 119 1 126 23
l8 22 4 -22 4 -23 350 0 349 0 1 38 2 37 10 -37 11 -38 128 0 c70 0 128 1 128
3 0 8 -61 179 -78 217 -22 52 -121 180 -176 228 -41 36 -63 40 -73 15 -9 -23
-63 -71 -93 -81 -21 -8 -31 -5 -53 14 -32 27 -33 30 -9 37 163 47 339 139 387
202 57 75 105 219 101 304 -1 29 3 34 33 45 51 17 74 55 79 129 3 53 1 65 -18
85 -11 12 -26 22 -33 22 -13 0 -49 55 -52 80 -23 166 -46 273 -67 315 -27 53
-92 125 -140 157 -29 20 -107 57 -173 84 -119 47 -121 48 -250 51 -89 2 -143
-1 -170 -10z m360 -39 c224 -75 324 -170 367 -347 25 -105 24 -125 -5 -117
-12 3 -66 8 -120 12 -116 8 -121 23 -6 18 78 -3 81 -2 64 16 -30 33 -195 45
-236 17 -12 -9 -27 -13 -33 -11 -7 3 -21 -4 -31 -16 -14 -15 -15 -20 -4 -20 8
0 -4 -9 -26 -19 -36 -16 -45 -16 -94 -4 -48 13 -59 13 -95 -1 -22 -9 -44 -12
-50 -7 -28 21 -118 41 -194 42 -45 0 -82 5 -82 10 0 12 189 8 196 -3 3 -4 10
-8 15 -8 19 0 -3 20 -37 35 -22 9 -75 15 -148 16 -98 1 -118 -2 -156 -21 -29
-15 -39 -24 -30 -30 16 -10 2 -18 -49 -26 -24 -4 -51 -16 -62 -27 -16 -18 -19
-18 -19 -4 0 23 56 162 86 213 34 59 146 170 218 216 109 70 164 91 256 99
116 9 170 2 275 -33z m-582 -435 c-7 -2 -21 -2 -30 0 -10 3 -4 5 12 5 17 0 24
-2 18 -5z m-76 -9 c-3 -3 -12 -4 -19 -1 -8 3 -5 6 6 6 11 1 17 -2 13 -5z m356
-49 c40 -14 47 -21 47 -43 0 -74 -58 -189 -107 -211 -15 -7 -75 -15 -134 -18
-99 -5 -110 -4 -162 20 -30 14 -63 36 -71 50 -24 36 -43 134 -30 154 18 28 61
56 101 64 66 14 302 3 356 -16z m652 -3 c39 -7 40 -8 43 -52 4 -64 -17 -120
-54 -145 -42 -28 -175 -59 -221 -52 -41 7 -107 51 -137 90 -20 27 -39 108 -30
131 5 13 50 29 114 40 31 6 230 -3 285 -12z m-437 -62 c10 -97 29 -127 118
-186 46 -31 62 -36 111 -35 88 0 218 39 238 71 3 5 11 10 16 10 7 0 10 -54 7
-157 -3 -152 -5 -160 -35 -225 -71 -151 -126 -199 -323 -282 -102 -43 -115
-46 -197 -46 -113 0 -201 15 -283 47 -79 31 -175 98 -225 155 -47 56 -138 205
-133 220 2 6 -3 19 -13 29 -19 19 -39 100 -39 156 0 29 -3 33 -14 24 -10 -8
-11 -22 -5 -54 13 -68 11 -85 -12 -92 -35 -11 -67 3 -94 42 -48 72 -26 215 37
237 22 8 32 6 48 -9 11 -10 20 -13 20 -7 0 6 10 28 22 49 l23 37 7 -43 c15
-86 99 -156 219 -181 63 -14 210 1 261 27 43 21 88 107 103 195 6 40 21 47
100 44 35 -1 40 -4 43 -26z m596 -112 c21 -30 20 -74 -3 -124 -17 -37 -53 -74
-73 -74 -5 0 -8 20 -8 45 0 25 4 45 10 45 13 0 60 41 60 53 0 5 -16 -1 -35
-13 -33 -20 -35 -21 -37 -3 -2 33 3 68 14 80 16 20 55 15 72 -9z m-746 -755
c50 -3 92 -9 92 -13 0 -9 -72 -80 -80 -80 -19 1 -126 70 -139 89 -15 24 -15
24 9 18 14 -4 67 -10 118 -14z m174 -43 l50 -39 39 19 c21 11 41 20 44 20 7 0
-83 -172 -126 -239 l-34 -54 -3 129 c-1 71 -7 133 -12 138 -7 7 -10 4 -10 -8
0 -12 -5 -16 -14 -13 -10 4 -13 1 -9 -9 3 -7 9 -14 14 -14 5 0 8 -36 8 -79 -1
-64 -4 -79 -15 -74 -8 3 -14 0 -14 -6 0 -6 7 -11 15 -11 10 0 15 -10 15 -30 0
-16 -2 -30 -4 -30 -2 0 -21 24 -42 53 -60 83 -115 159 -146 200 -16 20 -26 37
-22 37 4 0 29 -13 56 -30 26 -16 52 -30 57 -30 12 0 91 87 91 100 0 17 10 12
62 -30z"/>
<path d="M911 1314 c-17 -60 14 -103 55 -76 37 24 20 112 -22 112 -18 0 -25
-8 -33 -36z"/>
<path d="M1459 1316 c-14 -30 -5 -72 17 -80 22 -8 31 0 39 34 13 57 -34 95
-56 46z"/>
<path d="M1203 1203 c9 -2 25 -2 35 0 9 3 1 5 -18 5 -19 0 -27 -2 -17 -5z"/>
<path d="M1180 1168 c-56 -17 -19 -20 41 -4 39 11 46 15 24 14 -16 0 -46 -4
-65 -10z"/>
<path d="M1248 1153 c6 -2 18 -2 25 0 6 3 1 5 -13 5 -14 0 -19 -2 -12 -5z"/>
<path d="M460 1106 c0 -2 8 -10 18 -17 15 -13 16 -12 3 4 -13 16 -21 21 -21
13z"/>
<path d="M1375 1085 c4 -11 12 -32 18 -47 9 -22 8 -31 -8 -47 -18 -21 -11 -26
19 -15 25 10 20 65 -10 99 -18 21 -24 24 -19 10z"/>
<path d="M1052 1068 c-15 -15 -15 -61 0 -76 17 -17 33 -15 18 3 -8 9 -10 29
-7 50 6 39 6 40 -11 23z"/>
<path d="M465 1050 c3 -5 11 -10 16 -10 6 0 7 5 4 10 -3 6 -11 10 -16 10 -6 0
-7 -4 -4 -10z"/>
<path d="M1114 959 c59 -47 173 -48 224 -3 l27 23 -63 -20 c-81 -24 -119 -24
-160 1 -43 26 -62 26 -28 -1z"/>
<path d="M945 805 c42 -33 307 -88 350 -71 38 14 6 23 -97 29 -101 5 -148 15
-253 52 l-20 7 20 -17z"/>
</g>
</svg>
