<?xml version="1.0" encoding="UTF-8"?>
<svg width="100px" height="21px" viewBox="0 0 100 21" version="1.1" xmlns="http://www.w3.org/2000/svg" xmlns:xlink="http://www.w3.org/1999/xlink">
    <title>title</title>
    <g id="Page-1-Copy" stroke="none" stroke-width="1" fill="none" fill-rule="evenodd">
        <g id="Mobile-Copy" transform="translate(-20.000000, -28.000000)" fill="#E48811" fill-rule="nonzero">
            <path d="M25.152,48.28 C26.664,48.28 27.8166667,47.8506667 28.61,46.992 C29.4033333,46.1333333 29.8,44.9013333 29.8,43.296 C29.8,42.064 29.5573333,40.9906667 29.072,40.076 C28.5866667,39.1613333 27.7,38.144 26.412,37.024 C25.404,36.1466667 24.7086667,35.4 24.326,34.784 C23.9433333,34.168 23.752,33.5053333 23.752,32.796 C23.752,31.5453333 24.2653333,30.92 25.292,30.92 C25.796,30.92 26.1786667,31.074 26.44,31.382 C26.7013333,31.69 26.832,32.18 26.832,32.852 L26.832,32.852 L26.832,33.86 L29.744,33.86 L29.744,33.048 C29.744,31.4613333 29.366,30.2433333 28.61,29.394 C27.854,28.5446667 26.7386667,28.12 25.264,28.12 C23.7706667,28.12 22.632,28.5446667 21.848,29.394 C21.064,30.2433333 20.672,31.4426667 20.672,32.992 C20.672,34.1306667 20.924,35.1526667 21.428,36.058 C21.932,36.9633333 22.8186667,37.976 24.088,39.096 C25.096,39.9733333 25.7866667,40.7246667 26.16,41.35 C26.5333333,41.9753333 26.72,42.6986667 26.72,43.52 C26.72,44.2106667 26.5846667,44.71 26.314,45.018 C26.0433333,45.326 25.6466667,45.48 25.124,45.48 C24.06,45.48 23.528,44.8453333 23.528,43.576 L23.528,43.576 L23.528,42.232 L20.616,42.232 L20.616,43.352 C20.616,44.9386667 20.9986667,46.1566667 21.764,47.006 C22.5293333,47.8553333 23.6586667,48.28 25.152,48.28 Z M39.9584,48 L39.9584,45.2 L34.6384,45.2 L34.6384,39.18 L38.8664,39.18 L38.8664,36.38 L34.6384,36.38 L34.6384,31.2 L39.9584,31.2 L39.9584,28.4 L31.5584,28.4 L31.5584,48 L39.9584,48 Z M49.8648,48 L49.8648,45.2 L44.7968,45.2 L44.7968,28.4 L41.7168,28.4 L41.7168,48 L49.8648,48 Z M54.4232,48 L54.4232,28.4 L51.3432,28.4 L51.3432,48 L54.4232,48 Z M59.4576,48 L59.4576,33.692 L59.5136,33.692 L63.2096,48 L66.3736,48 L66.3736,28.4 L63.6296,28.4 L63.6296,40.132 L63.5736,40.132 L60.5776,28.4 L56.7136,28.4 L56.7136,48 L59.4576,48 Z M73.116,48.28 C74.628,48.28 75.7853333,47.8506667 76.588,46.992 C77.3906667,46.1333333 77.792,44.92 77.792,43.352 L77.792,43.352 L77.792,33.048 C77.792,31.48 77.3906667,30.2666667 76.588,29.408 C75.7853333,28.5493333 74.628,28.12 73.116,28.12 C71.604,28.12 70.4466667,28.5493333 69.644,29.408 C68.8413333,30.2666667 68.44,31.48 68.44,33.048 L68.44,33.048 L68.44,43.352 C68.44,44.92 68.8413333,46.1333333 69.644,46.992 C70.4466667,47.8506667 71.604,48.28 73.116,48.28 Z M73.116,45.48 C72.052,45.48 71.52,44.836 71.52,43.548 L71.52,43.548 L71.52,32.852 C71.52,31.564 72.052,30.92 73.116,30.92 C74.18,30.92 74.712,31.564 74.712,32.852 L74.712,32.852 L74.712,43.548 C74.712,44.836 74.18,45.48 73.116,45.48 Z M82.6584,48 L82.6584,45.032 L79.6904,45.032 L79.6904,48 L82.6584,48 Z M89.1208,48.28 C90.5954667,48.28 91.7201333,47.86 92.4948,47.02 C93.2694667,46.18 93.6568,44.9946667 93.6568,43.464 L93.6568,43.464 L93.6568,40.692 L90.7448,40.692 L90.7448,43.688 C90.7448,44.8826667 90.2314667,45.48 89.2048,45.48 C88.1781333,45.48 87.6648,44.8826667 87.6648,43.688 L87.6648,43.688 L87.6648,32.74 C87.6648,31.5266667 88.1781333,30.92 89.2048,30.92 C90.2314667,30.92 90.7448,31.5266667 90.7448,32.74 L90.7448,32.74 L90.7448,35.008 L93.6568,35.008 L93.6568,32.936 C93.6568,31.4053333 93.2694667,30.22 92.4948,29.38 C91.7201333,28.54 90.5954667,28.12 89.1208,28.12 C87.6461333,28.12 86.5214667,28.54 85.7468,29.38 C84.9721333,30.22 84.5848,31.4053333 84.5848,32.936 L84.5848,32.936 L84.5848,43.464 C84.5848,44.9946667 84.9721333,46.18 85.7468,47.02 C86.5214667,47.86 87.6461333,48.28 89.1208,48.28 Z M100.0072,48.28 C101.5192,48.28 102.676533,47.8506667 103.4792,46.992 C104.281867,46.1333333 104.6832,44.92 104.6832,43.352 L104.6832,43.352 L104.6832,33.048 C104.6832,31.48 104.281867,30.2666667 103.4792,29.408 C102.676533,28.5493333 101.5192,28.12 100.0072,28.12 C98.4952,28.12 97.3378667,28.5493333 96.5352,29.408 C95.7325333,30.2666667 95.3312,31.48 95.3312,33.048 L95.3312,33.048 L95.3312,43.352 C95.3312,44.92 95.7325333,46.1333333 96.5352,46.992 C97.3378667,47.8506667 98.4952,48.28 100.0072,48.28 Z M100.0072,45.48 C98.9432,45.48 98.4112,44.836 98.4112,43.548 L98.4112,43.548 L98.4112,32.852 C98.4112,31.564 98.9432,30.92 100.0072,30.92 C101.0712,30.92 101.6032,31.564 101.6032,32.852 L101.6032,32.852 L101.6032,43.548 C101.6032,44.836 101.0712,45.48 100.0072,45.48 Z M109.4376,48 L109.4376,33.16 L109.4936,33.16 L111.7336,48 L114.3096,48 L116.5496,33.16 L116.6056,33.16 L116.6056,48 L119.5176,48 L119.5176,28.4 L115.1216,28.4 L113.1616,42.428 L113.1056,42.428 L111.1456,28.4 L106.7496,28.4 L106.7496,48 L109.4376,48 Z" id="title"></path>
        </g>
    </g>
</svg>